<svg width="215" height="37" viewBox="0 0 215 37" fill="none" xmlns="http://www.w3.org/2000/svg">
<path d="M31.0736 28.1768C30.5319 28.7957 29.629 29.131 28.4162 29.131H16.1412L14.0513 22.0649L26.3262 22.0651C27.5647 22.0651 28.6226 22.4004 29.5772 23.0708C30.5059 23.7155 31.1254 24.5665 31.4092 25.5981C31.7187 26.6295 31.5898 27.4806 31.0736 28.1768ZM38.8081 26.0427C38.0495 23.4878 36.5833 21.3634 34.4094 19.6697C32.2872 17.9759 29.7232 16.9425 26.7432 16.5693C17.2735 16.5693 5.50741 16.686 4.48511 16.686L10.1669 36.0901H30.8449C34.0959 36.0901 36.4372 35.1428 37.8677 33.2195C39.3765 31.3247 39.6817 28.9422 38.8081 26.0427Z" fill="#000000"/>
<path d="M51.3645 29.1775L49.3429 22.1158H63.8038L61.8224 15.2029H47.3574L45.3478 8.19338H62.2767L60.295 1.27637H35.4688L45.4523 36.0904H70.2788L68.2973 29.1775H51.3645Z" fill="#000000"/>
<path d="M119.045 1.27637L127.047 29.1775L129.06 32.632H127.087L108.041 1.27637H92.4827L100.485 29.1775L102.494 32.632H100.525L81.4741 1.27637H65.928L75.9117 36.0904H83.8095L75.8072 8.19338L73.8061 4.73478H75.7756L94.818 36.0904H110.372L102.374 8.19338L102.355 8.16102L102.296 7.95659L100.55 5.04832L100.368 4.73478H102.342L121.38 36.0904H136.93L126.947 1.27637H119.045Z" fill="#000000"/>
<path d="M156.925 29.668C150.357 29.668 145.82 25.3715 143.895 18.6595C141.981 11.9916 144.059 7.69517 150.623 7.69517C157.186 7.69517 161.679 11.9916 163.588 18.6595C165.514 25.3715 163.488 29.668 156.925 29.668ZM148.641 0.782227C137.584 0.782227 133.091 8.53515 135.997 18.6595C138.911 28.8321 147.849 36.585 158.906 36.585C169.915 36.585 174.404 28.8321 171.486 18.6595C168.584 8.53515 159.646 0.782227 148.641 0.782227Z" fill="#000000"/>
<path d="M199.382 36.0904H214.932L204.949 1.27637H197.047L205.049 29.1775L207.068 32.6318H205.094L186.042 1.27637H170.496L180.48 36.0904H188.373L180.375 8.19338L178.363 4.73479H180.336L199.382 36.0904Z" fill="#000000"/>
<path d="M12.2386 15.2022L10.1745 8.21354H20.4501C21.6628 8.21354 22.7207 8.54882 23.6494 9.21939C24.5525 9.86414 25.1718 10.6893 25.4813 11.7208C25.7911 12.7523 25.6618 13.6032 25.146 14.248C24.6042 14.8927 23.7269 15.2022 22.5141 15.2022H12.2386ZM13.0512 18.6834C13.0512 18.6834 24.0637 18.5784 27.1485 18.5784C29.4451 18.1136 31.0444 17.1582 31.9733 15.7378C32.9021 14.3175 33.0572 12.5615 32.4377 10.4696C31.6639 7.88727 30.0124 5.69236 27.4581 3.93636C24.9297 2.18019 22.04 1.30219 18.789 1.30219H18.015L0 1.27637L4.96738 18.3336L13.0512 18.6834Z" fill="#000000"/>
</svg>
