<svg width="187" height="53" viewBox="0 0 187 53" fill="none" xmlns="http://www.w3.org/2000/svg">
<path d="M13.2471 52.3732C14.2866 44.7918 14.4956 33.1913 13.6594 29.4884C13.4075 28.3731 13.2278 27.4312 13.26 27.3953C13.3424 27.3034 26.0144 40.0196 26.1035 40.2836C26.1437 40.4025 23.2317 43.4321 19.6324 47.0159C13.1734 53.4471 13.0903 53.5168 13.2471 52.3732ZM5.05521 45.5251C2.33205 42.7936 0.104004 40.4222 0.104004 40.2554C0.104004 40.0887 2.28748 37.7834 4.95617 35.1326C7.62486 32.4818 10.0001 30.0297 10.2344 29.6834C10.9052 28.6921 11.5945 28.8875 11.846 30.1401C12.1796 31.8016 12.1001 42.5878 11.7397 44.5518C11.5643 45.5077 11.3369 46.7799 11.2344 47.3789C11.1318 47.9778 10.9375 48.4948 10.8944 48.6557C10.8588 48.7882 10.7551 49.1459 10.6163 49.4968C10.4766 49.8497 10.4142 50.2395 10.2695 50.329C10.1248 50.4184 7.77838 48.2566 5.05521 45.5251ZM39.6333 39.9893C39.5569 39.7901 39.5284 33.8263 39.57 26.7364L39.6455 13.8456L43.4838 13.7647L47.3221 13.6839V17.603C47.3221 19.7585 47.4397 21.5221 47.5835 21.5221C47.7273 21.5221 49.6088 19.7623 51.7647 17.6114L55.6845 13.7007H60.6983H65.7121L59.0542 20.3634L52.3962 27.0261L59.0542 33.6887L65.7121 40.3514H60.7527H55.7932L51.7922 36.4577C49.5917 34.3161 47.6857 32.6292 47.5567 32.7089C47.4276 32.7887 47.3221 34.5408 47.3221 36.6026V40.3514H43.5471C40.7944 40.3514 39.7346 40.2534 39.6333 39.9893ZM66.7308 27.0295V13.7007H77.449H88.1672V16.7424V19.784H81.3597H74.5521V21.8118V23.8396H80.2009H85.8497V26.7364V29.6332H80.2009H74.5521V31.9506V34.2681H81.9492H89.3462L89.2636 37.2373L89.1811 40.2066L77.9559 40.2824L66.7308 40.3582V27.0295ZM91.064 27.0261V13.7007H94.9709H98.8779L98.954 23.7672L99.0302 33.8336L105.62 33.9114L112.211 33.9893V37.1704V40.3514H101.637H91.064V27.0261ZM114.239 27.0261V13.7007H118.149H122.06V23.8396V33.9784L128.505 34.0127C132.05 34.0316 135.049 34.0316 135.168 34.0127C135.287 33.9939 135.385 35.4124 135.385 37.1649V40.3514H124.812H114.239V27.0261ZM137.413 27.0261V13.7007H148.131H158.849V16.737V19.7734L152.114 19.8511L145.379 19.9289V21.8118V23.6947L150.883 23.8396L156.387 23.9844L156.47 26.8088L156.553 29.6332H150.894H145.234V31.9507V34.2681H152.457H159.679L159.771 37.0265C159.822 38.5437 159.82 39.9124 159.767 40.0682C159.706 40.2461 155.532 40.3514 148.542 40.3514H137.413V27.0261ZM161.746 27.0019V13.6523L169.64 13.7616C177.083 13.8647 177.631 13.9094 179.237 14.545C182.808 15.9577 184.625 18.605 184.625 22.3912C184.625 25.1975 183.838 26.9626 181.747 28.8422C180.909 29.5957 180.287 30.3767 180.364 30.578C180.441 30.7792 181.821 33.0279 183.43 35.5752L186.355 40.2066L182.393 40.2876C180.214 40.3321 178.278 40.3097 178.09 40.2378C177.903 40.1659 176.659 38.1415 175.326 35.7392L172.903 31.3713H171.235H169.568V35.8614V40.3514H165.657H161.746V27.0019ZM175.963 24.7309C176.645 24.0492 176.81 23.6334 176.81 22.5974C176.81 20.1652 175.32 19.2094 171.523 19.2063L169.568 19.2045V22.391V25.5775H172.342C175.022 25.5775 175.145 25.5489 175.963 24.7309ZM13.1397 26.5884C13.1397 26.4828 13.3574 24.7457 13.6235 22.7281C14.2946 17.6389 14.3192 5.70612 13.6644 2.83767C13.4098 1.72239 13.2261 0.782195 13.2563 0.74834C13.2864 0.714488 16.2358 3.61369 19.8105 7.191L26.3098 13.6952L20.5214 19.564C14.7326 25.4331 13.1397 26.949 13.1397 26.5884ZM4.95297 18.9843C2.28604 16.3139 0.104004 13.9886 0.104004 13.8169C0.104004 13.3102 11.1477 2.32019 11.3851 2.59058C11.5045 2.72648 11.7657 3.75016 11.9655 4.86544C12.3797 7.17667 12.2251 15.8142 11.7271 18.1908C11.5601 18.9874 11.3445 20.0954 11.248 20.6531C11.1514 21.2107 10.9628 21.9277 10.8287 22.2463C10.6947 22.565 10.5122 23.0538 10.4231 23.3326C10.3339 23.6114 10.1577 23.8396 10.0315 23.8396C9.90524 23.8396 7.61991 21.6547 4.95297 18.9843Z" fill="#2E2E2E"/>
</svg>
