<svg width="119" height="110" viewBox="0 0 119 110" fill="none" xmlns="http://www.w3.org/2000/svg">
<path d="M109.056 0.583008H0.614014V109.025H109.056V0.583008ZM108.295 108.264H1.37517V1.34416H108.295V108.264Z" fill="#2E2E2E"/>
<path d="M21.4299 56.6491V34.4511L21.2895 34.3096H21.2887L14.876 34.6974V34.9075C16.1323 34.9771 16.9463 35.1301 17.2942 35.3615C17.8353 35.7386 18.2186 36.3438 18.238 37.2008C18.2388 37.2134 18.241 37.2263 18.241 37.2393V56.8234C18.241 57.6618 17.9221 58.1923 17.2949 58.4013C16.828 58.5413 16.313 58.6228 15.7524 58.6471V58.8915H23.9177V58.6471C23.2696 58.6007 22.7509 58.4945 22.3753 58.332C21.7378 58.0462 21.4299 57.4966 21.4299 56.6491Z" fill="#2E2E2E"/>
<path d="M76.8785 57.515C74.1825 57.515 74.1825 54.8528 74.1825 53.9779V44.3668L74.1779 43.9542C74.1772 43.8614 74.2137 43.7723 74.2784 43.7068C74.3431 43.6414 74.4314 43.6045 74.5242 43.6045H78.9473V43.0439H74.4919C74.3016 43.0439 74.1467 42.889 74.1467 42.6979V37.6812H71.0979V42.6979C71.0979 42.889 70.9423 43.0439 70.7512 43.0439H67.6636V43.6045H70.6816C70.8726 43.6045 71.0279 43.7594 71.0279 43.9504V54.398C71.0279 57.6516 72.4147 59.2325 75.2687 59.2325C76.5017 59.2325 77.5384 58.7789 78.351 57.8834C79.165 56.9917 79.648 55.8659 79.7873 54.5377H79.4371C79.3195 55.3289 79.0428 56.0307 78.6147 56.6233C78.1831 57.2151 77.5989 57.515 76.8785 57.515Z" fill="#2E2E2E"/>
<path d="M85.1391 44.652C85.8588 43.5079 86.7463 42.9527 87.8546 42.9527C89.9082 42.9527 90.9803 44.8753 91.0404 48.6674C91.0419 48.7591 91.0069 48.8482 90.9422 48.9148C90.8775 48.9803 90.79 49.0179 90.6975 49.0191L84.3639 49.0823H84.3601C84.2657 49.0823 84.1751 49.0434 84.1104 48.9749C84.0442 48.9064 84.0092 48.8136 84.0145 48.718C84.1006 47.0713 84.4792 45.7035 85.1391 44.652ZM92.2883 57.4416C91.5317 57.9653 90.4992 58.2313 89.2216 58.2313C85.7077 58.2313 84.0005 55.5494 84.0005 50.0318V49.7818C84.0005 49.5907 84.155 49.4354 84.346 49.4354H94.4424V49.1215C94.4424 47.2612 93.9058 45.6928 92.8489 44.4601C91.789 43.2278 90.1201 42.6025 87.8907 42.6025C85.6803 42.6025 83.8821 43.4276 82.5467 45.055C81.2093 46.6827 80.5315 48.6286 80.5315 50.8382C80.5315 53.2793 81.1975 55.3241 82.5116 56.9172C83.8258 58.5111 85.7652 59.3194 88.2766 59.3194C89.6935 59.3194 90.9898 58.9297 92.1292 58.1609C93.2687 57.3941 94.1653 56.3566 94.794 55.0767L94.5116 54.9028C93.7927 56.0643 93.0456 56.9195 92.2883 57.4416Z" fill="#2E2E2E"/>
<path d="M65.5463 58.3202C64.9115 58.0366 64.6002 57.4859 64.6002 56.6384V43.1309L64.5123 43.0415H52.3266V43.252C54.1202 43.4617 55.0515 43.8864 55.0953 44.5128C55.1421 44.8142 55.0835 45.1446 54.9214 45.4943C54.5214 46.5424 53.3142 49.4029 51.2332 54.2389C51.1795 54.3645 51.0562 54.4467 50.9184 54.4478H50.9158C50.7795 54.4478 50.6562 54.3679 50.6007 54.2438C49.8022 52.4734 48.4264 49.3054 46.5098 44.8287C46.2864 44.2833 46.272 44.1604 46.2678 44.1201C46.2571 44.0356 46.2796 43.9511 46.3279 43.8818C46.5407 43.5667 47.2318 43.3954 48.4382 43.3562V43.0415H40.6584V43.2858C41.3359 43.3353 41.8546 43.5009 42.2009 43.7783C42.5526 44.0595 42.8468 44.4717 43.0759 45.0041C45.4046 50.3162 47.4578 54.9361 49.3501 59.1266H49.8741C50.1999 58.0366 54.4837 47.777 55.6913 45.1784C56.1677 44.1402 57.2048 43.4754 58.4619 43.4031C58.5338 43.3985 58.6053 43.3966 58.675 43.3966C58.6929 43.3966 58.7085 43.3989 58.7248 43.4008C58.7515 43.4 58.7785 43.3966 58.8044 43.3966C60.2434 43.3966 61.4091 44.5627 61.4091 46.0016V56.8127C61.4091 57.6515 61.0924 58.1824 60.4648 58.3906C59.999 58.5306 59.4845 58.6121 58.9258 58.6364V58.8808H67.1927V58.6364C66.4399 58.5889 65.9018 58.4853 65.5463 58.3202Z" fill="#2E2E2E"/>
<path d="M64.3453 37.6857C64.668 37.2834 64.8305 36.8142 64.8305 36.2909C64.8305 35.7535 64.6269 35.2827 64.2243 34.8922C63.8205 34.501 63.3105 34.3027 62.7092 34.3027C62.1517 34.3027 61.6649 34.5124 61.2611 34.9269C60.8585 35.3421 60.6533 35.8464 60.6533 36.4252C60.6533 36.891 60.8056 37.315 61.1051 37.6857H64.3453Z" fill="#2E2E2E"/>
<path d="M35.0898 56.2777C35.0883 56.3557 35.0601 56.4311 35.0095 56.4912C34.1235 57.5595 33.0248 58.0782 31.6521 58.0782C30.908 58.0782 30.3185 57.8133 29.9007 57.2897C29.4824 56.7705 29.2704 56.0216 29.2704 55.064C29.2704 53.6003 29.7625 52.4883 30.7764 51.6651C31.6928 50.9184 33.0339 50.2497 34.7629 49.6773C34.7975 49.6655 34.8348 49.6598 34.8714 49.6598C34.9441 49.6598 35.0164 49.6827 35.0765 49.7276C35.1671 49.7942 35.22 49.9007 35.2169 50.013L35.0898 56.2777ZM41.6742 54.7139V54.7147C41.6103 55.4145 41.4519 56.0497 41.2027 56.6054C41.1212 56.8775 40.9644 57.1161 40.7578 57.2999C40.7479 57.3087 40.7384 57.3167 40.7285 57.3258C40.722 57.3315 40.7151 57.3376 40.7079 57.3433C40.5397 57.4933 40.3494 57.5892 40.1378 57.631C40.0156 57.6634 39.887 57.6817 39.7549 57.6817C38.9188 57.6817 38.2399 57.0046 38.2399 56.1677V55.8701C38.2399 55.6444 38.2684 54.5567 38.3285 52.5431C38.3849 50.6349 38.4138 49.0307 38.4138 47.7767C38.4138 46.6601 38.2718 45.7281 37.994 45.008C37.7143 44.2876 37.2721 43.7514 36.6791 43.4149C36.0873 43.0762 35.4628 42.8524 34.8223 42.7489C34.1829 42.6435 33.3639 42.5898 32.3885 42.5898C30.9906 42.5898 29.6883 42.9609 28.5153 43.6931C27.3416 44.4254 26.7453 45.3053 26.7453 46.3066C26.7453 46.8165 26.8754 47.2519 27.1304 47.6009C27.3885 47.9545 27.7785 48.1269 28.322 48.1269C28.9287 48.1269 29.4234 47.9743 29.7937 47.6728C30.1712 47.3661 30.3551 47.0221 30.3551 46.6202C30.3551 46.3911 30.2904 45.9542 30.1632 45.322C30.0525 44.7801 29.9886 44.3439 29.9745 44.0269C29.9692 43.9352 30.0019 43.8458 30.0628 43.778C30.5758 43.2144 31.2669 42.94 32.1792 42.94C32.8478 42.94 33.4138 43.0876 33.8609 43.3788C34.3062 43.6718 34.6095 44.0497 34.788 44.535C34.9627 45.0153 35.075 45.4038 35.121 45.6912C35.1678 45.9774 35.1911 46.2655 35.1911 46.5486V48.8271C35.1911 48.9596 35.1157 49.0798 34.997 49.1381C34.409 49.4258 33.448 49.7866 32.1426 50.2117C30.693 50.6836 29.7385 51.0078 29.3047 51.1749C28.2128 51.592 27.3572 52.1165 26.7632 52.7345C26.1714 53.3522 25.8711 54.3135 25.8711 55.5904C25.8711 56.7066 26.2482 57.6147 26.99 58.2887C27.7363 58.9642 28.7262 59.3067 29.9341 59.3067C31.8572 59.3067 33.5028 58.6023 34.8261 57.2132C34.8919 57.1439 34.9829 57.1058 35.0765 57.1058C35.0967 57.1058 35.1165 57.1074 35.1359 57.1104C35.2497 57.1306 35.3463 57.2055 35.3931 57.3117C35.9655 58.6057 36.92 59.2344 38.3099 59.2344C40.62 59.2344 41.8356 57.7559 42.0243 54.7135L41.6742 54.7139Z" fill="#2E2E2E"/>
<path d="M27.7765 78.7792C27.5668 78.0846 27.2962 77.2188 26.9625 76.1814C26.6302 75.1439 26.4392 74.5426 26.3916 74.3759C26.3494 74.2187 26.2611 74.1023 26.1279 74.0265C25.9992 73.9504 25.8565 73.9074 25.6997 73.8975V73.8477H27.877V73.8975C27.7103 73.9074 27.5447 73.9344 27.3803 73.9797C27.2159 74.025 27.1345 74.0855 27.1345 74.1616C27.1345 74.2233 27.144 74.2834 27.1626 74.3397L28.2264 77.6942L29.2543 74.8969C29.1302 74.4113 28.9993 74.124 28.8612 74.033C28.7333 73.9523 28.562 73.9074 28.3474 73.8975V73.8477H30.4961V73.8975C30.3291 73.9074 30.1669 73.9344 30.0101 73.9797C29.8533 74.025 29.7753 74.0855 29.7753 74.1616C29.7753 74.2142 29.7841 74.2735 29.8035 74.3397C29.8316 74.4258 29.8971 74.6256 29.9999 74.9395C30.1022 75.2535 30.2427 75.6805 30.4212 76.2206C30.5989 76.7606 30.7595 77.2477 30.9022 77.6801C31.3547 76.4196 31.6656 75.5009 31.8373 74.9255C31.9324 74.597 31.98 74.3827 31.98 74.2834C31.98 74.1692 31.8917 74.0794 31.7163 74.0155C31.5401 73.9508 31.3498 73.912 31.1454 73.8975V73.8477H32.9219V73.8975C32.7941 73.9025 32.6513 73.9504 32.4938 74.0406C32.3465 74.1259 32.2232 74.2994 32.1227 74.5612C31.8989 75.1557 31.3996 76.5619 30.624 78.7792H30.4607C30.2457 78.0607 29.8564 76.8337 29.2901 75.0967L27.9409 78.7792H27.7765Z" fill="#2E2E2E"/>
<path d="M30.475 78.7655H30.6109C31.3812 76.5631 31.8836 75.1481 32.1051 74.5597C32.2067 74.2949 32.3345 74.1164 32.4841 74.0292C32.6371 73.9417 32.7779 73.8934 32.9031 73.885V73.872H31.1647V73.8854C31.3641 73.9006 31.5517 73.9402 31.723 74.003C31.9064 74.0696 31.9993 74.1658 31.9993 74.2884C31.9993 74.3908 31.9524 74.6028 31.8558 74.9358C31.6792 75.5279 31.3645 76.455 30.9203 77.6919C30.9177 77.6991 30.9108 77.7041 30.9024 77.7041H30.9021C30.8941 77.7041 30.8868 77.6991 30.8842 77.6911C30.7414 77.2588 30.5808 76.772 30.4035 76.232C30.225 75.692 30.0846 75.265 29.9818 74.951C29.8794 74.6366 29.814 74.4368 29.7854 74.3512C29.7664 74.2846 29.7565 74.2226 29.7565 74.167C29.7565 74.0806 29.838 74.0151 30.0054 73.9668C30.1554 73.9234 30.3144 73.896 30.4777 73.885V73.872H28.3666V73.885C28.5756 73.8964 28.7453 73.9428 28.8713 74.0224C29.0151 74.1168 29.1464 74.4029 29.2732 74.8973C29.2739 74.9011 29.2739 74.9049 29.2724 74.9087L28.2445 77.706C28.2418 77.7136 28.2342 77.7185 28.2266 77.7185C28.2182 77.7185 28.211 77.7132 28.2083 77.7052L27.1446 74.3508C27.1252 74.2922 27.1157 74.2302 27.1157 74.167C27.1157 74.0802 27.2006 74.0148 27.3752 73.9664C27.5332 73.9234 27.6949 73.896 27.8582 73.885V73.872H25.719V73.8854C25.8716 73.8972 26.0124 73.9409 26.138 74.0155C26.275 74.0935 26.3667 74.2149 26.4101 74.3759C26.4607 74.5533 26.6754 75.2258 26.981 76.1806C27.2999 77.1728 27.5724 78.0424 27.7908 78.7655H27.9278L29.2724 75.0952C29.2751 75.0876 29.2823 75.083 29.2903 75.083H29.2907C29.2987 75.083 29.3059 75.0884 29.3086 75.096C29.8612 76.7907 30.2535 78.0253 30.475 78.7655ZM30.6246 78.8036H30.461C30.4522 78.8036 30.445 78.7979 30.4427 78.7899C30.2242 78.0592 29.8361 76.8379 29.2892 75.1599L27.959 78.791C27.9564 78.7986 27.9488 78.8036 27.9412 78.8036H27.7767C27.7684 78.8036 27.7611 78.7979 27.7585 78.7899C27.5396 78.0645 27.2656 77.1907 26.9448 76.1924C26.6388 75.2368 26.4242 74.5639 26.3739 74.3862C26.3328 74.2351 26.2472 74.1213 26.119 74.0482C25.9934 73.974 25.8525 73.9314 25.6988 73.9219C25.6889 73.9211 25.6809 73.9131 25.6809 73.9029V73.853C25.6809 73.8424 25.6897 73.834 25.6999 73.834H27.8772C27.8875 73.834 27.8963 73.8424 27.8963 73.853V73.9029C27.8963 73.9131 27.8883 73.9211 27.8784 73.9219C27.7117 73.9318 27.5461 73.9592 27.3859 74.0033C27.2318 74.0456 27.1534 74.1008 27.1534 74.167C27.1534 74.226 27.1629 74.2842 27.1811 74.3394L28.2281 77.6409L29.2344 74.9011C29.1126 74.4262 28.9836 74.1415 28.8507 74.0543C28.7271 73.9763 28.5573 73.9314 28.3469 73.9219C28.3366 73.9215 28.3286 73.9131 28.3286 73.9029V73.853C28.3286 73.8424 28.3373 73.834 28.3476 73.834H30.4967C30.507 73.834 30.5154 73.8424 30.5154 73.853V73.9029C30.5154 73.9131 30.5078 73.9211 30.4979 73.9219C30.3312 73.9318 30.1687 73.9592 30.0157 74.003C29.8688 74.0456 29.7946 74.1008 29.7946 74.167C29.7946 74.2191 29.8037 74.2774 29.822 74.3398C29.8501 74.425 29.9156 74.6248 30.0184 74.9388C30.1207 75.2532 30.2612 75.6802 30.4397 76.2202C30.6098 76.7382 30.765 77.2078 30.9032 77.6268C31.3374 76.4166 31.6453 75.5078 31.8192 74.9255C31.9132 74.6001 31.9612 74.3858 31.9612 74.2884C31.9612 74.1834 31.8767 74.0992 31.7096 74.0387C31.5369 73.9756 31.3466 73.936 31.1441 73.9219C31.1342 73.9211 31.1266 73.9131 31.1266 73.9029V73.853C31.1266 73.8424 31.135 73.834 31.1456 73.834H32.9222C32.9324 73.834 32.9408 73.8424 32.9408 73.853V73.9029C32.9408 73.9131 32.9328 73.9215 32.9229 73.9219C32.7989 73.9265 32.658 73.9737 32.5031 74.0623C32.3612 74.1449 32.239 74.3169 32.1408 74.5734C31.919 75.1626 31.4151 76.5814 30.6421 78.7906C30.6398 78.7982 30.6326 78.8036 30.6246 78.8036Z" fill="#2E2E2E"/>
<path d="M33.7647 74.4957C33.6459 74.4957 33.5439 74.4531 33.4583 74.3674C33.3731 74.2818 33.3297 74.1794 33.3297 74.0603C33.3297 73.9366 33.3731 73.8308 33.4583 73.7429C33.5439 73.655 33.6459 73.6108 33.7647 73.6108C33.8933 73.6108 34.0003 73.6527 34.0859 73.7357C34.1711 73.819 34.2145 73.9176 34.2145 74.0321C34.2145 74.1604 34.1711 74.2696 34.0859 74.3602C34.0003 74.4508 33.8933 74.4957 33.7647 74.4957ZM32.994 78.7281V78.6779C33.1082 78.6733 33.2132 78.6565 33.3084 78.6284C33.437 78.5854 33.5009 78.478 33.5009 78.3072V76.0519C33.4815 75.8757 33.4176 75.7497 33.3084 75.6736C33.2326 75.6211 33.0918 75.5902 32.8875 75.5807V75.5377L34.122 75.4593L34.1513 75.4878V78.271C34.1513 78.4423 34.2145 78.5568 34.3432 78.6139C34.4143 78.647 34.5266 78.6687 34.6781 78.6779V78.7281H32.994Z" fill="#2E2E2E"/>
<path d="M33.7648 73.6255C33.6506 73.6255 33.5547 73.6669 33.4721 73.7518C33.3907 73.8363 33.3488 73.9387 33.3488 74.0563C33.3488 74.1689 33.3907 74.2675 33.4717 74.3497C33.5543 74.4323 33.6502 74.4726 33.7648 74.4726C33.8892 74.4726 33.9897 74.43 34.0723 74.3428C34.1537 74.2561 34.1956 74.1503 34.1956 74.0281C34.1956 73.9196 34.1541 73.8245 34.0727 73.745C33.9908 73.6658 33.8873 73.6255 33.7648 73.6255ZM33.7648 74.5103C33.6415 74.5103 33.5338 74.4654 33.4451 74.3763C33.356 74.2873 33.3111 74.1796 33.3111 74.0563C33.3111 73.9284 33.356 73.8169 33.4447 73.7256C33.5341 73.6338 33.6415 73.5874 33.7648 73.5874C33.8976 73.5874 34.0102 73.6312 34.0993 73.7176C34.1884 73.8047 34.2333 73.909 34.2333 74.0281C34.2333 74.1602 34.1884 74.2751 34.0997 74.3687C34.011 74.4627 33.8987 74.5103 33.7648 74.5103ZM33.0128 78.7046H34.6595V78.6913C34.5149 78.6814 34.406 78.6601 34.3349 78.627C34.2009 78.5673 34.1324 78.4462 34.1324 78.267V75.4918L34.1149 75.4747L32.9066 75.5512V75.5584C33.1071 75.5691 33.2422 75.6003 33.3191 75.6536C33.4325 75.7327 33.4999 75.8644 33.5197 76.0452V78.3028C33.5197 78.4824 33.4508 78.5966 33.3142 78.6419C33.2228 78.6693 33.1216 78.686 33.0128 78.6917V78.7046ZM34.6782 78.7427H32.9941C32.9835 78.7427 32.9751 78.7343 32.9751 78.7237V78.6734C32.9751 78.6632 32.9827 78.6548 32.9933 78.6544C33.1056 78.6498 33.2099 78.6335 33.3028 78.6057C33.4234 78.5654 33.482 78.4664 33.482 78.3028V76.0475C33.4634 75.88 33.4013 75.7571 33.2974 75.6848C33.2251 75.6349 33.0873 75.6048 32.8868 75.5953C32.8765 75.5949 32.8689 75.5866 32.8689 75.5763V75.5333C32.8689 75.5234 32.8765 75.515 32.8864 75.5143L34.1214 75.4362C34.1263 75.437 34.1317 75.4378 34.1358 75.4416L34.1648 75.4701C34.1686 75.4735 34.1701 75.4789 34.1701 75.4838V78.267C34.1701 78.4318 34.2295 78.5383 34.3509 78.592C34.4205 78.6247 34.5313 78.6457 34.6793 78.6544C34.6896 78.6552 34.6972 78.6635 34.6972 78.6734V78.7237C34.6972 78.7343 34.6888 78.7427 34.6782 78.7427Z" fill="#2E2E2E"/>
<path d="M35.028 78.722V78.6717C35.1418 78.6672 35.2472 78.6508 35.3423 78.6222C35.471 78.5792 35.5349 78.4719 35.5349 78.301V76.0457C35.5155 75.8695 35.4515 75.7436 35.3423 75.6674C35.2605 75.6149 35.144 75.5841 34.9922 75.5746V75.5316L36.1556 75.4536L36.1838 75.4821V75.9886H36.1986C36.2032 75.9837 36.2313 75.9555 36.2842 75.9026C36.3368 75.8505 36.3695 75.8185 36.384 75.8064C36.3988 75.7949 36.43 75.7664 36.4802 75.7207C36.5301 75.6758 36.5682 75.6457 36.594 75.6317C36.6203 75.6172 36.6587 75.594 36.7086 75.5601C36.7592 75.527 36.8037 75.5042 36.8445 75.4928C36.8848 75.4806 36.9331 75.4665 36.9902 75.4498C37.0477 75.433 37.1063 75.4212 37.1657 75.414C37.225 75.4071 37.2875 75.4033 37.3544 75.4033C37.6779 75.4033 37.9211 75.503 38.0821 75.7028C38.2442 75.9026 38.3253 76.1789 38.3253 76.531V78.2725C38.3253 78.4434 38.3869 78.5575 38.5102 78.6146C38.5826 78.6432 38.6865 78.6626 38.825 78.6717V78.722H37.1413V78.6717C37.2734 78.6626 37.3856 78.6458 37.4758 78.6222C37.6049 78.5792 37.668 78.4719 37.668 78.301V76.4453C37.668 76.2124 37.6102 76.0267 37.4937 75.8886C37.3769 75.7508 37.238 75.6819 37.0759 75.6819C36.8433 75.6819 36.6492 75.7329 36.4947 75.8349C36.3398 75.9377 36.2367 76.0431 36.1838 76.1527V78.2653C36.1838 78.4365 36.2485 78.5507 36.3771 78.6078C36.4475 78.6413 36.5598 78.6626 36.7124 78.6717V78.722H35.028Z" fill="#2E2E2E"/>
<path d="M37.159 78.7073H38.8046V78.6936C38.6752 78.6841 38.5736 78.6651 38.502 78.6365C38.3711 78.576 38.3053 78.455 38.3053 78.2769V76.5354C38.3053 76.189 38.225 75.9146 38.0663 75.7194C37.9095 75.5249 37.6697 75.4263 37.3534 75.4263C37.288 75.4263 37.2271 75.4302 37.167 75.4374C37.1068 75.4446 37.049 75.4564 36.9946 75.4724C36.9371 75.4888 36.8888 75.5032 36.8492 75.515C36.8111 75.5261 36.7681 75.5474 36.7179 75.5805C36.6619 75.6182 36.6243 75.6406 36.6022 75.6528C36.5778 75.6661 36.5405 75.695 36.4918 75.7392L36.4659 75.7632C36.429 75.7963 36.4066 75.8161 36.394 75.826C36.3807 75.837 36.3453 75.872 36.2962 75.9207C36.2441 75.9729 36.2159 76.001 36.2117 76.0056C36.2079 76.0098 36.2026 76.0117 36.1976 76.0117H36.1828C36.1721 76.0117 36.1638 76.0037 36.1638 75.993V75.4941L36.147 75.4773L35.0102 75.5538V75.5611C35.156 75.5721 35.2709 75.6041 35.3516 75.6558C35.4654 75.735 35.5328 75.8671 35.5525 76.0478V78.3054C35.5525 78.4851 35.4837 78.5988 35.347 78.6445C35.2557 78.6719 35.1545 78.6887 35.0456 78.6944V78.7073H36.692V78.694C36.547 78.6841 36.4378 78.6624 36.3677 78.6293C36.2323 78.5695 36.1638 78.4481 36.1638 78.2696V76.1567C36.1638 76.154 36.1645 76.151 36.1657 76.1483C36.2193 76.0368 36.3263 75.9276 36.4831 75.8233C36.6399 75.7198 36.8389 75.6673 37.0745 75.6673C37.2416 75.6673 37.3869 75.7388 37.5068 75.8808C37.6259 76.0216 37.6861 76.213 37.6861 76.4497V78.3054C37.6861 78.4854 37.6168 78.5992 37.4806 78.6445C37.3919 78.6677 37.2846 78.6845 37.159 78.6936V78.7073ZM38.8236 78.7454H37.1399C37.1297 78.7454 37.1209 78.737 37.1209 78.7263V78.6761C37.1209 78.6662 37.1289 78.6578 37.1384 78.6571C37.2693 78.6479 37.3805 78.6316 37.4695 78.608C37.5894 78.5684 37.648 78.4694 37.648 78.3054V76.4497C37.648 76.2221 37.5909 76.0391 37.4779 75.9051C37.3637 75.7708 37.2317 75.7049 37.0745 75.7049C36.8465 75.7049 36.6543 75.7555 36.5036 75.8549C36.3548 75.9542 36.2532 76.057 36.2014 76.1612V78.2696C36.2014 78.4341 36.2612 78.5406 36.3837 78.5947C36.4526 78.6274 36.5634 78.6483 36.7122 78.6571C36.7224 78.6578 36.7301 78.6662 36.7301 78.6761V78.7263C36.7301 78.737 36.7217 78.7454 36.711 78.7454H35.0266C35.0163 78.7454 35.0079 78.737 35.0079 78.7263V78.6761C35.0079 78.6658 35.0156 78.6575 35.0262 78.6571C35.1385 78.6525 35.2428 78.6361 35.3356 78.6084C35.4559 78.568 35.5149 78.4691 35.5149 78.3054V76.0501C35.4962 75.8827 35.4342 75.7597 35.3303 75.6874C35.2523 75.6376 35.1377 75.6071 34.9901 75.598C34.9798 75.5972 34.9722 75.5889 34.9722 75.579V75.536C34.9722 75.5261 34.9798 75.5177 34.9901 75.5169L36.1531 75.4389C36.1596 75.4381 36.1645 75.4404 36.1679 75.4442L36.1961 75.4728C36.1995 75.4766 36.2014 75.4812 36.2014 75.4865V75.9614C36.2159 75.9474 36.2383 75.9245 36.2696 75.8937C36.3206 75.8431 36.3552 75.8088 36.3704 75.7963C36.3826 75.7868 36.4054 75.7658 36.4401 75.7346L36.4667 75.711C36.5177 75.6642 36.5561 75.6345 36.5835 75.6193C36.6136 75.6026 36.6539 75.5774 36.6966 75.5489C36.7506 75.5135 36.7967 75.4903 36.8381 75.4789C36.8785 75.4667 36.9268 75.4526 36.9839 75.4359C37.0402 75.4191 37.1004 75.4069 37.1624 75.3993C37.224 75.3921 37.2865 75.3887 37.3534 75.3887C37.6815 75.3887 37.9315 75.4918 38.0959 75.6954C38.26 75.8975 38.3429 76.1803 38.3429 76.5354V78.2769C38.3429 78.4413 38.4 78.5478 38.5169 78.6019C38.5873 78.6293 38.6908 78.6483 38.8248 78.6571C38.8347 78.6578 38.8426 78.6662 38.8426 78.6761V78.7263C38.8426 78.737 38.8339 78.7454 38.8236 78.7454Z" fill="#2E2E2E"/>
<path d="M39.9006 76.7206L41.3353 76.7062C41.3353 75.883 41.118 75.4716 40.6857 75.4716C40.4627 75.4716 40.2781 75.5869 40.1331 75.8175C39.9877 76.0485 39.9101 76.3492 39.9006 76.7206ZM40.7709 78.8047C40.2579 78.8047 39.8663 78.6414 39.5972 78.3156C39.3289 77.9895 39.1946 77.5765 39.1946 77.0772C39.1946 76.6251 39.3312 76.2331 39.6048 75.8997C39.8781 75.5667 40.2412 75.4004 40.6937 75.4004C41.15 75.4004 41.4868 75.5264 41.7022 75.7783C41.9195 76.0306 42.028 76.3469 42.028 76.7275V76.7918H39.9006V76.9128C39.9006 78.0268 40.2552 78.5832 40.9643 78.5832C41.2257 78.5832 41.4339 78.5299 41.5888 78.4226C41.7433 78.3156 41.894 78.1436 42.0421 77.905L42.0991 77.9411C41.9705 78.203 41.7901 78.4115 41.5568 78.5687C41.3239 78.7259 41.0609 78.8047 40.7709 78.8047Z" fill="#2E2E2E"/>
<path d="M40.6876 75.5038C40.4726 75.5038 40.2922 75.6172 40.1514 75.8409C40.0113 76.0636 39.9341 76.3574 39.9223 76.7148L41.3182 76.7007C41.3148 75.9064 41.1028 75.5038 40.6876 75.5038ZM39.9025 76.7528C39.8975 76.7528 39.8926 76.7509 39.8892 76.7475C39.8857 76.7437 39.8835 76.7387 39.8838 76.7334C39.8934 76.3604 39.9725 76.0533 40.1194 75.8208C40.2675 75.5852 40.4581 75.4657 40.6876 75.4657C41.1314 75.4657 41.3563 75.8874 41.3563 76.7193C41.3563 76.73 41.3479 76.7384 41.3376 76.7384L39.9025 76.7528ZM40.6956 75.4326C40.2515 75.4326 39.8899 75.5981 39.6216 75.9251C39.3522 76.2531 39.2155 76.6455 39.2155 77.0908C39.2155 77.5829 39.3495 77.9954 39.6144 78.317C39.8781 78.6367 40.2682 78.7988 40.7733 78.7988C41.0587 78.7988 41.3194 78.7208 41.5481 78.5663C41.773 78.4148 41.9508 78.2116 42.0767 77.9615L42.0501 77.9448C41.9043 78.1758 41.7536 78.3463 41.6014 78.4517C41.4446 78.5606 41.2311 78.6154 40.9662 78.6154C40.2481 78.6154 39.8838 78.0472 39.8838 76.9264V76.8053C39.8838 76.7947 39.8922 76.7863 39.9025 76.7863H42.0113V76.7406C42.0113 76.3665 41.9028 76.0514 41.6901 75.8044C41.4792 75.5574 41.1447 75.4326 40.6956 75.4326ZM40.7733 78.8369C40.2564 78.8369 39.8564 78.6702 39.5851 78.3413C39.3145 78.0125 39.1775 77.592 39.1775 77.0908C39.1775 76.6364 39.3168 76.236 39.5919 75.9007C39.8682 75.565 40.2393 75.3945 40.6956 75.3945C41.1561 75.3945 41.5005 75.5239 41.719 75.7793C41.9378 76.0339 42.0489 76.357 42.0489 76.7406V76.8053C42.0489 76.816 42.0406 76.8244 42.0299 76.8244H39.9215V76.9264C39.9215 78.022 40.2732 78.5777 40.9662 78.5777C41.2231 78.5777 41.4294 78.5244 41.5801 78.4205C41.7312 78.3158 41.8823 78.1434 42.028 77.9082C42.0307 77.9041 42.0349 77.901 42.0402 77.8999C42.0436 77.8984 42.0501 77.8995 42.0543 77.9022L42.1114 77.9383C42.1197 77.9436 42.1228 77.9539 42.1186 77.9627C41.9892 78.226 41.8046 78.4395 41.5694 78.5979C41.3342 78.7566 41.0663 78.8369 40.7733 78.8369Z" fill="#2E2E2E"/>
<path d="M46.0535 75.8321C46.4474 75.5893 46.6453 75.2083 46.6453 74.69C46.6453 74.4376 46.6004 74.2321 46.5105 74.0723C46.42 73.9132 46.2795 73.8337 46.0892 73.8337C45.7174 73.8337 45.5325 74.105 45.5325 74.647C45.5325 74.9704 45.7064 75.3655 46.0535 75.8321ZM45.832 78.4935C46.0177 78.4935 46.203 78.4558 46.388 78.3793C46.5737 78.3035 46.7241 78.1966 46.8386 78.0585C46.7522 77.9443 46.6065 77.7517 46.399 77.4804C46.1924 77.209 46.0082 76.9662 45.8468 76.7523C45.6847 76.5384 45.5583 76.3626 45.4685 76.2245C45.0872 76.4623 44.8977 76.8429 44.8977 77.3662C44.8977 77.6756 44.9818 77.9409 45.1504 78.1616C45.3197 78.3835 45.5465 78.4935 45.832 78.4935ZM45.5249 78.8436C45.1542 78.8436 44.8337 78.7435 44.5654 78.5437C44.2963 78.3439 44.1616 78.0512 44.1616 77.6657C44.1616 77.3472 44.2537 77.0868 44.4368 76.8848C44.6195 76.6823 44.9468 76.4429 45.4179 76.1674C45.0366 75.6014 44.847 75.163 44.847 74.8544C44.847 74.5354 44.9681 74.2721 45.2113 74.0654C45.4537 73.8584 45.7422 73.7549 46.0752 73.7549C46.3694 73.7549 46.5931 73.8477 46.7454 74.0335C46.898 74.2192 46.9745 74.4445 46.9745 74.7113C46.9745 75.1489 46.6814 75.544 46.0957 75.896C46.4146 76.3672 46.8318 76.9213 47.3455 77.5588C47.4924 77.3494 47.6195 77.0914 47.7265 76.7847C47.8338 76.4775 47.8879 76.2362 47.8879 76.06C47.8879 75.8796 47.6614 75.7582 47.2093 75.6962V75.6532H49.2572V75.6962C49.0669 75.7152 48.9352 75.7308 48.8618 75.7426C48.7875 75.7544 48.6943 75.783 48.5801 75.8279C48.4656 75.8736 48.372 75.9364 48.3012 76.017C48.2494 76.0741 48.1257 76.3055 47.9339 76.7101C47.741 77.1142 47.5609 77.4164 47.3942 77.6158C47.7615 78.0775 48.0093 78.3462 48.1371 78.4223C48.394 78.5745 48.7034 78.6605 49.0646 78.6792V78.7294H47.3942L46.8949 78.1155C46.42 78.6008 45.9629 78.8436 45.5249 78.8436Z" fill="#2E2E2E"/>
<path d="M46.0896 73.8586C45.7277 73.8586 45.5518 74.1186 45.5518 74.6533C45.5518 74.9676 45.7223 75.3574 46.0588 75.8129C46.4355 75.5739 46.6266 75.1983 46.6266 74.6963C46.6266 74.4482 46.5821 74.2438 46.4941 74.0881C46.4066 73.9336 46.2742 73.8586 46.0896 73.8586ZM46.0538 75.8571C46.0481 75.8571 46.0424 75.8548 46.0386 75.8494C45.6904 75.3813 45.5138 74.9791 45.5138 74.6533C45.5138 74.1011 45.7075 73.8206 46.0896 73.8206C46.2867 73.8206 46.4336 73.9043 46.5276 74.0695C46.6186 74.2308 46.6646 74.4413 46.6646 74.6963C46.6646 75.2192 46.4622 75.6089 46.0641 75.8544C46.061 75.8563 46.0572 75.8571 46.0538 75.8571ZM45.4632 76.2567C45.1008 76.4903 44.917 76.8652 44.917 77.3721C44.917 77.6762 45.0008 77.94 45.1659 78.1561C45.333 78.375 45.5507 78.4808 45.8323 78.4808C46.0154 78.4808 46.2 78.4427 46.3811 78.3681C46.5581 78.2958 46.7038 78.1934 46.8146 78.064C46.7274 77.9487 46.5847 77.7599 46.3842 77.4981C46.1775 77.2268 45.9933 76.9839 45.8319 76.7701C45.6729 76.56 45.5522 76.3918 45.4632 76.2567ZM45.8323 78.5188C45.5423 78.5188 45.3079 78.4046 45.1355 78.1793C44.9654 77.9563 44.879 77.685 44.879 77.3721C44.879 76.8443 45.0742 76.4546 45.459 76.2144C45.4673 76.2095 45.4791 76.2121 45.4848 76.2205C45.5743 76.3571 45.6976 76.5295 45.8624 76.7468C46.0237 76.9611 46.2083 77.2039 46.4146 77.4749C46.622 77.7462 46.7678 77.9392 46.8542 78.053C46.8591 78.0602 46.8591 78.0697 46.8534 78.0766C46.7377 78.2166 46.584 78.3262 46.3956 78.4031C46.2098 78.48 46.0203 78.5188 45.8323 78.5188ZM46.0755 73.7799C45.7486 73.7799 45.462 73.883 45.2242 74.0862C44.9871 74.2879 44.8664 74.5483 44.8664 74.8603C44.8664 75.1655 45.0575 75.6036 45.4338 76.163C45.4369 76.1672 45.438 76.1726 45.4369 76.1779C45.4358 76.1828 45.4323 76.1874 45.4281 76.1897C44.9612 76.4633 44.6324 76.7035 44.4512 76.9036C44.2723 77.1015 44.181 77.3603 44.181 77.672C44.181 78.0496 44.3146 78.3396 44.5772 78.5348C44.8409 78.7312 45.1602 78.8309 45.5256 78.8309C45.9564 78.8309 46.4127 78.5877 46.8816 78.1086C46.8854 78.1051 46.8903 78.1028 46.8953 78.1028H46.896C46.9017 78.1028 46.9067 78.1059 46.9101 78.1097L47.4037 78.7167H49.0463V78.7034C48.6912 78.6825 48.3822 78.5957 48.1276 78.4446C47.9982 78.3677 47.7466 78.0949 47.3801 77.6336C47.3744 77.6267 47.3744 77.6168 47.3805 77.6096C47.5449 77.4125 47.7257 77.1092 47.9175 76.708C48.1082 76.3054 48.233 76.0706 48.2874 76.0104C48.359 75.929 48.4553 75.8639 48.5732 75.8167C48.6908 75.7703 48.7841 75.7421 48.859 75.7299C48.9333 75.7185 49.0608 75.7033 49.2385 75.685V75.6786H47.2287V75.6858C47.6853 75.7509 47.9072 75.8749 47.9072 76.066C47.9072 76.2449 47.8543 76.4839 47.7451 76.7975C47.6378 77.1042 47.5088 77.3664 47.3615 77.5761C47.358 77.5807 47.3523 77.5837 47.3466 77.5841C47.339 77.5849 47.3345 77.5818 47.331 77.5769C46.8157 76.9375 46.3952 76.3777 46.0808 75.9126C46.0778 75.9088 46.0766 75.9031 46.0778 75.8982C46.0789 75.8928 46.082 75.8886 46.0865 75.886C46.6635 75.5393 46.9558 75.1461 46.9558 74.7176C46.9558 74.4573 46.88 74.2331 46.7312 74.052C46.5836 73.8716 46.3628 73.7799 46.0755 73.7799ZM45.5256 78.8689C45.1515 78.8689 44.8249 78.7666 44.5543 78.5652C44.2815 78.3624 44.1433 78.0621 44.1433 77.672C44.1433 77.3504 44.2373 77.0837 44.423 76.8781C44.6046 76.6772 44.9303 76.4382 45.3912 76.1672C45.0179 75.6101 44.8287 75.1701 44.8287 74.8603C44.8287 74.5368 44.9536 74.2666 45.1994 74.0569C45.4445 73.8484 45.7391 73.7422 46.0755 73.7422C46.3746 73.7422 46.6049 73.8381 46.7609 74.0276C46.9154 74.216 46.9938 74.4482 46.9938 74.7176C46.9938 75.1564 46.7008 75.5564 46.1235 75.9081C46.4325 76.364 46.8435 76.9109 47.3447 77.5331C47.484 77.3303 47.6066 77.0783 47.7093 76.7845C47.8155 76.4797 47.8695 76.2376 47.8695 76.066C47.8695 75.8974 47.6465 75.7817 47.2073 75.7212C47.1978 75.7197 47.191 75.7117 47.191 75.7025V75.6595C47.191 75.6489 47.1993 75.6405 47.2096 75.6405H49.2575C49.2682 75.6405 49.2765 75.6489 49.2765 75.6595V75.7025C49.2765 75.7121 49.2689 75.7204 49.2594 75.7212C49.0733 75.7402 48.9405 75.7554 48.8651 75.7676C48.7932 75.779 48.7019 75.8068 48.5873 75.8517C48.475 75.8966 48.3833 75.9587 48.3163 76.0359C48.2798 76.0755 48.1877 76.227 47.9518 76.7244C47.7626 77.1202 47.5834 77.4224 47.4193 77.6222C47.7778 78.072 48.0225 78.338 48.147 78.4119C48.4008 78.5622 48.7099 78.6478 49.0661 78.6665C49.0764 78.6669 49.084 78.6752 49.084 78.6855V78.7354C49.084 78.746 49.0756 78.7544 49.0649 78.7544H47.395C47.3893 78.7544 47.3835 78.7521 47.3801 78.7479L46.8937 78.15C46.4226 78.6273 45.9625 78.8689 45.5256 78.8689Z" fill="#2E2E2E"/>
<path d="M51.1636 78.7221V78.6719C51.4585 78.6578 51.6469 78.6342 51.7276 78.6007C51.8749 78.5436 51.9487 78.4271 51.9487 78.2509V74.3759C51.9487 74.1856 51.8749 74.0615 51.7276 74.0045C51.5894 73.9474 51.4014 73.912 51.1636 73.8975V73.8477H55.1456V75.0039H55.0816C55.0245 74.8185 54.9031 74.602 54.7182 74.3542C54.5324 74.1072 54.368 73.9736 54.2253 73.955C54.0731 73.936 53.8402 73.9261 53.5258 73.9261H52.7053V76.1673H53.4261C53.6879 76.1673 53.8995 76.0931 54.0609 75.9458C54.1138 75.8986 54.166 75.8019 54.2177 75.6569C54.2706 75.5119 54.3041 75.3726 54.3182 75.2394H54.3897V77.2447H54.3182C54.3087 77.1355 54.2752 76.9928 54.2177 76.8165C54.1614 76.6403 54.1085 76.5288 54.0609 76.4809C53.9087 76.329 53.6975 76.2525 53.4261 76.2525H52.7053V78.2441C52.7053 78.415 52.7787 78.5318 52.9268 78.5938C53.0158 78.6319 53.1981 78.6578 53.4687 78.6719V78.7221H51.1636Z" fill="#2E2E2E"/>
<path d="M51.1831 78.7084H53.4502V78.6951C53.1823 78.6803 53.0087 78.6544 52.9197 78.6163C52.7651 78.552 52.6867 78.4287 52.6867 78.2494V76.2579C52.6867 76.2472 52.6955 76.2389 52.7058 76.2389H53.427C53.7014 76.2389 53.919 76.3176 54.0751 76.4729C54.1253 76.5231 54.1797 76.6388 54.2365 76.8158C54.2909 76.9833 54.3244 77.1229 54.3358 77.231H54.3712V75.2634H54.3358C54.3206 75.3932 54.2871 75.5291 54.2361 75.6687C54.1824 75.8187 54.1295 75.9157 54.0743 75.9652C53.9099 76.1155 53.6922 76.1913 53.427 76.1913H52.7058C52.6955 76.1913 52.6867 76.1829 52.6867 76.1723V73.9314C52.6867 73.9208 52.6955 73.9124 52.7058 73.9124H53.5263C53.8387 73.9124 54.0747 73.9223 54.2281 73.9413C54.3776 73.9607 54.5428 74.0939 54.7339 74.3478C54.915 74.5906 55.0368 74.8064 55.0962 74.9902H55.127V73.872H51.1831V73.885C51.4141 73.9002 51.5998 73.936 51.7357 73.9919C51.8894 74.0521 51.9682 74.183 51.9682 74.3809V78.2563C51.9682 78.4401 51.8894 78.5638 51.7353 78.6236C51.6542 78.657 51.4738 78.6806 51.1831 78.6951V78.7084ZM53.4692 78.7465H51.164C51.1538 78.7465 51.145 78.7381 51.145 78.7275V78.6772C51.145 78.6669 51.153 78.6586 51.1633 78.6582C51.456 78.6441 51.6436 78.6205 51.7208 78.5882C51.8616 78.5337 51.9302 78.4253 51.9302 78.2563V74.3809C51.9302 74.1978 51.8616 74.0821 51.7212 74.0273C51.5857 73.9714 51.3977 73.936 51.1629 73.9219C51.153 73.9211 51.145 73.9128 51.145 73.9029V73.853C51.145 73.8424 51.1538 73.834 51.164 73.834H55.146C55.1563 73.834 55.1651 73.8424 55.1651 73.853V75.0092C55.1651 75.0199 55.1563 75.0282 55.146 75.0282H55.0821C55.0741 75.0282 55.0665 75.0225 55.0638 75.0145C55.0079 74.8322 54.8861 74.6157 54.7034 74.371C54.5211 74.1289 54.3601 73.9969 54.2231 73.979C54.0717 73.96 53.8372 73.9504 53.5263 73.9504H52.7248V76.1536H53.427C53.6823 76.1536 53.8916 76.0805 54.0484 75.9371C54.0983 75.8925 54.1497 75.7978 54.2007 75.6558C54.2524 75.5131 54.2859 75.3738 54.2996 75.2425C54.3008 75.233 54.3091 75.2258 54.3187 75.2258H54.3902C54.4005 75.2258 54.4092 75.2341 54.4092 75.2444V77.2501C54.4092 77.2607 54.4005 77.2691 54.3902 77.2691H54.3187C54.3088 77.2691 54.3004 77.2615 54.2996 77.2516C54.2901 77.1442 54.2566 77.0015 54.2003 76.8276C54.1318 76.6141 54.0797 76.5315 54.0481 76.4996C53.9 76.3519 53.6911 76.2769 53.427 76.2769H52.7248V78.2494C52.7248 78.4139 52.7933 78.5227 52.9349 78.5813C53.0201 78.6182 53.2005 78.6441 53.4703 78.6582C53.4802 78.6589 53.4882 78.6673 53.4882 78.6772V78.7275C53.4882 78.7381 53.4795 78.7465 53.4692 78.7465Z" fill="#2E2E2E"/>
<path d="M57.137 78.751C57.4418 78.751 57.6698 78.5961 57.8224 78.2871C57.9738 77.9777 58.0503 77.5758 58.0503 77.081C58.0503 76.6194 57.9777 76.2365 57.8327 75.9317C57.6877 75.6272 57.4559 75.475 57.137 75.475C56.9608 75.475 56.8093 75.5214 56.6806 75.6143C56.552 75.7067 56.4546 75.8331 56.3876 75.9922C56.3214 76.1516 56.273 76.3199 56.2449 76.4957C56.216 76.6715 56.2026 76.8622 56.2026 77.0669C56.2026 77.5659 56.2784 77.9719 56.431 78.2833C56.5832 78.595 56.818 78.751 57.137 78.751ZM57.0947 78.8225C56.6464 78.8225 56.2658 78.6665 55.9522 78.3548C55.6382 78.0431 55.4814 77.6329 55.4814 77.1236C55.4814 76.6144 55.6333 76.2007 55.9381 75.8818C56.2418 75.5637 56.6441 75.4038 57.1446 75.4038C57.6344 75.4038 58.0283 75.5606 58.3255 75.8746C58.622 76.1889 58.7715 76.5885 58.7715 77.0734C58.7715 77.5689 58.6212 77.9834 58.3225 78.3194C58.0214 78.6547 57.6134 78.8225 57.0947 78.8225Z" fill="#2E2E2E"/>
<path d="M57.1371 75.4896C56.9666 75.4896 56.8162 75.5353 56.6918 75.6255C56.5669 75.7153 56.4707 75.8397 56.4052 75.9954C56.339 76.1556 56.291 76.3231 56.264 76.4943C56.2355 76.6663 56.2218 76.8521 56.2218 77.0625C56.2218 77.5573 56.2979 77.9637 56.4478 78.2705C56.5982 78.578 56.8238 78.7276 57.1371 78.7276C57.432 78.7276 57.6569 78.5749 57.8053 78.2743C57.9553 77.9679 58.0318 77.5653 58.0318 77.0766C58.0318 76.6207 57.9587 76.2367 57.8156 75.9356C57.6748 75.6399 57.4461 75.4896 57.1371 75.4896ZM57.1371 78.7656C56.812 78.7656 56.5688 78.6046 56.414 78.2872C56.261 77.9751 56.1837 77.563 56.1837 77.0625C56.1837 76.8502 56.1974 76.6622 56.2259 76.4882C56.2545 76.3143 56.3028 76.1434 56.3702 75.9809C56.4383 75.8184 56.5392 75.6883 56.6693 75.5946C56.8006 75.4995 56.9582 75.4515 57.1371 75.4515C57.4621 75.4515 57.7022 75.6087 57.8499 75.9193C57.9956 76.2256 58.0695 76.615 58.0695 77.0766C58.0695 77.571 57.9922 77.9793 57.8396 78.291C57.6839 78.6058 57.4476 78.7656 57.1371 78.7656ZM57.1447 75.4184C56.6526 75.4184 56.2511 75.5771 55.9519 75.8907C55.6528 76.2039 55.5006 76.6172 55.5006 77.1192C55.5006 77.6208 55.657 78.0303 55.9656 78.3367C56.2743 78.6438 56.6541 78.7991 57.0948 78.7991C57.604 78.7991 58.0124 78.632 58.3085 78.3024C58.6034 77.9713 58.7526 77.5561 58.7526 77.069C58.7526 76.5921 58.6042 76.1933 58.3119 75.8831C58.0192 75.5748 57.6269 75.4184 57.1447 75.4184ZM57.0948 78.8372C56.6438 78.8372 56.2549 78.6781 55.939 78.3641C55.6227 78.0501 55.4629 77.6311 55.4629 77.1192C55.4629 76.6074 55.6182 76.1849 55.9242 75.8645C56.2309 75.5433 56.6415 75.3804 57.1447 75.3804C57.6375 75.3804 58.0398 75.5406 58.3393 75.8572C58.6388 76.1746 58.7907 76.5822 58.7907 77.069C58.7907 77.566 58.6377 77.9892 58.3366 78.3276C58.0329 78.6659 57.6154 78.8372 57.0948 78.8372Z" fill="#2E2E2E"/>
<path d="M60.8692 78.751C61.1732 78.751 61.4012 78.5961 61.5546 78.2871C61.7061 77.9777 61.7826 77.5758 61.7826 77.081C61.7826 76.6194 61.7099 76.2365 61.5649 75.9317C61.4191 75.6272 61.1873 75.475 60.8692 75.475C60.693 75.475 60.5407 75.5214 60.4121 75.6143C60.2842 75.7067 60.186 75.8331 60.1198 75.9922C60.0524 76.1516 60.0053 76.3199 59.9771 76.4957C59.9482 76.6715 59.9333 76.8622 59.9333 77.0669C59.9333 77.5659 60.0098 77.9719 60.1624 78.2833C60.3147 78.595 60.5502 78.751 60.8692 78.751ZM60.8254 78.8225C60.3786 78.8225 59.9988 78.6665 59.6844 78.3548C59.3701 78.0431 59.2129 77.6329 59.2129 77.1236C59.2129 76.6144 59.3655 76.2007 59.6696 75.8818C59.9748 75.5637 60.3763 75.4038 60.876 75.4038C61.3658 75.4038 61.7597 75.5606 62.0569 75.8746C62.3542 76.1889 62.5037 76.5885 62.5037 77.0734C62.5037 77.5689 62.3527 77.9834 62.0539 78.3194C61.7536 78.6547 61.3441 78.8225 60.8254 78.8225Z" fill="#2E2E2E"/>
<path d="M60.869 75.4896C60.6978 75.4896 60.5474 75.5353 60.423 75.6255C60.2978 75.716 60.2015 75.8405 60.1372 75.9954C60.0717 76.1495 60.0241 76.3177 59.996 76.4943C59.967 76.6701 59.9522 76.8612 59.9522 77.0625C59.9522 77.5561 60.0287 77.9626 60.1794 78.2705C60.3275 78.5738 60.5596 78.7276 60.869 78.7276C61.1632 78.7276 61.3881 78.5749 61.5373 78.2743C61.6873 77.9679 61.7638 77.5653 61.7638 77.0766C61.7638 76.6207 61.6907 76.2367 61.5476 75.9356C61.406 75.6399 61.1777 75.4896 60.869 75.4896ZM60.869 78.7656C60.544 78.7656 60.3001 78.6046 60.1452 78.2872C59.9918 77.974 59.9141 77.5618 59.9141 77.0625C59.9141 76.8589 59.929 76.6656 59.9579 76.4882C59.9872 76.3086 60.0355 76.1377 60.1022 75.9805C60.1691 75.8196 60.2696 75.6894 60.4009 75.5946C60.5318 75.4995 60.6894 75.4515 60.869 75.4515C61.1936 75.4515 61.4334 75.6087 61.5818 75.9193C61.7276 76.2256 61.8014 76.615 61.8014 77.0766C61.8014 77.571 61.7242 77.9793 61.5716 78.291C61.4155 78.6058 61.1788 78.7656 60.869 78.7656ZM60.8759 75.4184C60.3853 75.4184 59.9838 75.5771 59.6831 75.8907C59.384 76.2047 59.2318 76.618 59.2318 77.1192C59.2318 77.6212 59.3886 78.0307 59.6976 78.3367C60.007 78.6438 60.3861 78.7991 60.8252 78.7991C61.336 78.7991 61.7443 78.632 62.0397 78.3024C62.335 77.9706 62.4846 77.5558 62.4846 77.069C62.4846 76.5921 62.3358 76.1933 62.0431 75.8831C61.7504 75.5748 61.3581 75.4184 60.8759 75.4184ZM60.8252 78.8372C60.3758 78.8372 59.9876 78.6781 59.671 78.3641C59.3547 78.0505 59.1941 77.6315 59.1941 77.1192C59.1941 76.6077 59.3494 76.1857 59.6557 75.8645C59.9636 75.5433 60.3743 75.3804 60.8759 75.3804C61.3687 75.3804 61.771 75.5406 62.0705 75.8572C62.3704 76.1743 62.5226 76.5822 62.5226 77.069C62.5226 77.5653 62.3696 77.9885 62.0678 78.3276C61.7649 78.6659 61.347 78.8372 60.8252 78.8372Z" fill="#2E2E2E"/>
<path d="M64.7158 78.6034C64.9967 78.6034 65.2399 78.4941 65.4443 78.2753V76.084C65.3921 75.9272 65.2993 75.7882 65.1657 75.6668C65.0325 75.5454 64.8563 75.4849 64.6378 75.4849C64.3429 75.4849 64.1092 75.6379 63.9383 75.945C63.7667 76.2518 63.681 76.6529 63.681 77.1473C63.681 77.5518 63.7644 77.8963 63.9307 78.179C64.0981 78.4622 64.3596 78.6034 64.7158 78.6034ZM64.4734 78.8104C64.0452 78.8104 63.6848 78.6509 63.3926 78.3324C63.0999 78.0139 62.9534 77.5926 62.9534 77.0693C62.9534 76.5935 63.1163 76.197 63.4424 75.8807C63.7682 75.5645 64.148 75.4065 64.5807 75.4065C64.8475 75.4065 65.1352 75.4708 65.4443 75.5991V73.9931C65.4302 73.8267 65.3655 73.7053 65.2517 73.6292C65.1657 73.5721 64.959 73.5364 64.6302 73.5219V73.4797L66.065 73.4009L66.0931 73.4294V78.1756C66.108 78.3324 66.1696 78.4489 66.2789 78.525C66.355 78.5779 66.4954 78.6083 66.6998 78.6178V78.6605L65.5013 78.7392L65.4511 78.6894V78.3967L65.4302 78.3891C65.1634 78.67 64.8452 78.8104 64.4734 78.8104Z" fill="#2E2E2E"/>
<path d="M64.6371 75.4912C64.3505 75.4912 64.1206 75.6427 63.9543 75.9418C63.7853 76.2436 63.6993 76.6452 63.6993 77.1346C63.6993 77.5342 63.7827 77.8778 63.9467 78.1568C64.1092 78.432 64.3676 78.5716 64.7151 78.5716C64.9876 78.5716 65.2262 78.4651 65.4245 78.255V76.0747C65.3739 75.9228 65.2818 75.7862 65.1524 75.6682C65.0233 75.5506 64.8502 75.4912 64.6371 75.4912ZM64.7151 78.6097C64.3531 78.6097 64.0837 78.4639 63.914 78.1762C63.7461 77.8915 63.6616 77.541 63.6616 77.1346C63.6616 76.6387 63.7488 76.2307 63.9208 75.9232C64.0944 75.6111 64.3356 75.4532 64.6371 75.4532C64.8597 75.4532 65.0412 75.516 65.1775 75.64C65.3133 75.7634 65.4089 75.9065 65.4618 76.0655C65.4622 76.0674 65.4625 76.0693 65.4625 76.0712V78.2626C65.4625 78.2676 65.4606 78.2725 65.4572 78.2755C65.2506 78.4974 65.0009 78.6097 64.7151 78.6097ZM64.58 75.4125C64.1537 75.4125 63.7754 75.5704 63.4554 75.8817C63.1345 76.1926 62.9717 76.5877 62.9717 77.0566C62.9717 77.5726 63.1178 77.9932 63.4063 78.3068C63.6932 78.62 64.0521 78.7791 64.4726 78.7791C64.8365 78.7791 65.1535 78.639 65.4157 78.3631C65.4214 78.3581 65.4298 78.3562 65.4359 78.3585L65.4564 78.3661C65.4644 78.3688 65.4694 78.376 65.4694 78.384V78.6687L65.5082 78.7071L66.68 78.6299V78.623C66.4798 78.6127 66.3447 78.5815 66.2675 78.5279C66.154 78.4491 66.0886 78.3269 66.0734 78.1648V73.4243L66.0566 73.4076L64.6485 73.4848V73.4909C64.9727 73.5061 65.1733 73.5423 65.2616 73.6009C65.3803 73.6801 65.4481 73.8072 65.4625 73.9788V75.5864C65.4625 75.5929 65.4595 75.5986 65.4538 75.6024C65.4488 75.6058 65.442 75.6062 65.4363 75.6039C65.131 75.4768 64.8426 75.4125 64.58 75.4125ZM64.4726 78.8167C64.0411 78.8167 63.6727 78.6538 63.3777 78.3323C63.0832 78.0118 62.9336 77.5829 62.9336 77.0566C62.9336 76.5774 63.1003 76.1729 63.4283 75.8543C63.7564 75.5361 64.1434 75.3744 64.58 75.3744C64.8399 75.3744 65.1242 75.4361 65.4245 75.5578V73.9803C65.4112 73.8228 65.3491 73.7052 65.2407 73.6325C65.1577 73.5777 64.9518 73.5423 64.6291 73.5282C64.6184 73.5278 64.6108 73.5195 64.6108 73.5092V73.4669C64.6108 73.4567 64.6184 73.4483 64.6287 73.4479L66.0631 73.3691C66.0692 73.3699 66.0741 73.3707 66.0775 73.3748L66.1057 73.4034C66.1095 73.4068 66.1114 73.4118 66.1114 73.4167V78.1629C66.1255 78.3117 66.1852 78.4247 66.2891 78.4967C66.3615 78.5469 66.5 78.577 66.6998 78.5861C66.7101 78.5865 66.7181 78.5949 66.7181 78.6051V78.6478C66.7181 78.6576 66.7101 78.666 66.7002 78.6668L65.5017 78.7456H65.501C65.496 78.7456 65.4911 78.7437 65.4873 78.7402L65.437 78.69C65.4332 78.6862 65.4313 78.6812 65.4313 78.6767V78.4019C65.1642 78.6774 64.8418 78.8167 64.4726 78.8167Z" fill="#2E2E2E"/>
<path d="M70.4694 78.8117C70.184 78.8117 69.9203 78.7714 69.6778 78.6907C69.4346 78.6093 69.2497 78.5191 69.121 78.4194L68.8714 78.7904H68.8067L68.7568 77.1204H68.8208C69.0206 77.6297 69.2451 78.0228 69.4955 78.3014C69.7448 78.58 70.0748 78.7189 70.4843 78.7189C70.8165 78.7189 71.0654 78.6214 71.2298 78.4262C71.3942 78.2314 71.4761 77.9885 71.4761 77.6985C71.4761 77.4843 71.4121 77.2974 71.2827 77.1383C71.1549 76.9793 70.9809 76.8537 70.7625 76.7635C70.2247 76.5492 69.8845 76.4095 69.7418 76.3425C69.1797 76.0952 68.8996 75.6716 68.8996 75.0722C68.8996 74.6965 69.0347 74.3822 69.3068 74.1299C69.5774 73.8783 69.918 73.752 70.3267 73.752C70.8032 73.752 71.2055 73.8783 71.5324 74.1299L71.7828 73.7733H71.8403L71.8757 75.3934H71.8117C71.7444 75.1795 71.6721 74.9877 71.594 74.8187C71.5153 74.6497 71.4163 74.4884 71.2976 74.3331C71.1785 74.179 71.0342 74.0587 70.8649 73.9734C70.6963 73.8874 70.5075 73.8444 70.2978 73.8444C70.0843 73.8444 69.8917 73.9205 69.7201 74.0728C69.5484 74.225 69.4628 74.432 69.4628 74.6939C69.4628 74.8986 69.5172 75.071 69.6234 75.2115C69.7315 75.3515 69.8917 75.479 70.1052 75.5932C70.2392 75.6644 70.4143 75.7431 70.6338 75.8288C70.8523 75.9144 70.9996 75.9738 71.0761 76.0069C71.4232 76.169 71.6782 76.3414 71.8403 76.5241C72.0013 76.7075 72.0823 76.9754 72.0823 77.3275C72.0823 77.7602 71.9286 78.116 71.6222 78.3942C71.3155 78.6728 70.9311 78.8117 70.4694 78.8117Z" fill="#2E2E2E"/>
<path d="M69.1199 78.3959C69.124 78.3959 69.1278 78.3971 69.1313 78.3997C69.2572 78.4979 69.443 78.5881 69.6827 78.668C69.9221 78.748 70.1866 78.7883 70.4682 78.7883C70.923 78.7883 71.3067 78.6498 71.6085 78.3757C71.9095 78.1021 72.0621 77.7478 72.0621 77.3231C72.0621 76.9775 71.9822 76.7115 71.8246 76.5326C71.6652 76.3526 71.4106 76.1802 71.0665 76.0196C70.9889 75.9861 70.8404 75.926 70.6254 75.8419C70.4096 75.7574 70.2308 75.6778 70.0953 75.6055C69.8806 75.491 69.7162 75.3604 69.607 75.2181C69.4981 75.0746 69.443 74.8969 69.443 74.6895C69.443 74.4231 69.5313 74.2096 69.7063 74.0539C69.881 73.8994 70.0793 73.821 70.2966 73.821C70.5078 73.821 70.7019 73.8651 70.872 73.9519C71.0433 74.0379 71.1906 74.1609 71.3116 74.3173C71.4307 74.4729 71.5316 74.6377 71.61 74.8063C71.6861 74.9711 71.7565 75.1557 71.8242 75.3699H71.8551L71.8204 73.7879H71.7919L71.5468 74.1365C71.5438 74.1407 71.5392 74.1437 71.5342 74.1445C71.5293 74.1452 71.5236 74.1441 71.5198 74.1407C71.1974 73.8925 70.7955 73.7662 70.3255 73.7662C69.9233 73.7662 69.5845 73.8922 69.3185 74.1395C69.0521 74.3865 68.9174 74.699 68.9174 75.0678C68.9174 75.6565 69.1967 76.0786 69.7482 76.3206C69.8867 76.3853 70.2106 76.5193 70.7681 76.7415C70.9893 76.8329 71.167 76.9608 71.2964 77.1217C71.4269 77.2835 71.4935 77.4761 71.4935 77.6941C71.4935 77.9876 71.4094 78.2368 71.2431 78.4344C71.076 78.633 70.8203 78.7335 70.4831 78.7335C70.0694 78.7335 69.7318 78.5912 69.4803 78.3095C69.2321 78.0336 69.0053 77.6386 68.8066 77.1351H68.7754L68.8241 78.7674H68.8599L69.1043 78.4043C69.1069 78.3997 69.1119 78.3967 69.1168 78.3959H69.1199ZM70.4682 78.8264C70.1824 78.8264 69.9141 78.7853 69.6706 78.7042C69.4369 78.6262 69.2534 78.5383 69.1244 78.4424L68.8858 78.7967C68.8824 78.802 68.8763 78.8054 68.8702 78.8054H68.8055C68.7948 78.8054 68.7868 78.797 68.7865 78.7868L68.7366 77.1164C68.7362 77.1115 68.7385 77.1065 68.7419 77.1027C68.7457 77.0989 68.7503 77.097 68.7556 77.097H68.8196C68.8272 77.097 68.8344 77.102 68.8375 77.1092C69.0354 77.6142 69.2614 78.0096 69.5084 78.2844C69.7528 78.5573 70.0804 78.6958 70.4831 78.6958C70.8085 78.6958 71.0543 78.5995 71.2142 78.41C71.3744 78.2197 71.4558 77.9784 71.4558 77.6941C71.4558 77.4848 71.3923 77.3006 71.2667 77.1457C71.1415 76.9901 70.9687 76.8656 70.7537 76.7769C70.1957 76.5543 69.8711 76.4203 69.7322 76.3553C69.1663 76.1064 68.8793 75.6733 68.8793 75.0678C68.8793 74.688 69.0182 74.3664 69.2926 74.1118C69.5659 73.8575 69.9134 73.7285 70.3255 73.7285C70.7963 73.7285 71.2009 73.853 71.527 74.0984L71.766 73.7578C71.7698 73.7529 71.7755 73.7498 71.7816 73.7498H71.8391C71.8494 73.7498 71.8577 73.7578 71.8577 73.7685L71.8935 75.3886C71.8935 75.3935 71.8916 75.3985 71.8882 75.4023C71.8848 75.4057 71.8798 75.4076 71.8745 75.4076H71.8105C71.8025 75.4076 71.7949 75.4023 71.7923 75.3947C71.7238 75.1762 71.6526 74.989 71.5757 74.8223C71.4981 74.6564 71.3991 74.4942 71.2812 74.3405C71.1639 74.1886 71.0208 74.0691 70.8553 73.9858C70.6901 73.9017 70.5021 73.8591 70.2966 73.8591C70.0892 73.8591 69.8993 73.9344 69.7314 74.0828C69.5651 74.2301 69.4806 74.4345 69.4806 74.6895C69.4806 74.8881 69.5335 75.0583 69.6374 75.1953C69.7432 75.3334 69.9035 75.4601 70.1128 75.572C70.2475 75.644 70.4249 75.7227 70.6395 75.8065C70.8545 75.8906 71.0033 75.9511 71.0821 75.985C71.4311 76.1478 71.6903 76.3233 71.8532 76.5071C72.0172 76.6932 72.1002 76.968 72.1002 77.3231C72.1002 77.7592 71.9434 78.1227 71.6336 78.4039C71.3249 78.684 70.9329 78.8264 70.4682 78.8264Z" fill="#2E2E2E"/>
<path d="M72.5099 78.717V78.6667C72.6244 78.6622 72.7283 78.6458 72.8242 78.6173C72.9521 78.5742 73.0168 78.4669 73.0168 78.296V73.9852C72.9974 73.809 72.9335 73.6831 72.8242 73.607C72.7523 73.5598 72.5932 73.5286 72.3455 73.5141V73.4715L73.6375 73.3931L73.6657 73.4212V75.9837H73.6805C73.6851 75.9787 73.714 75.9505 73.7662 75.8976C73.8183 75.8455 73.8522 75.8135 73.8659 75.8014C73.8807 75.7899 73.9119 75.7614 73.9622 75.7157C74.012 75.6708 74.0508 75.6408 74.0767 75.6267C74.103 75.6122 74.1406 75.589 74.1905 75.5551C74.2411 75.522 74.2856 75.4992 74.3264 75.4878C74.3667 75.4756 74.4158 75.4615 74.4721 75.4448C74.5296 75.428 74.5882 75.4162 74.6476 75.409C74.7069 75.4021 74.7694 75.3983 74.8371 75.3983C75.1598 75.3983 75.403 75.498 75.564 75.6978C75.7261 75.8976 75.8064 76.1739 75.8064 76.526V78.2675C75.8064 78.4384 75.8688 78.5526 75.9929 78.6096C76.0637 78.6382 76.1691 78.6576 76.3069 78.6667V78.717H74.6225V78.6667C74.7553 78.6576 74.8675 78.6409 74.9577 78.6173C75.0864 78.5742 75.1507 78.4669 75.1507 78.296V76.4404C75.1507 76.2074 75.0921 76.0217 74.9756 75.8836C74.8596 75.7458 74.7206 75.6769 74.5585 75.6769C74.3252 75.6769 74.1311 75.7279 73.9766 75.8299C73.8217 75.9327 73.7186 76.0381 73.6657 76.1477V78.2603C73.6657 78.4315 73.7304 78.5457 73.859 78.6028C73.9294 78.6363 74.0417 78.6576 74.1943 78.6667V78.717H72.5099Z" fill="#2E2E2E"/>
<path d="M74.6416 78.7028H76.288V78.6891C76.157 78.6796 76.0558 78.6606 75.9862 78.632C75.8545 78.5715 75.7879 78.4505 75.7879 78.2724V76.5309C75.7879 76.1841 75.7076 75.9094 75.5496 75.7149C75.3928 75.5204 75.1535 75.4218 74.8376 75.4218C74.7717 75.4218 74.7105 75.4257 74.6499 75.4329C74.5902 75.4401 74.5324 75.4519 74.4779 75.4679L74.3325 75.5105C74.2945 75.5216 74.2515 75.5429 74.2012 75.576C74.1552 75.6072 74.1152 75.6323 74.0863 75.6483C74.0684 75.6578 74.0346 75.681 73.9752 75.7347L73.9493 75.7587C73.9124 75.7918 73.8899 75.8116 73.8774 75.8215C73.8629 75.8344 73.8275 75.8675 73.7796 75.9158C73.748 75.9482 73.7248 75.9714 73.7107 75.9855C73.7016 75.9942 73.6966 75.9996 73.6951 76.0011C73.6913 76.0053 73.6859 76.0072 73.681 76.0072H73.6662C73.6555 76.0072 73.6471 75.9992 73.6471 75.9885V73.4341L73.6304 73.4173L72.365 73.4942V73.5011C72.6066 73.5159 72.7608 73.5471 72.835 73.5958C72.9488 73.675 73.0161 73.8067 73.0359 73.9878V78.3009C73.0359 78.4802 72.967 78.5943 72.8304 78.64C72.7368 78.6678 72.6378 78.6842 72.529 78.6899V78.7028H74.1754V78.6895C74.0304 78.6796 73.9211 78.6579 73.8511 78.6248C73.7156 78.565 73.6471 78.4436 73.6471 78.2651V76.1522C73.6471 76.1495 73.6479 76.1465 73.649 76.1438C73.7027 76.0323 73.8093 75.9231 73.9664 75.8188C74.1232 75.7153 74.3223 75.6628 74.5586 75.6628C74.7261 75.6628 74.8711 75.7343 74.9902 75.8763C75.1093 76.0175 75.1702 76.2089 75.1702 76.4452V78.3009C75.1702 78.4802 75.1006 78.5943 74.9639 78.64C74.8753 78.6632 74.7675 78.68 74.6416 78.6891V78.7028ZM76.307 78.7409H74.6225C74.6123 78.7409 74.6035 78.7325 74.6035 78.7218V78.6716C74.6035 78.6617 74.6115 78.6533 74.6214 78.6526C74.7523 78.6438 74.8638 78.6271 74.9529 78.6035C75.0732 78.5635 75.1321 78.4646 75.1321 78.3009V76.4452C75.1321 76.2184 75.0747 76.035 74.9613 75.9006C74.8494 75.7682 74.7139 75.7004 74.5586 75.7004C74.3303 75.7004 74.1377 75.751 73.987 75.8504C73.8382 75.9497 73.7366 76.0525 73.6848 76.1567V78.2651C73.6848 78.4296 73.7446 78.5361 73.8671 78.5902C73.936 78.6229 74.0467 78.6438 74.1955 78.6526C74.2054 78.6533 74.2134 78.6617 74.2134 78.6716V78.7218C74.2134 78.7325 74.2051 78.7409 74.1944 78.7409H72.51C72.4997 78.7409 72.4913 78.7325 72.4913 78.7218V78.6716C72.4913 78.6613 72.4989 78.653 72.5092 78.6526C72.6222 78.648 72.7238 78.632 72.819 78.6039C72.9393 78.5635 72.9982 78.4642 72.9982 78.3009V73.9901C72.9796 73.8223 72.9176 73.6997 72.8137 73.6274C72.7448 73.5821 72.5868 73.5517 72.3448 73.5376C72.3345 73.5372 72.3269 73.5289 72.3269 73.5186V73.4763C72.3269 73.4664 72.3345 73.4581 72.3448 73.4573L73.6365 73.3789C73.641 73.3793 73.6475 73.3804 73.6509 73.3842L73.6795 73.4128C73.6829 73.4162 73.6848 73.4212 73.6848 73.4261V75.9573C73.6993 75.9432 73.7221 75.9204 73.7529 75.8892C73.8013 75.8405 73.8374 75.8062 73.8534 75.7921C73.866 75.7823 73.8884 75.7613 73.9234 75.7301L73.9501 75.7065C73.9995 75.6612 74.0395 75.6304 74.0677 75.6148C74.0875 75.6041 74.1228 75.5832 74.1799 75.5444C74.234 75.509 74.28 75.4858 74.3215 75.4744L74.4673 75.4314C74.5232 75.4146 74.5837 75.4024 74.6458 75.3948C74.7074 75.3876 74.7702 75.3842 74.8376 75.3842C75.1653 75.3842 75.4149 75.4873 75.5793 75.6909C75.743 75.8926 75.8256 76.175 75.8256 76.5309V78.2724C75.8256 78.4368 75.8834 78.543 76.001 78.5974C76.0695 78.6248 76.173 78.6438 76.3081 78.6526C76.318 78.6533 76.326 78.6617 76.326 78.6716V78.7218C76.326 78.7325 76.3173 78.7409 76.307 78.7409Z" fill="#2E2E2E"/>
<path d="M78.3257 78.751C78.6298 78.751 78.8578 78.5961 79.0111 78.2871C79.1626 77.9777 79.2391 77.5758 79.2391 77.081C79.2391 76.6194 79.1672 76.2365 79.0222 75.9317C78.8756 75.6272 78.6446 75.475 78.3257 75.475C78.1495 75.475 77.998 75.5214 77.8694 75.6143C77.7408 75.7067 77.6426 75.8331 77.5764 75.9922C77.5094 76.1516 77.4626 76.3199 77.4336 76.4957C77.4055 76.6715 77.3906 76.8622 77.3906 77.0669C77.3906 77.5659 77.4671 77.9719 77.619 78.2833C77.772 78.595 78.0068 78.751 78.3257 78.751ZM78.2827 78.8225C77.8359 78.8225 77.4553 78.6665 77.1417 78.3548C76.827 78.0431 76.6694 77.6329 76.6694 77.1236C76.6694 76.6144 76.8228 76.2007 77.1269 75.8818C77.4314 75.5637 77.8336 75.4038 78.3333 75.4038C78.8231 75.4038 79.217 75.5606 79.5143 75.8746C79.8115 76.1889 79.9603 76.5885 79.9603 77.0734C79.9603 77.5689 79.81 77.9834 79.5104 78.3194C79.2109 78.6547 78.8014 78.8225 78.2827 78.8225Z" fill="#2E2E2E"/>
<path d="M78.326 75.4896C78.1555 75.4896 78.0052 75.5353 77.8808 75.6255C77.7548 75.716 77.6585 75.8405 77.5942 75.9954C77.5295 76.1495 77.4819 76.3174 77.453 76.4943C77.4245 76.6713 77.41 76.8627 77.41 77.0625C77.41 77.5558 77.4861 77.9622 77.6364 78.2705C77.7871 78.578 78.0128 78.7276 78.326 78.7276C78.6202 78.7276 78.8452 78.5749 78.9943 78.2743C79.1443 77.9679 79.2208 77.5653 79.2208 77.0766C79.2208 76.6195 79.1481 76.2355 79.0054 75.9356C78.8608 75.6354 78.6389 75.4896 78.326 75.4896ZM78.326 78.7656C78.0014 78.7656 77.7578 78.6046 77.6022 78.2872C77.4492 77.9736 77.3719 77.5615 77.3719 77.0625C77.3719 76.8608 77.3864 76.6675 77.4149 76.4882C77.445 76.3082 77.4933 76.1377 77.5592 75.9805C77.6262 75.8192 77.727 75.6894 77.8583 75.5946C77.9896 75.4995 78.1472 75.4515 78.326 75.4515C78.6507 75.4515 78.8904 75.6087 79.0396 75.9193C79.185 76.2245 79.2585 76.6138 79.2585 77.0766C79.2585 77.571 79.1812 77.9793 79.0286 78.291C78.8726 78.6058 78.6358 78.7656 78.326 78.7656ZM78.3337 75.4184C77.8423 75.4184 77.4408 75.5771 77.1409 75.8907C76.841 76.2051 76.6888 76.6188 76.6888 77.1192C76.6888 77.6205 76.8456 78.0303 77.1554 78.3367C77.464 78.6438 77.8431 78.7991 78.283 78.7991C78.7938 78.7991 79.2021 78.632 79.4967 78.3024C79.792 77.9713 79.9416 77.5565 79.9416 77.069C79.9416 76.5917 79.7932 76.1925 79.5009 75.8831C79.2082 75.5748 78.8158 75.4184 78.3337 75.4184ZM78.283 78.8372C77.8328 78.8372 77.4446 78.6781 77.1287 78.3641C76.8117 78.0497 76.6511 77.6311 76.6511 77.1192C76.6511 76.6085 76.8064 76.1864 77.1131 75.8645C77.4207 75.5433 77.8313 75.3804 78.3337 75.3804C78.8265 75.3804 79.2288 75.5406 79.5283 75.8572C79.8278 76.1735 79.9797 76.5815 79.9797 77.069C79.9797 77.566 79.8267 77.9896 79.5249 78.3276C79.2227 78.6659 78.8052 78.8372 78.283 78.8372Z" fill="#2E2E2E"/>
<path d="M82.2947 78.7531C82.5987 78.7531 82.8336 78.6081 82.9972 78.3178C83.1612 78.0278 83.2438 77.6354 83.2438 77.1403C83.2438 76.7125 83.1612 76.3582 82.9972 76.0769C82.8336 75.7964 82.5824 75.656 82.244 75.656C81.9392 75.656 81.6926 75.7679 81.5015 75.9913V78.1895C81.5499 78.3322 81.6404 78.462 81.7767 78.5788C81.9126 78.6949 82.0842 78.7531 82.2947 78.7531ZM80.2742 80.3451V80.2945C80.4119 80.285 80.5432 80.264 80.6669 80.2305C80.7902 80.1925 80.8526 80.0806 80.8526 79.8953V76.0415C80.8386 75.8798 80.7769 75.7607 80.6669 75.6845C80.5813 75.6275 80.4496 75.5943 80.2742 75.5845V75.5418L81.4665 75.4634L81.4947 75.4988V75.8699L81.524 75.8775C81.8094 75.5677 82.1302 75.4136 82.4865 75.4136C82.9055 75.4136 83.2571 75.5738 83.5433 75.895C83.8288 76.2162 83.9715 76.6337 83.9715 77.1479C83.9715 77.6236 83.8094 78.0209 83.4862 78.3395C83.1628 78.658 82.7845 78.8175 82.3517 78.8175C82.0039 78.8175 81.7306 78.7436 81.5305 78.5963H81.5015V79.8526C81.5015 80.0235 81.5685 80.1354 81.7013 80.1879C81.8539 80.25 82.018 80.285 82.1942 80.2945V80.3451H80.2742Z" fill="#2E2E2E"/>
<path d="M81.5194 78.1698C81.567 78.3088 81.6572 78.4359 81.7877 78.5478C81.9217 78.6619 82.0869 78.7175 82.2935 78.7175C82.59 78.7175 82.8202 78.5744 82.9793 78.292C83.1418 78.0058 83.224 77.6127 83.224 77.1236C83.224 76.702 83.1418 76.3473 82.9797 76.0698C82.8202 75.7969 82.5729 75.6584 82.2429 75.6584C81.9487 75.6584 81.7052 75.7673 81.5194 75.9815V78.1698ZM82.2935 78.7556C82.0808 78.7556 81.9023 78.6954 81.7634 78.5767C81.6264 78.4595 81.532 78.3255 81.4825 78.179C81.4818 78.1771 81.4814 78.1752 81.4814 78.1729V75.9747C81.4814 75.9701 81.4829 75.9655 81.4859 75.9621C81.68 75.7357 81.9346 75.6204 82.2429 75.6204C82.5873 75.6204 82.8457 75.7654 83.0124 76.0508C83.1776 76.3339 83.2617 76.6951 83.2617 77.1236C83.2617 77.6195 83.178 78.0188 83.0128 78.3107C82.8461 78.606 82.6045 78.7556 82.2935 78.7556ZM80.2921 80.3095H82.1744V80.2961C82.0031 80.2851 81.8418 80.2493 81.6934 80.1892C81.5529 80.1336 81.4814 80.0149 81.4814 79.836V78.5797C81.4814 78.5695 81.4901 78.5611 81.5004 78.5611H81.5293C81.5335 78.5611 81.5377 78.5622 81.5407 78.5645C81.7367 78.7091 82.0092 78.7822 82.351 78.7822C82.7765 78.7822 83.1536 78.6227 83.4718 78.3091C83.7903 77.9955 83.9517 77.5994 83.9517 77.1313C83.9517 76.6243 83.8094 76.2072 83.5281 75.8913C83.2473 75.5758 82.8964 75.4156 82.4853 75.4156C82.136 75.4156 81.817 75.5697 81.5369 75.8738C81.532 75.8788 81.5251 75.8811 81.5179 75.8792L81.489 75.8719C81.4806 75.87 81.4749 75.8624 81.4749 75.8537V75.4891L81.457 75.4666L80.2921 75.5431V75.5503C80.4626 75.5614 80.5916 75.5956 80.6761 75.6519C80.7906 75.7315 80.8561 75.8563 80.8705 76.0234V79.879C80.8705 80.0727 80.8036 80.1915 80.6711 80.2322C80.5528 80.2642 80.4257 80.2855 80.2921 80.2958V80.3095ZM82.1934 80.3475H80.2734C80.2628 80.3475 80.2544 80.3391 80.2544 80.3285V80.2782C80.2544 80.268 80.262 80.26 80.2719 80.2592C80.4093 80.2497 80.5402 80.2284 80.6609 80.1957C80.7746 80.1606 80.8325 80.0541 80.8325 79.879V76.0249C80.8188 75.8693 80.7609 75.757 80.6551 75.6835C80.5733 75.6291 80.4447 75.5964 80.2723 75.5872C80.262 75.5865 80.2544 75.5781 80.2544 75.5682V75.5252C80.2544 75.5149 80.262 75.5066 80.2723 75.5062L81.4643 75.4278C81.47 75.4266 81.4764 75.4301 81.4802 75.435L81.5088 75.4704C81.5114 75.4738 81.5126 75.478 81.5126 75.4822V75.8388L81.5164 75.8396C81.8022 75.5332 82.1284 75.3779 82.4853 75.3779C82.9074 75.3779 83.2682 75.542 83.5567 75.8658C83.8436 76.1889 83.9894 76.6148 83.9894 77.1313C83.9894 77.61 83.8246 78.0153 83.4984 78.3362C83.173 78.6574 82.7868 78.8199 82.351 78.8199C82.0035 78.8199 81.7253 78.7457 81.5232 78.5988H81.5194V79.836C81.5194 80 81.5811 80.1039 81.7074 80.1538C81.8574 80.2143 82.0207 80.2501 82.1942 80.2592C82.2045 80.2596 82.2121 80.268 82.2121 80.2782V80.3285C82.2121 80.3391 82.2037 80.3475 82.1934 80.3475Z" fill="#2E2E2E"/>
<path d="M116.124 104.834C116.124 104.533 115.919 104.338 115.568 104.338H115.007V105.325H115.568C115.919 105.325 116.124 105.125 116.124 104.834ZM115.007 105.921V107.288H114.311V103.737H115.698C116.389 103.737 116.83 104.213 116.83 104.829C116.83 105.325 116.54 105.7 116.074 105.835L116.835 107.288H116.064L115.368 105.921H115.007Z" fill="#2E2E2E"/>
<path fill-rule="evenodd" clip-rule="evenodd" d="M115.475 101.991C117.414 101.991 118.987 103.565 118.987 105.503C118.987 107.441 117.414 109.014 115.475 109.014C113.538 109.014 111.964 107.441 111.964 105.503C111.964 103.565 113.538 101.991 115.475 101.991ZM115.475 102.792C116.972 102.792 118.186 104.007 118.186 105.503C118.186 106.999 116.972 108.213 115.475 108.213C113.979 108.213 112.765 106.999 112.765 105.503C112.765 104.007 113.979 102.792 115.475 102.792Z" fill="#2E2E2E"/>
</svg>
