<svg width="175" height="48" viewBox="0 0 175 48" fill="none" xmlns="http://www.w3.org/2000/svg">
<g clip-path="url(#clip0_1131_2574)">
<path fill-rule="evenodd" clip-rule="evenodd" d="M170.817 2.27728C172.168 2.27728 173.243 3.22888 173.243 4.44299C173.243 5.6571 172.161 6.58901 170.817 6.58901C169.473 6.58901 168.406 5.63741 168.406 4.44299C168.406 3.24856 169.477 2.27728 170.817 2.27728ZM170.817 6.15915C171.914 6.15915 172.748 5.40443 172.748 4.44299C172.748 3.48154 171.91 2.71698 170.817 2.71698C169.724 2.71698 168.897 3.4717 168.897 4.44299C168.897 5.41427 169.746 6.15915 170.817 6.15915ZM171.005 3.40935C171.541 3.40935 171.832 3.72765 171.832 4.105C171.832 4.39377 171.655 4.64971 171.341 4.75144L171.899 5.43724H171.408L170.906 4.80066H170.37V5.43724H169.946V3.41263H171.005V3.40935ZM170.37 3.75718V4.45283H170.972C171.264 4.45283 171.419 4.28548 171.419 4.105C171.419 3.92453 171.264 3.75718 170.972 3.75718H170.37Z" fill="#003DA5"/>
<path d="M98.4134 42.7892H99.1112V45.6013H100.979V46.1887H98.4097V42.7892H98.4134Z" fill="#003DA5"/>
<path d="M105.173 42.7892V44.8138C105.173 45.621 104.612 46.2379 103.556 46.2379C102.5 46.2379 101.943 45.621 101.943 44.8138V42.7892H102.641V44.7678C102.641 45.3421 102.98 45.6505 103.553 45.6505C104.125 45.6505 104.472 45.3388 104.472 44.7678V42.7892H105.17H105.173Z" fill="#003DA5"/>
<path d="M109.859 42.7892V46.1887H109.154V44.7744H107.3V46.1887H106.603V42.7892H107.3V44.1969H109.154V42.7892H109.859Z" fill="#003DA5"/>
<path d="M113.174 42.7892L114.665 46.1887H113.905L113.654 45.5816H111.915L111.664 46.1887H110.911L112.402 42.7892H113.174ZM112.151 45.0205H113.418L112.782 43.4947L112.147 45.0205H112.151Z" fill="#003DA5"/>
<path d="M118.93 45.0632C118.701 45.7523 118.062 46.2379 117.224 46.2379C116.179 46.2379 115.404 45.5029 115.404 44.4889C115.404 43.475 116.179 42.74 117.224 42.74C118.058 42.74 118.701 43.2256 118.93 43.9213L118.247 44.1017C118.095 43.6456 117.715 43.3339 117.224 43.3339C116.596 43.3339 116.135 43.8294 116.135 44.4889C116.135 45.1485 116.593 45.644 117.224 45.644C117.715 45.644 118.092 45.3322 118.247 44.8761L118.93 45.0599V45.0632ZM118.088 42.0279L117.224 42.6021L116.356 42.0279L116.689 41.6669L117.224 42.0115L117.756 41.6669L118.088 42.0279Z" fill="#003DA5"/>
<path d="M121.772 42.74C122.839 42.74 123.615 43.475 123.615 44.4889C123.615 45.5029 122.839 46.2379 121.772 46.2379C120.705 46.2379 119.93 45.5029 119.93 44.4889C119.93 43.475 120.705 42.74 121.772 42.74ZM121.772 45.644C122.419 45.644 122.884 45.1518 122.884 44.4889C122.884 43.8261 122.419 43.3339 121.772 43.3339C121.126 43.3339 120.661 43.8294 120.661 44.4889C120.661 45.1485 121.13 45.644 121.772 45.644Z" fill="#003DA5"/>
<path d="M125.8 46.1887L124.364 42.7892H125.136L126.192 45.3913L127.248 42.7892H128.019L126.583 46.1887H125.808H125.8Z" fill="#003DA5"/>
<path d="M129.78 42.7892V46.1887H129.075V42.7892H129.78Z" fill="#003DA5"/>
<path d="M134.58 45.0632C134.351 45.7523 133.712 46.2379 132.874 46.2379C131.83 46.2379 131.054 45.5029 131.054 44.4889C131.054 43.475 131.83 42.74 132.874 42.74C133.709 42.74 134.351 43.2256 134.58 43.9213L133.897 44.1017C133.746 43.6456 133.365 43.3339 132.874 43.3339C132.247 43.3339 131.785 43.8294 131.785 44.4889C131.785 45.1485 132.243 45.644 132.874 45.644C133.365 45.644 133.742 45.3322 133.897 44.8761L134.58 45.0599V45.0632Z" fill="#003DA5"/>
<path d="M135.784 42.7892H138.471V43.3667H136.481V44.2035H138.087V44.7678H136.481V45.6144H138.471V46.192H135.784V42.7925V42.7892Z" fill="#003DA5"/>
<path d="M37.8169 42.74C38.8839 42.74 39.6592 43.475 39.6592 44.4889C39.6592 45.5029 38.8839 46.2379 37.8169 46.2379C36.7499 46.2379 35.9746 45.5029 35.9746 44.4889C35.9746 43.475 36.7499 42.74 37.8169 42.74ZM37.8169 45.644C38.463 45.644 38.9282 45.1518 38.9282 44.4889C38.9282 43.8261 38.463 43.3339 37.8169 43.3339C37.1708 43.3339 36.7056 43.8294 36.7056 44.4889C36.7056 45.1485 37.1745 45.644 37.8169 45.644Z" fill="#003DA5"/>
<path d="M40.9331 42.7892H42.432C43.547 42.7892 44.1931 43.475 44.1931 44.4889C44.1931 45.5029 43.5433 46.1887 42.432 46.1887H40.9331V42.7892ZM41.6309 43.3667V45.6112H42.3841C43.1225 45.6112 43.4621 45.155 43.4621 44.4889C43.4621 43.8228 43.1225 43.3667 42.3841 43.3667H41.6309Z" fill="#003DA5"/>
<path d="M47.3164 42.7892H48.9187C49.8159 42.7892 50.2811 43.324 50.2811 43.9606C50.2811 44.4135 50.0448 44.8072 49.598 45.0008L50.4657 46.192H49.6387L48.867 45.1288H48.0142V46.192H47.3164V42.7925V42.7892ZM48.808 44.5513C49.3322 44.5513 49.5501 44.3085 49.5501 43.9573C49.5501 43.6062 49.3322 43.3601 48.808 43.3601H48.0142V44.5513H48.808Z" fill="#003DA5"/>
<path d="M53.2681 42.74C54.3351 42.74 55.1104 43.475 55.1104 44.4889C55.1104 45.5029 54.3351 46.2379 53.2681 46.2379C52.2011 46.2379 51.4258 45.5029 51.4258 44.4889C51.4258 43.475 52.2011 42.74 53.2681 42.74ZM53.2681 45.644C53.9142 45.644 54.3794 45.1518 54.3794 44.4889C54.3794 43.8261 53.9142 43.3339 53.2681 43.3339C52.622 43.3339 52.1568 43.8294 52.1568 44.4889C52.1568 45.1485 52.6257 45.644 53.2681 45.644Z" fill="#003DA5"/>
<path d="M57.8054 44.7777H57.0855V46.192H56.3877V42.7925H57.0855V44.2002H57.7906L58.7247 42.7925H59.5222L58.4072 44.4791L59.6145 46.1952H58.8059L57.8054 44.781V44.7777Z" fill="#003DA5"/>
<path d="M63.8491 42.7892V44.8138C63.8491 45.621 63.288 46.2379 62.232 46.2379C61.1761 46.2379 60.6187 45.621 60.6187 44.8138V42.7892H61.3164V44.7678C61.3164 45.3421 61.6561 45.6505 62.2284 45.6505C62.8006 45.6505 63.1477 45.3388 63.1477 44.7678V42.7892H63.8454H63.8491Z" fill="#003DA5"/>
<path d="M68.9551 41.7129L70.8158 40.8007H71.761V47.8983H70.5759V42.0476L68.9551 42.8384V41.7129Z" fill="#003DA5"/>
<path d="M76.4461 48C74.8622 48 73.5479 47.2289 73.5479 45.8999C73.5479 45.0369 74.0832 44.4397 74.8954 44.1247C74.2567 43.8392 73.8469 43.3339 73.8469 42.6054C73.8469 41.3979 75.032 40.6989 76.4461 40.6989C77.8601 40.6989 79.0452 41.3979 79.0452 42.6054C79.0452 43.3339 78.6243 43.8425 77.9967 44.1247C78.8052 44.4397 79.3443 45.0369 79.3443 45.8999C79.3443 47.2289 78.0336 48 76.4461 48ZM76.4461 44.5939C75.5009 44.5939 74.7588 45.0894 74.7588 45.8507C74.7588 46.5693 75.4418 47.0582 76.4461 47.0582C77.4503 47.0582 78.1333 46.5726 78.1333 45.8507C78.1333 45.0894 77.3801 44.5939 76.4461 44.5939ZM76.4461 41.6341C75.6117 41.6341 75.032 42.0607 75.032 42.6579C75.032 43.2551 75.6597 43.6915 76.4461 43.6915C77.2324 43.6915 77.8601 43.2748 77.8601 42.6579C77.8601 42.041 77.2768 41.6341 76.4461 41.6341Z" fill="#003DA5"/>
<path d="M86.0414 47.8983H80.6475V47.0779C84.1622 44.5217 84.7419 43.5603 84.7419 42.8515C84.7419 42.1427 84.1475 41.6866 83.3611 41.6866C82.5747 41.6866 81.8658 42.0804 81.8658 43.0943V43.2059H80.6918V43.0845C80.6918 41.3815 82.1058 40.7022 83.3832 40.7022C84.7529 40.7022 85.9602 41.493 85.9602 42.8121C85.9602 43.9278 85.1148 45.0336 82.619 46.9073H86.0414V47.9016V47.8983Z" fill="#003DA5"/>
<path d="M90.4572 40.6989C92.4989 40.6989 93.5474 42.3626 93.5474 44.3478C93.5474 46.3331 92.5099 47.9967 90.4572 47.9967C88.4045 47.9967 87.3892 46.3232 87.3892 44.3478C87.3892 42.3724 88.4266 40.6989 90.4572 40.6989ZM90.4572 47.0057C91.6202 47.0057 92.329 45.9196 92.329 44.3511C92.329 42.7826 91.6091 41.6965 90.4572 41.6965C89.3053 41.6965 88.6075 42.7826 88.6075 44.3511C88.6075 45.9196 89.3164 47.0057 90.4572 47.0057Z" fill="#003DA5"/>
<path fill-rule="evenodd" clip-rule="evenodd" d="M22.2885 -1.16881e-06H17.6994L17.836 0.242821C20.4204 4.82362 19.1983 8.82691 18.4673 11.219C18.3713 11.534 18.2827 11.8228 18.2126 12.0755L12.5564 29.4274L12.3275 30.6579L12.0248 29.155L4.81065 2.50369L4.77743 2.37572H0L9.68038 35.3995H14.9193L22.307 12.7613C22.3697 12.5152 22.4546 12.2297 22.5469 11.9114C23.3038 9.30599 24.7104 4.45939 22.3365 0.0918774L22.2848 -0.00328255L22.2885 -1.16881e-06Z" fill="#003DA5"/>
<path d="M31.6331 5.6735H27.7344V32.6792H31.6331V5.6735Z" fill="#003DA5"/>
<path fill-rule="evenodd" clip-rule="evenodd" d="M51.2263 24.9778L51.2484 25.982L50.9568 25.0271L41.941 5.82773L41.893 5.72272H37.5918V32.6792H40.9404V13.1189L40.8924 11.9672L41.2949 13.1124L50.4805 32.5775L50.5285 32.6792H54.5823V5.72272H51.2263V24.9778Z" fill="#003DA5"/>
<path fill-rule="evenodd" clip-rule="evenodd" d="M69.018 8.10829C70.3398 8.10829 71.4548 8.55455 72.2375 9.40443C72.9094 10.1263 73.3118 11.1206 73.4004 12.2789L73.4263 12.6071L76.1879 10.5398L76.162 10.4413C75.3498 7.11075 72.7949 5.27646 68.97 5.27646C62.5755 5.27646 58.7617 10.4807 58.7617 19.1993C58.7617 27.918 62.6752 33.1255 68.97 33.1255C72.7322 33.1255 75.3535 31.2289 76.162 27.9245L76.1879 27.8261L73.4263 25.7588L73.4004 26.087C73.1974 28.6596 71.5175 30.2543 69.0144 30.2543C63.6684 30.2543 62.8709 23.3273 62.8709 19.1993C62.8709 15.0714 63.6684 8.10501 69.0144 8.10501L69.018 8.10829Z" fill="#003DA5"/>
<path fill-rule="evenodd" clip-rule="evenodd" d="M82.8961 29.8441V19.1206H90.6492V16.2888H82.8961V8.55127H92.2589L92.8238 5.72272H78.9937V32.6792H93.0416L92.4214 29.8441H82.8961Z" fill="#003DA5"/>
<path fill-rule="evenodd" clip-rule="evenodd" d="M109.977 24.9778L109.999 25.9852L109.707 25.0271L100.688 5.82773L100.64 5.72272H96.3423V32.6792H99.6946V13.1157L99.6429 11.9836L100.042 13.1124L109.227 32.5775L109.275 32.6792H113.325V5.72272H109.977V24.9778Z" fill="#003DA5"/>
<path fill-rule="evenodd" clip-rule="evenodd" d="M116.065 8.59393H122.441V32.6792H126.351V8.59393H132.734L133.351 5.72272H115.4L116.065 8.59393Z" fill="#003DA5"/>
<path fill-rule="evenodd" clip-rule="evenodd" d="M165.36 2.50369L165.323 2.379H160.158L152.534 25.4733L152.523 25.5029L152.63 26.799C150.951 23.1272 145.785 16.5185 145.069 15.6095L151.999 5.98195L152.184 5.72601H147.753L139.627 17.749L139.21 18.5431L139.232 5.72601H135.333V32.6792H139.232V23.4651L142.946 18.5037C143.969 19.872 149.666 27.603 150.124 30.4381C150.338 31.5373 149.902 32.233 149.762 32.42L149.57 32.6792H154.428L158.013 20.7153H166.368L168.421 28.2592C169.259 31.3569 170.164 35.1895 170.171 35.2256L170.201 35.3569H174.993L165.353 2.50041L165.36 2.50369ZM158.899 17.7752L161.739 8.30517L162.403 5.86382L162.99 8.26251L165.578 17.7752H158.903H158.899Z" fill="#003DA5"/>
</g>
<defs>
<clipPath id="clip0_1131_2574">
<rect width="175" height="48" fill="white"/>
</clipPath>
</defs>
</svg>
