<svg version="1.2" baseProfile="tiny-ps" xmlns="http://www.w3.org/2000/svg" viewBox="0 0 568 473" width="568" height="473">
	<title>&lt;Path&gt;</title>
	<style>
		tspan { white-space:pre }
		.shp0 { fill: #b0b1b3 } 
		.shp1 { fill: #1a1a1a } 
	</style>
	<path class="shp0" d="M511.4 234.69C510.61 234.79 509.79 234.81 508.97 234.84L508.97 132.3L508.97 124.72C508.97 118.7 507.31 114.31 504 111.5L503.45 111.06C503.23 110.9 502.99 110.76 502.77 110.6C502.58 110.48 502.38 110.34 502.18 110.22C501.92 110.07 501.67 109.95 501.41 109.81C501.19 109.71 500.97 109.59 500.76 109.49C500.48 109.37 500.18 109.27 499.88 109.15C499.65 109.07 499.45 108.97 499.21 108.91C498.89 108.8 498.56 108.72 498.22 108.62C497.98 108.56 497.77 108.5 497.53 108.44C497.17 108.36 496.8 108.3 496.44 108.24C496.18 108.2 495.95 108.16 495.71 108.12C495.31 108.06 494.88 108.02 494.46 108C494.22 107.98 493.99 107.94 493.75 107.92C493.52 107.91 493.26 107.91 493.02 107.9L493.02 97.91L508.69 97.91C509.28 97.91 509.85 97.92 510.37 97.96L510.91 98.02L511.2 98.04C511.39 98.05 511.59 98.07 511.89 98.12C512.6 98.23 512.98 98.3 513.03 98.31L514.33 98.66L515.25 99.01C515.63 99.21 515.87 99.33 515.98 99.39C516.33 99.62 516.56 99.77 516.69 99.85L516.93 100.05C518.74 101.58 519.66 104.4 519.66 108.43L519.66 224.13C519.66 231.94 516.35 234 511.4 234.69Z" />
	<path class="shp0" d="M528.02 272.5C528.52 272.41 529.01 272.29 529.5 272.19L528.21 273.42C527.43 274.16 526.62 274.85 525.79 275.52C525.32 275.91 524.8 276.25 524.31 276.59C524.03 276.79 523.73 277 523.46 277.2C521.95 278.2 520.35 279.07 518.67 279.84C516.89 280.6 515.5 281.11 514.06 281.53C512.65 281.95 511.26 282.29 509.84 282.56C506.77 283.12 503.68 283.42 500.38 283.42L440.07 283.42L428.43 283.42L428.43 258.96L439.12 248.74L439.12 273.47L517.42 273.47C521 273.47 524.47 273.15 528.02 272.5Z" />
	<path class="shp0" d="M450.76 236.32L440.07 236.32L440.07 231.91L440.07 220.74L428.39 220.74L428.39 196.28L439.08 186.06L439.08 210.79L450.76 210.79L450.76 236.32Z" />
	<path class="shp0" d="M450.76 173.64L440.07 173.64L440.07 117.57L440.07 106.45L428.43 106.45L428.43 81.99L439.12 71.76L439.12 96.5L450.76 96.5L450.76 173.64Z" />
	<path fill-rule="evenodd" class="shp1" d="M555.73 179.99L567.33 179.99L567.33 204.45L555.73 204.45L555.73 229.15C555.73 233.6 555.24 237.71 554.27 241.44C554.11 242.02 553.91 242.55 553.73 243.09C553.04 245.35 552.15 247.48 551.06 249.46C550.79 249.94 550.51 250.44 550.23 250.93C550.01 251.25 549.82 251.57 549.6 251.9C549.16 252.56 548.69 253.18 548.19 253.81C548.01 254.05 547.84 254.29 547.64 254.53C546.93 255.38 546.17 256.21 545.36 257.01C544.55 257.8 543.7 258.52 542.83 259.23C542.35 259.61 541.84 259.95 541.34 260.3C541.07 260.5 540.77 260.7 540.49 260.9C538.99 261.91 537.39 262.77 535.7 263.54C533.92 264.31 532.54 264.81 531.09 265.23C529.69 265.66 528.3 266 526.88 266.26C523.81 266.82 520.72 267.13 517.42 267.13L445.47 267.13L445.47 242.67L457.11 242.67L457.11 204.45L445.43 204.45L445.43 179.99L457.11 179.99L457.11 90.15L445.47 90.15L445.47 65.69L517.42 65.69C529.13 65.69 538.43 69.1 545.36 75.93C546.25 76.79 547.08 77.72 547.86 78.67C549.54 80.84 550.79 82.8 551.81 84.91C551.95 85.22 552.05 85.52 552.19 85.82C552.69 86.93 553.14 88.08 553.54 89.25C553.62 89.53 553.7 89.79 553.79 90.07C553.99 90.72 554.19 91.34 554.35 91.99C554.55 92.71 554.68 93.46 554.82 94.2C555.06 95.39 555.24 96.6 555.38 97.83C555.42 98.23 555.48 98.63 555.52 99.04C555.54 99.34 555.58 99.62 555.59 99.92C555.69 101.21 555.73 102.54 555.73 103.91L555.73 179.99ZM526.01 108.43C526.01 102.4 524.34 98.01 521.04 95.21L520.48 94.77C520.27 94.6 520.03 94.46 519.81 94.3C519.61 94.18 519.41 94.04 519.22 93.92C518.96 93.78 518.7 93.66 518.44 93.52C518.23 93.42 518.01 93.3 517.79 93.19C517.51 93.07 517.22 92.97 516.92 92.85C516.68 92.77 516.48 92.67 516.25 92.61C515.93 92.51 515.59 92.43 515.26 92.33C515.02 92.27 514.8 92.21 514.57 92.15C514.21 92.07 513.83 92.01 513.48 91.95C513.22 91.91 512.98 91.86 512.74 91.82C512.35 91.76 511.91 91.72 511.5 91.7C511.26 91.68 511.02 91.64 510.78 91.62C510.11 91.58 509.42 91.56 508.69 91.56L486.68 91.56L486.68 241.26L507.93 241.26C509.48 241.26 510.9 241.16 512.25 240.98C521.43 239.71 526.01 234.08 526.01 224.13L526.01 108.43Z" />
	<path class="shp0" d="M76.65 96.5L76.65 75.72L80.78 71.76L80.78 96.5L92.42 96.5L92.42 173.64L81.73 173.64L81.73 117.57L81.73 106.45L78.82 106.45L70.09 106.45L70.09 98.09L70.09 96.5L76.65 96.5Z" />
	<path class="shp0" d="M22.75 173.64L12.06 173.64L12.06 117.57L12.06 106.45L0.42 106.45L0.42 81.99L11.11 71.76L11.11 96.5L22.75 96.5L22.75 173.64Z" />
	<path class="shp0" d="M80.78 273.47L133.6 273.47L123.2 283.42L111.56 283.42L81.73 283.42L78.82 283.42L70.09 283.42L70.09 275.04L70.09 273.47L76.65 273.47L76.65 252.69L80.78 248.74L80.78 273.47Z" />
	<path class="shp0" d="M22.75 236.32L12.06 236.32L12.06 231.88L12.06 220.74L0.4 220.74L0.4 196.28L11.09 186.06L11.09 210.79L22.75 210.79L22.75 236.32Z" />
	<path class="shp0" d="M81.73 220.74L65.01 220.74L65.01 210.79L92.42 210.79L92.42 236.32L81.73 236.32L81.73 220.74Z" />
	<path class="shp0" d="M11.11 273.47L63.67 273.47L53.27 283.42L41.63 283.42L12.06 283.42L0.42 283.42L0.42 258.96L11.11 248.74L11.11 273.47Z" />
	<path class="shp1" d="M140.23 65.69L140.23 90.15L128.59 90.15L128.59 179.99L140.23 179.99L140.23 191.11L140.23 204.45L128.59 204.45L128.59 242.67L140.23 242.67L140.23 253.79L140.23 267.13L128.59 267.13L98.77 267.13L95.86 267.13L87.13 267.13L87.13 258.75L87.13 242.67L98.77 242.67L98.77 228.89L98.77 204.45L58.67 204.45L58.67 242.67L70.31 242.67L70.31 253.79L70.31 267.13L58.67 267.13L29.1 267.13L17.46 267.13L17.46 242.67L29.1 242.67L29.1 215.59L29.1 204.45L17.44 204.45L17.44 179.99L29.1 179.99L29.1 101.27L29.1 90.15L17.46 90.15L17.46 65.69L29.1 65.69L58.67 65.69L70.31 65.69L70.31 90.15L58.67 90.15L58.67 179.99L84.22 179.99L98.77 179.99L98.77 101.27L98.77 90.15L95.86 90.15L87.13 90.15L87.13 81.79L87.13 65.69L98.77 65.69L128.59 65.69L140.23 65.69Z" />
	<path class="shp0" d="M357.48 153.02L360.77 173.74L354.22 173.74L357.48 153.02Z" />
	<path class="shp0" d="M364.01 273.47L411.64 273.47L401.24 283.42L394.23 283.42L389.62 283.42L364.94 283.42L353.32 283.42L353.32 258.98L360.04 252.56L358.88 245.26L355.02 220.82L346.8 220.82L348.38 210.88L366.63 210.88L370.66 236.34L364.01 236.34L364.01 273.47Z" />
	<path class="shp0" d="M303.23 236.34L295.74 236.34L297.62 226.45L298.71 220.82L291.74 220.82L291.74 196.39L302.43 186.16L302.43 210.88L308.06 210.88L303.23 236.34Z" />
	<path class="shp0" d="M315.14 173.74L307.67 173.74L319.41 112.05L320.5 106.41L313.53 106.41L313.53 81.99L324.22 71.76L324.22 96.46L329.86 96.46L315.14 173.74Z" />
	<path class="shp0" d="M290.52 273.47L338.09 273.47L327.69 283.42L316.07 283.42L291.45 283.42L286.89 283.42L279.83 283.42L279.83 258.98L290.52 248.76L290.52 273.47Z" />
	<path fill-rule="evenodd" class="shp1" d="M406.65 242.69L418.27 242.69L418.27 267.13L370.35 267.13L370.35 242.69L378.09 242.69L375.92 228.97L372.06 204.53L342.96 204.53L339.38 227.13L336.94 242.69L344.72 242.69L344.72 267.13L296.86 267.13L296.86 242.69L308.48 242.69L314.66 210.15L315.75 204.53L308.78 204.53L308.78 180.09L320.4 180.09L336.45 95.75L337.54 90.11L330.57 90.11L330.57 65.69L384.86 65.69L384.86 90.11L377.85 90.11L394.84 180.09L406.46 180.09L406.46 204.53L399.45 204.53L406.65 242.69ZM346.8 180.09L368.2 180.09L357.47 112.35L357.11 114.55L346.8 180.09Z" />
	<path class="shp0" d="M238.19 110.52L261.93 110.52L251.53 120.47L239.87 120.47L227.5 120.47L227.5 108.62L223.19 108.62L223.19 98.67L238.19 98.67L238.19 110.52Z" />
	<path class="shp0" d="M223.19 210.79L254.73 210.79L244.33 220.74L223.19 220.74L223.19 210.79Z" />
	<path class="shp0" d="M180.91 236.32L170.22 236.32L170.22 231.84L170.22 220.74L158.61 220.74L158.61 196.28L169.3 186.06L169.3 210.79L180.91 210.79L180.91 236.32Z" />
	<path class="shp0" d="M180.91 173.64L170.22 173.64L170.22 117.55L170.22 106.45L158.61 106.45L158.61 81.99L169.3 71.76L169.3 96.5L180.91 96.5L180.91 173.64Z" />
	<path class="shp0" d="M169.3 273.47L253.25 273.47L247.61 278.87L247.06 279.37C246.46 279.9 245.85 280.4 245.18 280.84L244.7 281.15C244.29 281.39 243.87 281.63 243.42 281.83C242.8 282.13 242.47 282.27 242.11 282.41C241.91 282.5 241.69 282.58 241.48 282.64C240.61 282.94 239.7 283.14 238.75 283.26C237.8 283.38 237.26 283.42 236.71 283.42L170.22 283.42L158.61 283.42L158.61 258.96L169.3 248.74L169.3 273.47Z" />
	<path class="shp1" d="M252.99 65.69C257.19 65.69 261.01 67.41 263.82 70.17C264.02 70.35 264.19 70.55 264.39 70.77C265.48 71.98 266.33 73.25 266.98 74.62C267.32 75.34 267.46 75.73 267.6 76.09C267.86 76.85 267.97 77.26 268.07 77.66C268.25 78.45 268.33 78.89 268.39 79.35C268.51 80.3 268.57 80.92 268.57 81.55L268.57 92.33L268.57 104.17L256.91 104.17L244.54 104.17L244.54 92.33L216.85 92.33L216.85 179.99L242.4 179.99L261.36 179.99L261.36 204.45L216.85 204.45L216.85 240.47L242.4 240.47L245.31 240.47L245.31 228.89L269.32 228.64L269.32 240.47L269.32 251.25C269.32 251.94 269.26 252.6 269.16 253.27C269.12 253.65 269.06 254.05 269 254.43C268.86 255.04 268.71 255.62 268.53 256.21C268.45 256.41 268.39 256.61 268.31 256.81C268.19 257.11 268.07 257.44 267.93 257.74C267.84 257.94 267.74 258.16 267.64 258.38C267.08 259.49 266.41 260.52 265.64 261.46C265.32 261.85 264.98 262.21 264.65 262.57L264.09 263.08C263.5 263.6 262.89 264.1 262.21 264.55L261.74 264.85C261.32 265.09 260.91 265.33 260.45 265.53C259.84 265.84 259.5 265.98 259.15 266.12C258.95 266.2 258.73 266.28 258.51 266.34C257.64 266.64 256.73 266.84 255.78 266.96C254.83 267.09 254.3 267.13 253.74 267.13L187.26 267.13L175.64 267.13L175.64 242.67L187.26 242.67L187.26 215.55L187.26 204.45L175.64 204.45L175.64 179.99L187.26 179.99L187.26 101.25L187.26 90.15L175.64 90.15L175.64 65.69L187.26 65.69L252.99 65.69Z" />
	<path class="shp0" d="M81.58 322.52L93.05 322.52L93.05 355.05L88.34 358.44L88.01 358.44L88.01 338.72L88.01 327.21L81.58 327.21L81.58 322.52Z" />
	<path class="shp0" d="M88.63 375.94L93.4 379.14L93.4 387.53L88.37 387.53L88.37 385.23L81.58 380.66L81.58 375.94L88.63 375.94Z" />
	<path class="shp0" d="M61.66 387.96L56.63 387.96L56.63 385.86L56.63 380.62L51.15 380.62L51.15 369.1L56.18 364.29L56.18 375.94L61.66 375.94L61.66 387.96Z" />
	<path class="shp0" d="M101.87 405.46C102.22 405.46 102.55 405.44 102.91 405.42L100.03 408.17C99.92 408.27 99.81 408.37 99.68 408.46C99.28 408.79 98.83 409.07 98.32 409.3C98.04 409.43 97.76 409.54 97.46 409.63C97.36 409.66 97.25 409.69 97.16 409.72C96.9 409.79 96.63 409.86 96.35 409.91L96.11 409.95C95.87 409.99 95.62 410.03 95.37 410.06L95.1 410.09C94.7 410.12 94.29 410.14 93.85 410.14L56.63 410.14L51.15 410.14L51.15 398.62L56.18 393.81L56.18 405.46L101.87 405.46Z" />
	<path class="shp0" d="M61.66 358.44L56.63 358.44L56.63 332.03L56.63 326.79L51.15 326.79L51.15 315.27L56.18 310.46L56.18 322.11L61.66 322.11L61.66 358.44Z" />
	<path fill-rule="evenodd" class="shp1" d="M110.37 379.29C110.37 379.42 110.38 379.54 110.38 379.68L110.38 393.8C110.38 394.23 110.37 394.65 110.34 395.05C110.24 396.05 110.09 396.88 109.84 397.62C109.69 398.03 109.62 398.21 109.55 398.39C109.49 398.51 109.42 398.63 109.37 398.74C109.05 399.34 108.68 399.87 108.22 400.32C108.06 400.5 107.9 400.65 107.71 400.79C107.31 401.11 106.85 401.4 106.35 401.62C106.07 401.76 105.78 401.86 105.48 401.96C105.39 401.98 105.28 402.01 105.18 402.04C104.92 402.12 104.65 402.18 104.37 402.23L104.14 402.28C103.9 402.32 103.64 402.35 103.39 402.38L103.12 402.41C102.72 402.44 102.31 402.47 101.87 402.47L59.17 402.47L59.17 390.95L64.65 390.95L64.65 372.95L59.17 372.95L59.17 361.43L64.65 361.43L64.65 319.12L59.17 319.12L59.17 307.6L101.63 307.6C104.32 307.6 106.35 308.29 107.73 309.68C107.83 309.77 107.92 309.87 108.02 309.98L108.24 310.25C108.32 310.37 108.41 310.49 108.49 310.61L108.64 310.84C108.73 310.99 108.82 311.15 108.89 311.31C108.95 311.4 109 311.5 109.04 311.6C109.12 311.75 109.17 311.92 109.24 312.08C109.27 312.18 109.31 312.29 109.35 312.39C109.41 312.56 109.46 312.74 109.51 312.92C109.54 313.03 109.56 313.12 109.58 313.22C109.8 314.14 109.91 315.18 109.91 316.33L109.91 354.81C109.91 356.15 109.73 357.36 109.4 358.45C109.35 358.6 109.29 358.75 109.25 358.9C109.19 359.04 109.13 359.18 109.08 359.32C108.9 359.71 108.8 359.93 108.69 360.13C108.49 360.47 108.36 360.68 108.22 360.89C108.08 361.1 107.91 361.3 107.75 361.49L107.5 361.77C107.33 361.96 107.14 362.16 106.93 362.34C106.67 362.53 106.41 362.71 106.03 362.96C105.86 363.07 105.78 363.13 105.67 363.19C105.53 363.28 105.37 363.39 105.21 363.49C105.09 363.56 104.99 363.63 104.86 363.72C104.65 363.85 104.42 364 104.18 364.14C103.38 364.65 102.42 365.26 101.28 365.99C100.77 366.31 100.23 366.65 99.66 367.01C104.39 369.95 106.89 371.57 107.17 371.86C108.89 373.38 109.91 375.37 110.25 377.8C110.26 377.9 110.28 378.01 110.29 378.11C110.34 378.5 110.37 378.89 110.37 379.29ZM78.59 319.53L78.59 361.43L89.31 361.43L90.62 360.48L96.04 356.58L96.04 319.53L78.59 319.53ZM96.39 377.55L89.54 372.95L78.59 372.95L78.59 390.52L96.39 390.52L96.39 377.55Z" />
	<path class="shp0" d="M324.06 322.52L335.53 322.52L335.53 355.05L330.82 358.44L330.49 358.44L330.49 338.72L330.49 327.21L324.06 327.21L324.06 322.52Z" />
	<path class="shp0" d="M331.11 375.94L335.88 379.14L335.88 387.53L330.85 387.53L330.85 385.23L324.06 380.66L324.06 375.94L331.11 375.94Z" />
	<path class="shp0" d="M304.14 387.96L299.11 387.96L299.11 385.86L299.11 380.62L293.63 380.62L293.63 369.1L298.66 364.29L298.66 375.94L304.14 375.94L304.14 387.96Z" />
	<path class="shp0" d="M344.35 405.46C344.7 405.46 345.04 405.44 345.39 405.42L342.51 408.17C342.4 408.27 342.29 408.37 342.17 408.46C341.77 408.79 341.31 409.07 340.81 409.3C340.53 409.43 340.24 409.54 339.94 409.63C339.84 409.66 339.73 409.69 339.64 409.72C339.38 409.79 339.11 409.86 338.83 409.91L338.6 409.95C338.35 409.99 338.1 410.03 337.85 410.06L337.58 410.09C337.18 410.12 336.77 410.14 336.33 410.14L299.11 410.14L293.63 410.14L293.63 398.62L298.66 393.81L298.66 405.46L344.35 405.46Z" />
	<path class="shp0" d="M304.14 358.44L299.11 358.44L299.11 332.03L299.11 326.79L293.63 326.79L293.63 315.27L298.66 310.46L298.66 322.11L304.14 322.11L304.14 358.44Z" />
	<path fill-rule="evenodd" class="shp1" d="M352.86 379.29C352.86 379.42 352.86 379.54 352.86 379.68L352.86 393.8C352.86 394.23 352.85 394.65 352.82 395.05C352.73 396.05 352.57 396.88 352.32 397.62C352.18 398.03 352.1 398.21 352.03 398.39C351.97 398.51 351.9 398.63 351.85 398.74C351.53 399.34 351.16 399.87 350.7 400.32C350.54 400.5 350.38 400.65 350.19 400.79C349.79 401.11 349.33 401.4 348.83 401.62C348.55 401.76 348.26 401.86 347.96 401.96C347.87 401.98 347.76 402.01 347.66 402.04C347.4 402.12 347.13 402.18 346.85 402.23L346.62 402.28C346.38 402.32 346.13 402.35 345.87 402.38L345.6 402.41C345.2 402.44 344.79 402.47 344.35 402.47L301.65 402.47L301.65 390.95L307.13 390.95L307.13 372.95L301.65 372.95L301.65 361.43L307.13 361.43L307.13 319.12L301.65 319.12L301.65 307.6L344.11 307.6C346.81 307.6 348.83 308.29 350.21 309.68C350.31 309.77 350.4 309.87 350.5 309.98L350.72 310.25C350.8 310.37 350.89 310.49 350.97 310.61L351.12 310.84C351.21 310.99 351.3 311.15 351.37 311.31C351.43 311.4 351.48 311.5 351.52 311.6C351.6 311.75 351.65 311.92 351.72 312.08C351.76 312.18 351.79 312.29 351.83 312.39C351.89 312.56 351.94 312.74 351.99 312.92C352.02 313.03 352.04 313.12 352.06 313.22C352.28 314.14 352.39 315.18 352.39 316.33L352.39 354.81C352.39 356.15 352.21 357.36 351.88 358.45C351.83 358.6 351.77 358.75 351.73 358.9C351.67 359.04 351.62 359.18 351.56 359.32C351.38 359.71 351.28 359.93 351.17 360.13C350.97 360.47 350.84 360.68 350.7 360.89C350.56 361.1 350.39 361.3 350.23 361.49L349.98 361.77C349.81 361.96 349.62 362.16 349.42 362.34C349.15 362.53 348.89 362.71 348.51 362.96C348.34 363.07 348.26 363.13 348.15 363.19C348.01 363.28 347.85 363.39 347.69 363.49C347.57 363.56 347.47 363.63 347.34 363.72C347.13 363.85 346.9 364 346.67 364.14C345.86 364.65 344.9 365.26 343.76 365.99C343.25 366.31 342.71 366.65 342.14 367.01C346.87 369.95 349.37 371.57 349.65 371.86C351.37 373.38 352.39 375.37 352.73 377.8C352.74 377.9 352.76 378.01 352.77 378.11C352.82 378.5 352.85 378.89 352.86 379.29ZM321.07 319.53L321.07 361.43L331.79 361.43L333.1 360.48L338.52 356.58L338.52 319.53L321.07 319.53ZM338.87 377.55L332.02 372.95L321.07 372.95L321.07 390.52L338.87 390.52L338.87 377.55Z" />
	<path class="shp0" d="M164.98 348.72L166.52 358.49L163.44 358.49L164.98 348.72Z" />
	<path class="shp0" d="M168.05 405.46L190.48 405.46L185.58 410.14L182.28 410.14L180.11 410.14L168.49 410.14L163.01 410.14L163.01 398.63L166.18 395.61L165.63 392.17L163.82 380.66L159.95 380.66L160.69 375.98L169.29 375.98L171.18 387.97L168.05 387.97L168.05 405.46Z" />
	<path class="shp0" d="M139.42 387.97L135.9 387.97L136.78 383.31L137.3 380.66L134.01 380.66L134.01 369.15L139.05 364.33L139.05 375.98L141.7 375.98L139.42 387.97Z" />
	<path class="shp0" d="M145.04 358.49L141.52 358.49L147.05 329.43L147.56 326.77L144.28 326.77L144.28 315.27L149.31 310.46L149.31 322.09L151.96 322.09L145.04 358.49Z" />
	<path class="shp0" d="M133.44 405.46L155.84 405.46L150.94 410.14L145.47 410.14L133.87 410.14L131.73 410.14L128.4 410.14L128.4 398.63L133.44 393.82L133.44 405.46Z" />
	<path fill-rule="evenodd" class="shp1" d="M188.13 390.96L193.61 390.96L193.61 402.47L171.04 402.47L171.04 390.96L174.68 390.96L173.66 384.5L171.84 372.99L158.14 372.99L156.45 383.63L155.3 390.96L158.97 390.96L158.97 402.47L136.43 402.47L136.43 390.96L141.9 390.96L144.81 375.63L145.32 372.99L142.04 372.99L142.04 361.48L147.51 361.48L155.07 321.76L155.58 319.1L152.3 319.1L152.3 307.6L177.87 307.6L177.87 319.1L174.57 319.1L182.57 361.48L188.04 361.48L188.04 372.99L184.74 372.99L188.13 390.96ZM159.94 361.48L170.02 361.48L164.97 329.57L164.8 330.61L159.94 361.48Z" />
	<path class="shp0" d="M410.79 328.71L421.97 328.71L417.07 333.4L411.58 333.4L405.76 333.4L405.76 327.82L403.73 327.82L403.73 323.13L410.79 323.13L410.79 328.71Z" />
	<path class="shp0" d="M403.73 375.94L418.58 375.94L413.68 380.62L403.73 380.62L403.73 375.94Z" />
	<path class="shp0" d="M383.81 387.96L378.78 387.96L378.78 385.85L378.78 380.62L373.31 380.62L373.31 369.1L378.34 364.29L378.34 375.94L383.81 375.94L383.81 387.96Z" />
	<path class="shp0" d="M383.81 358.44L378.78 358.44L378.78 332.02L378.78 326.79L373.31 326.79L373.31 315.27L378.34 310.46L378.34 322.11L383.81 322.11L383.81 358.44Z" />
	<path class="shp0" d="M378.34 405.46L417.89 405.46L415.23 408L414.97 408.24C414.69 408.48 414.4 408.72 414.08 408.93L413.86 409.07C413.66 409.19 413.47 409.3 413.25 409.39C412.96 409.54 412.8 409.6 412.64 409.67C412.54 409.71 412.44 409.75 412.34 409.77C411.93 409.92 411.5 410.01 411.05 410.07C410.6 410.12 410.35 410.14 410.09 410.14L378.78 410.14L373.31 410.14L373.31 398.62L378.34 393.81L378.34 405.46Z" />
	<path class="shp1" d="M417.76 307.6C419.74 307.6 421.54 308.4 422.86 309.7C422.95 309.79 423.04 309.88 423.13 309.99C423.64 310.56 424.04 311.16 424.35 311.8C424.51 312.14 424.58 312.32 424.64 312.49C424.76 312.85 424.82 313.04 424.86 313.23C424.95 313.6 424.99 313.81 425.01 314.03C425.07 314.48 425.1 314.77 425.1 315.07L425.1 320.14L425.1 325.72L419.61 325.72L413.78 325.72L413.78 320.14L400.74 320.14L400.74 361.43L412.77 361.43L421.7 361.43L421.7 372.95L400.74 372.95L400.74 389.91L412.77 389.91L414.14 389.91L414.14 384.46L425.45 384.34L425.45 389.91L425.45 394.99C425.45 395.31 425.42 395.63 425.38 395.94C425.36 396.12 425.33 396.31 425.3 396.49C425.24 396.78 425.16 397.05 425.08 397.33C425.04 397.42 425.01 397.52 424.98 397.61C424.92 397.75 424.86 397.9 424.8 398.05C424.75 398.14 424.71 398.25 424.66 398.35C424.4 398.87 424.08 399.36 423.72 399.8C423.57 399.98 423.41 400.15 423.25 400.32L422.99 400.56C422.71 400.81 422.42 401.05 422.11 401.25L421.88 401.4C421.69 401.51 421.49 401.62 421.28 401.72C420.99 401.86 420.83 401.93 420.66 401.99C420.57 402.03 420.46 402.07 420.36 402.1C419.95 402.24 419.52 402.34 419.08 402.39C418.63 402.45 418.38 402.47 418.12 402.47L386.8 402.47L381.33 402.47L381.33 390.95L386.8 390.95L386.8 378.18L386.8 372.95L381.33 372.95L381.33 361.43L386.8 361.43L386.8 324.35L386.8 319.12L381.33 319.12L381.33 307.6L386.8 307.6L417.76 307.6Z" />
	<path class="shp0" d="M476.08 322.77L487.66 322.77L487.66 358.44L482.63 358.44L482.63 338.97L482.63 327.46L476.08 327.46L476.08 322.77Z" />
	<path class="shp0" d="M483.86 405.46L503.73 405.46L498.83 410.14L484.29 410.14L482.56 410.14L478.82 410.14L478.82 406.56L478.82 405.46L481.56 405.46L481.53 387.96L476.08 387.96L476.08 376.76L483.86 392.26L483.86 405.46Z" />
	<path class="shp0" d="M456.16 387.96L451.13 387.96L451.13 385.87L451.13 380.62L445.64 380.62L445.64 369.1L450.67 364.29L450.67 375.94L456.16 375.94L456.16 387.96Z" />
	<path class="shp0" d="M450.67 405.46L475.44 405.46L470.54 410.14L465.06 410.14L451.13 410.14L445.64 410.14L445.64 398.62L450.67 393.81L450.67 405.46Z" />
	<path class="shp0" d="M456.16 358.44L451.13 358.44L451.13 332.04L451.13 326.79L445.64 326.79L445.64 315.27L450.67 310.46L450.67 322.11L456.16 322.11L456.16 358.44Z" />
	<path fill-rule="evenodd" class="shp1" d="M500.86 390.95L506.85 390.95L506.85 402.47L486.85 402.47L486.85 391.55L485.12 388.11L477.51 372.95L473.09 372.95L473.09 390.95L478.55 390.95L478.57 402.47L453.66 402.47L453.66 390.95L459.15 390.95L459.15 372.95L453.66 372.95L453.66 361.43L459.15 361.43L459.15 319.12L453.66 319.12L453.66 307.6L496.13 307.6C498.87 307.6 500.94 308.3 502.34 309.69C502.43 309.79 502.53 309.89 502.62 310C502.7 310.09 502.78 310.18 502.85 310.27C502.94 310.39 503.02 310.5 503.09 310.62L503.25 310.86C503.35 311 503.43 311.16 503.5 311.32C503.56 311.42 503.62 311.52 503.66 311.62C503.73 311.77 503.79 311.92 503.85 312.09C503.89 312.19 503.93 312.29 503.97 312.41C504.03 312.58 504.07 312.76 504.12 312.93C504.15 313.03 504.18 313.14 504.2 313.24C504.42 314.16 504.53 315.19 504.53 316.33L504.53 364.28C504.53 364.77 504.51 365.25 504.47 365.71C504.45 365.86 504.43 366 504.41 366.16C504.39 366.31 504.36 366.45 504.34 366.59C504.31 366.81 504.27 367.02 504.22 367.23C504.15 367.55 504.07 367.86 503.97 368.17C503.88 368.44 503.77 368.7 503.64 368.94C503.22 369.83 502.78 370.43 502.23 370.94C502.06 371.09 501.88 371.21 501.71 371.34L501.45 371.54C501.16 371.72 500.87 371.9 500.54 372.04C499.11 372.64 496.09 372.95 491.49 372.95L500.86 390.95ZM490.65 319.78L473.09 319.78L473.09 361.43L490.65 361.43L490.65 319.78Z" />
	<path class="shp0" d="M242.54 322.77L254.12 322.77L254.12 358.44L249.09 358.44L249.09 338.97L249.09 327.46L242.54 327.46L242.54 322.77Z" />
	<path class="shp0" d="M250.32 405.46L270.19 405.46L265.29 410.14L250.76 410.14L249.02 410.14L245.29 410.14L245.29 406.56L245.29 405.46L248.03 405.46L248 387.96L242.54 387.96L242.54 376.76L250.32 392.26L250.32 405.46Z" />
	<path class="shp0" d="M222.63 387.96L217.59 387.96L217.59 385.87L217.59 380.62L212.1 380.62L212.1 369.1L217.13 364.29L217.13 375.94L222.63 375.94L222.63 387.96Z" />
	<path class="shp0" d="M217.13 405.46L241.91 405.46L237.01 410.14L231.53 410.14L217.59 410.14L212.1 410.14L212.1 398.62L217.13 393.81L217.13 405.46Z" />
	<path class="shp0" d="M222.63 358.44L217.59 358.44L217.59 332.04L217.59 326.79L212.1 326.79L212.1 315.27L217.13 310.46L217.13 322.11L222.63 322.11L222.63 358.44Z" />
	<path fill-rule="evenodd" class="shp1" d="M267.32 390.95L273.31 390.95L273.31 402.47L253.31 402.47L253.31 391.55L251.59 388.11L243.97 372.95L239.55 372.95L239.55 390.95L245.01 390.95L245.03 402.47L220.12 402.47L220.12 390.95L225.61 390.95L225.61 372.95L220.12 372.95L220.12 361.43L225.61 361.43L225.61 319.12L220.12 319.12L220.12 307.6L262.59 307.6C265.34 307.6 267.4 308.3 268.8 309.69C268.9 309.79 268.99 309.89 269.08 310C269.17 310.09 269.24 310.18 269.32 310.27C269.4 310.39 269.48 310.5 269.56 310.62L269.72 310.86C269.81 311 269.89 311.16 269.97 311.32C270.02 311.42 270.08 311.52 270.13 311.62C270.19 311.77 270.26 311.92 270.31 312.09C270.35 312.19 270.4 312.29 270.43 312.41C270.49 312.58 270.54 312.76 270.58 312.93C270.61 313.03 270.65 313.14 270.67 313.24C270.88 314.16 270.99 315.19 270.99 316.33L270.99 364.28C270.99 364.77 270.97 365.25 270.94 365.71C270.92 365.86 270.89 366 270.87 366.16C270.85 366.31 270.83 366.45 270.81 366.59C270.77 366.81 270.73 367.02 270.69 367.23C270.61 367.55 270.54 367.86 270.43 368.17C270.34 368.44 270.23 368.7 270.11 368.94C269.69 369.83 269.24 370.43 268.69 370.94C268.52 371.09 268.35 371.21 268.17 371.34L267.92 371.54C267.63 371.72 267.33 371.9 267 372.04C265.58 372.64 262.56 372.95 257.95 372.95L267.32 390.95ZM257.11 319.78L239.55 319.78L239.55 361.43L257.11 361.43L257.11 319.78Z" />
	<path class="shp1" d="M260.58 0.36L260.58 6.12L255.05 6.12L255.05 31.07L248.31 31.07L248.31 6.12L242.77 6.12L242.77 0.36L260.58 0.36Z" />
	<path class="shp1" d="M286.72 0.36L293.46 0.36L293.46 31.07L286.72 31.07L286.72 18.93L280.61 18.93L280.61 31.07L273.88 31.07L273.88 0.36L280.61 0.36L280.61 12.99L286.72 12.99L286.72 0.36Z" />
	<path class="shp1" d="M308.52 0.36L324.08 0.36L324.08 6.12L315.17 6.12L315.17 12.63L322.88 12.63L322.88 18.39L315.17 18.39L315.17 25.31L324.08 25.31L324.08 31.07L308.52 31.07L308.52 0.36Z" />
	<path class="shp1" d="M198.89 441.02L214.44 441.02L214.44 446.78L205.53 446.78L205.53 453.29L213.24 453.29L213.24 459.06L205.53 459.06L205.53 465.97L214.44 465.97L214.44 471.73L198.89 471.73L198.89 441.02Z" />
	<path class="shp1" d="M218.65 448.2C218.65 445.84 219.45 444.01 221.04 442.73C222.64 441.44 224.93 440.8 227.93 440.8C230.93 440.8 233.16 441.11 234.64 441.73L234.64 448.11C232.84 447.34 230.79 446.96 228.48 446.96C227.3 446.96 226.5 447.14 226.09 447.51C225.68 447.88 225.47 448.41 225.47 449.09L225.47 449.75C225.47 450.58 225.61 451.19 225.89 451.59C226.17 451.99 226.79 452.44 227.73 452.94L232.78 455.78C235.2 457.11 236.42 459.1 236.42 461.76L236.42 464.51C236.42 466.9 235.53 468.74 233.76 470.02C231.98 471.31 229.5 471.95 226.29 471.95C223.09 471.95 220.67 471.61 219.05 470.93L219.05 464.51C221.05 465.36 223.33 465.79 225.87 465.79C228.41 465.79 229.68 465.07 229.68 463.62L229.68 462.95C229.68 462.28 229.54 461.77 229.26 461.43C228.98 461.09 228.45 460.71 227.69 460.3L222.95 457.73C220.08 456.13 218.65 453.89 218.65 450.99L218.65 448.2Z" />
	<path class="shp1" d="M257.46 441.02L257.46 446.78L251.92 446.78L251.92 471.73L245.19 471.73L245.19 446.78L239.65 446.78L239.65 441.02L257.46 441.02Z" />
	<path class="shp1" d="M265.28 472.17C262.81 472.17 261.58 471.01 261.58 468.69C261.58 466.37 262.81 465.21 265.28 465.21C267.75 465.21 268.98 466.37 268.98 468.69C268.98 471.01 267.75 472.17 265.28 472.17Z" />
	<path class="shp1" d="M291.89 440.8C298.3 440.8 301.5 443.28 301.5 448.24L301.5 450.86C301.5 453.72 300.41 455.97 298.22 457.59L294.24 460.96C293.11 461.91 292.43 462.62 292.17 463.09C291.92 463.56 291.8 464.3 291.8 465.3L291.8 465.88L301.1 465.88L301.1 471.73L285.02 471.73L285.02 464.51C285.02 461.58 286.24 459.17 288.7 457.28L293.13 453.47C293.78 452.97 294.21 452.46 294.43 451.94C294.66 451.43 294.77 450.68 294.77 449.71L294.77 449.09C294.77 448.41 294.55 447.88 294.12 447.51C293.7 447.14 292.92 446.96 291.8 446.96C289.55 446.96 287.5 447.36 285.64 448.16L285.64 441.78C287.41 441.13 289.49 440.8 291.89 440.8Z" />
	<path fill-rule="evenodd" class="shp1" d="M306.82 448.51C306.82 446.03 307.53 444.09 308.97 442.68C310.4 441.28 312.62 440.58 315.64 440.58C318.65 440.58 320.88 441.29 322.32 442.71C323.77 444.12 324.5 446.06 324.5 448.51L324.5 464.24C324.5 466.69 323.77 468.63 322.32 470.04C320.88 471.46 318.65 472.17 315.64 472.17C312.62 472.17 310.4 471.47 308.97 470.07C307.53 468.66 306.82 466.72 306.82 464.24L306.82 448.51ZM317.85 448.78C317.85 448.04 317.7 447.48 317.39 447.11C317.08 446.75 316.49 446.56 315.64 446.56C314.78 446.56 314.2 446.74 313.91 447.09C313.61 447.45 313.46 448.01 313.46 448.78L313.46 463.97C313.46 464.71 313.61 465.27 313.91 465.64C314.2 466 314.78 466.19 315.64 466.19C316.49 466.19 317.08 466 317.39 465.64C317.7 465.27 317.85 464.71 317.85 463.97L317.85 448.78Z" />
	<path class="shp1" d="M336.68 440.8C343.09 440.8 346.3 443.28 346.3 448.24L346.3 450.86C346.3 453.72 345.2 455.97 343.02 457.59L339.03 460.96C337.91 461.91 337.22 462.62 336.97 463.09C336.72 463.56 336.59 464.3 336.59 465.3L336.59 465.88L345.9 465.88L345.9 471.73L329.81 471.73L329.81 464.51C329.81 461.58 331.04 459.17 333.49 457.28L337.92 453.47C338.57 452.97 339.01 452.46 339.23 451.94C339.45 451.43 339.56 450.68 339.56 449.71L339.56 449.09C339.56 448.41 339.35 447.88 338.92 447.51C338.49 447.14 337.71 446.96 336.59 446.96C334.35 446.96 332.29 447.36 330.43 448.16L330.43 441.78C332.2 441.13 334.29 440.8 336.68 440.8Z" />
	<path fill-rule="evenodd" class="shp1" d="M351.61 448.51C351.61 446.03 352.33 444.09 353.76 442.68C355.19 441.28 357.42 440.58 360.43 440.58C363.44 440.58 365.67 441.29 367.12 442.71C368.57 444.12 369.29 446.06 369.29 448.51L369.29 464.24C369.29 466.69 368.57 468.63 367.12 470.04C365.67 471.46 363.44 472.17 360.43 472.17C357.42 472.17 355.19 471.47 353.76 470.07C352.33 468.66 351.61 466.72 351.61 464.24L351.61 448.51ZM362.64 448.78C362.64 448.04 362.49 447.48 362.18 447.11C361.87 446.75 361.29 446.56 360.43 446.56C359.57 446.56 359 446.74 358.7 447.09C358.41 447.45 358.26 448.01 358.26 448.78L358.26 463.97C358.26 464.71 358.41 465.27 358.7 465.64C359 466 359.57 466.19 360.43 466.19C361.29 466.19 361.87 466 362.18 465.64C362.49 465.27 362.64 464.71 362.64 463.97L362.64 448.78Z" />
</svg>