<?xml version="1.0" encoding="UTF-8" standalone="no"?>
<!DOCTYPE svg PUBLIC "-//W3C//DTD SVG 1.1//EN" "http://www.w3.org/Graphics/SVG/1.1/DTD/svg11.dtd">
<svg width="100%" height="100%" viewBox="0 0 629 287" version="1.1" xmlns="http://www.w3.org/2000/svg" xmlns:xlink="http://www.w3.org/1999/xlink" xml:space="preserve" xmlns:serif="http://www.serif.com/" style="fill-rule:evenodd;clip-rule:evenodd;stroke-linejoin:round;stroke-miterlimit:2;">
    <g transform="matrix(1,0,0,1,-16185.6,-6527.88)">
        <g transform="matrix(4.16667,0,0,4.16667,14850,5737.5)">
            <g transform="matrix(1,0,0,1,336.166,243.874)">
                <path d="M0,-32.595L-14.916,-32.595L-14.916,-25.71C-8.004,-19.209 -2.502,-11.255 -0.518,0L0,0L0,-32.595Z" style="fill:rgb(194,202,209);fill-rule:nonzero;"/>
            </g>
        </g>
        <g transform="matrix(4.16667,0,0,4.16667,14850,5737.5)">
            <g transform="matrix(-0.21804,-0.97594,-0.97594,0.21804,325.238,190.467)">
                <path d="M-7.961,-9.934C-3.456,-9.934 0.196,-6.283 0.194,-1.777C0.194,2.727 -3.457,6.379 -7.961,6.379C-12.466,6.379 -16.117,2.727 -16.117,-1.778C-16.117,-6.282 -12.466,-9.934 -7.961,-9.934" style="fill:rgb(0,131,202);fill-rule:nonzero;"/>
            </g>
        </g>
        <g transform="matrix(4.16667,0,0,4.16667,14850,5737.5)">
            <g transform="matrix(-1,0,0,1,344.444,243.874)">
                <path d="M-14.976,-32.595L0,-32.595L0,0L-0.558,0C-1.285,-15.056 -6.941,-24.848 -14.976,-32.595" style="fill:rgb(194,202,209);fill-rule:nonzero;"/>
            </g>
        </g>
        <g transform="matrix(4.16667,0,0,4.16667,14850,5737.5)">
            <g transform="matrix(-0.21804,-0.97594,-0.97594,0.21804,371.767,190.467)">
                <path d="M-7.961,-9.934C-3.456,-9.934 0.196,-6.283 0.194,-1.777C0.194,2.727 -3.457,6.379 -7.961,6.379C-12.466,6.379 -16.117,2.727 -16.117,-1.778C-16.117,-6.282 -12.466,-9.934 -7.961,-9.934" style="fill:rgb(237,28,36);fill-rule:nonzero;"/>
            </g>
        </g>
        <g transform="matrix(4.16667,0,0,4.16667,14850,5737.5)">
            <g transform="matrix(-1,0,0,1,367.808,233.597)">
                <path d="M5.969,-10.97L8.411,-10.97L8.411,0C5.041,-2.692 1.337,-5.217 -2.442,-7.747C-0.748,-10.02 2.01,-10.97 5.969,-10.97" style="fill:rgb(194,202,209);fill-rule:nonzero;"/>
            </g>
        </g>
        <g transform="matrix(4.16667,0,0,4.16667,14850,5737.5)">
            <g transform="matrix(1,0,0,1,382.088,258.262)">
                <path d="M0,-40.603C-3.838,-37.735 -7.891,-35.083 -11.866,-32.441C-10.455,-30.561 -9.784,-27.77 -9.784,-23.845L-9.784,-23.317C-9.784,-15.084 -12.881,-11.461 -20.195,-11.461L-22.7,-11.461L-22.7,-24.764C-30.818,-18.323 -36.996,-10.899 -37.604,0L-19.668,0C-3.064,0 5.766,-8.629 5.766,-23.647L5.766,-24.109C5.766,-31.205 3.832,-36.742 0,-40.603" style="fill:rgb(194,202,209);fill-rule:nonzero;"/>
            </g>
        </g>
        <g transform="matrix(4.16667,0,0,4.16667,14850,5737.5)">
            <g transform="matrix(1,0,0,1,401.589,217.961)">
                <path d="M0,-1.625L0,5.276C-0.175,5.31 -0.358,5.334 -0.55,5.346C-0.742,5.357 -0.937,5.363 -1.135,5.363C-1.334,5.363 -1.529,5.357 -1.721,5.346C-1.913,5.334 -2.102,5.31 -2.288,5.276L-2.288,-0.804C-2.288,-1.444 -2.551,-1.764 -3.075,-1.764L-3.302,-1.764C-3.372,-2.021 -3.407,-2.289 -3.407,-2.568C-3.407,-2.824 -3.372,-3.092 -3.302,-3.372C-3.034,-3.395 -2.786,-3.415 -2.559,-3.433C-2.332,-3.451 -2.137,-3.459 -1.974,-3.459L-1.677,-3.459C-1.153,-3.459 -0.742,-3.296 -0.445,-2.97C-0.148,-2.644 0,-2.195 0,-1.625M-2.638,-6.761C-2.37,-6.912 -1.986,-6.988 -1.485,-6.988C-1.194,-6.988 -0.958,-6.965 -0.777,-6.918C-0.597,-6.871 -0.466,-6.816 -0.384,-6.752C-0.303,-6.688 -0.251,-6.569 -0.227,-6.394C-0.204,-6.22 -0.192,-6.039 -0.192,-5.852C-0.227,-5.258 -0.3,-4.933 -0.41,-4.874C-0.521,-4.816 -0.885,-4.758 -1.502,-4.7C-2.155,-4.723 -2.536,-4.81 -2.647,-4.962C-2.758,-5.113 -2.813,-5.41 -2.813,-5.852C-2.813,-6.19 -2.754,-6.493 -2.638,-6.761" style="fill:rgb(194,202,209);fill-rule:nonzero;"/>
            </g>
        </g>
        <g transform="matrix(4.16667,0,0,4.16667,14850,5737.5)">
            <g transform="matrix(1,0,0,1,412.455,212.09)">
                <path d="M0,10.36C-0.349,10.663 -0.824,10.884 -1.424,11.024C-2.024,11.163 -2.638,11.233 -3.267,11.233C-3.581,11.233 -4.068,11.227 -4.725,11.216C-5.384,11.204 -6.225,11.187 -7.25,11.163L-7.372,11.059L-7.372,-0.699L-7.25,-0.803C-6.575,-0.826 -5.896,-0.844 -5.215,-0.856C-4.533,-0.867 -3.837,-0.873 -3.127,-0.873C-2.149,-0.873 -1.336,-0.716 -0.69,-0.401C-0.044,-0.087 0.472,0.347 0.856,0.9C1.24,1.453 1.511,2.097 1.669,2.831C1.826,3.564 1.904,4.35 1.904,5.189C1.904,6.354 1.773,7.358 1.511,8.202C1.249,9.047 0.745,9.766 0,10.36M-0.959,2.376C-1.307,1.444 -2.026,0.979 -3.117,0.979L-4.196,0.979C-4.509,0.979 -4.782,0.973 -5.014,0.961L-5.014,9.399C-4.793,9.388 -4.541,9.381 -4.257,9.381C-3.973,9.381 -3.686,9.376 -3.395,9.364C-3.105,9.353 -2.836,9.329 -2.586,9.294C-2.337,9.259 -2.131,9.201 -1.968,9.119C-1.667,8.956 -1.42,8.738 -1.229,8.464C-1.037,8.191 -0.89,7.876 -0.785,7.521C-0.681,7.166 -0.608,6.781 -0.567,6.368C-0.527,5.954 -0.506,5.527 -0.506,5.084C-0.506,4.583 -0.538,4.118 -0.602,3.687C-0.666,3.255 -0.785,2.819 -0.959,2.376" style="fill:rgb(194,202,209);fill-rule:nonzero;"/>
            </g>
        </g>
        <g transform="matrix(4.16667,0,0,4.16667,14850,5737.5)">
            <g transform="matrix(1,0,0,1,423.234,214.065)">
                <path d="M0,6.463L-0.856,6.481L-3.302,6.481L-4.158,6.463L-4.979,9.188C-5.223,9.247 -5.57,9.276 -6.018,9.276C-6.467,9.276 -6.831,9.224 -7.11,9.118L-7.197,8.996L-3.302,-2.761C-2.871,-2.819 -2.405,-2.848 -1.904,-2.848C-1.404,-2.848 -0.967,-2.813 -0.594,-2.743L3.232,9.014C2.894,9.212 2.489,9.311 2.018,9.311C1.546,9.311 1.208,9.224 1.005,9.049C0.801,8.874 0.629,8.542 0.489,8.053L0,6.463ZM-3.581,4.612L-2.795,4.594L-1.293,4.594L-0.559,4.612L-1.083,2.83C-1.479,1.502 -1.793,0.372 -2.026,-0.56L-2.131,-0.56C-2.236,-0.059 -2.492,0.926 -2.9,2.393L-3.581,4.612Z" style="fill:rgb(194,202,209);fill-rule:nonzero;"/>
            </g>
        </g>
        <g transform="matrix(4.16667,0,0,4.16667,14850,5737.5)">
            <g transform="matrix(1,0,0,1,438.03,223.324)">
                <path d="M0,-12.124L0.122,-12.001L0.122,-0.122C-0.239,-0.041 -0.693,0 -1.24,0C-1.788,0 -2.265,-0.029 -2.673,-0.087L-5.887,-6.848C-6.353,-7.872 -6.703,-8.688 -6.935,-9.294L-7.005,-9.277C-6.877,-7.634 -6.813,-6.05 -6.813,-4.525L-6.813,-0.087C-7.139,-0.029 -7.509,0 -7.922,0C-8.336,0 -8.694,-0.029 -8.997,-0.087L-8.997,-11.984C-8.659,-12.066 -8.217,-12.107 -7.669,-12.107C-7.122,-12.107 -6.644,-12.077 -6.236,-12.019L-3.057,-5.259L-1.921,-2.673L-1.869,-2.69C-1.986,-4.379 -2.044,-5.975 -2.044,-7.477L-2.044,-10.674C-2.044,-11.198 -1.945,-11.571 -1.747,-11.792C-1.549,-12.013 -1.217,-12.124 -0.751,-12.124L0,-12.124Z" style="fill:rgb(194,202,209);fill-rule:nonzero;"/>
            </g>
        </g>
        <g transform="matrix(4.16667,0,0,4.16667,14850,5737.5)">
            <g transform="matrix(1,0,0,1,448.267,218.764)">
                <path d="M0,-3.004L0,-3.179C0,-3.563 -0.041,-3.915 -0.122,-4.236C-0.204,-4.556 -0.332,-4.836 -0.507,-5.074C-0.681,-5.313 -0.906,-5.499 -1.179,-5.634C-1.453,-5.767 -1.782,-5.835 -2.166,-5.835C-3.016,-5.835 -3.634,-5.453 -4.018,-4.69C-4.402,-3.927 -4.594,-2.771 -4.594,-1.223C-4.594,0.012 -4.359,0.97 -3.887,1.651C-3.415,2.332 -2.772,2.673 -1.956,2.673C-1.526,2.673 -1.057,2.572 -0.55,2.368C-0.044,2.164 0.501,1.841 1.083,1.398C1.328,1.562 1.561,1.788 1.782,2.079C2.003,2.371 2.143,2.65 2.201,2.918C1.945,3.175 1.645,3.41 1.302,3.626C0.958,3.841 0.588,4.031 0.192,4.193C-0.204,4.356 -0.617,4.484 -1.048,4.577C-1.479,4.67 -1.91,4.717 -2.341,4.717C-3.203,4.717 -3.931,4.551 -4.525,4.22C-5.118,3.888 -5.605,3.439 -5.983,2.874C-6.362,2.31 -6.636,1.655 -6.804,0.909C-6.973,0.164 -7.058,-0.622 -7.058,-1.449C-7.058,-2.498 -6.93,-3.415 -6.673,-4.201C-6.417,-4.987 -6.071,-5.639 -5.634,-6.158C-5.197,-6.676 -4.685,-7.066 -4.097,-7.328C-3.509,-7.59 -2.882,-7.721 -2.219,-7.721C-1.531,-7.721 -0.911,-7.628 -0.358,-7.441C0.195,-7.255 0.664,-7.002 1.048,-6.682C1.433,-6.361 1.73,-5.989 1.939,-5.564C2.149,-5.138 2.254,-4.681 2.254,-4.192C2.254,-3.319 1.811,-2.882 0.926,-2.882C0.798,-2.882 0.658,-2.891 0.507,-2.908C0.355,-2.926 0.186,-2.958 0,-3.004" style="fill:rgb(194,202,209);fill-rule:nonzero;"/>
            </g>
        </g>
        <g transform="matrix(4.16667,0,0,4.16667,14850,5737.5)">
            <g transform="matrix(1,0,0,1,455.692,214.326)">
                <path d="M0,5.923L-0.018,7.006L1.205,6.971L5.485,6.971C5.485,7.344 5.468,7.629 5.433,7.827C5.305,8.573 4.804,8.945 3.931,8.945L-0.978,8.945C-1.398,8.945 -1.727,8.82 -1.965,8.57C-2.204,8.319 -2.323,7.979 -2.323,7.548L-2.323,-2.899L-2.201,-3.022L5.084,-3.022C5.142,-2.73 5.171,-2.419 5.171,-2.087C5.171,-1.755 5.107,-1.408 4.979,-1.048L-0.018,-1.048L0,0.158L0,1.958L1.135,1.94L4.088,1.94C4.181,2.208 4.228,2.528 4.228,2.901C4.228,3.274 4.181,3.594 4.088,3.862L0,3.862L0,5.923Z" style="fill:rgb(194,202,209);fill-rule:nonzero;"/>
            </g>
        </g>
        <g transform="matrix(4.16667,0,0,4.16667,14850,5737.5)">
            <g transform="matrix(1,0,0,1,403.353,237.561)">
                <path d="M0,-5.555L0,3.145C-0.338,3.203 -0.731,3.232 -1.179,3.232C-1.627,3.232 -2.021,3.203 -2.358,3.145L-2.358,-5.555L-2.341,-6.848L-3.406,-6.83L-5.346,-6.83C-5.404,-7.121 -5.433,-7.447 -5.433,-7.808C-5.433,-8.17 -5.404,-8.495 -5.346,-8.787L3.005,-8.787C3.086,-8.495 3.127,-8.178 3.127,-7.835C3.127,-7.491 3.028,-7.238 2.83,-7.075C2.632,-6.912 2.312,-6.83 1.869,-6.83L1.048,-6.83L-0.017,-6.848L0,-5.555Z" style="fill:rgb(194,202,209);fill-rule:nonzero;"/>
            </g>
        </g>
        <g transform="matrix(4.16667,0,0,4.16667,14850,5737.5)">
            <g transform="matrix(1,0,0,1,413.783,231.535)">
                <path d="M0,6.463L-0.856,6.481L-3.302,6.481L-4.158,6.463L-4.979,9.188C-5.223,9.247 -5.57,9.276 -6.018,9.276C-6.467,9.276 -6.831,9.224 -7.11,9.118L-7.197,8.996L-3.302,-2.761C-2.871,-2.819 -2.405,-2.848 -1.904,-2.848C-1.404,-2.848 -0.967,-2.813 -0.594,-2.743L3.232,9.014C2.894,9.212 2.489,9.311 2.018,9.311C1.546,9.311 1.208,9.224 1.005,9.049C0.801,8.874 0.629,8.542 0.489,8.053L0,6.463ZM-3.581,4.612L-2.795,4.594L-1.293,4.594L-0.559,4.612L-1.083,2.83C-1.479,1.502 -1.793,0.372 -2.026,-0.56L-2.131,-0.56C-2.236,-0.059 -2.492,0.926 -2.9,2.393L-3.581,4.612Z" style="fill:rgb(194,202,209);fill-rule:nonzero;"/>
            </g>
        </g>
        <g transform="matrix(4.16667,0,0,4.16667,14850,5737.5)">
            <g transform="matrix(1,0,0,1,428.579,240.793)">
                <path d="M0,-12.124L0.122,-12.001L0.122,-0.122C-0.239,-0.041 -0.693,0 -1.24,0C-1.788,0 -2.265,-0.029 -2.673,-0.087L-5.887,-6.848C-6.353,-7.873 -6.703,-8.688 -6.935,-9.294L-7.005,-9.277C-6.877,-7.634 -6.813,-6.05 -6.813,-4.525L-6.813,-0.087C-7.139,-0.029 -7.509,0 -7.922,0C-8.336,0 -8.694,-0.029 -8.997,-0.087L-8.997,-11.984C-8.659,-12.066 -8.217,-12.107 -7.669,-12.107C-7.122,-12.107 -6.644,-12.077 -6.237,-12.019L-3.057,-5.259L-1.921,-2.673L-1.869,-2.69C-1.986,-4.379 -2.044,-5.975 -2.044,-7.477L-2.044,-10.674C-2.044,-11.198 -1.945,-11.571 -1.747,-11.792C-1.549,-12.013 -1.217,-12.124 -0.751,-12.124L0,-12.124Z" style="fill:rgb(194,202,209);fill-rule:nonzero;"/>
            </g>
        </g>
        <g transform="matrix(4.16667,0,0,4.16667,14850,5737.5)">
            <g transform="matrix(1,0,0,1,434.781,231.796)">
                <path d="M0,5.923L-0.018,7.006L1.205,6.971L5.485,6.971C5.485,7.344 5.468,7.629 5.433,7.827C5.305,8.573 4.804,8.945 3.931,8.945L-0.978,8.945C-1.398,8.945 -1.727,8.82 -1.965,8.57C-2.204,8.319 -2.323,7.979 -2.323,7.548L-2.323,-2.899L-2.201,-3.022L5.084,-3.022C5.142,-2.73 5.171,-2.419 5.171,-2.087C5.171,-1.755 5.107,-1.408 4.979,-1.048L-0.018,-1.048L0,0.158L0,1.958L1.135,1.94L4.088,1.94C4.181,2.208 4.228,2.528 4.228,2.901C4.228,3.274 4.181,3.594 4.088,3.862L0,3.862L0,5.923Z" style="fill:rgb(194,202,209);fill-rule:nonzero;"/>
            </g>
        </g>
        <g transform="matrix(4.16667,0,0,4.16667,14850,5737.5)">
            <g transform="matrix(1,0,0,1,449.508,232.425)">
                <path d="M0,0.804L0,0.629C0,0.245 -0.041,-0.107 -0.122,-0.428C-0.204,-0.748 -0.332,-1.028 -0.507,-1.266C-0.681,-1.505 -0.906,-1.691 -1.179,-1.826C-1.453,-1.959 -1.782,-2.027 -2.166,-2.027C-3.016,-2.027 -3.634,-1.645 -4.018,-0.882C-4.402,-0.119 -4.594,1.037 -4.594,2.585C-4.594,3.82 -4.359,4.778 -3.887,5.459C-3.415,6.14 -2.772,6.481 -1.956,6.481C-1.526,6.481 -1.057,6.38 -0.55,6.176C-0.044,5.972 0.501,5.649 1.083,5.206C1.328,5.37 1.561,5.596 1.782,5.887C2.003,6.179 2.143,6.458 2.201,6.726C1.945,6.982 1.645,7.218 1.302,7.434C0.958,7.649 0.588,7.838 0.192,8.001C-0.204,8.164 -0.617,8.292 -1.048,8.385C-1.479,8.478 -1.91,8.525 -2.341,8.525C-3.203,8.525 -3.931,8.359 -4.525,8.028C-5.118,7.696 -5.605,7.247 -5.983,6.682C-6.362,6.118 -6.636,5.463 -6.804,4.717C-6.974,3.972 -7.058,3.186 -7.058,2.359C-7.058,1.31 -6.93,0.393 -6.673,-0.393C-6.417,-1.179 -6.071,-1.831 -5.634,-2.35C-5.197,-2.868 -4.685,-3.258 -4.097,-3.52C-3.509,-3.782 -2.882,-3.913 -2.219,-3.913C-1.531,-3.913 -0.911,-3.82 -0.358,-3.633C0.195,-3.447 0.664,-3.194 1.048,-2.874C1.433,-2.553 1.73,-2.181 1.939,-1.756C2.149,-1.33 2.254,-0.873 2.254,-0.384C2.254,0.489 1.811,0.926 0.926,0.926C0.798,0.926 0.658,0.917 0.507,0.9C0.355,0.882 0.186,0.85 0,0.804M-4.193,-7.547L-2.184,-6.254L-0.122,-7.721C0.064,-7.651 0.259,-7.527 0.463,-7.346C0.667,-7.165 0.798,-6.976 0.856,-6.778L-1.205,-4.717C-1.788,-4.565 -2.44,-4.559 -3.162,-4.699L-5.136,-6.586C-5.066,-6.807 -4.935,-7.008 -4.743,-7.189C-4.551,-7.369 -4.367,-7.489 -4.193,-7.547" style="fill:rgb(194,202,209);fill-rule:nonzero;"/>
            </g>
        </g>
        <g transform="matrix(4.16667,0,0,4.16667,14850,5737.5)">
            <g transform="matrix(1,0,0,1,463.624,240.793)">
                <path d="M0,-12.124L0.122,-12.001L0.122,-0.122C-0.239,-0.041 -0.693,0 -1.24,0C-1.788,0 -2.265,-0.029 -2.673,-0.087L-5.887,-6.848C-6.353,-7.873 -6.703,-8.688 -6.935,-9.294L-7.005,-9.277C-6.877,-7.634 -6.813,-6.05 -6.813,-4.525L-6.813,-0.087C-7.139,-0.029 -7.509,0 -7.922,0C-8.336,0 -8.694,-0.029 -8.997,-0.087L-8.997,-11.984C-8.659,-12.066 -8.217,-12.107 -7.669,-12.107C-7.122,-12.107 -6.644,-12.077 -6.236,-12.019L-3.057,-5.259L-1.921,-2.673L-1.869,-2.69C-1.986,-4.379 -2.044,-5.975 -2.044,-7.477L-2.044,-10.674C-2.044,-11.198 -1.945,-11.571 -1.747,-11.792C-1.549,-12.013 -1.217,-12.124 -0.751,-12.124L0,-12.124Z" style="fill:rgb(194,202,209);fill-rule:nonzero;"/>
            </g>
        </g>
        <g transform="matrix(4.16667,0,0,4.16667,14850,5737.5)">
            <g transform="matrix(1,0,0,1,466.786,238.54)">
                <path d="M0,-11.671L3.721,-13.924C3.931,-13.762 4.134,-13.508 4.332,-13.165C4.53,-12.821 4.641,-12.486 4.664,-12.16L0.664,-10.553C0.5,-10.646 0.355,-10.803 0.227,-11.024C0.099,-11.245 0.023,-11.461 0,-11.671M0.786,2.166L0.786,-9.767C1.079,-9.825 1.463,-9.854 1.939,-9.854C2.414,-9.854 2.816,-9.825 3.144,-9.767L3.144,2.166C2.816,2.224 2.414,2.253 1.939,2.253C1.463,2.253 1.079,2.224 0.786,2.166" style="fill:rgb(194,202,209);fill-rule:nonzero;"/>
            </g>
        </g>
        <g transform="matrix(4.16667,0,0,4.16667,14850,5737.5)">
            <g transform="matrix(1,0,0,1,408.227,246.891)">
                <path d="M0,10.691C-0.326,11.18 -0.85,11.425 -1.572,11.425C-1.98,11.425 -2.286,11.32 -2.489,11.11C-2.693,10.901 -2.877,10.545 -3.04,10.044L-3.84,7.756C-4.048,7.151 -4.288,6.723 -4.561,6.472C-4.833,6.222 -5.201,6.096 -5.665,6.096C-5.781,6.096 -6.105,6.108 -6.638,6.132L-6.638,11.285C-6.944,11.343 -7.337,11.372 -7.818,11.372C-8.299,11.372 -8.692,11.343 -8.997,11.285L-8.997,-0.647C-8.692,-0.705 -8.299,-0.734 -7.818,-0.734C-7.337,-0.734 -6.944,-0.705 -6.638,-0.647L-6.638,4.158L-5.943,4.14C-5.758,4.14 -5.619,4.102 -5.526,4.027C-5.433,3.951 -5.329,3.808 -5.213,3.598L-3.283,0.139C-3.109,-0.175 -2.935,-0.399 -2.76,-0.533C-2.585,-0.667 -2.341,-0.734 -2.026,-0.734C-1.712,-0.734 -1.24,-0.711 -0.611,-0.664L-0.472,-0.49L-2.841,3.756C-3.108,4.233 -3.393,4.594 -3.695,4.839C-3.149,4.955 -2.731,5.179 -2.44,5.511C-2.15,5.843 -1.895,6.306 -1.674,6.9L-0.855,9.241C-0.774,9.451 -0.724,9.576 -0.707,9.617C-0.69,9.658 -0.652,9.748 -0.594,9.888C-0.431,10.213 -0.303,10.418 -0.209,10.499C-0.116,10.581 -0.047,10.645 0,10.691" style="fill:rgb(194,202,209);fill-rule:nonzero;"/>
            </g>
        </g>
        <g transform="matrix(4.16667,0,0,4.16667,14850,5737.5)">
            <g transform="matrix(1,0,0,1,414.674,248.166)">
                <path d="M0,8.019L3.249,8.019C3.249,8.368 3.226,8.665 3.179,8.91C3.051,9.667 2.545,10.045 1.66,10.045L-2.586,10.045C-3.005,10.045 -3.337,9.92 -3.581,9.67C-3.826,9.419 -3.948,9.079 -3.948,8.648L-3.948,-1.904L-3.826,-2.026L-2.952,-2.026C-2.487,-2.026 -2.143,-1.907 -1.922,-1.668C-1.701,-1.43 -1.59,-1.048 -1.59,-0.524L-1.59,8.089C-1.089,8.042 -0.559,8.019 0,8.019" style="fill:rgb(194,202,209);fill-rule:nonzero;"/>
            </g>
        </g>
        <g transform="matrix(4.16667,0,0,4.16667,14850,5737.5)">
            <g transform="matrix(1,0,0,1,429.331,258.316)">
                <path d="M0,-12.072L0,-4.437C0,-2.982 -0.399,-1.861 -1.197,-1.074C-1.994,-0.288 -3.121,0.105 -4.577,0.105C-6.021,0.105 -7.142,-0.288 -7.94,-1.074C-8.738,-1.861 -9.137,-2.982 -9.137,-4.437L-9.137,-12.054L-9.031,-12.177L-8.151,-12.177C-7.682,-12.177 -7.336,-12.057 -7.113,-11.818C-6.89,-11.58 -6.778,-11.198 -6.778,-10.674L-6.778,-4.42C-6.778,-2.65 -6.044,-1.765 -4.577,-1.765C-3.098,-1.765 -2.358,-2.65 -2.358,-4.42L-2.358,-12.072C-2.03,-12.13 -1.637,-12.159 -1.179,-12.159C-0.722,-12.159 -0.329,-12.13 0,-12.072" style="fill:rgb(194,202,209);fill-rule:nonzero;"/>
            </g>
        </g>
        <g transform="matrix(4.16667,0,0,4.16667,14850,5737.5)">
            <g transform="matrix(1,0,0,1,433.069,258.194)">
                <path d="M0,-11.967C0.908,-11.99 1.68,-12.007 2.315,-12.019C2.949,-12.031 3.453,-12.037 3.826,-12.037C5.095,-12.037 6.074,-11.766 6.761,-11.225C7.448,-10.683 7.791,-9.899 7.791,-8.875C7.791,-8.339 7.646,-7.85 7.355,-7.407C7.063,-6.965 6.673,-6.645 6.184,-6.446C6.475,-6.353 6.755,-6.211 7.023,-6.019C7.291,-5.826 7.524,-5.593 7.722,-5.32C7.919,-5.046 8.074,-4.746 8.184,-4.42C8.295,-4.094 8.35,-3.756 8.35,-3.407C8.35,-2.289 7.984,-1.43 7.25,-0.83C6.516,-0.23 5.462,0.07 4.088,0.07C3.657,0.07 3.104,0.064 2.428,0.052C1.753,0.041 0.943,0.023 0,0L-0.122,-0.105L-0.122,-11.862L0,-11.967ZM2.201,-10.342L2.201,-7.145L3.721,-7.145C4.886,-7.145 5.468,-7.681 5.468,-8.752C5.468,-9.195 5.383,-9.527 5.215,-9.748C5.046,-9.97 4.81,-10.121 4.507,-10.202C4.204,-10.284 3.852,-10.322 3.45,-10.316C3.048,-10.31 2.632,-10.319 2.201,-10.342M3.921,-5.416L2.201,-5.416L2.201,-1.608C2.423,-1.619 2.675,-1.622 2.956,-1.616C3.237,-1.61 3.517,-1.613 3.798,-1.625C4.079,-1.636 4.351,-1.662 4.614,-1.703C4.877,-1.744 5.111,-1.84 5.316,-1.992C5.521,-2.143 5.685,-2.341 5.808,-2.586C5.931,-2.83 5.992,-3.145 5.992,-3.529C5.992,-3.774 5.951,-4.009 5.869,-4.237C5.787,-4.464 5.665,-4.664 5.501,-4.839C5.337,-5.014 5.123,-5.154 4.86,-5.258C4.597,-5.364 4.284,-5.416 3.921,-5.416" style="fill:rgb(194,202,209);fill-rule:nonzero;"/>
            </g>
        </g>
    </g>
</svg>
