<svg xmlns="http://www.w3.org/2000/svg" style="display: block; width: 100%; height: 100%;" width="527" height="94" viewBox="0 0 527 94" fill="#000000"><path d="M2 0C0.895431 0 0 0.895429 0 2V91C0 92.1046 0.895431 93 2 93H18C19.1046 93 20 92.1046 20 91V2C20 0.895431 19.1046 0 18 0H2Z" fill="#000000"></path><path d="M399.225 87C393.017 82.7083 389.913 76.375 389.913 68V64.8125C389.913 63.7079 390.808 62.8125 391.913 62.8125H408.038C409.142 62.8125 410.038 63.7079 410.038 64.8125V66.0625C409.996 70.3958 411.1 73.625 413.35 75.75C415.6 77.8333 418.725 78.875 422.725 78.875C426.558 78.875 429.517 77.9167 431.6 76C433.683 74.0833 434.725 71.4792 434.725 68.1875C434.725 65.4792 433.517 63.2083 431.1 61.375C428.725 59.5417 424.308 57.5417 417.85 55.375C408.433 52.25 401.6 48.375 397.35 43.75C393.142 39.125 391.038 33.25 391.038 26.125C391.038 18.0417 393.85 11.6667 399.475 7C405.142 2.33333 412.683 0 422.1 0C431.433 0 438.975 2.10417 444.725 6.3125C450.475 10.5208 453.35 16.5625 453.35 24.4375V26.5C453.35 27.6046 452.455 28.5 451.35 28.5H435.6C434.495 28.5 433.6 27.6046 433.6 26.5V26.1875C433.6 22.6875 432.642 19.9583 430.725 18C428.85 16.0417 426.121 15.0625 422.538 15.0625C418.704 15.0625 415.933 15.9167 414.225 17.625C412.517 19.3333 411.663 21.5625 411.663 24.3125C411.663 26.8125 412.933 28.9375 415.475 30.6875C418.058 32.3958 422.788 34.3125 429.663 36.4375C438.663 39.2292 445.183 42.9792 449.225 47.6875C453.267 52.3542 455.288 58.5 455.288 66.125C455.288 74.6667 452.308 81.3542 446.35 86.1875C440.433 91.0208 432.663 93.4375 423.038 93.4375C413.371 93.4375 405.433 91.2917 399.225 87Z" fill="#000000"></path><path d="M90.375 92.1875C89.2704 92.1875 88.375 91.2921 88.375 90.1875V3.1875C88.375 2.08293 89.2704 1.1875 90.375 1.1875H140.125C141.23 1.1875 142.125 2.08293 142.125 3.1875V16.75C142.125 17.8546 141.23 18.75 140.125 18.75H112.5C111.395 18.75 110.5 19.6454 110.5 20.75V37.375C110.5 38.4796 111.395 39.375 112.5 39.375H136C137.105 39.375 138 40.2704 138 41.375V53.4375C138 54.5421 137.105 55.4375 136 55.4375H112.5C111.395 55.4375 110.5 56.3329 110.5 57.4375V90.1875C110.5 91.2921 109.605 92.1875 108.5 92.1875H90.375Z" fill="#000000"></path><path d="M149.408 92.1875C148.303 92.1875 147.408 91.2921 147.408 90.1875V3.1875C147.408 2.08293 148.303 1.1875 149.408 1.1875H167.845C168.95 1.1875 169.845 2.08293 169.845 3.1875V90.1875C169.845 91.2921 168.95 92.1875 167.845 92.1875H149.408Z" fill="#000000"></path><path d="M174.815 16.8125C174.815 17.9171 175.71 18.8125 176.815 18.8125H196.69C197.795 18.8125 198.69 19.7079 198.69 20.8125V90.1875C198.69 91.2921 199.585 92.1875 200.69 92.1875H219.128C220.232 92.1875 221.128 91.2921 221.128 90.1875V20.8125C221.128 19.7079 222.023 18.8125 223.128 18.8125H242.878C243.982 18.8125 244.878 17.9171 244.878 16.8125V3.1875C244.878 2.08293 243.982 1.1875 242.878 1.1875H176.815C175.71 1.1875 174.815 2.08293 174.815 3.1875V16.8125Z" fill="#000000"></path><path d="M251.535 92.1875C250.43 92.1875 249.535 91.2921 249.535 90.1875V3.1875C249.535 2.08293 250.43 1.1875 251.535 1.1875H270.503C271.284 1.1875 271.994 1.64235 272.32 2.35214L294.598 50.8125C295.139 52.1458 295.66 53.6042 296.16 55.1875C296.644 56.681 297.07 58.0767 297.437 59.3747C297.458 59.4488 297.526 59.5 297.603 59.5C297.702 59.5 297.78 59.4168 297.775 59.3181C297.698 57.9568 297.66 56.5383 297.66 55.0625C297.702 53.5208 297.723 52.0417 297.723 50.625V3.1875C297.723 2.08293 298.618 1.1875 299.723 1.1875H314.473C315.577 1.1875 316.473 2.08293 316.473 3.1875V90.1875C316.473 91.2921 315.577 92.1875 314.473 92.1875H296.242C295.467 92.1875 294.762 91.7402 294.432 91.0393L271.348 42C270.806 40.75 270.264 39.3958 269.723 37.9375C269.241 36.5343 268.837 35.189 268.511 33.9016C268.488 33.8125 268.408 33.75 268.316 33.75C268.199 33.75 268.106 33.8508 268.116 33.9679C268.229 35.3078 268.285 36.6101 268.285 37.875V90.1875C268.285 91.2921 267.39 92.1875 266.285 92.1875H251.535Z" fill="#000000"></path><path d="M326.005 90.1875C326.005 91.2921 326.9 92.1875 328.005 92.1875H383.505C384.61 92.1875 385.505 91.2921 385.505 90.1875V77.1875C385.505 76.0829 384.61 75.1875 383.505 75.1875H349.193C348.088 75.1875 347.193 74.2921 347.193 73.1875V55.8125C347.193 54.7079 348.088 53.8125 349.193 53.8125H377.068C378.172 53.8125 379.068 52.9171 379.068 51.8125V40.3125C379.068 39.2079 378.172 38.3125 377.068 38.3125H349.193C348.088 38.3125 347.193 37.4171 347.193 36.3125V20.8125C347.193 19.7079 348.088 18.8125 349.193 18.8125H382.568C383.672 18.8125 384.568 17.9171 384.568 16.8125V3.1875C384.568 2.08293 383.672 1.1875 382.568 1.1875H328.005C326.9 1.1875 326.005 2.08293 326.005 3.1875V90.1875Z" fill="#000000"></path><path d="M461.383 68C461.383 76.375 464.487 82.7083 470.695 87C476.903 91.2917 484.841 93.4375 494.508 93.4375C504.133 93.4375 511.903 91.0208 517.82 86.1875C523.778 81.3542 526.758 74.6667 526.758 66.125C526.758 58.5 524.737 52.3542 520.695 47.6875C516.653 42.9792 510.133 39.2292 501.133 36.4375C494.258 34.3125 489.528 32.3958 486.945 30.6875C484.403 28.9375 483.133 26.8125 483.133 24.3125C483.133 21.5625 483.987 19.3333 485.695 17.625C487.403 15.9167 490.174 15.0625 494.008 15.0625C497.591 15.0625 500.32 16.0417 502.195 18C504.112 19.9583 505.07 22.6875 505.07 26.1875V26.5C505.07 27.6046 505.965 28.5 507.07 28.5H522.82C523.925 28.5 524.82 27.6046 524.82 26.5V24.4375C524.82 16.5625 521.945 10.5208 516.195 6.3125C510.445 2.10417 502.903 0 493.57 0C484.153 0 476.612 2.33333 470.945 7C465.32 11.6667 462.508 18.0417 462.508 26.125C462.508 33.25 464.612 39.125 468.82 43.75C473.07 48.375 479.903 52.25 489.32 55.375C495.778 57.5417 500.195 59.5417 502.57 61.375C504.987 63.2083 506.195 65.4792 506.195 68.1875C506.195 71.4792 505.153 74.0833 503.07 76C500.987 77.9167 498.028 78.875 494.195 78.875C490.195 78.875 487.07 77.8333 484.82 75.75C482.57 73.625 481.466 70.3958 481.508 66.0625V64.8125C481.508 63.7079 480.612 62.8125 479.508 62.8125H463.383C462.278 62.8125 461.383 63.7079 461.383 64.8125V68Z" fill="#000000"></path><path d="M68.6527 0.1875H42.6909L65.5247 49.8125C66.0669 51.1458 66.5882 52.6042 67.0887 54.1875C67.5892 55.7292 68.0271 57.1667 68.4024 58.5H68.7152C68.6318 57.0833 68.5901 55.6042 68.5901 54.0625C68.6318 52.5208 68.6527 51.0417 68.6527 49.625V0.1875Z" fill="#000000"></path><path d="M65.9001 91.1875L42.253 41C41.7109 39.75 41.1687 38.3958 40.6265 36.9375C40.126 35.4792 39.709 34.0833 39.3753 32.75H39C39.1251 34.1667 39.1877 35.5417 39.1877 36.875V91.1875H65.9001Z" fill="#000000"></path></svg>