<?xml version="1.0" encoding="UTF-8"?>
<svg id="Vrstva_2" data-name="Vrstva 2" xmlns="http://www.w3.org/2000/svg" xmlns:xlink="http://www.w3.org/1999/xlink" viewBox="0 0 101.09 77.39">
  <defs>
    <style>
      .cls-1 {
        fill: #44a9a0;
      }

      .cls-1, .cls-2 {
        stroke-width: 0px;
      }

      .cls-2 {
        fill: none;
      }

      .cls-3 {
        clip-path: url(#clippath-1);
      }

      .cls-4 {
        clip-path: url(#clippath);
      }
    </style>
    <clipPath id="clippath">
      <rect class="cls-2" width="101.09" height="77.39"/>
    </clipPath>
    <clipPath id="clippath-1">
      <rect class="cls-2" width="101.09" height="77.39"/>
    </clipPath>
  </defs>
  <g id="Vrstva_1-2" data-name="Vrstva 1">
    <g class="cls-4">
      <path class="cls-1" d="m46.19,6.82c0,2.18-1.76,5.18-3.94,5.18s-3.94-1.76-3.94-3.94,1.76-3.94,3.94-3.94,3.94.52,3.94,2.7"/>
      <path class="cls-1" d="m58.23,22.44c-1.61-.94-3.06-3.55-2.12-5.16.95-1.61,3.01-2.15,4.62-1.2,1.61.94,2.15,3.01,1.2,4.62-.94,1.61-2.1,2.68-3.7,1.74"/>
      <path class="cls-1" d="m56.17,4.68c-1.02,1.59-3.86,2.86-5.61,1.72-1.75-1.13-2.34-3.34-1.32-4.92,1.03-1.59,3.28-1.95,5.03-.82,1.75,1.13,2.92,2.43,1.9,4.02"/>
      <path class="cls-1" d="m53.91,23.99c-.97,1.51-3.67,2.71-5.33,1.64-1.66-1.08-2.22-3.17-1.25-4.67.97-1.51,3.11-1.86,4.78-.78,1.66,1.08,2.78,2.31,1.8,3.82"/>
      <path class="cls-1" d="m63.62,10.94c0,1.98-1.76,2.37-3.73,2.37s-3.58-1.6-3.58-3.58,2.75-3.03,4.73-3.03,2.58,2.26,2.58,4.24"/>
      <path class="cls-1" d="m44.81,18.02c.27,1.83-1.3,2.44-3.14,2.71-1.83.27-3.54-1-3.82-2.83-.27-1.83,2.14-3.19,3.98-3.46,1.84-.27,2.71,1.75,2.98,3.58"/>
    </g>
    <rect class="cls-1" x="11.84" y="48.2" width="2.18" height="10.69"/>
    <polygon class="cls-1" points="28.07 58.89 23.17 52.2 23.17 58.89 20.99 58.89 20.99 48.2 22.91 48.2 27.86 54.9 27.86 48.2 30.04 48.2 30.04 58.89 28.07 58.89"/>
    <polygon class="cls-1" points="39.17 54.58 39.17 58.89 36.99 58.89 36.99 48.2 42.91 48.2 42.91 50.05 39.17 50.05 39.17 52.73 42.91 52.73 42.91 54.58 39.17 54.58"/>
    <rect class="cls-1" x="49.25" y="48.2" width="2.18" height="10.69"/>
    <polygon class="cls-1" points="65.48 58.89 60.58 52.2 60.58 58.89 58.39 58.89 58.39 48.2 60.32 48.2 65.26 54.9 65.26 48.2 67.45 48.2 67.45 58.89 65.48 58.89"/>
    <rect class="cls-1" x="74.39" y="48.2" width="2.18" height="10.69"/>
    <polygon class="cls-1" points="87.19 50.05 87.19 58.89 85 58.89 85 50.05 82.47 50.05 82.47 48.2 89.72 48.2 89.72 50.05 87.19 50.05"/>
    <polygon class="cls-1" points="9.07 66.52 6.09 73.97 3.22 66.52 0 66.52 0 77.21 2.18 77.21 2.18 69.38 5.3 77.21 6.85 77.21 10.05 69.41 10.05 77.21 12.23 77.21 12.23 66.52 9.07 66.52"/>
    <path class="cls-1" d="m23.33,69.85h.02l1.24,3.59h-2.55l1.3-3.59Zm-.72-3.33l-4.37,10.69h2.43l.72-1.98h3.8l.69,1.98h2.52l-4.01-10.69h-1.77Z"/>
    <polygon class="cls-1" points="41.12 66.52 38.63 70.03 36.17 66.52 33.3 66.52 37.12 71.84 33.18 77.21 35.93 77.21 38.51 73.56 41.09 77.21 43.96 77.21 40 71.74 43.85 66.52 41.12 66.52"/>
    <rect class="cls-1" x="49.74" y="66.52" width="2.18" height="10.69"/>
    <polygon class="cls-1" points="67.96 66.52 64.98 73.97 62.11 66.52 58.89 66.52 58.89 77.21 61.07 77.21 61.07 69.38 64.19 77.21 65.74 77.21 68.93 69.41 68.93 77.21 71.12 77.21 71.12 66.52 67.96 66.52"/>
    <g class="cls-3">
      <path class="cls-1" d="m86.65,72.17c0,3.36-1.28,5.22-4.33,5.22s-4.28-1.86-4.28-5.22v-5.65h2.18v5.94c0,2.05.82,3.02,2.12,3.02s2.12-.98,2.12-3.02v-5.94h2.18v5.65Z"/>
      <path class="cls-1" d="m97.32,68.2c-.73,0-1.39.37-1.39,1.07,0,.82,1.01,1.05,1.83,1.34,1.51.52,3.33,1.22,3.33,3.46s-2.18,3.31-4.05,3.31c-1.65,0-2.93-.62-4.09-1.78l1.45-1.42c.87.84,1.54,1.34,2.66,1.34.85,0,1.69-.41,1.69-1.36s-.98-1.27-2.06-1.67c-1.39-.52-2.95-1.13-2.95-3.17s1.72-2.99,3.5-2.99c1.37,0,2.46.44,3.54,1.27l-1.25,1.56c-.6-.5-1.39-.96-2.21-.96"/>
    </g>
  </g>
</svg>