<svg width="64" height="108" viewBox="0 0 64 108" fill="none" xmlns="http://www.w3.org/2000/svg">
<path d="M8.55477 78.1483C8.55477 78.7509 7.46516 79.261 4.89278 79.261C3.82626 79.261 2.73716 78.9828 1.27698 78.3803L0.882812 79.6783C2.57497 80.3732 4.03515 80.7443 5.56462 80.7443C9.3426 80.7443 10.9886 79.6085 10.9886 78.3336C10.9886 74.2774 3.54809 75.1582 3.54809 72.4929C3.54809 72.2378 3.57169 71.9365 3.61788 71.5891H9.41239L9.01823 73.1652L10.154 73.6056L12.2866 69.8969L10.0611 69.0393H2.80645L1.30008 70.3604C1.13789 71.6584 1.045 72.6551 1.045 73.4198C1.045 76.5721 8.55477 76.526 8.55477 78.1483ZM18.189 74.7645C18.189 73.0723 18.3281 71.1251 18.6063 68.8771L16.057 68.97C15.7788 71.3109 15.6397 73.3736 15.6397 75.228C15.6397 78.6816 17.7025 80.4892 19.951 80.4892C21.7817 80.4892 23.729 79.6783 25.0962 77.9861L25.3051 80.7212L26.5795 80.3732L27.0435 69.1091L24.4937 69.804L25.0731 77.476L24.679 76.9894C23.3117 77.9861 21.8048 78.6349 20.5068 78.6349C19.1857 78.6349 18.189 77.5458 18.189 74.7645ZM38.393 78.1483C38.393 78.7509 37.3034 79.261 34.7305 79.261C33.6645 79.261 32.5754 78.9828 31.1147 78.3803L30.721 79.6783C32.4127 80.3732 33.8729 80.7443 35.4028 80.7443C39.1808 80.7443 40.8268 79.6085 40.8268 78.3336C40.8268 74.2774 33.3863 75.1582 33.3863 72.4929C33.3863 72.2378 33.4094 71.9365 33.4561 71.5891H39.2506L38.8564 73.1652L39.9922 73.6056L42.1243 69.8969L39.8994 69.0393H32.6447L31.1383 70.3604C30.9756 71.6584 30.8832 72.6551 30.8832 73.4198C30.8832 76.5721 38.393 76.526 38.393 78.1483ZM51.2027 71.6122C55.0966 71.6122 55.3748 78.3336 55.3748 80.211V80.6981L56.6497 80.5821C56.9279 78.9597 57.067 77.4996 57.067 76.2016C57.067 72.3538 55.8383 69.0624 51.6661 69.0624C50.4148 69.0624 49.2323 69.3868 47.8651 70.036L48.097 63.5229L45.5472 64.2184L46.1498 80.6981L47.4709 80.327L47.8189 70.7083L48.2823 72.4929C49.4643 71.8903 50.345 71.6122 51.2027 71.6122ZM60.8831 69.3406L61.6484 80.9296L62.9694 80.6052L63.4329 68.6451L60.8831 69.3406Z" fill="#2E2E2E"/>
<path d="M63.9902 64.8574H60.3744L59.911 67.4072L63.689 66.1092L63.9902 64.8574Z" fill="#2E2E2E"/>
<path d="M53.5732 38.2723C52.7376 40.6404 52.0331 42.7694 51.2077 44.8502C51.0646 45.2112 50.4138 45.5787 49.9905 45.5868C47.2072 45.639 44.7865 44.8466 42.5355 43.0104C38.2077 39.481 34.6983 35.357 31.8287 30.5733C30.4268 28.2359 28.5609 26.1561 26.7618 24.0843C25.057 22.1205 22.8331 21.1499 20.1638 21.2277C17.7793 21.2965 15.3912 21.2423 12.7505 21.2423C13.5238 20.4128 14.1464 19.4467 15.0236 18.8627C17.2646 17.3714 19.5508 15.9158 21.9484 14.7026C23.9438 13.6934 28.2716 14.9964 29.9292 17.1314C32.3594 20.2622 34.5105 23.6073 36.8856 26.7827C38.9352 29.5233 41.0999 32.1801 43.2726 34.8253C44.9045 36.8117 47.0661 37.8139 49.639 37.9495C50.8024 38.0107 51.9618 38.1378 53.5732 38.2723Z" fill="#2E2E2E"/>
<path d="M49.6604 47.9377C47.9451 49.431 46.3172 50.8932 44.6246 52.2746C44.3625 52.4885 43.7614 52.4518 43.3848 52.3273C42.4037 52.0029 41.4833 51.4887 40.4971 51.186C36.7287 50.0306 34.1985 47.3477 31.8104 44.4098C29.0537 41.019 26.0741 37.8059 23.3948 34.3578C20.7682 30.9785 17.2884 29.6293 13.2172 29.3175C12.0553 29.2286 10.8969 29.1 9.62402 28.979C9.89818 26.7335 10.5791 24.6949 11.7847 22.8893C12.0643 22.47 12.9586 22.2696 13.5582 22.2922C15.4416 22.3625 17.3236 22.5498 19.198 22.7637C20.7938 22.9455 22.039 23.7971 23.102 24.9801C27.1964 29.5374 31.2641 34.1193 35.4337 38.6068C37.4236 40.7483 39.642 42.6765 41.7168 44.7412C43.6143 46.6297 45.8754 47.531 48.5376 47.4743C48.7616 47.4697 48.986 47.4984 49.2095 47.5195C49.2416 47.5225 49.2687 47.5712 49.6604 47.9377Z" fill="#2E2E2E"/>
<path d="M42.1129 53.4975C38.2867 56.0799 33.281 55.976 29.6326 53.5176C26.8855 51.6667 25.0964 49.0522 23.2752 46.4155C22.2258 44.8956 21.1246 43.4103 20.0124 41.9356C17.663 38.8189 14.588 36.8119 10.7367 36.1094C9.61441 35.9051 9.26092 35.4064 9.36084 34.3003C9.46428 33.1484 9.38394 31.9794 9.38394 30.7658C13.5877 30.1557 17.2291 30.803 20.0134 34.1531C22.8655 37.5852 26.0499 40.7972 28.4877 44.5014C31.5502 49.1551 35.6998 51.7892 40.9138 53.1118C41.3009 53.2103 41.6765 53.3559 42.1129 53.4975Z" fill="#2E2E2E"/>
<path d="M53.6996 37.1998C51.4983 36.9106 49.6791 36.7273 47.887 36.3985C47.4256 36.3136 46.9445 35.8461 46.6478 35.4294C43.1736 30.5547 39.732 25.6565 36.2844 20.7623C36.1559 20.5795 36.0489 20.3797 35.947 20.1799C33.8065 15.9766 30.5753 13.4639 25.2407 13.7833C27.4636 12.529 33.3515 11.4911 35.1562 12.0595C35.9104 12.297 36.6635 12.9257 37.1441 13.5779C39.2781 16.4747 41.3182 19.4407 43.3805 22.3897C44.2295 23.6028 45.0334 24.8481 45.8866 26.0587C47.291 28.0527 49.3331 28.8997 51.669 29.0855C52.5367 29.1543 52.9856 29.4104 53.0579 30.3268C53.2296 32.5055 53.4601 34.6792 53.6996 37.1998Z" fill="#2E2E2E"/>
<path d="M9.75185 36.853C11.6434 37.2286 13.1884 38.2108 14.4452 39.572C16.6746 41.9862 18.8207 44.4793 20.9743 46.9628C22.3612 48.5621 23.5844 50.3215 25.0922 51.7922C26.573 53.2368 28.3214 54.4073 29.7208 55.5155C21.3851 57.407 8.91331 46.1509 9.75185 36.853Z" fill="#2E2E2E"/>
<path d="M37.2425 12.4346C44.2993 14.0609 48.1566 19.1097 51.5019 25.3471C49.0413 25.1142 46.8956 25.4402 45.3713 23.306C43.3033 20.412 41.0908 17.6224 38.948 14.7826C38.3653 14.0101 37.8099 13.2178 37.2425 12.4346Z" fill="#2E2E2E"/>
<path d="M41.1826 59.554C37.5151 62.049 33.4193 64.0932 28.8966 65.6884L29.1718 66.0801C38.2788 64.8619 46.2556 60.9177 53.102 54.246C60.192 47.3428 63.7375 39.6422 63.7375 31.1428C63.7375 24.0659 61.3379 17.6844 56.5401 11.9993C51.5274 6.05367 45.3387 2.73212 37.9735 2.03568C32.5943 3.54456 26.268 5.067 18.9943 6.604C21.1951 4.22644 23.9146 2.19535 27.1548 0.513239L26.7877 0.121582C19.2388 2.93548 13.035 7.47418 8.17549 13.7397C3.19341 20.208 0.702881 27.1835 0.702881 34.6672C0.702881 41.9189 3.04127 48.4013 7.71705 54.1155C12.5148 60.0039 18.6578 63.571 26.146 64.8187L41.1826 59.554ZM32.3593 60.9343C32.3372 60.9162 27.9717 61.9898 26.7501 61.9064C23.0695 61.6554 11.2349 53.6003 11.1214 53.4979C4.54714 47.5798 3.13266 36.637 4.8685 28.1677C6.16097 21.8595 7.78383 13.6588 21.3211 8.72949C32.7755 3.73135 44.6598 6.54676 50.8947 11.5067C57.8627 17.0472 59.711 29.3698 59.711 38.3031C59.711 41.9309 56.6018 46.9301 53.3245 50.6599C49.2979 55.2417 47.8398 55.5892 44.9244 57.6715" fill="#2E2E2E"/>
<path d="M14.4894 86.5938V95.8318H5.6149V86.5938H0.703125V101.28H5.6149V98.5644H14.4894V101.28H19.4012V86.5938H14.4894ZM33.8016 101.28L34.3595 101.297C40.3875 101.297 43.0668 100.157 43.0668 97.2413V86.5938H38.5457V97.4572C38.3132 98.5644 37.206 98.5644 34.0803 98.5644C30.9546 98.5644 29.8871 98.5644 29.6712 97.4572V86.5938H24.7594V97.2413C24.7594 100.157 27.5502 101.28 33.8016 101.28ZM48.425 101.28H56.8737C64.0179 101.28 63.9903 99.2337 63.9903 97.1981C63.9903 95.163 62.0812 94.4972 59.0801 94.4972V94.4108C61.784 94.4108 63.9903 93.6536 63.9903 91.2128C63.9903 88.772 63.9622 86.5938 56.8737 86.5938H48.425V101.28ZM53.3368 93.0988V89.3268H54.7387C58.9249 89.3268 59.0801 89.4835 59.0801 91.2128C59.0801 92.9567 58.478 93.0988 54.7387 93.0988H53.3368ZM53.3368 98.5644V95.8318H54.0272C58.3967 95.8143 59.0801 95.4487 59.0801 97.1981C59.0801 99.0123 58.6673 98.4509 54.0272 98.5644H53.3368Z" fill="#2E2E2E"/>
<path d="M0.9227 102.238C0.679369 102.471 0.644528 103.98 0.855712 104.158C1.06687 104.336 63.9492 106.005 63.9492 106.005L63.9791 105.152C63.9791 105.152 1.16656 102.004 0.9227 102.238Z" fill="#2E2E2E"/>
<path d="M63.8372 83.7621C64.0641 83.5123 63.9928 82.0046 63.7697 81.8421C63.5466 81.6791 0.645615 84.3927 0.645615 84.3927L0.675496 85.2465C0.675496 85.2465 63.6103 84.0125 63.8372 83.7621Z" fill="#2E2E2E"/>
</svg>
