<svg width="20" height="19" viewBox="0 0 20 19" fill="none" xmlns="http://www.w3.org/2000/svg">
<path fill-rule="evenodd" clip-rule="evenodd" d="M10.3066 16.9389C14.5035 16.9389 17.9057 13.5367 17.9057 9.33985C17.9057 5.143 14.5035 1.74078 10.3066 1.74078C6.1098 1.74078 2.70758 5.143 2.70758 9.33985C2.70758 13.5367 6.1098 16.9389 10.3066 16.9389ZM10.3066 18.6797C15.4649 18.6797 19.6465 14.4981 19.6465 9.33985C19.6465 4.18159 15.4649 0 10.3066 0C5.14839 0 0.966797 4.18159 0.966797 9.33985C0.966797 14.4981 5.14839 18.6797 10.3066 18.6797Z" fill="#02264F"/>
<path d="M8.82277 12.1198V18.4656H11.7702V12.1198H13.944L14.3492 9.43023H11.7702V7.66176C11.7702 6.9249 12.1018 6.18804 13.2808 6.18804H14.4598V3.90376C14.4598 3.90376 13.3914 3.71954 12.3597 3.71954C10.2228 3.71954 8.82277 5.00905 8.82277 7.36702V9.43023H6.46484V12.1198H8.82277Z" fill="#02264F"/>
</svg>
