<svg width="18" height="19" viewBox="0 0 18 19" fill="none" xmlns="http://www.w3.org/2000/svg">
<path d="M4.93362 0.459351C2.20115 0.459351 0 2.6605 0 5.39297V13.2868C0 16.0192 2.20115 18.2204 4.93362 18.2204H12.8274C15.5599 18.2204 17.761 16.0192 17.761 13.2868V5.39297C17.761 2.6605 15.5599 0.459351 12.8274 0.459351H4.93362ZM4.93362 2.4328H12.8274C14.4593 2.4328 15.7876 3.76108 15.7876 5.39297V13.2868C15.7876 14.9186 14.4593 16.2469 12.8274 16.2469H4.93362C3.30173 16.2469 1.97345 14.9186 1.97345 13.2868V5.39297C1.97345 3.76108 3.30173 2.4328 4.93362 2.4328ZM13.8141 3.41952C13.2828 3.41952 12.8274 3.87493 12.8274 4.40624C12.8274 4.93756 13.2828 5.39297 13.8141 5.39297C14.3454 5.39297 14.8009 4.93756 14.8009 4.40624C14.8009 3.87493 14.3454 3.41952 13.8141 3.41952ZM8.88051 4.40624C6.14805 4.40624 3.94689 6.6074 3.94689 9.33986C3.94689 12.0723 6.14805 14.2735 8.88051 14.2735C11.613 14.2735 13.8141 12.0723 13.8141 9.33986C13.8141 6.6074 11.613 4.40624 8.88051 4.40624ZM8.88051 6.37969C10.5124 6.37969 11.8407 7.70797 11.8407 9.33986C11.8407 10.9718 10.5124 12.3 8.88051 12.3C7.24862 12.3 5.92034 10.9718 5.92034 9.33986C5.92034 7.70797 7.24862 6.37969 8.88051 6.37969Z" fill="#2E2E2E"/>
</svg>
