<?xml version="1.0" standalone="no"?>
<!DOCTYPE svg PUBLIC "-//W3C//DTD SVG 20010904//EN"
 "http://www.w3.org/TR/2001/REC-SVG-20010904/DTD/svg10.dtd">
<svg version="1.0" xmlns="http://www.w3.org/2000/svg"
 width="512.000000pt" height="512.000000pt" viewBox="0 0 512.000000 512.000000"
 preserveAspectRatio="xMidYMid meet">
<metadata>
Created by potrace 1.14, written by Peter Selinger 2001-2017
</metadata>
<g transform="translate(0.000000,512.000000) scale(0.100000,-0.100000)"
fill="#000000" stroke="none">
<path d="M3047 4940 c-21 -27 -41 -49 -45 -48 -47 12 -136 -61 -153 -126 -8
-29 -28 -57 -69 -96 -32 -30 -63 -65 -69 -77 -14 -28 -14 -83 0 -120 12 -33
67 -93 85 -93 7 0 18 -15 24 -34 6 -19 31 -52 56 -73 l44 -39 -47 -1 c-62 -2
-98 -16 -118 -46 -33 -51 -1 -92 105 -134 60 -23 60 -21 47 -118 -23 -188 -49
-361 -55 -366 -6 -6 -53 -1 -217 25 -72 11 -100 16 -130 21 -16 3 -48 8 -70
11 -22 2 -56 7 -75 10 -19 2 -57 7 -85 10 -27 3 -51 7 -52 7 -4 4 -13 92 -18
183 -4 56 -8 110 -9 120 -2 10 10 31 25 47 51 51 54 97 14 191 -9 22 -14 49
-10 63 5 20 12 24 43 23 67 -2 137 11 145 26 4 7 14 14 21 14 10 0 12 16 9 65
-4 53 -2 66 11 71 15 6 15 9 0 33 -10 14 -44 54 -78 89 l-60 62 -65 -5 c-132
-12 -156 -12 -186 -3 -30 9 -72 16 -132 22 -57 5 -167 -14 -218 -39 -51 -25
-73 -29 -220 -40 -112 -8 -254 -21 -267 -23 -14 -3 -8 -35 8 -47 11 -7 18 -32
21 -71 6 -72 19 -86 135 -148 77 -41 82 -46 83 -78 3 -47 21 -77 51 -84 13 -4
31 -19 40 -35 8 -16 18 -29 22 -29 4 0 8 -23 7 -52 l0 -51 -53 -28 c-66 -34
-92 -57 -92 -80 0 -24 34 -32 104 -27 l54 4 1 -80 c1 -45 3 -90 4 -100 2 -14
-11 -24 -49 -40 -153 -63 -173 -151 -44 -192 30 -10 64 -19 75 -21 11 -2 23
-7 27 -11 4 -4 8 -54 10 -112 3 -99 2 -105 -17 -107 -11 -1 -27 -4 -35 -6 -8
-2 -31 -7 -50 -11 -55 -12 -117 -46 -128 -70 -11 -26 3 -59 33 -79 25 -17 118
-44 168 -50 21 -3 40 -7 42 -8 2 -2 6 -67 9 -144 6 -132 11 -228 21 -409 14
-270 17 -376 7 -376 -19 0 -20 -28 -2 -66 15 -29 21 -71 25 -169 4 -71 8 -157
10 -190 2 -33 6 -118 10 -190 4 -71 8 -157 10 -190 2 -33 7 -121 10 -195 4
-74 8 -153 10 -175 1 -22 -3 -47 -10 -55 -25 -30 -24 -60 1 -87 27 -29 30 -43
10 -43 -7 0 -53 -43 -102 -96 l-89 -96 -1 -56 c-1 -88 1 -90 103 -86 48 2 171
6 273 8 398 11 556 17 570 21 8 3 31 35 50 72 19 38 38 69 43 71 4 2 7 10 7
18 0 18 18 18 207 -6 87 -11 178 -23 203 -26 25 -3 52 -7 60 -9 8 -2 47 -7 85
-11 39 -3 77 -8 85 -9 8 -2 25 -4 36 -4 18 -1 21 -6 17 -38 -12 -112 -57 -231
-123 -328 -17 -25 -26 -45 -21 -45 6 0 24 20 40 44 56 81 104 207 116 305 6
54 10 60 34 54 23 -6 29 10 37 91 l6 63 -46 13 c-43 12 -47 16 -57 57 -6 24
-15 46 -20 49 -23 14 -6 26 29 21 20 -4 55 -9 77 -12 168 -26 395 -117 517
-208 145 -109 258 -246 322 -389 22 -49 43 -88 47 -88 21 0 -65 172 -129 259
-113 153 -221 242 -405 330 -118 57 -244 96 -377 116 -94 15 -97 16 -114 52
-12 25 -14 39 -6 48 11 14 -1 58 -19 70 -6 3 -11 15 -11 26 0 11 4 18 9 15 13
-8 110 11 153 30 22 10 43 29 52 47 13 27 13 36 0 67 -16 39 -101 124 -134
135 -26 8 -44 50 -31 74 6 9 9 31 9 48 -1 16 3 36 7 43 9 15 16 93 18 212 1
55 6 83 11 77 16 -15 21 -11 24 17 2 24 0 25 -16 13 -16 -13 -16 -13 -2 5 17
22 20 87 5 98 -6 5 -3 8 6 8 13 0 15 16 17 91 1 52 6 97 13 105 6 8 9 14 6 14
-3 0 -2 13 3 28 4 17 4 36 -2 46 -6 11 -6 22 2 31 6 7 13 26 16 42 5 27 4 27
-9 8 -14 -19 -15 -18 -10 8 3 16 1 27 -6 27 -5 0 -8 7 -4 16 5 13 8 13 15 2 6
-8 7 -1 3 22 -4 19 -7 40 -7 45 1 26 12 145 17 185 8 68 13 109 20 170 9 75
14 92 28 83 23 -14 68 -13 73 2 4 8 10 12 15 9 19 -12 38 26 44 87 3 35 8 75
10 89 2 14 6 50 10 80 4 30 8 66 10 80 2 14 7 54 10 90 4 36 9 73 11 83 1 9 6
54 10 98 7 86 -1 105 -38 93 -10 -3 -18 0 -18 6 0 7 -7 10 -15 6 -26 -9 -45 5
-45 34 0 24 8 31 58 53 65 29 95 54 117 98 42 80 18 163 -73 258 -34 36 -60
72 -57 79 3 8 5 23 5 35 0 17 17 30 78 60 109 53 161 104 168 164 3 29 -16 72
-40 92 -27 23 -18 36 46 72 74 41 99 72 105 132 10 85 -49 168 -143 201 -24 8
-38 19 -35 27 2 8 4 19 5 25 1 7 8 20 16 29 17 20 5 30 -49 40 -20 3 -88 17
-152 31 -63 13 -124 26 -135 28 -10 2 -55 12 -99 21 -44 9 -91 19 -105 21 -14
3 -43 9 -65 14 -22 5 -42 10 -45 10 -3 0 -23 -22 -43 -50z m-1033 -309 c11 -1
17 -4 14 -7 -8 -7 -46 -12 -143 -19 -44 -3 -97 -7 -118 -9 -21 -1 -41 2 -44 8
-3 6 -3 8 2 4 4 -4 14 -3 21 2 26 22 116 29 268 21z m946 -310 l-12 -81 -30
18 c-34 19 -88 80 -88 99 0 7 11 11 28 8 17 -2 45 6 68 19 21 13 40 22 42 20
2 -1 -2 -38 -8 -83z m789 -10 c52 -73 -5 -158 -150 -223 -54 -24 -59 -23 -54
10 5 27 13 94 14 121 1 7 7 11 14 8 24 -9 91 37 112 76 24 45 37 46 64 8z
m-2191 -106 c17 -11 32 -24 32 -29 0 -14 -31 -46 -45 -46 -23 0 -55 41 -55 70
0 35 16 36 68 5z m671 -31 c11 -31 21 -67 21 -81 0 -28 -28 -80 -47 -87 -19
-8 -18 88 2 104 21 18 19 50 -6 71 -12 11 -19 25 -15 34 10 27 23 16 45 -41z
m714 37 c5 0 6 -5 3 -9 -4 -7 -19 -111 -19 -140 0 -17 -35 -9 -104 24 -108 52
-68 136 62 129 27 -1 54 -3 58 -4z m-1340 -319 c2 -23 1 -44 -3 -47 -18 -11
-110 -13 -125 -2 -15 12 -15 14 2 29 17 16 116 69 120 65 1 -1 3 -21 6 -45z
m1981 4 c79 -80 102 -158 71 -233 -20 -46 -71 -85 -143 -108 -20 -6 -23 -4
-19 12 3 10 8 47 11 83 4 36 9 94 12 130 3 36 7 76 9 90 2 14 3 35 4 48 1 12
4 22 7 22 3 0 25 -20 48 -44z m-1184 -281 c63 -9 101 -15 130 -20 14 -2 45 -7
70 -11 24 -3 47 -7 50 -9 3 -2 32 -6 65 -10 33 -4 69 -9 80 -10 11 -2 28 -4
39 -4 16 -1 18 -7 12 -61 -10 -96 -17 -144 -22 -158 -10 -32 -16 -142 -7 -142
5 0 8 -13 5 -28 -4 -28 -3 -28 41 -25 26 2 49 -1 52 -7 10 -16 -4 -62 -15 -55
-6 3 -10 2 -10 -4 0 -5 -20 -8 -46 -6 -32 3 -47 0 -51 -11 -3 -7 -9 -11 -14
-8 -5 3 -9 -3 -10 -13 0 -10 -2 -25 -4 -33 -2 -13 -14 -89 -31 -200 -6 -38
-27 -70 -24 -35 1 11 2 29 1 40 -2 19 -2 19 -12 2 -6 -9 -8 -25 -5 -35 3 -9
-1 -40 -8 -69 -8 -28 -11 -55 -7 -58 3 -4 -1 -5 -9 -3 -9 2 -15 -4 -15 -17 0
-15 6 -19 25 -18 24 3 24 2 4 -6 -19 -8 -21 -14 -14 -50 6 -33 5 -39 -5 -31
-22 19 -25 -25 -11 -160 3 -25 -4 -100 -14 -167 -11 -68 -20 -126 -20 -130 0
-4 -5 -2 -11 4 -8 8 -8 17 1 32 12 23 6 41 -13 41 -7 0 -6 -4 3 -11 11 -8 12
-12 2 -16 -6 -2 -10 -9 -6 -14 3 -5 0 -9 -7 -9 -7 0 -10 -13 -7 -35 2 -19 1
-35 -3 -35 -7 0 -28 -95 -35 -159 -2 -18 -5 -36 -8 -38 -2 -2 0 -20 4 -39 6
-25 4 -38 -6 -49 -15 -14 -19 -66 -7 -79 15 -14 13 -57 -3 -81 -17 -27 -34
-27 -101 0 -30 13 -31 15 -23 49 5 23 4 34 -2 30 -7 -4 -8 8 -3 35 4 24 3 41
-3 41 -5 0 -8 30 -7 70 1 38 -1 67 -6 64 -10 -6 -13 47 -10 182 1 77 -1 93
-16 105 -15 11 -16 11 -5 -1 14 -17 16 -34 2 -25 -14 9 -12 -9 3 -24 10 -10 9
-11 -5 -6 -15 6 -18 20 -19 74 0 36 -2 75 -4 86 -2 11 -7 58 -10 105 -3 47 -8
112 -11 144 -3 33 -7 87 -9 120 -2 34 -7 97 -10 141 -4 44 -9 100 -10 125 -2
25 -6 88 -11 140 -13 176 -17 162 46 178 30 7 63 21 73 29 42 39 3 87 -85 105
-47 10 -58 16 -59 33 -2 25 -5 78 -13 181 l-5 80 67 -7 c37 -4 87 -10 112 -14z
m-781 -72 c3 -76 3 -115 2 -129 -1 -15 -71 0 -128 27 -48 23 -56 51 -25 87 19
23 132 83 143 77 3 -3 7 -31 8 -62z m731 -233 c32 -13 44 -44 25 -60 -14 -11
-116 -42 -122 -36 -5 5 -11 115 -6 119 5 6 66 -8 103 -23z m-709 -222 c0 -35
2 -78 5 -96 l4 -32 -54 5 c-118 10 -211 68 -176 110 27 32 127 68 208 74 8 1
12 -18 13 -61z m847 -1550 c38 -9 42 -12 42 -40 0 -16 -3 -28 -8 -26 -48 21
-112 64 -112 76 0 10 6 12 18 7 9 -4 36 -12 60 -17z m-17 -55 l50 -28 -6 -50
c-3 -27 -10 -77 -15 -110 -6 -33 -13 -76 -16 -95 -11 -74 -24 -143 -28 -147
-2 -2 -10 -1 -18 2 -13 5 -16 25 -16 96 -1 49 -4 94 -8 101 -4 7 -3 8 4 4 9
-5 11 16 9 78 -1 47 -5 86 -9 86 -4 0 -7 20 -6 45 0 25 3 45 5 45 3 0 27 -12
54 -27z m811 -276 c7 -7 25 -20 41 -30 15 -10 41 -36 57 -59 59 -80 12 -139
-123 -154 -52 -6 -53 -5 -55 22 -1 15 4 34 11 43 7 9 13 30 12 46 -1 17 5 49
11 73 9 29 10 42 2 42 -7 0 -6 5 2 15 15 18 25 19 42 2z m-825 -183 c2 -5 -3
-19 -11 -29 -14 -19 -15 -19 -21 -2 -4 9 -4 24 -1 33 6 16 27 15 33 -2z m-17
-145 c0 -5 -4 -9 -8 -9 -5 0 -9 7 -9 15 0 8 4 12 9 9 4 -3 8 -9 8 -15z m790
-115 c0 -8 -11 -9 -36 -4 -48 11 -51 16 -23 39 24 20 24 20 41 -2 10 -12 18
-27 18 -33z m-4 -24 c12 0 29 -27 40 -65 2 -5 6 -20 10 -32 7 -26 0 -28 -45
-12 -20 7 -31 18 -31 30 0 11 -11 31 -25 45 -34 34 -32 48 6 40 17 -3 38 -6
45 -6z"/>
</g>
</svg>
