<?xml version="1.0" standalone="no"?>
<!DOCTYPE svg PUBLIC "-//W3C//DTD SVG 20010904//EN"
 "http://www.w3.org/TR/2001/REC-SVG-20010904/DTD/svg10.dtd">
<svg version="1.0" xmlns="http://www.w3.org/2000/svg"
 width="1482.000000pt" height="1482.000000pt" viewBox="0 0 1482.000000 1482.000000"
 preserveAspectRatio="xMidYMid meet">
<metadata>
Created by potrace 1.14, written by Peter Selinger 2001-2017
</metadata>
<g transform="translate(0.000000,1482.000000) scale(0.100000,-0.100000)"
fill="#000000" stroke="none">
<path d="M8476 12932 c-2 -1 -38 -4 -82 -7 -43 -2 -79 -5 -79 -5 0 -1 -31 -3
-70 -5 -38 -2 -85 -7 -103 -10 -27 -5 -32 -3 -26 7 6 10 5 10 -9 0 -9 -8 -21
-11 -27 -7 -5 3 -10 1 -10 -6 0 -8 -4 -8 -15 1 -8 7 -15 8 -15 3 0 -5 -27 -9
-61 -8 -33 0 -62 -3 -64 -6 -2 -3 -29 -5 -59 -4 -30 0 -53 -2 -51 -5 2 -3 -22
-6 -53 -7 -117 -3 -160 -8 -155 -17 3 -5 1 -6 -5 -2 -18 11 -52 16 -52 7 0 -4
-15 -7 -32 -6 -18 1 -36 -3 -40 -9 -6 -8 -8 -7 -8 1 0 7 -6 10 -12 8 -17 -6
-117 -15 -195 -18 -35 -1 -63 -5 -63 -9 0 -4 -6 -5 -14 -2 -8 3 -17 0 -21 -5
-3 -6 -12 -8 -18 -4 -14 9 -57 12 -57 3 0 -3 -24 -6 -53 -7 -28 -1 -81 -4
-117 -7 -36 -3 -90 -8 -120 -10 -129 -11 -173 -16 -178 -21 -3 -3 -11 0 -19 6
-7 7 -13 7 -13 2 0 -5 -13 -9 -30 -8 -16 1 -30 -2 -30 -7 0 -5 -9 -4 -20 2
-11 6 -20 7 -20 2 0 -7 -34 -11 -132 -15 -27 -1 -48 -6 -48 -12 0 -5 -5 -3
-10 5 -5 8 -10 10 -10 5 0 -6 -21 -10 -46 -10 -25 1 -47 -2 -50 -7 -3 -4 -14
-4 -24 2 -12 6 -21 7 -25 0 -3 -5 -21 -8 -40 -6 -20 1 -35 -2 -35 -8 0 -6 -5
-4 -10 4 -6 10 -10 11 -10 3 0 -7 -7 -13 -16 -13 -9 0 -12 5 -8 13 5 8 2 8 -9
-2 -9 -7 -17 -10 -17 -6 0 4 -7 2 -16 -6 -13 -10 -17 -10 -24 0 -5 9 -10 9
-14 3 -3 -6 -20 -9 -36 -7 -17 2 -30 1 -30 -3 0 -4 -22 -7 -49 -6 l-50 1 2
-49 c0 -26 5 -48 11 -48 5 0 7 -3 3 -6 -3 -3 9 -20 27 -37 18 -18 33 -39 34
-47 1 -8 3 -46 6 -85 16 -218 15 -216 67 -251 16 -10 29 -22 29 -26 0 -9 82
-88 91 -88 4 0 10 -8 13 -18 4 -11 17 -25 31 -32 13 -7 22 -17 19 -22 -3 -4 2
-8 10 -8 8 0 18 -9 21 -20 4 -11 9 -18 13 -16 4 2 13 -2 20 -10 7 -8 9 -14 5
-14 -4 0 7 -11 25 -23 17 -13 29 -27 25 -30 -3 -4 1 -7 10 -7 10 0 17 -7 17
-16 0 -8 4 -13 8 -10 5 3 15 -4 22 -15 8 -10 20 -19 26 -19 6 0 18 -9 25 -20
15 -22 109 -35 109 -16 0 6 5 4 10 -4 6 -9 10 -11 10 -3 0 7 7 10 16 6 9 -3
20 0 25 8 5 9 9 9 9 2 0 -6 8 -10 17 -9 10 2 26 -5 37 -15 10 -10 23 -16 28
-13 4 3 8 0 8 -5 0 -6 6 -11 13 -11 20 0 14 -53 -8 -75 -45 -43 -70 -123 -48
-158 4 -7 8 -18 9 -25 3 -16 51 -62 65 -62 6 0 10 -12 9 -27 -1 -16 -1 -30 0
-33 4 -7 8 -66 14 -220 14 -323 17 -383 22 -392 3 -4 -1 -8 -8 -8 -8 0 -9 -3
-3 -8 6 -4 10 -33 10 -64 0 -32 3 -58 7 -58 4 0 3 -11 -2 -24 -5 -13 -6 -26
-3 -29 4 -5 9 -79 18 -327 2 -58 4 -105 5 -105 0 0 3 -54 5 -120 12 -298 14
-335 20 -345 3 -5 1 -10 -5 -10 -6 0 -8 -5 -4 -11 6 -11 9 -58 17 -280 2 -47
7 -91 11 -97 4 -7 2 -12 -4 -12 -6 0 -9 -4 -5 -10 5 -8 17 -236 18 -357 0 -24
5 -43 9 -43 5 0 5 -8 0 -17 -5 -10 -8 -27 -5 -38 2 -11 6 -63 8 -115 2 -52 6
-149 10 -215 5 -112 13 -290 19 -463 2 -40 5 -75 8 -78 3 -3 2 -20 -2 -39 -4
-19 -5 -37 -2 -40 4 -3 7 -32 8 -63 1 -31 4 -120 8 -197 12 -246 16 -337 20
-452 2 -62 7 -117 11 -122 3 -6 1 -11 -5 -11 -6 0 -8 -5 -4 -12 4 -7 9 -44 10
-83 2 -38 5 -124 9 -190 3 -66 8 -169 10 -230 3 -60 6 -129 8 -152 1 -22 -1
-39 -5 -37 -3 2 -13 1 -21 -2 -20 -7 -16 -83 6 -137 9 -20 13 -37 10 -37 -3 0
1 -7 8 -16 14 -17 15 -27 21 -271 1 -79 6 -143 9 -143 8 0 5 -42 -4 -56 -3 -6
-3 -14 1 -18 4 -4 8 -31 9 -59 9 -218 11 -256 18 -267 6 -9 4 -11 -5 -5 -9 6
-11 4 -6 -4 7 -11 17 -173 19 -318 1 -28 5 -49 10 -46 5 3 4 -4 -2 -16 -7 -12
-9 -25 -6 -30 5 -9 13 -156 19 -357 2 -44 6 -86 10 -92 4 -7 2 -12 -4 -12 -7
0 -7 -7 1 -22 13 -24 13 -26 -2 -45 -6 -6 -6 -14 -1 -16 4 -3 9 -34 10 -69 1
-35 5 -108 7 -163 15 -315 18 -393 18 -417 -1 -17 4 -25 10 -21 6 4 7 1 1 -8
-11 -18 -12 -56 -3 -90 4 -16 2 -32 -4 -38 -6 -6 -7 -11 -2 -11 6 0 11 -42 13
-93 1 -50 4 -116 6 -146 3 -42 0 -57 -15 -72 -11 -11 -17 -19 -14 -19 2 0 -7
-12 -21 -27 -15 -16 -23 -35 -21 -45 3 -10 2 -18 -3 -18 -6 0 -7 -41 0 -47 1
-2 3 -7 4 -13 2 -16 49 -69 57 -65 14 9 32 -27 34 -68 2 -48 -9 -77 -30 -77
-8 0 -15 -5 -15 -12 0 -6 -3 -8 -6 -5 -4 3 -16 2 -27 -4 -12 -7 -17 -7 -13 -1
3 6 -5 9 -19 8 -15 0 -28 -10 -35 -24 -6 -14 -15 -20 -23 -16 -6 4 -9 4 -5 -1
4 -4 -12 -32 -37 -61 -25 -29 -45 -57 -45 -64 0 -6 -4 -9 -9 -5 -5 3 -12 -4
-16 -15 -4 -11 -11 -18 -16 -15 -5 4 -9 -3 -9 -15 0 -12 -9 -24 -22 -30 -13
-5 -19 -9 -14 -9 6 -1 1 -9 -10 -19 -10 -10 -28 -31 -39 -47 -11 -15 -32 -41
-47 -56 -26 -28 -27 -33 -23 -112 2 -45 4 -82 5 -82 0 0 3 -37 5 -83 2 -46 6
-86 9 -90 11 -10 100 -11 113 0 8 6 19 5 33 -2 16 -9 25 -8 36 1 11 9 14 9 14
-2 0 -12 2 -12 9 0 7 11 9 11 13 0 4 -12 7 -12 21 0 10 7 17 9 17 4 0 -5 7
-10 15 -10 8 0 12 4 9 9 -3 4 0 8 5 8 6 0 11 -5 11 -12 0 -9 3 -9 12 0 7 7 17
8 29 2 11 -6 20 -6 23 -1 7 10 25 9 43 -2 6 -4 14 -3 17 1 3 5 51 10 108 11
195 5 217 6 224 13 3 4 15 3 25 -2 12 -7 20 -7 24 0 4 6 12 7 18 3 15 -9 49
-9 64 0 6 4 15 2 19 -4 5 -8 9 -7 14 2 7 10 12 10 23 0 11 -8 17 -9 22 -1 5 8
10 8 20 0 8 -7 16 -7 19 -2 3 6 35 9 71 8 36 0 65 1 65 4 0 3 41 5 91 5 50 -1
92 2 95 6 2 4 20 3 39 -1 22 -5 35 -4 35 2 0 6 8 4 17 -3 11 -10 14 -10 9 -1
-4 6 -3 12 3 12 5 0 13 -5 16 -10 4 -6 12 -7 18 -3 6 4 34 8 62 9 27 1 75 3
106 4 30 2 61 0 67 -4 7 -4 12 -3 12 3 0 5 11 8 25 5 16 -3 25 0 25 8 0 9 3
10 8 2 8 -13 50 -13 70 -1 7 5 12 3 12 -4 0 -8 4 -8 15 1 12 10 15 10 15 0 0
-10 3 -10 15 0 12 10 15 10 15 -1 0 -9 3 -10 8 -4 8 13 22 13 41 1 9 -6 12 -5
8 1 -4 7 21 10 73 9 44 0 80 1 80 4 0 7 55 4 68 -4 6 -3 13 -2 17 4 4 6 10 8
15 5 5 -3 18 -2 28 4 11 6 24 6 34 0 11 -6 19 -5 24 2 4 8 9 7 15 -2 5 -8 9
-9 9 -4 0 6 18 10 40 9 39 -1 41 1 52 40 6 23 13 48 14 56 2 8 7 16 13 18 5 2
7 10 4 18 -3 8 0 21 7 29 7 8 9 15 6 15 -4 0 -1 10 6 23 6 12 13 29 13 37 1 8
12 44 24 80 12 36 25 76 29 90 8 35 1 326 -9 332 -41 26 -52 29 -46 14 4 -11
1 -13 -11 -9 -9 3 -23 11 -30 16 -9 7 -11 6 -7 -4 7 -20 -66 -19 -83 1 -10 13
-11 12 -5 -5 3 -11 3 -17 -2 -13 -4 4 -15 2 -23 -5 -13 -10 -15 -9 -8 8 5 15
4 17 -5 8 -6 -6 -18 -9 -27 -6 -11 5 -13 3 -7 -8 7 -11 5 -11 -10 1 -21 17
-24 17 -36 -2 -7 -10 -9 -9 -9 3 0 10 -11 20 -25 23 -16 4 -23 11 -19 18 5 8
2 9 -9 5 -39 -15 -59 103 -23 136 10 9 23 17 28 17 5 0 7 4 4 9 -3 5 1 12 10
15 9 3 14 13 10 21 -3 8 -1 17 4 20 12 7 3 69 -11 73 -5 2 -6 8 -3 14 3 5 -13
27 -36 48 -23 21 -39 43 -36 48 3 6 3 13 -2 15 -13 9 -19 191 -8 269 4 27 0
42 -11 54 -15 15 -15 17 0 25 10 6 16 22 15 49 0 22 -4 40 -8 40 -3 0 -7 7 -7
15 0 8 3 15 6 15 11 0 7 235 -4 242 -6 5 -6 8 2 8 12 0 12 17 0 38 -5 6 -5 12
0 12 4 0 8 18 8 40 1 22 -3 40 -7 40 -4 0 -8 -9 -8 -19 0 -11 -4 -22 -9 -25
-7 -5 -7 15 2 54 1 8 8 25 15 37 11 19 10 21 -11 16 -15 -3 -18 -2 -9 5 20 14
21 45 3 60 -11 9 -12 12 -2 10 7 -2 16 3 19 11 2 8 0 11 -6 7 -6 -3 -4 7 4 24
15 30 25 160 12 160 -3 0 -6 17 -6 38 2 68 -1 82 -19 83 -11 0 -13 3 -5 6 6 2
10 9 6 14 -9 16 -13 49 -5 49 4 0 13 -10 18 -22 8 -19 10 -12 9 34 0 31 -4 60
-8 64 -5 4 -8 1 -9 -7 0 -8 -4 -4 -9 7 -5 12 -7 33 -6 48 2 14 -1 26 -7 26 -6
0 -7 19 -2 53 10 72 14 180 7 192 -6 10 -7 17 -10 72 -1 22 -6 31 -15 27 -14
-5 -15 44 -2 67 6 8 4 10 -6 4 -12 -7 -12 -6 -1 7 10 13 10 17 0 21 -7 3 -4 6
7 6 17 1 17 3 5 11 -12 8 -12 10 5 10 11 0 15 4 10 8 -6 4 -10 17 -9 29 1 12
-3 27 -7 35 -6 8 -9 -1 -9 -26 0 -44 -6 -45 -14 -3 -2 14 -7 31 -11 37 -3 5
-1 10 5 10 6 0 10 6 9 13 -3 25 1 38 11 32 9 -6 16 27 10 50 -2 6 -3 22 -3 36
0 18 -5 25 -13 22 -10 -3 -12 8 -10 45 2 27 6 54 10 60 3 6 2 13 -4 17 -5 3
-10 -2 -11 -12 -1 -33 -9 -67 -18 -76 -5 -5 -8 7 -5 27 1 20 0 35 -4 32 -12
-7 -7 63 6 76 9 9 10 5 3 -18 -11 -40 -2 -62 13 -32 22 42 26 58 14 55 -14 -2
-20 65 -7 74 8 5 9 16 8 77 0 24 -29 32 -29 7 0 -8 -5 -15 -11 -15 -5 0 -7 5
-4 10 3 6 3 15 -1 22 -5 7 -11 5 -21 -7 -12 -18 -13 -18 -13 3 0 16 6 22 21
22 11 0 17 5 14 10 -4 6 -11 8 -16 5 -5 -4 -9 -2 -9 4 0 5 5 11 10 13 6 2 12
13 15 26 2 12 6 26 10 31 3 5 1 12 -5 16 -5 3 -10 16 -10 28 -1 22 -1 22 -15
3 -8 -11 -15 -15 -15 -9 0 6 7 16 15 23 15 12 15 63 1 77 -2 3 -1 15 3 27 5
11 5 30 1 41 -4 11 -3 28 2 38 5 9 5 17 1 17 -4 0 -7 14 -7 30 2 48 3 52 14
45 6 -4 8 10 6 37 -3 24 -6 43 -7 43 -1 0 -2 23 -4 50 -3 64 -3 65 -14 65 -12
0 -24 -32 -14 -39 21 -16 0 -86 -21 -73 -5 3 -7 -5 -3 -17 4 -18 3 -20 -9 -10
-13 10 -12 14 2 30 16 18 27 102 12 93 -7 -5 -12 11 -9 29 1 5 -2 6 -7 3 -5
-3 -15 6 -23 20 -10 20 -11 29 -1 45 7 11 10 24 7 29 -3 4 1 11 7 14 11 5 11
7 0 12 -6 3 -10 10 -6 15 3 5 1 9 -4 9 -5 0 -12 9 -15 19 -3 14 -1 18 9 14 17
-6 20 42 4 52 -6 4 -8 10 -5 15 3 5 -1 28 -9 52 -7 24 -14 50 -14 58 -1 8 -3
38 -7 65 -7 64 -13 140 -20 240 -7 108 -15 217 -20 290 -2 33 -7 94 -9 136 -3
42 -8 108 -11 145 -8 92 -16 214 -20 299 -2 39 -4 70 -5 70 -1 0 -4 25 -5 55
-2 30 -6 89 -9 130 -7 91 -16 225 -20 301 -2 31 -7 62 -11 69 -6 9 -4 11 5 5
9 -6 11 -4 5 6 -9 14 -15 89 -18 216 -1 40 -4 73 -7 73 -3 0 -6 19 -6 43 -2
39 -7 118 -19 287 -3 36 -7 99 -10 140 -2 41 -7 104 -10 140 -3 36 -7 96 -9
133 -2 38 -7 71 -10 74 -3 4 -1 12 5 20 6 7 7 13 2 13 -5 0 -9 10 -10 23 0 27
-13 230 -19 312 -3 33 -6 87 -8 120 -2 33 -5 60 -5 60 -1 0 -4 29 -6 65 -10
156 -15 230 -20 300 -4 41 -8 102 -10 135 -2 33 -4 60 -5 60 -1 0 -3 32 -6 70
-4 75 -8 138 -19 280 -15 187 -15 187 17 218 16 15 26 27 21 27 -4 0 -2 4 5 8
7 5 13 26 15 48 1 21 7 42 12 46 6 5 5 8 -2 8 -7 0 -13 8 -13 19 0 10 -7 24
-15 31 -8 7 -12 16 -9 21 3 5 -2 9 -10 9 -9 0 -16 4 -16 9 0 5 -8 11 -18 13
-13 4 -17 14 -16 34 2 42 3 44 14 44 6 0 23 11 38 25 15 14 34 32 43 40 9 8
23 15 32 15 10 0 17 6 17 13 0 8 4 7 10 -3 9 -13 11 -13 20 0 5 8 10 10 10 4
0 -6 10 -10 23 -8 12 1 22 3 22 4 0 1 29 3 65 5 36 2 71 3 78 4 8 1 10 6 6 14
-4 6 1 4 12 -5 12 -11 24 -14 33 -8 8 4 21 6 29 2 11 -4 13 -1 7 7 -6 10 -3
11 14 2 13 -7 21 -8 21 -2 0 6 6 8 13 5 10 -3 13 4 12 26 -1 16 1 30 4 31 3 1
20 2 36 3 17 0 32 4 36 8 3 4 3 31 -1 60 -3 29 -5 86 -5 125 0 40 -2 73 -5 73
-3 0 -5 14 -5 30 0 17 4 30 8 30 5 0 5 5 2 11 -4 6 -1 10 6 8 37 -5 48 1 43
24 -2 12 -5 34 -6 50 -1 15 -6 27 -10 27 -4 0 -7 3 -6 8 1 4 -4 23 -11 42 -8
19 -13 38 -12 43 0 4 -3 7 -9 7 -5 0 -7 7 -4 15 4 8 1 15 -5 15 -6 0 -11 9
-11 20 0 11 -4 28 -9 38 -5 9 -13 28 -19 42 -5 14 -17 41 -26 61 -9 20 -17 47
-18 60 -2 13 -8 29 -14 34 -10 9 -25 52 -28 80 -1 6 -9 9 -19 9 -9 -1 -15 2
-12 6 4 7 -42 9 -49 2z m-1 -6151 c3 -5 2 -12 -3 -15 -5 -3 -9 1 -9 9 0 17 3
19 12 6z m29 -247 c8 -22 8 -24 -6 -24 -6 0 -8 3 -5 7 4 3 2 12 -4 20 -7 8 -8
13 -1 13 5 0 13 -7 16 -16z m-8 -80 c-19 -19 -21 -2 -4 29 11 19 13 20 16 5 2
-10 -4 -25 -12 -34z m10 -159 c-4 -24 -16 -30 -16 -7 0 12 4 22 9 22 5 0 8 -7
7 -15z m15 -48 c-10 -9 -11 -8 -5 6 3 10 9 15 12 12 3 -3 0 -11 -7 -18z m9
-187 c0 -5 -8 -10 -17 -10 -15 0 -16 2 -3 10 19 12 20 12 20 0z m34 -211 c-3
-5 -10 -7 -15 -3 -5 3 -7 10 -3 15 3 5 10 7 15 3 5 -3 7 -10 3 -15z m28 -38
c2 -16 1 -37 -4 -47 -7 -18 -8 -18 -7 1 1 11 0 22 -1 25 -1 3 -3 15 -4 28 -4
33 11 27 16 -7z m15 -103 c-3 -8 -6 -5 -6 6 -1 11 2 17 5 13 3 -3 4 -12 1 -19z
m-21 -166 c-15 -15 -15 -15 -4 10 7 15 15 23 17 17 2 -6 -4 -18 -13 -27z m-21
-31 c3 -5 2 -12 -3 -15 -5 -3 -9 1 -9 9 0 17 3 19 12 6z m38 -26 c-4 -11 -1
-13 12 -9 15 6 15 5 4 -15 -8 -11 -17 -21 -20 -21 -11 0 -19 45 -9 48 6 2 7 9
4 14 -4 7 -2 8 4 4 6 -4 9 -13 5 -21z m-33 -31 c0 -8 -4 -14 -10 -14 -5 0 -10
9 -10 21 0 11 5 17 10 14 6 -3 10 -13 10 -21z m0 -34 c0 -5 -5 -10 -11 -10 -5
0 -7 5 -4 10 3 6 8 10 11 10 2 0 4 -4 4 -10z m87 -411 c2 -16 1 -18 -11 -7 -8
7 -10 15 -5 16 5 2 6 9 2 15 -3 7 -2 9 2 4 5 -4 10 -17 12 -28z m23 -628 c0
-17 -18 -21 -24 -6 -3 9 0 15 9 15 8 0 15 -4 15 -9z m-36 -56 c-4 -8 -11 -12
-16 -9 -6 4 -5 10 3 15 19 12 19 11 13 -6z"/>
<path d="M8533 6618 c1 -18 -2 -41 -6 -50 -4 -12 -2 -15 7 -12 8 3 13 20 12
44 -2 48 -14 64 -13 18z"/>
<path d="M8490 6601 c0 -6 4 -12 8 -15 5 -3 9 1 9 9 0 8 -4 15 -9 15 -4 0 -8
-4 -8 -9z"/>
<path d="M6795 6220 c-3 -5 -2 -10 3 -10 5 0 9 -7 10 -15 1 -8 3 -21 4 -28 1
-8 7 -14 15 -14 9 0 10 4 2 13 -5 6 -9 16 -8 20 6 36 -11 58 -26 34z"/>
</g>
</svg>
