<?xml version="1.0" encoding="UTF-8" standalone="no"?><!DOCTYPE svg PUBLIC "-//W3C//DTD SVG 1.1//EN" "http://www.w3.org/Graphics/SVG/1.1/DTD/svg11.dtd"><svg width="100%" height="100%" viewBox="0 0 834 360" version="1.1" xmlns="http://www.w3.org/2000/svg" xmlns:xlink="http://www.w3.org/1999/xlink" xml:space="preserve" xmlns:serif="http://www.serif.com/" style="fill-rule:evenodd;clip-rule:evenodd;stroke-miterlimit:10;"><path d="M813.786,186.14c0.169,-5.822 -0.986,-10.408 -3.486,-13.727c-2.504,-3.319 -6.356,-4.979 -11.585,-4.979c-2.642,0 -4.921,0.48 -6.861,1.462c-1.968,0.986 -3.572,2.337 -4.865,3.994c-1.293,1.691 -2.279,3.658 -2.981,5.937c-0.675,2.279 -1.068,4.727 -1.18,7.313l30.958,0Zm20.105,5.934c-0,2.504 -0.563,4.388 -1.687,5.598c-1.124,1.208 -2.673,1.799 -4.641,1.799l-44.735,0c-0,3.15 0.367,5.992 1.097,8.523c0.757,2.559 1.94,4.724 3.544,6.525c1.629,1.771 3.711,3.151 6.267,4.078c2.562,0.929 5.626,1.407 9.195,1.407c3.63,-0 6.805,-0.281 9.534,-0.789c2.756,-0.532 5.145,-1.096 7.141,-1.742c1.995,-0.619 3.655,-1.211 4.976,-1.716c1.321,-0.535 2.39,-0.788 3.206,-0.788c0.508,-0 0.927,0.083 1.238,0.28c0.335,0.197 0.619,0.536 0.843,1.041c0.197,0.48 0.367,1.183 0.45,2.109c0.083,0.903 0.111,2.027 0.111,3.406c-0,1.207 -0.028,2.248 -0.083,3.092c-0.056,0.844 -0.142,1.576 -0.253,2.195c-0.086,0.589 -0.252,1.097 -0.48,1.518c-0.225,0.422 -0.505,0.816 -0.869,1.183c-0.366,0.391 -1.324,0.927 -2.925,1.573c-1.604,0.647 -3.627,1.294 -6.101,1.943c-2.475,0.616 -5.287,1.18 -8.465,1.629c-3.205,0.478 -6.605,0.703 -10.232,0.703c-6.526,-0 -12.26,-0.814 -17.181,-2.473c-4.892,-1.632 -8.997,-4.136 -12.317,-7.483c-3.289,-3.347 -5.734,-7.594 -7.366,-12.684c-1.601,-5.12 -2.417,-11.11 -2.417,-17.974c-0,-6.525 0.843,-12.431 2.559,-17.663c1.687,-5.259 4.16,-9.705 7.393,-13.361c3.262,-3.655 7.2,-6.441 11.838,-8.354c4.64,-1.94 9.869,-2.895 15.689,-2.895c6.159,-0 11.416,0.9 15.773,2.729c4.36,1.798 7.957,4.329 10.744,7.538c2.811,3.206 4.862,7.002 6.183,11.418c1.324,4.388 1.971,9.17 1.971,14.316l-0,3.319Zm-81.928,18.113c-0,4.191 -0.788,7.849 -2.362,11.055c-1.546,3.177 -3.766,5.85 -6.608,7.987c-2.867,2.137 -6.242,3.742 -10.15,4.81c-3.88,1.069 -8.127,1.602 -12.681,1.602c-2.756,-0 -5.371,-0.197 -7.874,-0.616c-2.501,-0.395 -4.724,-0.93 -6.692,-1.549c-1.995,-0.647 -3.627,-1.294 -4.948,-1.94c-1.321,-0.675 -2.279,-1.294 -2.895,-1.857c-0.591,-0.591 -1.069,-1.49 -1.407,-2.728c-0.308,-1.238 -0.478,-3.067 -0.478,-5.485c-0,-1.576 0.056,-2.869 0.17,-3.824c0.111,-0.958 0.28,-1.718 0.477,-2.307c0.225,-0.563 0.508,-0.957 0.844,-1.154c0.308,-0.197 0.73,-0.28 1.238,-0.28c0.591,0 1.49,0.338 2.67,1.04c1.182,0.675 2.642,1.435 4.415,2.248c1.743,0.819 3.794,1.605 6.128,2.31c2.335,0.73 4.977,1.068 7.93,1.068c1.884,0 3.541,-0.197 5.004,-0.563c1.435,-0.394 2.701,-0.927 3.769,-1.66c1.096,-0.702 1.885,-1.601 2.445,-2.728c0.536,-1.097 0.816,-2.362 0.816,-3.769c-0,-1.66 -0.505,-3.067 -1.518,-4.247c-1.013,-1.182 -2.362,-2.223 -4.049,-3.094c-1.657,-0.872 -3.542,-1.716 -5.679,-2.476c-2.109,-0.758 -4.274,-1.629 -6.497,-2.559c-2.221,-0.927 -4.385,-1.996 -6.522,-3.206c-2.11,-1.21 -3.992,-2.7 -5.682,-4.443c-1.657,-1.774 -3.005,-3.883 -4.019,-6.359c-1.01,-2.473 -1.518,-5.426 -1.518,-8.887c-0,-3.516 0.675,-6.75 2.051,-9.675c1.38,-2.953 3.347,-5.457 5.934,-7.566c2.559,-2.082 5.709,-3.686 9.42,-4.838c3.711,-1.154 7.874,-1.743 12.484,-1.743c2.306,-0 4.555,0.17 6.722,0.506c2.162,0.308 4.13,0.732 5.876,1.237c1.77,0.478 3.233,1.013 4.44,1.605c1.21,0.56 2.082,1.068 2.618,1.46c0.505,0.424 0.868,0.846 1.096,1.237c0.225,0.425 0.394,0.93 0.505,1.494c0.111,0.588 0.197,1.293 0.28,2.137c0.086,0.871 0.142,1.912 0.142,3.178c-0,1.49 -0.056,2.7 -0.142,3.627c-0.083,0.927 -0.225,1.688 -0.419,2.223c-0.169,0.564 -0.452,0.927 -0.763,1.124c-0.336,0.197 -0.73,0.281 -1.149,0.281c-0.508,-0 -1.268,-0.281 -2.309,-0.872c-1.066,-0.563 -2.359,-1.179 -3.936,-1.857c-1.546,-0.646 -3.372,-1.265 -5.426,-1.854c-2.054,-0.563 -4.413,-0.846 -7.03,-0.846c-1.882,0 -3.486,0.169 -4.865,0.563c-1.377,0.394 -2.501,0.93 -3.372,1.66c-0.9,0.702 -1.546,1.546 -1.996,2.503c-0.422,0.958 -0.647,1.996 -0.647,3.095c-0,1.688 0.505,3.122 1.574,4.274c1.041,1.155 2.39,2.165 4.108,3.067c1.712,0.872 3.624,1.688 5.82,2.476c2.162,0.758 4.354,1.601 6.577,2.503c2.224,0.9 4.416,1.968 6.578,3.175c2.165,1.211 4.108,2.673 5.821,4.447c1.687,1.743 3.066,3.852 4.107,6.3c1.041,2.448 1.574,5.343 1.574,8.69Zm-71.046,20.758c0,0.563 -0.139,1.04 -0.422,1.462c-0.283,0.394 -0.757,0.761 -1.432,1.013c-0.705,0.281 -1.604,0.478 -2.728,0.619c-1.124,0.139 -2.531,0.225 -4.247,0.225c-1.798,0 -3.288,-0.086 -4.413,-0.225c-1.126,-0.141 -1.998,-0.338 -2.672,-0.619c-0.647,-0.252 -1.124,-0.619 -1.407,-1.013c-0.253,-0.422 -0.392,-0.899 -0.392,-1.462l0,-8.466c-4.077,4.388 -8.212,7.677 -12.4,9.873c-4.216,2.192 -8.549,3.289 -13.048,3.289c-5.059,0 -9.306,-0.814 -12.736,-2.473c-3.431,-1.632 -6.214,-3.883 -8.324,-6.753c-2.106,-2.839 -3.624,-6.159 -4.527,-9.928c-0.899,-3.769 -1.348,-8.437 -1.348,-14.035l0,-45.001c0,-0.536 0.141,-1.041 0.449,-1.435c0.281,-0.422 0.844,-0.758 1.632,-1.041c0.813,-0.28 1.882,-0.478 3.206,-0.619c1.349,-0.139 3.006,-0.194 5.004,-0.194c2.023,0 3.711,0.055 5.004,0.194c1.321,0.141 2.39,0.339 3.178,0.619c0.813,0.283 1.376,0.619 1.687,1.041c0.336,0.394 0.505,0.899 0.505,1.435l0,41.543c0,3.824 0.253,6.777 0.733,8.803c0.505,2.024 1.263,3.769 2.276,5.232c1.013,1.463 2.307,2.587 3.852,3.375c1.577,0.816 3.403,1.207 5.485,1.207c2.642,0 5.284,-0.954 7.957,-2.895c2.67,-1.912 5.509,-4.726 8.518,-8.409l0,-48.856c0,-0.536 0.169,-1.041 0.449,-1.435c0.311,-0.422 0.872,-0.758 1.66,-1.041c0.788,-0.28 1.857,-0.478 3.178,-0.619c1.321,-0.139 2.981,-0.194 5.004,-0.194c2.051,0 3.711,0.055 5.035,0.194c1.321,0.141 2.359,0.339 3.119,0.619c0.788,0.283 1.321,0.619 1.657,1.041c0.339,0.394 0.508,0.899 0.508,1.435l0,73.494Zm-105.911,-36.65c0,-3.628 -0.28,-6.975 -0.871,-10.011c-0.564,-3.067 -1.546,-5.71 -2.925,-7.96c-1.377,-2.251 -3.206,-4.022 -5.482,-5.26c-2.279,-1.265 -5.146,-1.912 -8.604,-1.912c-3.067,0 -5.765,0.56 -8.071,1.687c-2.303,1.124 -4.188,2.784 -5.678,4.949c-1.491,2.165 -2.587,4.782 -3.348,7.821c-0.73,3.064 -1.096,6.525 -1.096,10.433c0,3.63 0.283,6.947 0.899,10.014c0.592,3.036 1.577,5.681 2.926,7.96c1.349,2.251 3.178,3.994 5.484,5.232c2.304,1.238 5.146,1.857 8.546,1.857c3.15,0 5.85,-0.592 8.182,-1.719c2.306,-1.124 4.191,-2.756 5.681,-4.893c1.46,-2.137 2.556,-4.723 3.289,-7.79c0.702,-3.037 1.068,-6.525 1.068,-10.408Zm21.341,-0.844c-0,6.273 -0.844,11.984 -2.473,17.158c-1.66,5.148 -4.163,9.62 -7.508,13.333c-3.347,3.739 -7.535,6.636 -12.598,8.662c-5.059,2.026 -10.965,3.037 -17.712,3.037c-6.525,-0 -12.204,-0.9 -17.039,-2.701c-4.837,-1.826 -8.856,-4.471 -12.034,-7.929c-3.178,-3.461 -5.54,-7.708 -7.086,-12.77c-1.549,-5.035 -2.306,-10.8 -2.306,-17.297c-0,-6.272 0.844,-11.984 2.503,-17.185c1.685,-5.177 4.188,-9.62 7.536,-13.334c3.372,-3.711 7.532,-6.58 12.567,-8.606c5.032,-2.054 10.91,-3.065 17.685,-3.065c6.58,-0 12.287,0.9 17.124,2.67c4.835,1.802 8.829,4.416 11.979,7.877c3.178,3.458 5.512,7.735 7.055,12.77c1.521,5.063 2.307,10.855 2.307,17.38Zm-93.144,37.494c-0,0.563 -0.169,1.04 -0.48,1.462c-0.336,0.394 -0.899,0.761 -1.657,1.013c-0.761,0.281 -1.829,0.478 -3.178,0.619c-1.349,0.139 -3.009,0.225 -4.976,0.225c-2.027,-0 -3.714,-0.086 -5.063,-0.225c-1.349,-0.141 -2.417,-0.338 -3.178,-0.619c-0.757,-0.252 -1.321,-0.619 -1.657,-1.013c-0.311,-0.422 -0.48,-0.899 -0.48,-1.462l-0,-41.938c-0,-3.572 -0.252,-6.355 -0.785,-8.409c-0.536,-2.024 -1.266,-3.769 -2.279,-5.232c-0.982,-1.435 -2.248,-2.559 -3.824,-3.375c-1.546,-0.788 -3.375,-1.179 -5.482,-1.179c-2.614,-0 -5.287,0.954 -7.985,2.867c-2.67,1.942 -5.484,4.726 -8.407,8.409l-0,48.857c-0,0.563 -0.141,1.04 -0.48,1.462c-0.336,0.394 -0.899,0.761 -1.685,1.013c-0.816,0.281 -1.856,0.478 -3.177,0.619c-1.322,0.139 -2.981,0.225 -5.035,0.225c-2.023,-0 -3.711,-0.086 -5.004,-0.225c-1.321,-0.141 -2.39,-0.338 -3.178,-0.619c-0.816,-0.252 -1.377,-0.619 -1.688,-1.013c-0.335,-0.422 -0.505,-0.899 -0.505,-1.462l0,-108.343c0,-0.564 0.17,-1.041 0.505,-1.49c0.311,-0.45 0.872,-0.816 1.688,-1.097c0.788,-0.311 1.857,-0.535 3.178,-0.705c1.293,-0.169 2.981,-0.252 5.004,-0.252c2.054,-0 3.713,0.083 5.035,0.252c1.321,0.17 2.361,0.394 3.177,0.705c0.786,0.281 1.349,0.647 1.685,1.097c0.339,0.449 0.48,0.926 0.48,1.49l-0,40.616c3.57,-3.517 7.225,-6.134 10.936,-7.877c3.685,-1.715 7.563,-2.587 11.556,-2.587c5.005,-0 9.223,0.814 12.654,2.473c3.43,1.66 6.214,3.911 8.323,6.753c2.11,2.867 3.628,6.187 4.555,10.011c0.955,3.828 1.407,8.437 1.407,13.894l0,45.06Zm-110.102,-49.109c-2.953,-3.742 -5.792,-6.581 -8.52,-8.549c-2.726,-1.998 -5.565,-2.983 -8.518,-2.983c-2.701,-0 -5.007,0.677 -6.975,2.026c-1.94,1.349 -3.514,3.15 -4.693,5.398c-1.182,2.251 -2.054,4.754 -2.645,7.541c-0.561,2.784 -0.844,5.623 -0.844,8.521c0,3.066 0.255,6.075 0.733,8.973c0.505,2.925 1.293,5.512 2.445,7.79c1.124,2.279 2.614,4.108 4.471,5.485c1.885,1.379 4.247,2.053 7.086,2.053c1.432,-0 2.811,-0.197 4.16,-0.618c1.352,-0.395 2.729,-1.069 4.133,-1.996c1.379,-0.958 2.842,-2.168 4.302,-3.686c1.49,-1.49 3.122,-3.347 4.865,-5.57l-0,-24.385Zm20.611,49.109c-0,0.618 -0.142,1.126 -0.422,1.546c-0.283,0.394 -0.733,0.732 -1.407,1.013c-0.647,0.283 -1.546,0.477 -2.67,0.591c-1.124,0.111 -2.504,0.169 -4.164,0.169c-1.74,-0 -3.175,-0.058 -4.271,-0.169c-1.099,-0.114 -1.998,-0.308 -2.7,-0.591c-0.675,-0.281 -1.18,-0.619 -1.463,-1.013c-0.308,-0.42 -0.45,-0.928 -0.45,-1.546l0,-8.157c-3.794,4.079 -7.76,7.23 -11.92,9.478c-4.133,2.251 -8.746,3.375 -13.778,3.375c-5.625,-0 -10.346,-1.066 -14.229,-3.234c-3.85,-2.165 -7.028,-5.09 -9.473,-8.776c-2.448,-3.683 -4.218,-7.987 -5.318,-12.908c-1.093,-4.924 -1.629,-10.098 -1.629,-15.526c0,-6.553 0.702,-12.434 2.082,-17.636c1.407,-5.231 3.458,-9.675 6.156,-13.361c2.673,-3.683 6.047,-6.497 10.039,-8.465c4.021,-1.998 8.631,-2.981 13.832,-2.981c4.136,-0 7.874,0.841 11.221,2.504c3.345,1.687 6.664,4.133 9.953,7.396l0,-39.8c0,-0.56 0.169,-1.04 0.45,-1.49c0.311,-0.45 0.871,-0.816 1.66,-1.124c0.785,-0.283 1.856,-0.536 3.175,-0.705c1.324,-0.139 2.98,-0.225 5.007,-0.225c2.051,-0 3.71,0.086 5.031,0.225c1.322,0.169 2.362,0.422 3.123,0.705c0.785,0.308 1.321,0.674 1.657,1.124c0.338,0.45 0.508,0.93 0.508,1.49l0,108.091Zm-105.351,-44.805c0.17,-5.822 -0.982,-10.408 -3.485,-13.727c-2.504,-3.319 -6.353,-4.979 -11.585,-4.979c-2.642,-0 -4.921,0.48 -6.861,1.462c-1.968,0.986 -3.569,2.337 -4.863,3.994c-1.293,1.691 -2.278,3.658 -2.98,5.937c-0.675,2.279 -1.069,4.727 -1.183,7.313l30.957,-0Zm20.106,5.934c0,2.504 -0.564,4.388 -1.688,5.598c-1.124,1.208 -2.67,1.799 -4.64,1.799l-44.735,-0c0,3.15 0.367,5.992 1.097,8.523c0.76,2.559 1.942,4.724 3.544,6.525c1.632,1.771 3.71,3.151 6.269,4.078c2.559,0.929 5.623,1.407 9.196,1.407c3.627,-0 6.805,-0.281 9.53,-0.789c2.756,-0.532 5.146,-1.096 7.142,-1.742c1.998,-0.619 3.655,-1.211 4.979,-1.716c1.321,-0.535 2.389,-0.788 3.203,-0.788c0.507,-0 0.929,0.083 1.237,0.28c0.339,0.197 0.619,0.536 0.844,1.041c0.197,0.48 0.367,1.183 0.45,2.109c0.086,0.903 0.114,2.027 0.114,3.406c0,1.207 -0.028,2.248 -0.087,3.092c-0.055,0.844 -0.138,1.576 -0.252,2.195c-0.083,0.589 -0.253,1.097 -0.477,1.518c-0.225,0.422 -0.506,0.816 -0.872,1.183c-0.363,0.391 -1.321,0.927 -2.925,1.573c-1.602,0.647 -3.628,1.294 -6.101,1.943c-2.475,0.616 -5.287,1.18 -8.462,1.629c-3.206,0.478 -6.608,0.703 -10.236,0.703c-6.522,-0 -12.259,-0.814 -17.18,-2.473c-4.893,-1.632 -8.995,-4.136 -12.314,-7.483c-3.289,-3.347 -5.737,-7.594 -7.369,-12.684c-1.602,-5.12 -2.418,-11.11 -2.418,-17.974c0,-6.525 0.844,-12.431 2.559,-17.663c1.688,-5.259 4.164,-9.705 7.397,-13.361c3.261,-3.655 7.197,-6.441 11.837,-8.354c4.638,-1.94 9.87,-2.895 15.69,-2.895c6.156,-0 11.412,0.9 15.773,2.729c4.357,1.798 7.957,4.329 10.741,7.538c2.811,3.206 4.865,7.002 6.186,11.418c1.321,4.388 1.968,9.17 1.968,14.316l0,3.319Z" style="fill:#696a6c;fill-rule:nonzero;"/><path d="M44.353,34.543c1.979,-8.787 31.587,-11.243 63.566,-9.128c31.568,2.087 66.572,8.762 81.667,18.471c10.439,6.6 7.963,30.419 -1.718,55.925c-10.816,28.498 -30.705,59.575 -49.647,65.667c-12.02,4.086 -32.42,-14.532 -53.866,-44.535c11.141,-12.945 20.319,-33.391 14.577,-37.599c-7.102,-5.345 -27.938,-8.265 -43.086,-7.877c-6.88,-13.153 -14.56,-28.359 -11.493,-40.924Zm-42.85,-20.852c-7.102,20.289 11.698,68.146 40.976,116.272c34.427,56.603 81.771,111.144 104.207,102.37c32.284,-12.076 63.061,-69.122 77.532,-117.551c12.137,-40.622 13.009,-76.456 -3.183,-86.139c-23.181,-14.141 -75.251,-24.086 -122.275,-27.389c-11.701,-0.821 -23.228,-1.254 -34.041,-1.254c-33.477,-0 -60.052,4.146 -63.216,13.691Z" style="fill:url(#_Linear1);fill-rule:nonzero;"/><path d="M266.852,352.603l21.341,0l-0,6.655l-30.576,0l0,-6.423c13.366,-10.79 21.625,-17.734 21.625,-24.325c0,-3.615 -2.291,-5.743 -6.135,-5.743c-3.499,0 -7.059,2.128 -7.059,8.319l-7.687,0c-0.112,-8.599 5.967,-14.166 15.202,-14.166c8.319,0 13.654,3.959 13.654,11.182c0,7.807 -7.571,15.95 -20.365,24.501Z" style="fill:#696a6c;fill-rule:nonzero;"/><path d="M308.55,316.92c11.071,0 16.694,8.831 16.694,21.453c0,12.678 -5.623,21.629 -16.694,21.629c-11.13,0 -16.749,-8.951 -16.749,-21.629c0,-12.622 5.619,-21.453 16.749,-21.453Zm0,5.967c-5.623,0 -8.662,5.559 -8.662,15.486c-0,9.983 3.039,15.662 8.662,15.662c5.624,0 8.607,-5.679 8.607,-15.662c-0,-9.927 -2.983,-15.486 -8.607,-15.486Z" style="fill:#696a6c;fill-rule:nonzero;"/><path d="M346.558,316.92c11.071,0 16.694,8.831 16.694,21.453c0,12.678 -5.623,21.629 -16.694,21.629c-11.13,0 -16.749,-8.951 -16.749,-21.629c0,-12.622 5.619,-21.453 16.749,-21.453Zm0,5.967c-5.623,0 -8.663,5.559 -8.663,15.486c0,9.983 3.04,15.662 8.663,15.662c5.623,0 8.607,-5.679 8.607,-15.662c0,-9.927 -2.984,-15.486 -8.607,-15.486Z" style="fill:#696a6c;fill-rule:nonzero;"/><path d="M385.202,331.662c7.687,-0 14.11,5.223 14.11,14.23c0,8.543 -6.479,14.11 -15.486,14.11c-11.13,-0 -16.006,-8.951 -16.006,-20.597c-0,-11.926 4.416,-22.485 16.866,-22.485c9.063,-0 13.31,6.135 13.766,11.47l-7.743,-0c-0.4,-3.439 -3.155,-5.447 -6.539,-5.447c-5.223,-0 -8.435,4.935 -8.435,12.678c1.78,-2.239 5.108,-3.959 9.467,-3.959Zm6.079,14.11c-0,-4.871 -3.156,-8.087 -7.455,-8.087c-4.359,-0 -7.631,3.216 -7.631,8.087c-0,4.991 3.272,8.263 7.631,8.263c4.299,-0 7.455,-3.216 7.455,-8.263Z" style="fill:#696a6c;fill-rule:nonzero;"/><path d="M704.016,317.123l21.341,0l0,6.655l-30.576,0l0,-6.423c13.366,-10.791 21.629,-17.734 21.629,-24.325c0,-3.616 -2.295,-5.743 -6.139,-5.743c-3.499,0 -7.059,2.127 -7.059,8.319l-7.687,0c-0.112,-8.599 5.967,-14.167 15.202,-14.167c8.319,0 13.654,3.96 13.654,11.183c0,7.807 -7.571,15.95 -20.365,24.501Z" style="fill:#696a6c;fill-rule:nonzero;"/><path d="M745.711,281.439c11.07,0 16.693,8.831 16.693,21.454c0,12.678 -5.623,21.629 -16.693,21.629c-11.131,-0 -16.75,-8.951 -16.75,-21.629c0,-12.623 5.619,-21.454 16.75,-21.454Zm0,5.968c-5.624,-0 -8.663,5.559 -8.663,15.486c0,9.982 3.039,15.662 8.663,15.662c5.623,0 8.606,-5.68 8.606,-15.662c0,-9.927 -2.983,-15.486 -8.606,-15.486Z" style="fill:#696a6c;fill-rule:nonzero;"/><path d="M775.25,317.123l21.341,0l0,6.655l-30.575,0l0,-6.423c13.366,-10.791 21.625,-17.734 21.625,-24.325c0,-3.616 -2.292,-5.743 -6.136,-5.743c-3.499,0 -7.059,2.127 -7.059,8.319l-7.686,0c-0.112,-8.599 5.967,-14.167 15.201,-14.167c8.319,0 13.655,3.96 13.655,11.183c0,7.807 -7.571,15.95 -20.366,24.501Z" style="fill:#696a6c;fill-rule:nonzero;"/><path d="M817.557,296.181c7.687,0 14.11,5.224 14.11,14.231c0,8.542 -6.479,14.11 -15.485,14.11c-11.131,0 -16.006,-8.951 -16.006,-20.598c0,-11.926 4.415,-22.485 16.865,-22.485c9.063,0 13.311,6.136 13.767,11.471l-7.743,0c-0.404,-3.44 -3.156,-5.447 -6.539,-5.447c-5.224,0 -8.435,4.935 -8.435,12.678c1.779,-2.24 5.107,-3.96 9.466,-3.96Zm6.08,14.111c-0,-4.872 -3.156,-8.087 -7.455,-8.087c-4.36,0 -7.631,3.215 -7.631,8.087c-0,4.991 3.271,8.263 7.631,8.263c4.299,0 7.455,-3.216 7.455,-8.263Z" style="fill:#696a6c;fill-rule:nonzero;"/><path d="M419.836,321.129l252.446,0" style="fill:none;fill-rule:nonzero;stroke:#6b6b6a;stroke-width:3.13px;"/><defs><linearGradient id="_Linear1" x1="0" y1="0" x2="1" y2="0" gradientUnits="userSpaceOnUse" gradientTransform="matrix(281.263,-106.438,106.438,281.263,-1.39038e-05,233.267)"><stop offset="0" style="stop-color:#0bb14e;stop-opacity:1"/><stop offset="0.5" style="stop-color:#92c848;stop-opacity:1"/><stop offset="1" style="stop-color:#e3e987;stop-opacity:1"/></linearGradient></defs></svg>