<svg width="296" height="26" viewBox="0 0 296 26" fill="none" xmlns="http://www.w3.org/2000/svg">
<g clip-path="url(#clip0_106_996)">
<path d="M6.94763 0.535889H24.9296V4.64834H11.4977V10.5844H23.3281V14.6968H11.4977V25.4614H6.94763V0.535889Z" fill="#000000"/>
<path d="M45.8855 12.5298L45.3804 11.2912L44.8411 9.9625L41.0151 0.534668H37.5936L32.6849 12.5909C34.3022 12.2789 35.9476 11.9481 37.6176 11.5978L39.3068 7.11552L40.7359 10.9166H40.7407L41.241 12.2547L41.7125 13.5074L42.7282 16.1977H35.8846L36.4671 14.6472L37.0256 13.1672C35.3412 13.5168 33.676 13.843 32.045 14.1556L31.4386 15.6356L27.4395 25.4602H32.3913L34.3214 20.3115H44.2593L46.1846 25.4602H51.1364L45.8862 12.5291L45.8855 12.5298Z" fill="#000000"/>
<path d="M56.9596 25.6686H61.5076V7.95266C59.9868 8.21759 58.4708 8.49664 56.9596 8.78981V25.6686ZM56.9596 0.742432V7.3475C58.4708 7.05433 59.9868 6.77528 61.5076 6.51035V0.742432H56.9596Z" fill="#000000"/>
<path d="M83.0213 14.3815C86.0437 13.3789 87.7185 11.0907 87.7185 7.51146C87.7185 7.4691 87.7185 7.42607 87.7138 7.38371C87.7138 6.89218 87.6754 6.41947 87.6029 5.9703C87.5262 5.49289 87.4153 5.03902 87.2613 4.61809C85.5243 4.75526 83.7673 4.91597 82.0015 5.10021C82.4779 5.39809 82.8146 5.81431 82.9974 6.37644C83.113 6.72138 83.1705 7.12348 83.1705 7.58677C83.1705 7.65267 83.1705 7.71924 83.1657 7.78043C83.0836 10.0592 81.4861 10.8016 78.6177 10.8016H75.3064V4.43385C79.1036 3.95644 82.8666 3.55905 86.5632 3.25176C85.2738 1.37978 82.8529 0.325439 79.0893 0.325439H70.7926V25.2516H75.3064V14.916H78.5068L84.59 25.2516H89.8642L83.0206 14.3821L83.0213 14.3815Z" fill="#000000"/>
<path d="M110.537 0.534608L109.344 2.52023L108.507 3.91951H108.502L107.684 5.28584L103.988 11.4417L100.345 5.30938L99.5366 3.94775C97.8666 3.99011 96.1678 4.05668 94.4499 4.14611L95.302 5.48891L101.804 15.7344V25.4601H106.352V15.7344L112.83 5.45126L113.672 4.11787L114.539 2.74212L115.929 0.533936H110.539L110.537 0.534608ZM97.51 0.534608H92.1584L93.5731 2.76633C95.3102 2.67152 97.0192 2.60092 98.7084 2.54914L97.51 0.534608Z" fill="#000000"/>
<path d="M140.887 9.27979C142.441 9.48756 143.972 9.68189 145.473 9.87083V25.4593H140.887V9.27979Z" fill="#000000"/>
<path d="M153.409 0.533203V4.64632H145.473V7.01051C143.972 6.82627 142.441 6.62724 140.887 6.41946V4.64632H132.951V0.533203H153.409Z" fill="#000000"/>
<path d="M173.03 12.2916L172.457 10.8735H172.452L171.855 9.39823L168.255 0.533203H164.834L161.484 8.75541C162.783 8.87846 164.045 8.9921 165.277 9.09094C165.445 9.10506 165.613 9.11918 165.782 9.1333L166.547 7.11473L167.24 8.94906L167.355 9.26106L167.798 10.4384L168.332 11.8566L168.457 12.1921L169.968 16.1969H163.125L164.747 11.8942C164.579 11.8801 164.41 11.866 164.242 11.8518C162.981 11.7429 161.691 11.63 160.363 11.5022L154.68 25.4594H159.632L161.557 20.3107H171.495L173.425 25.4594H178.377L173.03 12.2916Z" fill="#000000"/>
<path d="M185.144 0.536621H189.694V25.4628H185.144V0.536621Z" fill="#000000"/>
<path d="M203.27 21.3477V11.4331C201.816 11.5037 200.306 11.5655 198.722 11.6079V25.4608H214.118V21.3477H203.27ZM203.27 0.53534H198.722V10.1898C200.305 10.1474 201.816 10.0856 203.27 10.0149V0.53534Z" fill="#000000"/>
<path d="M240.885 8.69491C240.76 8.23162 240.615 7.78716 240.442 7.35682C240.259 6.88411 240.052 6.43024 239.821 5.99519C237.819 2.24114 234.08 0 229.32 0C223.531 0 219.223 3.34254 217.751 8.71844C219.454 8.51067 221.134 8.2881 222.818 8.0615C224.064 5.63142 226.346 4.25567 229.32 4.25567C231.592 4.25567 233.454 5.0639 234.763 6.52505C235.115 6.91773 235.427 7.35749 235.702 7.84431C235.923 8.25112 236.121 8.69087 236.284 9.15887C236.679 10.2838 236.891 11.5748 236.891 13.0171C236.891 18.3836 233.946 21.745 229.321 21.745C224.696 21.745 221.751 18.4166 221.751 13.0171C221.751 12.303 221.799 11.632 221.9 10.9939C221.977 10.4976 222.065 10.1823 222.2 9.73311C220.612 9.94559 219.029 10.0875 217.417 10.2811C217.34 10.735 217.295 11.1068 217.256 11.5842C217.218 12.0522 217.199 12.5296 217.199 13.0171C217.199 20.8137 222.112 26 229.322 26C236.531 26 241.444 20.813 241.444 13.0171C241.444 11.4666 241.252 10.0196 240.886 8.69558L240.885 8.69491Z" fill="#000000"/>
<path d="M259.937 14.5914C262.955 13.5888 264.63 11.3006 264.63 7.72607V7.66959C264.625 7.18747 264.596 6.72889 264.529 6.28914C264.457 5.77878 264.341 5.3007 264.182 4.85623C263.21 2.11886 260.616 0.534668 256.006 0.534668H247.705V5.82047C249.148 5.72566 250.65 5.64093 252.219 5.56025V4.64779H255.53C256.378 4.64779 257.109 4.70427 257.725 4.85085H257.734C258.711 5.07342 259.395 5.50309 259.765 6.23131C259.952 6.60987 260.059 7.06375 260.078 7.61176C260.083 7.66824 260.082 7.73481 260.082 7.796C260.082 10.2261 258.48 11.0155 255.53 11.0155H252.218V6.97768C250.65 7.05837 249.148 7.1478 247.704 7.24732V25.4595H252.218V15.1239H255.424L261.502 25.4595H266.781L259.937 14.59V14.5914Z" fill="#000000"/>
<path d="M0 18.3486C0.0725495 18.3439 2.64669 18.1832 6.94901 17.7434V20.5944C2.75278 21.0201 0.249817 21.1761 0.177952 21.1808L0 18.3486Z" fill="#000000"/>
<path d="M42.2204 14.8501C30.362 17.5639 19.2982 19.1764 11.497 20.0935V17.2378C19.1106 16.3348 29.7747 14.7654 41.2095 12.1692L41.243 12.2546L41.7146 13.5073L42.2204 14.8501Z" fill="#000000"/>
<path d="M45.3434 11.1995C53.6545 9.22804 62.2694 7.61561 70.7919 6.40527V9.27511C62.6349 10.4431 54.3909 11.9842 46.4262 13.8616L45.8876 12.5282L45.3825 11.2896L45.3434 11.1995Z" fill="#000000"/>
<path d="M108.532 3.87573L108.508 3.9181H108.503L107.685 5.28443L106.838 6.68842C100.851 6.61243 94.4027 6.84912 87.713 7.38369C86.2066 7.50203 84.6906 7.63449 83.165 7.78108C80.571 8.03659 77.9435 8.32976 75.3064 8.6653V5.80487C87.0444 4.33432 98.4743 3.64913 108.532 3.87573Z" fill="#000000"/>
<path d="M185.143 11.5594V14.3869C181.12 14.2685 177.351 14.1643 173.684 13.8712L173.087 12.4053L172.49 10.9395C176.523 11.2844 180.672 11.4323 185.143 11.5594Z" fill="#000000"/>
<path d="M236.714 10.9165C232.523 11.328 228.759 11.7866 225.053 12.2311C216.795 13.2289 208.999 14.1696 197.824 14.4298C195.019 14.4957 192.314 14.5105 189.696 14.4816V11.6494C192.28 11.6777 194.96 11.6635 197.752 11.5976C208.787 11.3374 216.517 10.4014 224.702 9.41299C228.263 8.98265 231.873 8.5476 235.863 8.15088C236.021 8.46758 236.161 8.80311 236.286 9.15815C236.474 9.70212 236.618 10.2932 236.715 10.9172L236.714 10.9165Z" fill="#000000"/>
<path d="M260.084 7.79585C260.084 8.50054 259.949 9.06267 259.684 9.50713C258.717 9.51655 257.73 9.54008 256.729 9.57774C250.781 9.79963 245.742 10.1217 241.257 10.4996C241.17 9.87561 241.046 9.27044 240.887 8.69352C240.795 8.35799 240.695 8.02716 240.579 7.70979C245.208 7.31239 250.42 6.97686 256.619 6.74085C257.745 6.69848 258.848 6.67024 259.931 6.66016C260.017 6.93921 260.065 7.25591 260.08 7.61027C260.085 7.66675 260.085 7.73332 260.085 7.79451L260.084 7.79585Z" fill="#000000"/>
<path d="M296 12.7838L294.72 15.3276C294.648 15.2899 290.36 13.2612 282.496 11.6065C279.421 10.9589 275.802 10.3679 271.673 9.9799C269.42 9.76742 267.014 9.61142 264.464 9.54014C264.574 8.97734 264.632 8.37217 264.632 7.72464V7.66816C264.627 7.33263 264.613 7.01122 264.579 6.69922C266.813 6.7557 268.935 6.87875 270.942 7.04887C272.583 7.18604 274.147 7.35145 275.629 7.54511C288.474 9.1952 295.591 12.5855 296.001 12.7838H296Z" fill="#000000"/>
<path d="M11.497 17.2378V20.0935C9.82224 20.2919 8.29665 20.4573 6.94901 20.5945V17.7434C8.30144 17.6063 9.82703 17.4362 11.497 17.2378Z" fill="#000000"/>
<path d="M269.223 18.4173L273.737 17.3085C274.065 20.2771 276.067 21.9575 279.015 21.9575C281.563 21.9575 283.201 20.7055 283.201 18.5961C283.201 16.8795 281.891 15.807 278.141 14.3404C272.827 12.3017 270.934 10.4069 270.934 6.79468C270.934 2.75351 274.101 0 278.833 0C282.255 0 284.949 1.5378 286.55 4.54144L282.765 6.83032C281.891 4.97044 280.398 3.96922 278.688 3.96922C276.868 3.96922 275.485 5.1493 275.485 6.6871C275.485 8.33248 276.722 9.26175 280.545 10.7283C285.968 12.7663 287.752 14.6619 287.752 18.2021C287.752 22.8511 284.148 25.9267 278.943 25.9267C273.883 25.9267 269.951 22.9587 269.224 18.4166L269.223 18.4173Z" fill="#000000"/>
<path d="M168.333 11.8566L168.997 13.6156C167.466 13.502 165.883 13.3742 164.242 13.2324C162.813 13.1093 161.34 12.9768 159.824 12.8303C150.95 11.979 140.742 10.7498 129.582 9.05268C122.219 7.93245 116.352 7.31719 111.857 6.99107L112.829 5.44992L113.575 4.26782C117.911 4.62689 123.359 5.23676 130.024 6.24874C141.488 7.99834 151.936 9.24162 160.94 10.0835C162.427 10.2254 163.871 10.3578 165.276 10.4715C166.162 10.5468 167.032 10.618 167.889 10.6839L168.333 11.8566Z" fill="#000000"/>
</g>
<defs>
<clipPath id="clip0_106_996">
<rect width="296" height="26" fill="#000000"/>
</clipPath>
</defs>
</svg>
