<?xml version="1.0" encoding="UTF-8" standalone="no"?>
<svg
   id="a"
   data-name="Layer 1"
   width="1612.1029"
   height="539.72803"
   viewBox="0 0 1612.1029 539.72805"
   version="1.1"
   sodipodi:docname="fairy_tailors.svg"
   xmlns:inkscape="http://www.inkscape.org/namespaces/inkscape"
   xmlns:sodipodi="http://sodipodi.sourceforge.net/DTD/sodipodi-0.dtd"
   xmlns="http://www.w3.org/2000/svg"
   xmlns:svg="http://www.w3.org/2000/svg">
  <defs
     id="defs26" />
  <sodipodi:namedview
     id="namedview26"
     pagecolor="#ffffff"
     bordercolor="#000000"
     borderopacity="0.25"
     inkscape:showpageshadow="2"
     inkscape:pageopacity="0.0"
     inkscape:pagecheckerboard="0"
     inkscape:deskcolor="#d1d1d1">
    <inkscape:page
       x="1.0019577e-13"
       y="0"
       width="1612.1029"
       height="539.72803"
       id="page2"
       margin="0"
       bleed="0" />
  </sodipodi:namedview>
  <g
     id="g8"
     inkscape:export-filename="fairy_tailors"
     inkscape:export-xdpi="96"
     inkscape:export-ydpi="96"
     transform="translate(-249.99796,-250.19298)">
    <path
       d="M 517.11,289.281 V 250.195 H 349.286 v 236.794 h 42.467 V 384.753 h 55.286 c 17.577,-3.461 36.019,-6.842 55.129,-10.224 V 345.668 H 391.753 v -56.387 z"
       fill="#1d1b20"
       id="path1" />
    <path
       d="m 587.181,384.478 c -2.005,0.354 -4.011,0.708 -6.016,1.062 l -7.117,17.734 c 4.365,-0.747 8.729,-1.534 13.133,-2.32 10.617,-1.887 21.941,-3.932 33.777,-6.133 l 6.567,-17.735 c -14.234,2.675 -27.761,5.151 -40.344,7.393 z"
       fill="#1d1b20"
       id="path2" />
    <path
       d="m 761.729,486.989 h -46.203 l -18.009,-48.916 h -92.759 l -18.009,48.916 h -46.203 l 33.502,-83.715 c 4.365,-0.747 8.729,-1.534 13.133,-2.32 10.617,-1.887 21.941,-3.932 33.777,-6.133 l -1.573,4.207 h 63.858 l -5.505,-14.903 -5.741,-15.453 -2.556,-6.96 -5.702,-15.453 -12.425,-33.541 -14.274,38.575 c -16.083,3.028 -31.378,5.898 -45.534,8.414 l 43.843,-109.511 h 31.929 l 35.35,88.671 6.134,15.335 2.792,6.999 6.134,15.335 44.04,110.454 z"
       fill="#1d1b20"
       id="path3" />
    <path
       d="m 816.779,486.989 h 42.467 V 334.146 c -14.195,2.438 -28.39,4.955 -42.467,7.471 z m 0,-236.794 v 67.437 c 14.077,-2.516 28.233,-4.994 42.467,-7.472 v -59.965 z"
       fill="#1d1b20"
       id="path4" />
    <path
       d="m 1102.489,302.336 c -14.746,0.943 -29.295,2.083 -43.489,3.381 1.573,3.696 2.359,8.14 2.359,13.448 0,0.983 -0.039,1.928 -0.078,2.87 13.92,-1.258 28.115,-2.359 42.546,-3.263 v -0.276 c 0,-5.701 -0.433,-11.088 -1.337,-16.161 z"
       fill="#1d1b20"
       id="path5" />
    <path
       d="m 1123.879,486.989 h -49.27 l -56.741,-98.186 h -29.884 v 98.186 H 945.871 V 250.195 h 77.463 c 35.9,0 58.746,10.499 70.503,29.059 -58.962,3.263 -105.853,10.027 -105.853,10.027 v 60.476 h 30.907 c 26.345,0 41.17,-6.842 42.389,-27.722 13.92,-1.258 28.115,-2.359 42.546,-3.263 -0.079,33.816 -15.689,55.483 -43.804,64.959 l 63.858,103.258 z"
       fill="#1d1b20"
       id="path6" />
    <path
       d="m 1195.209,250.194 h -49.938 l 15.964,25.599 c 16.083,-0.59 32.165,-1.023 48.169,-1.259 l -14.195,-24.341 z m 27.839,47.697 c -15.689,0.197 -31.575,0.512 -47.422,0.983 l 10.106,16.24 h 0.039 c 15.729,-0.433 31.378,-0.669 46.871,-0.787 z"
       fill="#1d1b20"
       id="path7" />
    <path
       d="m 1367.122,250.194 -15.807,25.559 -10.027,16.201 -4.286,6.921 -10.066,16.24 -49.152,79.468 v 92.405 h -42.467 v -92.405 l -49.545,-79.468 c 15.729,-0.433 31.378,-0.669 46.871,-0.787 l 23.043,39.518 23.318,-39.557 9.673,-16.398 4.129,-6.999 9.673,-16.357 14.352,-24.341 h 50.292 z"
       fill="#1d1b20"
       id="path8" />
  </g>
  <g
     id="g17"
     transform="translate(-249.99796,-250.19298)">
    <path
       d="m 339.22,548.016 v 39.085 h 74.042 v 65.312 c 13.92,2.556 28.036,3.618 42.821,3.618 V 587.1 h 74.042 V 548.015 H 339.22 Z m 74.042,128.345 V 784.81 h 42.821 V 679.586 h -0.393 c -14.47,0 -28.508,-0.944 -42.428,-3.225 z"
       fill="#1d1b20"
       id="path9" />
    <path
       d="m 589.973,665.035 h -0.039 l -6.999,17.499 c 14.274,-2.045 29.373,-4.208 45.495,-6.292 l 6.409,-17.301 c -15.847,2.005 -30.789,4.09 -44.866,6.094 z"
       fill="#1d1b20"
       id="path10" />
    <path
       d="m 763.184,784.809 h -46.203 l -18.009,-48.917 h -92.759 l -18.009,48.917 h -46.203 l 40.934,-102.275 c 14.274,-2.045 29.373,-4.208 45.495,-6.292 l -7.589,20.565 h 63.858 l -9.594,-25.991 -5.898,-15.925 h -0.039 l -2.556,-6.96 -5.859,-15.847 -7.982,-21.548 -8.69,23.475 c -15.493,1.848 -30.12,3.814 -44.001,5.741 l 36.726,-91.736 h 31.929 l 32.086,80.412 6.409,16.083 2.792,7.038 6.449,16.122 46.714,117.139 z"
       fill="#1d1b20"
       id="path11" />
    <rect
       x="826.37402"
       y="548.01599"
       width="42.466999"
       height="236.79401"
       fill="#1d1b20"
       id="rect11" />
    <path
       d="m 995.574,745.723 v -85.012 c -14.038,-0.708 -28.193,-1.533 -42.467,-2.437 V 784.81 h 143.68 V 745.724 H 995.574 Z m 0,-197.707 h -42.467 v 86.586 c 14.274,0.904 28.429,1.769 42.467,2.477 z"
       fill="#1d1b20"
       id="path12" />
    <path
       d="m 1168.037,666.569 c 0,-2.713 0.079,-5.426 0.236,-8.022 -14.156,1.572 -28.351,2.675 -42.624,3.382 -0.039,1.533 -0.079,3.067 -0.079,4.64 0,4.05 0.118,7.982 0.393,11.875 14.156,-0.747 28.272,-1.848 42.349,-3.381 -0.197,-2.753 -0.275,-5.584 -0.275,-8.494 z"
       fill="#1d1b20"
       id="path13" />
    <path
       d="m 1351.826,666.569 c 0,74.082 -45.849,123.352 -113.128,123.352 -63.622,0 -108.055,-44.041 -112.734,-111.477 14.156,-0.747 28.272,-1.848 42.349,-3.381 2.871,46.28 29.688,74.396 70.385,74.396 43.135,0 70.66,-31.929 70.66,-82.89 0,-4.797 -0.236,-9.398 -0.708,-13.841 -0.59,-5.662 -1.573,-11.01 -2.91,-16.043 -0.629,-2.437 -1.337,-4.797 -2.163,-7.077 -1.888,-5.584 -4.326,-10.696 -7.196,-15.336 -12.111,-19.739 -32.165,-30.906 -57.684,-30.906 -33.227,0 -57.213,18.755 -66.414,50.96 -14.667,1.769 -29.452,2.988 -44.315,3.814 10.224,-58.235 52.455,-95.197 110.729,-95.197 47.382,0 83.951,24.222 101.528,64.329 2.202,4.955 4.089,10.185 5.662,15.65 0.668,2.281 1.297,4.641 1.848,7.039 1.219,5.151 2.202,10.499 2.87,16.043 0.826,6.606 1.219,13.487 1.219,20.565 z"
       fill="#1d1b20"
       id="path14" />
    <path
       d="m 1410.297,621.232 v 16.476 c 13.959,-1.731 27.997,-3.264 42.113,-4.641 v -16.475 c -14.116,1.377 -28.154,2.91 -42.113,4.64 z"
       fill="#1d1b20"
       id="path15" />
    <path
       d="m 1588.305,784.809 h -49.27 l -56.702,-98.185 h -29.924 v 98.185 h -42.113 V 637.708 c 13.959,-1.731 27.997,-3.264 42.113,-4.641 v 14.509 h 30.946 c 22.374,0 36.451,-4.954 40.894,-19.228 1.062,-3.264 1.573,-7.039 1.573,-11.363 0,-1.81 -0.078,-3.54 -0.275,-5.151 -0.275,-2.438 -0.747,-4.641 -1.455,-6.645 -2.831,-8.337 -9.123,-13.252 -18.599,-15.807 h -0.078 c -6.095,-1.613 -13.448,-2.281 -22.06,-2.281 h -30.946 v 6.056 c -14.195,1.258 -28.233,2.792 -42.113,4.443 v -49.584 h 77.463 c 42.546,0 66.729,14.706 76.048,40.147 1.848,5.073 3.106,10.617 3.814,16.554 0.275,2.124 0.433,4.326 0.551,6.606 0.079,1.612 0.118,3.303 0.118,4.994 0,4.011 -0.236,7.825 -0.669,11.483 -3.185,27.446 -18.284,45.376 -43.175,53.752 l 63.858,103.258 z"
       fill="#1d1b20"
       id="path16" />
    <path
       d="m 1784.086,715.839 c 0,44.158 -33.659,73.373 -82.221,73.373 -47.225,0 -83.912,-28.193 -90.715,-71.329 l 42.113,-10.538 c 3.067,28.193 21.745,44.158 49.27,44.158 23.79,0 39.086,-11.875 39.086,-31.929 0,-16.318 -12.229,-26.503 -47.225,-40.423 -37.002,-14.431 -56.23,-28.114 -63.622,-48.366 -2.516,-6.881 -3.657,-14.588 -3.657,-23.317 v -0.157 c 0.079,-38.299 29.649,-64.369 73.728,-64.369 31.929,0 57.055,14.588 71.998,43.135 l -35.311,21.745 c -8.14,-17.695 -22.099,-27.172 -38.063,-27.172 -16.987,0 -29.884,11.207 -29.884,25.795 0,1.887 0.157,3.658 0.511,5.348 2.359,11.285 12.976,19.149 38.299,29.688 h 0.078 c 2.595,1.1 5.387,2.241 8.336,3.381 50.607,19.346 67.279,37.355 67.279,70.975 z"
       fill="#1d1b20"
       id="path17" />
  </g>
  <path
     d="m 458.76504,104.00702 c 73.492,-13.959002 157.404,-29.570002 237.108,-41.484002 v 23.829 c -28.587,4.286 -57.684,9.083 -86.625,14.076002 -14.195,2.438 -28.39,4.955 -42.467,7.472 -34.092,6.174 -67.515,12.425 -99.09,18.442 l -6.134,-15.335 -2.792,-6.999 z"
     fill="#ad1f34"
     id="path18" />
  <path
     d="m 1042.806,40.699018 -4.129,6.999 -9.673,16.398 c -15.139,-0.119 -30.63196,-0.119 -46.35996,0.038 -15.493,0.118 -31.143,0.354 -46.871,0.787 h -0.039 c -27.446,0.708 -55.011,1.887 -81.906,3.657 -14.431,0.904 -28.626,2.005 -42.546,3.263 -11.443,1.023 -22.689,2.163 -33.659,3.461 -12.976,1.495 -26.188,3.185 -39.636,4.994 v -23.75 c 12.504,-1.73 24.812,-3.263 36.884,-4.679 82.811,-9.673 181.862,-12.308 267.93596,-11.168 z"
     fill="#ad1f34"
     id="path19" />
  <path
     d="m 1204.693,48.368018 -2.32,23.474 c -30.513,-3.028 -74.671,-5.623 -125.435,-6.92 l 10.066,-16.24 4.286,-6.921 c 45.652,1.377 85.288,3.814 113.403,6.607 z"
     fill="#ad1f34"
     id="path20" />
  <path
     d="m 23.59504,286.34002 c -0.039,41.287 26.66,81.239 71.486,106.916 69.481,39.793 126.694,31.457 221.458,17.616 29.176,-4.247 62.207,-9.044 100.073,-13.134 l 2.556,6.96 h 0.039 l 5.898,15.925 c -1.219,0.079 -2.438,0.236 -3.657,0.353 -15.06,1.573 -29.412,3.303 -43.018,5.073 -16.122,2.084 -31.221,4.247 -45.495,6.292 -4.443,0.668 -8.769,1.258 -13.015,1.887 -43.135,6.292 -79.705,11.639 -113.836,11.678 h -0.393 c -14.47,0 -28.508,-0.944 -42.428,-3.225 -26.385,-4.247 -52.298,-13.172 -79.941,-28.979 -52.219,-29.885 -83.36099956,-77.542 -83.321999562616,-127.402 C 0.03904044,247.64802 19.07104,214.61702 52.21904,195.78202 c 13.055,-7.471 28.901,-13.998 47.068,-19.896 13.015,-4.286 27.25,-8.219 42.467,-11.954 42.782,-10.499 93.585,-19.306 148.399,-28.862 14.038,-2.437 28.351,-4.955 42.9,-7.549 25.48,-4.483 54.971,-10.067 86.389,-16.004 l 2.556,6.96 5.741,15.453 c -19.818,3.736 -38.889,7.393 -56.78,10.696 -11.836,2.201 -23.16,4.246 -33.777,6.133 -4.404,0.786 -8.769,1.573 -13.133,2.32 -10.106,1.769 -20.054,3.499 -29.845,5.23 -56.977,9.909 -109.51,19.031 -152.449,29.923 -15.493,3.893 -29.727,8.022 -42.467,12.505 -13.566,4.758 -25.441,9.869 -35.389,15.531 -25.598,14.55 -40.265,40.109 -40.304,70.071 z"
     fill="#ad1f34"
     id="path21" />
  <path
     d="m 576.37604,393.72702 v 23.632 c -36.53,-1.415 -73.295,-1.769 -109.903,0.118 l -6.449,-16.122 -2.792,-7.038 c 39.872,-2.36 79.665,-2.085 119.144,-0.59 z"
     fill="#ad1f34"
     id="path22" />
  <path
     d="m 1055.743,386.49202 c 1.337,5.033 2.32,10.381 2.91,16.043 -15.375,2.517 -30.553,5.073 -45.573,7.628 -22.49196,3.815 -43.72496,7.393 -64.76296,10.735 -9.988,1.573 -19.975,2.87 -30.002,3.972 -14.077,1.533 -28.193,2.634 -42.349,3.381 -42.743,2.163 -86.075,1.062 -130.39,-1.219 -14.038,-0.708 -28.193,-1.533 -42.467,-2.437 -9.044,-0.551 -18.166,-1.14 -27.328,-1.731 -18.835,-1.218 -37.867,-2.437 -56.937,-3.499 v -23.632 c 19.621,1.062 39.125,2.32 58.471,3.579 93.585,6.015 181.979,11.718 267.307,-1.731 20.919,-3.303 42.113,-6.881 64.52696,-10.695 14.51,-2.477 29.334,-4.955 44.433,-7.471 0.826,2.28 1.534,4.64 2.163,7.077 z"
     fill="#ad1f34"
     id="path23" />
  <path
     d="m 1275.55,361.64102 c 0.197,1.612 0.275,3.342 0.275,5.151 0,4.325 -0.511,8.099 -1.573,11.363 -24.183,0.826 -48.129,2.478 -71.84,4.718 -14.116,1.377 -28.154,2.91 -42.113,4.641 -20.133,2.477 -40.029,5.308 -59.69,8.296 -0.668,-5.545 -1.651,-10.892 -2.87,-16.043 -0.551,-2.398 -1.18,-4.758 -1.848,-7.039 56.583,-8.572 116.431,-15.807 178.205,-17.733 0.708,2.004 1.18,4.207 1.455,6.645 z"
     fill="#ad1f34"
     id="path24" />
  <path
     d="m 1377.117,357.27602 c 0,8.729 1.14,16.436 3.657,23.317 -21.155,-1.809 -42.231,-2.752 -63.15,-2.988 0.433,-3.658 0.669,-7.472 0.669,-11.483 0,-1.691 -0.039,-3.382 -0.118,-4.994 -0.118,-2.28 -0.275,-4.482 -0.551,-6.606 19.661,0.197 39.518,1.022 59.493,2.595 v 0.157 z"
     fill="#ad1f34"
     id="path25" />
  <path
     d="m 1612.102,414.68602 -9.516,21.587 c -48.287,-21.312 -96.416,-35.744 -144.113,-44.983 h -0.078 c -25.323,-10.539 -35.94,-18.403 -38.299,-29.688 63.504,8.336 127.913,24.811 192.007,53.084 z"
     fill="#ad1f34"
     id="path26" />
</svg>
