<?xml version="1.0" encoding="UTF-8"?>
<svg id="a" data-name="Layer 1" xmlns="http://www.w3.org/2000/svg" width="2112.1" height="1034.809" viewBox="0 0 2112.1 1034.809">
  <g>
    <path d="m517.11,289.281v-39.086h-167.824v236.794h42.467v-102.236h55.286c17.577-3.461,36.019-6.842,55.129-10.224v-28.861h-110.415v-56.387h125.357Z" fill="#1d1b20"/>
    <path d="m587.181,384.478c-2.005.354-4.011.708-6.016,1.062l-7.117,17.734c4.365-.747,8.729-1.534,13.133-2.32,10.617-1.887,21.941-3.932,33.777-6.133l6.567-17.735c-14.234,2.675-27.761,5.151-40.344,7.393Z" fill="#1d1b20"/>
    <path d="m761.729,486.989h-46.203l-18.009-48.916h-92.759l-18.009,48.916h-46.203l33.502-83.715c4.365-.747,8.729-1.534,13.133-2.32,10.617-1.887,21.941-3.932,33.777-6.133l-1.573,4.207h63.858l-5.505-14.903-5.741-15.453-2.556-6.96-5.702-15.453-12.425-33.541-14.274,38.575c-16.083,3.028-31.378,5.898-45.534,8.414l43.843-109.511h31.929l35.35,88.671,6.134,15.335,2.792,6.999,6.134,15.335,44.04,110.454Z" fill="#1d1b20"/>
    <path d="m816.779,486.989h42.467v-152.843c-14.195,2.438-28.39,4.955-42.467,7.471v145.372Zm0-236.794v67.437c14.077-2.516,28.233-4.994,42.467-7.472v-59.965h-42.467Z" fill="#1d1b20"/>
    <path d="m1102.489,302.336c-14.746.943-29.295,2.083-43.489,3.381,1.573,3.696,2.359,8.14,2.359,13.448,0,.983-.039,1.928-.078,2.87,13.92-1.258,28.115-2.359,42.546-3.263v-.276c0-5.701-.433-11.088-1.337-16.161Z" fill="#1d1b20"/>
    <path d="m1123.879,486.989h-49.27l-56.741-98.186h-29.884v98.186h-42.113v-236.794h77.463c35.9,0,58.746,10.499,70.503,29.059-58.962,3.263-105.853,10.027-105.853,10.027v60.476h30.907c26.345,0,41.17-6.842,42.389-27.722,13.92-1.258,28.115-2.359,42.546-3.263-.079,33.816-15.689,55.483-43.804,64.959l63.858,103.258Z" fill="#1d1b20"/>
    <path d="m1195.209,250.194h-49.938l15.964,25.599c16.083-.59,32.165-1.023,48.169-1.259l-14.195-24.341Zm27.839,47.697c-15.689.197-31.575.512-47.422.983l10.106,16.24h.039c15.729-.433,31.378-.669,46.871-.787l-9.594-16.436Z" fill="#1d1b20"/>
    <path d="m1367.122,250.194l-15.807,25.559-10.027,16.201-4.286,6.921-10.066,16.24-49.152,79.468v92.405h-42.467v-92.405l-49.545-79.468c15.729-.433,31.378-.669,46.871-.787l23.043,39.518,23.318-39.557,9.673-16.398,4.129-6.999,9.673-16.357,14.352-24.341h50.292Z" fill="#1d1b20"/>
  </g>
  <g>
    <path d="m339.22,548.016v39.085h74.042v65.312c13.92,2.556,28.036,3.618,42.821,3.618v-68.931h74.042v-39.085h-190.905Zm74.042,128.345v108.449h42.821v-105.224h-.393c-14.47,0-28.508-.944-42.428-3.225Z" fill="#1d1b20"/>
    <path d="m589.973,665.035h-.039l-6.999,17.499c14.274-2.045,29.373-4.208,45.495-6.292l6.409-17.301c-15.847,2.005-30.789,4.09-44.866,6.094Z" fill="#1d1b20"/>
    <path d="m763.184,784.809h-46.203l-18.009-48.917h-92.759l-18.009,48.917h-46.203l40.934-102.275c14.274-2.045,29.373-4.208,45.495-6.292l-7.589,20.565h63.858l-9.594-25.991-5.898-15.925h-.039l-2.556-6.96-5.859-15.847-7.982-21.548-8.69,23.475c-15.493,1.848-30.12,3.814-44.001,5.741l36.726-91.736h31.929l32.086,80.412,6.409,16.083,2.792,7.038,6.449,16.122,46.714,117.139Z" fill="#1d1b20"/>
    <rect x="826.374" y="548.016" width="42.467" height="236.794" fill="#1d1b20"/>
    <path d="m995.574,745.723v-85.012c-14.038-.708-28.193-1.533-42.467-2.437v126.536h143.68v-39.086h-101.213Zm0-197.707h-42.467v86.586c14.274.904,28.429,1.769,42.467,2.477v-89.063Z" fill="#1d1b20"/>
    <path d="m1168.037,666.569c0-2.713.079-5.426.236-8.022-14.156,1.572-28.351,2.675-42.624,3.382-.039,1.533-.079,3.067-.079,4.64,0,4.05.118,7.982.393,11.875,14.156-.747,28.272-1.848,42.349-3.381-.197-2.753-.275-5.584-.275-8.494Z" fill="#1d1b20"/>
    <path d="m1351.826,666.569c0,74.082-45.849,123.352-113.128,123.352-63.622,0-108.055-44.041-112.734-111.477,14.156-.747,28.272-1.848,42.349-3.381,2.871,46.28,29.688,74.396,70.385,74.396,43.135,0,70.66-31.929,70.66-82.89,0-4.797-.236-9.398-.708-13.841-.59-5.662-1.573-11.01-2.91-16.043-.629-2.437-1.337-4.797-2.163-7.077-1.888-5.584-4.326-10.696-7.196-15.336-12.111-19.739-32.165-30.906-57.684-30.906-33.227,0-57.213,18.755-66.414,50.96-14.667,1.769-29.452,2.988-44.315,3.814,10.224-58.235,52.455-95.197,110.729-95.197,47.382,0,83.951,24.222,101.528,64.329,2.202,4.955,4.089,10.185,5.662,15.65.668,2.281,1.297,4.641,1.848,7.039,1.219,5.151,2.202,10.499,2.87,16.043.826,6.606,1.219,13.487,1.219,20.565Z" fill="#1d1b20"/>
    <path d="m1410.297,621.232v16.476c13.959-1.731,27.997-3.264,42.113-4.641v-16.475c-14.116,1.377-28.154,2.91-42.113,4.64Z" fill="#1d1b20"/>
    <path d="m1588.305,784.809h-49.27l-56.702-98.185h-29.924v98.185h-42.113v-147.101c13.959-1.731,27.997-3.264,42.113-4.641v14.509h30.946c22.374,0,36.451-4.954,40.894-19.228,1.062-3.264,1.573-7.039,1.573-11.363,0-1.81-.078-3.54-.275-5.151-.275-2.438-.747-4.641-1.455-6.645-2.831-8.337-9.123-13.252-18.599-15.807h-.078c-6.095-1.613-13.448-2.281-22.06-2.281h-30.946v6.056c-14.195,1.258-28.233,2.792-42.113,4.443v-49.584h77.463c42.546,0,66.729,14.706,76.048,40.147,1.848,5.073,3.106,10.617,3.814,16.554.275,2.124.433,4.326.551,6.606.079,1.612.118,3.303.118,4.994,0,4.011-.236,7.825-.669,11.483-3.185,27.446-18.284,45.376-43.175,53.752l63.858,103.258Z" fill="#1d1b20"/>
    <path d="m1784.086,715.839c0,44.158-33.659,73.373-82.221,73.373-47.225,0-83.912-28.193-90.715-71.329l42.113-10.538c3.067,28.193,21.745,44.158,49.27,44.158,23.79,0,39.086-11.875,39.086-31.929,0-16.318-12.229-26.503-47.225-40.423-37.002-14.431-56.23-28.114-63.622-48.366-2.516-6.881-3.657-14.588-3.657-23.317v-.157c.079-38.299,29.649-64.369,73.728-64.369,31.929,0,57.055,14.588,71.998,43.135l-35.311,21.745c-8.14-17.695-22.099-27.172-38.063-27.172-16.987,0-29.884,11.207-29.884,25.795,0,1.887.157,3.658.511,5.348,2.359,11.285,12.976,19.149,38.299,29.688h.078c2.595,1.1,5.387,2.241,8.336,3.381,50.607,19.346,67.279,37.355,67.279,70.975Z" fill="#1d1b20"/>
  </g>
  <path d="m708.763,354.2c73.492-13.959,157.404-29.57,237.108-41.484v23.829c-28.587,4.286-57.684,9.083-86.625,14.076-14.195,2.438-28.39,4.955-42.467,7.472-34.092,6.174-67.515,12.425-99.09,18.442l-6.134-15.335-2.792-6.999Z" fill="#ad1f34"/>
  <path d="m1292.804,290.892l-4.129,6.999-9.673,16.398c-15.139-.119-30.632-.119-46.36.038-15.493.118-31.143.354-46.871.787h-.039c-27.446.708-55.011,1.887-81.906,3.657-14.431.904-28.626,2.005-42.546,3.263-11.443,1.023-22.689,2.163-33.659,3.461-12.976,1.495-26.188,3.185-39.636,4.994v-23.75c12.504-1.73,24.812-3.263,36.884-4.679,82.811-9.673,181.862-12.308,267.936-11.168Z" fill="#ad1f34"/>
  <path d="m1454.691,298.561l-2.32,23.474c-30.513-3.028-74.671-5.623-125.435-6.92l10.066-16.24,4.286-6.921c45.652,1.377,85.288,3.814,113.403,6.607Z" fill="#ad1f34"/>
  <path d="m273.593,536.533c-.039,41.287,26.66,81.239,71.486,106.916,69.481,39.793,126.694,31.457,221.458,17.616,29.176-4.247,62.207-9.044,100.073-13.134l2.556,6.96h.039l5.898,15.925c-1.219.079-2.438.236-3.657.353-15.06,1.573-29.412,3.303-43.018,5.073-16.122,2.084-31.221,4.247-45.495,6.292-4.443.668-8.769,1.258-13.015,1.887-43.135,6.292-79.705,11.639-113.836,11.678h-.393c-14.47,0-28.508-.944-42.428-3.225-26.385-4.247-52.298-13.172-79.941-28.979-52.219-29.885-83.361-77.542-83.322-127.402.039-38.652,19.071-71.683,52.219-90.518,13.055-7.471,28.901-13.998,47.068-19.896,13.015-4.286,27.25-8.219,42.467-11.954,42.782-10.499,93.585-19.306,148.399-28.862,14.038-2.437,28.351-4.955,42.9-7.549,25.48-4.483,54.971-10.067,86.389-16.004l2.556,6.96,5.741,15.453c-19.818,3.736-38.889,7.393-56.78,10.696-11.836,2.201-23.16,4.246-33.777,6.133-4.404.786-8.769,1.573-13.133,2.32-10.106,1.769-20.054,3.499-29.845,5.23-56.977,9.909-109.51,19.031-152.449,29.923-15.493,3.893-29.727,8.022-42.467,12.505-13.566,4.758-25.441,9.869-35.389,15.531-25.598,14.55-40.265,40.109-40.304,70.071Z" fill="#ad1f34"/>
  <path d="m826.374,643.92v23.632c-36.53-1.415-73.295-1.769-109.903.118l-6.449-16.122-2.792-7.038c39.872-2.36,79.665-2.085,119.144-.59Z" fill="#ad1f34"/>
  <path d="m1305.741,636.685c1.337,5.033,2.32,10.381,2.91,16.043-15.375,2.517-30.553,5.073-45.573,7.628-22.492,3.815-43.725,7.393-64.763,10.735-9.988,1.573-19.975,2.87-30.002,3.972-14.077,1.533-28.193,2.634-42.349,3.381-42.743,2.163-86.075,1.062-130.39-1.219-14.038-.708-28.193-1.533-42.467-2.437-9.044-.551-18.166-1.14-27.328-1.731-18.835-1.218-37.867-2.437-56.937-3.499v-23.632c19.621,1.062,39.125,2.32,58.471,3.579,93.585,6.015,181.979,11.718,267.307-1.731,20.919-3.303,42.113-6.881,64.527-10.695,14.51-2.477,29.334-4.955,44.433-7.471.826,2.28,1.534,4.64,2.163,7.077Z" fill="#ad1f34"/>
  <path d="m1525.548,611.834c.197,1.612.275,3.342.275,5.151,0,4.325-.511,8.099-1.573,11.363-24.183.826-48.129,2.478-71.84,4.718-14.116,1.377-28.154,2.91-42.113,4.641-20.133,2.477-40.029,5.308-59.69,8.296-.668-5.545-1.651-10.892-2.87-16.043-.551-2.398-1.18-4.758-1.848-7.039,56.583-8.572,116.431-15.807,178.205-17.733.708,2.004,1.18,4.207,1.455,6.645Z" fill="#ad1f34"/>
  <path d="m1627.115,607.469c0,8.729,1.14,16.436,3.657,23.317-21.155-1.809-42.231-2.752-63.15-2.988.433-3.658.669-7.472.669-11.483,0-1.691-.039-3.382-.118-4.994-.118-2.28-.275-4.482-.551-6.606,19.661.197,39.518,1.022,59.493,2.595v.157Z" fill="#ad1f34"/>
  <path d="m1862.1,664.879l-9.516,21.587c-48.287-21.312-96.416-35.744-144.113-44.983h-.078c-25.323-10.539-35.94-18.403-38.299-29.688,63.504,8.336,127.913,24.811,192.007,53.084Z" fill="#ad1f34"/>
</svg>