<?xml version="1.0" encoding="UTF-8"?>
<svg id="Vrstva_2" data-name="Vrstva 2" xmlns="http://www.w3.org/2000/svg" viewBox="0 0 1612.1 539.73">
  <defs>
    <style>
      .cls-1 {
        fill: #1d1b20;
        stroke-width: 0px;
      }
    </style>
  </defs>
  <g id="a">
    <path class="cls-1" d="m609.25,0h-42.47v67.44c14.08-2.52,28.23-4.99,42.47-7.47V0Z"/>
    <path class="cls-1" d="m959.4,24.34L945.21,0h-49.94l15.96,25.6c16.08-.59,32.17-1.02,48.17-1.26h0Z"/>
    <path class="cls-1" d="m206.08,405.84v-68.93h74.04v-39.09H89.22v39.09h74.04v65.31c13.92,2.56,28.04,3.62,42.82,3.62h0Z"/>
    <path class="cls-1" d="m703.11,384.41c14.27.9,28.43,1.77,42.47,2.48v-89.06h-42.47v86.59h0Z"/>
    <path class="cls-1" d="m1612.1,414.69c-64.09-28.27-128.5-44.75-192.01-53.08-.35-1.69-.51-3.46-.51-5.35,0-14.59,12.9-25.79,29.88-25.79,15.96,0,29.92,9.48,38.06,27.17l35.31-21.74c-14.94-28.55-40.07-43.14-72-43.14-44.08,0-73.65,26.07-73.73,64.37-19.97-1.57-39.83-2.4-59.49-2.59-.71-5.94-1.97-11.48-3.81-16.55-9.32-25.44-33.5-40.15-76.05-40.15h-77.46v49.58c13.88-1.65,27.92-3.19,42.11-4.44v-6.06h30.95c8.61,0,15.96.67,22.06,2.28h.08c9.48,2.56,15.77,7.47,18.6,15.81-61.77,1.93-121.62,9.16-178.2,17.73-1.57-5.47-3.46-10.7-5.66-15.65-17.58-40.11-54.15-64.33-101.53-64.33-58.27,0-100.51,36.96-110.73,95.2,14.86-.83,29.65-2.04,44.31-3.81,9.2-32.21,33.19-50.96,66.41-50.96,25.52,0,45.57,11.17,57.69,30.91,2.87,4.64,5.31,9.75,7.2,15.34-15.1,2.52-29.92,4.99-44.43,7.47-22.41,3.81-43.61,7.39-64.53,10.7-85.33,13.45-173.72,7.75-267.31,1.73-19.35-1.26-38.85-2.52-58.47-3.58v-97.91h-42.47v95.91c-39.48-1.49-79.27-1.77-119.14.59l-6.41-16.08-32.09-80.41h-31.93l-36.73,91.74c13.88-1.93,28.51-3.89,44-5.74l8.69-23.47,7.98,21.55,5.86,15.85c-37.87,4.09-70.9,8.89-100.07,13.13-94.77,13.84-151.98,22.18-221.46-17.62-44.83-25.68-71.53-65.63-71.49-106.92.04-29.96,14.71-55.52,40.3-70.07,9.95-5.66,21.82-10.77,35.39-15.53v36.06h42.47v-48.56c42.94-10.89,95.47-20.01,152.45-29.92,9.79-1.73,19.74-3.46,29.84-5.23l-33.5,83.71h46.2l18.01-48.92h92.76l18.01,48.92h46.2l-44.04-110.45c31.58-6.02,65-12.27,99.09-18.44v128.9h42.47V100.43c28.94-4.99,58.04-9.79,86.62-14.08v150.44h42.11v-98.19h29.88l56.74,98.19h49.27l-63.86-103.26c28.11-9.48,43.73-31.14,43.8-64.96,26.9-1.77,54.46-2.95,81.91-3.66h.04l49.55,79.47v92.4h42.47v-92.4l49.15-79.47c50.76,1.3,94.92,3.89,125.44,6.92l2.32-23.47c-28.11-2.79-67.75-5.23-113.4-6.61l10.03-16.2L1117.12,0h-50.29l-14.35,24.34-9.67,16.36c-86.07-1.14-185.12,1.49-267.94,11.17-12.07,1.42-24.38,2.95-36.88,4.68v-17.46s46.89-6.76,105.85-10.03C832.08,10.5,809.23,0,773.33,0h-77.46v62.52c-79.7,11.92-163.62,27.52-237.11,41.48l-6.13-15.33L417.28,0h-31.93l-43.84,109.51c14.16-2.52,29.45-5.39,45.53-8.42l14.27-38.58,12.43,33.54,5.7,15.45c-31.42,5.94-60.91,11.52-86.39,16-14.55,2.6-28.86,5.11-42.9,7.55-54.81,9.56-105.62,18.36-148.4,28.86v-29.37h55.29c17.58-3.46,36.02-6.84,55.13-10.22v-28.86h-110.42v-56.39h125.36V0H99.29v175.89c-18.17,5.9-34.01,12.42-47.07,19.9C19.07,214.62.04,247.65,0,286.3c-.04,49.86,31.1,97.52,83.32,127.4,27.64,15.81,53.56,24.73,79.94,28.98v91.93h42.82v-88.71c34.13-.04,70.7-5.39,113.84-11.68,4.25-.63,8.57-1.22,13.02-1.89l-40.93,102.28h46.2l18.01-48.92h92.76l18.01,48.92h46.2l-46.71-117.14c36.61-1.89,73.37-1.53,109.9-.12v117.26h42.47v-115.25c19.07,1.06,38.1,2.28,56.94,3.5,9.16.59,18.28,1.18,27.33,1.73v110.02h143.68v-39.09h-101.21v-68.5c44.31,2.28,87.65,3.38,130.39,1.22,4.68,67.44,49.11,111.48,112.73,111.48,67.28,0,113.13-49.27,113.13-123.35,0-7.08-.39-13.96-1.22-20.57,19.66-2.99,39.56-5.82,59.69-8.3v147.1h42.11v-98.19h29.92l56.7,98.19h49.27l-63.86-103.26c24.89-8.38,39.99-26.31,43.18-53.75,20.92.23,42,1.18,63.15,2.99,7.39,20.25,26.62,33.93,63.62,48.36,35,13.92,47.22,24.1,47.22,40.42,0,20.05-15.3,31.93-39.09,31.93-27.53,0-46.2-15.97-49.27-44.16l-42.11,10.54c6.8,43.14,43.49,71.33,90.71,71.33s82.22-29.22,82.22-73.37c0-33.62-16.67-51.63-67.28-70.98-2.95-1.14-5.74-2.28-8.34-3.38,47.7,9.24,95.83,23.67,144.11,44.98l9.52-21.59h0ZM1029,64.1l-23.32,39.56-23.04-39.52c15.73-.16,31.22-.16,46.36-.04h0Zm-291.02,16.2c13.45-1.81,26.66-3.5,39.64-4.99,10.97-1.3,22.22-2.44,33.66-3.46-1.22,20.88-16.04,27.72-42.39,27.72h-30.91v-19.27h0Zm-310.25,53.63l5.51,14.9h-63.86l1.57-4.21c17.89-3.3,36.96-6.96,56.78-10.7Zm-56.9,312.68l7.59-20.57c13.6-1.77,27.96-3.5,43.02-5.07,1.22-.12,2.44-.28,3.66-.35l9.59,25.99h-63.86,0Zm617.86,52.65c-40.7,0-67.52-28.11-70.39-74.4,10.03-1.1,20.02-2.4,30-3.97,21.04-3.34,42.27-6.92,64.76-10.73,15.02-2.56,30.2-5.11,45.57-7.63.47,4.44.71,9.04.71,13.84,0,50.96-27.53,82.89-70.66,82.89h0Zm244.66-101.88h-30.95v-14.51c23.71-2.24,47.66-3.89,71.84-4.72-4.44,14.27-18.52,19.23-40.89,19.23h0Z"/>
  </g>
</svg>