<svg width="223" height="54" viewBox="0 0 223 54" fill="none" xmlns="http://www.w3.org/2000/svg">
<path d="M82.9539 52.8272C81.3306 51.9393 80.8323 51.5657 80.8323 51.236C80.8323 50.8757 81.6026 49.6434 83.0276 47.7242C83.9161 46.5273 85.7473 43.9438 86.6549 42.6068C87.1639 41.8566 86.9478 41.4411 86.0489 41.4411C85.606 41.4411 85.292 41.3313 85.0537 41.093C84.7322 40.7715 84.7143 40.6375 84.8179 39.3387C84.9891 37.1941 85.2336 32.6438 85.4062 28.3854C85.6762 21.7255 85.794 20.0942 86.0217 19.8663C86.3306 19.5569 92.0596 19.4694 92.4586 19.7681C92.7222 19.9652 92.7303 20.2118 92.5727 23.1631C92.4167 26.0799 92.3075 27.5771 92.0013 31.0014C91.9103 32.0193 91.9361 32.2673 92.1516 32.4464C92.3826 32.6378 92.5991 32.2853 94.0606 29.3407C94.9671 27.5137 95.9287 25.4682 96.1973 24.795C97.1202 22.4814 98.9051 18.9539 99.2447 18.7721C99.6107 18.5763 99.8168 18.6324 101.362 19.3497C102.313 19.7908 103.027 20.3259 103.027 20.5971C103.027 20.7806 100.899 24.7857 99.3658 27.4878C96.8054 32 95.9848 33.4742 94.8903 35.5282C94.2556 36.7192 93.523 38.0044 93.2624 38.3841C93.0017 38.7639 92.4762 39.699 92.0947 40.4619C91.7131 41.2249 90.89 42.7304 90.2653 43.8075C89.6407 44.8846 88.5381 46.8307 87.8153 48.1322C84.8187 53.5277 84.9297 53.3643 84.2749 53.3362C84.0421 53.3263 83.4475 53.0971 82.9539 52.8272ZM24.4478 42.5923C24.1785 42.5189 23.5362 42.4502 23.0205 42.4396C22.5048 42.429 21.6602 42.2834 21.1437 42.1161C20.6272 41.9488 19.7769 41.6862 19.254 41.5327C18.7312 41.3791 17.446 40.8207 16.3981 40.2916C13.5559 38.8567 11.1947 36.8522 9.18038 34.1637C7.31455 31.6733 6.41942 29.7525 5.49899 26.2638C5.13326 24.8773 5.08985 24.3931 5.08838 21.6852C5.08659 18.1954 5.14599 17.8154 5.71539 17.6725C6.3623 17.5101 8.92547 18.8658 9.14187 19.4848C9.20584 19.6677 9.26312 20.6621 9.26916 21.6943C9.28303 24.0616 9.68597 25.6677 10.886 28.1383C12.3542 31.1615 14.7188 33.5757 17.6751 35.0701C21.9594 37.2357 27.3958 37.3046 31.7484 35.248C32.3281 34.9741 32.9639 34.7501 33.1612 34.7501C33.5682 34.7501 36.9095 38.0918 37.167 38.7565C37.4822 39.5699 36.2195 40.3464 32.526 41.6108C31.2741 42.0394 29.9816 42.3622 29.1805 42.4463C27.0415 42.6708 24.97 42.7348 24.4478 42.5923ZM198.698 41.7789C197.886 41.644 197.258 41.2215 196.742 40.4636C196.419 39.989 196.375 39.7186 196.375 38.2168C196.375 37.0872 196.483 36.0599 196.693 35.1809C196.984 33.97 198.071 29.1927 198.463 27.4062C198.9 25.4127 199.378 23.8415 199.799 23.0152C200.447 21.747 201.619 20.6536 202.906 20.1159C203.928 19.6899 204.101 19.6713 207.846 19.5827C210.87 19.5114 211.76 19.4419 211.866 19.2689C212.067 18.943 212.834 15.8264 213.759 11.5761C213.984 10.5439 214.27 9.29542 214.392 8.80174C214.712 7.52914 215.267 5.07008 215.388 4.39543C215.562 3.42457 215.83 2.90544 216.24 2.74958C216.672 2.5859 221.86 2.54559 222.441 2.7016C222.944 2.83624 223.042 3.2896 222.766 4.19453C222.635 4.61917 222.443 5.44397 222.335 6.0274C222.229 6.61083 221.927 8.00616 221.666 9.12814C221.406 10.2501 220.894 12.49 220.528 14.1056C220.163 15.7213 219.725 17.6307 219.557 18.3488C219.389 19.0668 219.089 20.4254 218.891 21.3679C218.694 22.3104 218.4 23.5955 218.24 24.2239C218.08 24.8522 217.788 26.1006 217.594 26.9982C217.398 27.8958 217.105 29.2177 216.94 29.9357C216.775 30.6538 216.566 31.5718 216.475 31.9757C216.382 32.3796 216.231 33.0038 216.142 33.3629C216.05 33.7219 215.822 34.7501 215.634 35.6476C214.769 39.7677 214.493 40.8556 214.25 41.0984C214.036 41.3138 213.483 41.3683 211.094 41.4101C207.933 41.4654 207.311 41.3576 207.308 40.7515C207.301 39.7566 206.781 39.7591 204.656 40.7639C203.917 41.1134 203.055 41.476 202.74 41.5696C201.973 41.7979 199.562 41.9227 198.698 41.7789ZM206.054 37.2884C207.451 36.7956 207.933 36.4814 208.145 35.9246C208.236 35.6824 208.564 34.3829 208.874 33.0365C209.183 31.6901 209.581 30.0577 209.759 29.4088C209.939 28.7599 210.084 28.0556 210.084 27.8436C210.084 27.6314 210.195 27.0974 210.33 26.6568C210.668 25.5604 211.063 23.6628 211.063 23.1422C211.063 22.5984 210.807 22.3881 209.981 22.2562C209.186 22.1289 207.889 22.6273 207.272 23.2972C206.792 23.8206 206.316 25.1402 205.849 27.243C205.659 28.0957 205.366 29.3442 205.194 30.0173C205.025 30.6905 204.736 31.9023 204.553 32.7101C204.369 33.5179 204.107 34.6712 203.969 35.2731C203.652 36.6634 203.655 37.0198 203.99 37.3891C204.344 37.7798 204.715 37.7617 206.054 37.2884ZM110.449 41.548C109.773 41.2423 108.955 40.2705 108.749 39.528C108.357 38.1166 108.459 37.4909 110.522 28.6302C110.689 27.9121 110.989 26.5535 111.188 25.611C111.387 24.6686 111.688 23.4087 111.858 22.8112C112.027 22.2139 112.166 21.6014 112.166 21.4503C112.166 21.299 112.456 19.9518 112.811 18.4565C113.496 15.5725 113.908 13.7677 114.458 11.2497C115.638 5.84886 116.269 3.28422 116.494 2.97594C116.685 2.71434 117.043 2.67615 119.733 2.63094C123.493 2.56778 123.507 2.573 123.355 3.96262C123.295 4.51472 123.063 5.73772 122.841 6.68019C121.951 10.4469 121.594 12.0066 120.983 14.7992C120.801 15.6294 120.505 16.9698 120.326 17.7776C120.146 18.5854 119.853 19.9073 119.673 20.7151C119.494 21.5229 119.204 22.8264 119.029 23.6119C118.854 24.3972 118.551 25.7742 118.356 26.6718C118.161 27.5694 117.864 28.7924 117.695 29.3898C117.526 29.9871 117.388 30.6285 117.388 30.8149C117.388 31.0013 117.085 32.4015 116.714 33.9266C116.066 36.5878 116.05 36.7161 116.314 37.1192C116.817 37.8856 117.236 37.9499 118.567 37.4645C119.221 37.2259 119.99 36.8889 120.275 36.7156C120.843 36.3698 121.022 35.9004 121.625 33.1589C121.808 32.3285 122.107 30.9699 122.289 30.1397C122.472 29.3094 122.756 28.0794 122.922 27.4062C123.087 26.733 123.373 25.5213 123.556 24.7134C124.403 20.9779 124.576 20.2073 124.891 18.7568C125.204 17.3218 126.126 13.2874 126.851 10.1889C127.019 9.47085 127.312 8.18568 127.503 7.33297C128.244 4.01616 128.531 3.07695 128.874 2.8364C129.137 2.65232 129.836 2.60026 132.042 2.60026C133.598 2.60026 135.006 2.67174 135.169 2.75905C135.714 3.05101 135.689 3.65386 135.015 6.40846C134.655 7.88066 134.361 9.21822 134.361 9.3806C134.361 9.54315 134.219 10.1587 134.047 10.7485C133.874 11.3383 133.576 12.5553 133.385 13.4529C133.195 14.3504 132.895 15.7273 132.72 16.5128C132.546 17.2981 132.253 18.62 132.071 19.4503C131.889 20.2805 131.602 21.5107 131.434 22.1839C131.266 22.8571 130.965 24.179 130.765 25.1214C130.565 26.0639 130.271 27.3858 130.11 28.059C129.368 31.1747 129.134 32.196 128.728 34.0973C128.489 35.2192 128.189 36.4623 128.063 36.8599C127.936 37.2572 127.833 37.7728 127.833 38.0055C127.833 38.8003 127.176 40.8636 126.83 41.1555C126.535 41.4044 126.114 41.4411 123.553 41.4411H120.615L120.092 40.8699C119.804 40.5558 119.422 40.2987 119.242 40.2987C119.062 40.2987 118.113 40.6077 117.132 40.9853C115.397 41.6531 115.288 41.6732 113.145 41.7212C111.544 41.7571 110.808 41.7097 110.449 41.548ZM53.7416 41.1147C53.3374 40.7105 53.3358 40.5044 53.7258 39.0748C53.8973 38.4465 54.1211 37.4918 54.2234 36.9532C54.4044 35.9995 54.8217 34.1121 55.1799 32.6285C55.2773 32.2246 55.5162 31.123 55.7109 30.1805C55.9056 29.2381 56.1977 27.9529 56.36 27.3246C56.5222 26.6963 56.7397 25.7416 56.8433 25.203C56.947 24.6645 57.2437 23.3059 57.5028 22.1839C57.7618 21.0619 58.2708 18.822 58.6341 17.2064C58.9972 15.5907 59.4403 13.738 59.6187 13.0891C59.7972 12.4402 59.9431 11.7582 59.9431 11.5735C59.9431 11.3889 60.0941 10.5979 60.2786 9.81569C60.4632 9.03365 60.7534 7.80624 60.9236 7.08818C61.0938 6.37011 61.354 5.23181 61.5016 4.55863C61.6929 3.68699 61.8873 3.22759 62.1766 2.96272L62.5831 2.59096L70.3125 2.63633C75.6763 2.66783 78.097 2.73685 78.222 2.86186C78.4766 3.11678 78.2466 4.6541 77.8873 5.09832C77.6058 5.44642 77.4796 5.45833 73.245 5.53781C69.4493 5.6088 68.8669 5.65384 68.6955 5.88851C68.4551 6.21768 68.1377 7.5009 66.8036 13.5345C66.6151 14.3872 66.3192 15.6356 66.1461 16.3088C65.9731 16.982 65.7867 17.905 65.7319 18.3602C65.5816 19.6103 65.6434 19.6336 68.8396 19.5367C70.9153 19.4737 71.5678 19.5031 71.7026 19.6656C72.0135 20.0401 71.6058 21.7123 71.0944 22.1606C70.7002 22.5059 70.5538 22.5344 69.6647 22.4406C69.1198 22.3832 67.9262 22.2937 67.0121 22.2418C65.3874 22.1498 65.3405 22.157 64.9314 22.5663C64.6549 22.8426 64.5126 23.1639 64.5126 23.5112C64.5126 23.8007 64.3713 24.5201 64.1983 25.1099C64.0255 25.6996 63.7288 26.9166 63.539 27.8142C63.3492 28.7118 63.0561 30.0337 62.8877 30.7517C62.7192 31.4698 62.4203 32.8284 62.2233 33.7709C62.0263 34.7133 61.7265 35.973 61.557 36.5705C61.3874 37.1678 61.2487 37.8302 61.2487 38.0425C61.2487 38.8068 60.5838 40.8703 60.2455 41.1555C59.9506 41.4042 59.5302 41.4411 56.9874 41.4411C54.2856 41.4411 54.0437 41.4166 53.7416 41.1147ZM74.755 41.1355C73.5588 40.8234 72.922 40.3552 72.5698 39.5288C72.2385 38.751 72.2859 36.2981 72.6632 34.7032C73.0116 33.2309 73.4449 31.2996 73.9891 28.7934C74.1842 27.8958 74.4817 26.6726 74.6504 26.0752C74.8192 25.4779 74.9572 24.8326 74.9572 24.6413C74.9572 24.2573 75.4429 22.1002 75.9415 20.2698C76.1182 19.6209 76.2628 18.9376 76.2628 18.7512C76.2628 18.5648 76.551 17.223 76.9032 15.7694C77.2554 14.3157 77.845 11.7678 78.2135 10.1073C78.582 8.44679 79.0251 6.46395 79.1982 5.701C79.3712 4.93806 79.5582 4.07588 79.6139 3.78539C79.6695 3.49474 79.9029 3.1091 80.1325 2.92861C80.5149 2.62767 80.7912 2.60026 83.4291 2.60026C85.771 2.60026 86.3761 2.64758 86.6712 2.85419C87.1361 3.17993 87.133 3.25648 86.5543 5.7826C86.287 6.94946 85.7693 9.22606 85.4041 10.8417C85.0389 12.4574 84.5953 14.3101 84.4182 14.9588C84.2412 15.6077 84.0962 16.2912 84.0962 16.4774C84.0962 16.6637 83.8 18.0423 83.4379 19.5408C82.7017 22.5881 82.3047 24.3082 81.8105 26.5902C81.6259 27.4429 81.3364 28.6914 81.1672 29.3646C80.4178 32.3444 79.6219 36.0439 79.5623 36.8235C79.5058 37.5631 79.5511 37.7268 79.9127 38.0882C80.141 38.3166 80.4829 38.5036 80.6724 38.5036C81.5938 38.5036 81.8345 39.0506 81.4779 40.3346C81.1967 41.3468 80.9136 41.4423 78.2257 41.4317C76.5153 41.4248 75.5485 41.3424 74.755 41.1355ZM130.301 41.265C129.972 41.1333 129.927 41.0294 130.005 40.5817C130.101 40.0388 130.642 37.622 130.928 36.4636C131.017 36.1046 131.393 34.4522 131.764 32.7917C132.135 31.1312 132.578 29.2838 132.747 28.6863C132.917 28.089 133.055 27.4437 133.055 27.2525C133.055 27.0612 133.206 26.2648 133.39 25.4826C133.574 24.7006 133.871 23.4364 134.049 22.6735C134.597 20.3305 134.685 20.0824 135.055 19.8234C135.344 19.6209 135.967 19.5727 138.3 19.5727C139.89 19.5727 141.308 19.6183 141.453 19.6741C141.598 19.7299 141.82 20.0236 141.947 20.3269C142.246 21.043 142.497 21.034 144.364 20.241C145.19 19.8905 146.406 19.4404 147.067 19.2408C149.774 18.4216 152.121 19.3621 152.748 21.5184C153.03 22.4879 152.953 23.2718 152.314 26.019C151.917 27.7275 151.436 29.8701 150.997 31.8941C150.801 32.7917 150.504 34.0147 150.334 34.6121C150.166 35.2094 150.029 35.8337 150.029 35.9993C150.032 36.6833 148.988 40.6651 148.717 40.9987C148.433 41.3486 148.33 41.3595 145.236 41.3595C142.945 41.3595 141.992 41.3034 141.848 41.1603C141.641 40.9525 141.815 39.8702 142.514 37.0348C142.68 36.3616 142.979 35.0397 143.178 34.0973C143.377 33.1548 143.674 31.7962 143.837 31.0781C143.999 30.3601 144.286 29.0749 144.475 28.2222C144.665 27.3695 144.926 26.2506 145.056 25.7359C145.189 25.221 145.295 24.6204 145.295 24.4011C145.295 23.3914 144.107 23.2143 142.275 23.9511L141.133 24.411L140.699 25.7045C140.459 26.4161 140.258 27.2009 140.25 27.4486C140.242 27.6964 139.942 29.1284 139.581 30.631C138.806 33.8628 138.401 35.6094 137.964 37.606C137.052 41.7734 137.43 41.4445 133.564 41.4307C131.983 41.425 130.514 41.3504 130.301 41.265ZM152.434 41.3285C151.958 41.2038 151.907 40.4765 152.271 38.9933C152.64 37.4898 153.069 35.6005 153.623 33.0365C153.817 32.1389 154.259 30.1928 154.607 28.7118C154.954 27.2308 155.383 25.3948 155.561 24.6318C155.738 23.8689 156.046 22.5544 156.243 21.7108C156.764 19.4947 156.622 19.5727 160.157 19.5727C161.877 19.5727 163.236 19.6431 163.421 19.7416C163.832 19.9621 163.831 20.6293 163.409 22.1442C163.23 22.792 163.083 23.4705 163.083 23.6522C163.083 23.8337 162.789 25.2117 162.43 26.7142C161.35 31.232 161.175 31.9839 160.798 33.7709C160.599 34.7133 160.297 35.973 160.128 36.5705C159.958 37.1678 159.819 37.8302 159.819 38.0425C159.819 38.8068 159.155 40.8703 158.817 41.1555C158.52 41.4055 158.12 41.4387 155.599 41.4222C154.016 41.4117 152.591 41.3696 152.434 41.3285ZM165.794 41.1725C164.526 40.866 163.945 40.4265 163.475 39.4173C163 38.3982 162.988 37.857 163.4 35.974C163.576 35.1662 163.879 33.7342 164.074 32.7917C164.268 31.8492 164.558 30.5641 164.72 29.9357C164.88 29.3074 165.167 28.059 165.36 27.1614C165.552 26.2638 165.849 24.9052 166.021 24.1423C166.192 23.3793 166.489 22.0574 166.68 21.2047C166.871 20.352 167.173 19.0301 167.351 18.2672C167.762 16.5012 168.201 14.5814 168.712 12.3185C169.291 9.74796 169.108 9.85698 172.808 9.89141C174.996 9.91165 175.901 9.97741 176.085 10.1292C176.437 10.4221 176.276 11.6776 175.479 14.8563C175.13 16.2566 174.794 17.8096 174.735 18.3075C174.641 19.1142 174.667 19.2325 174.965 19.3927C175.151 19.4916 175.863 19.5727 176.547 19.5727C178.105 19.5727 178.424 19.7273 178.424 20.484C178.424 20.9395 178.068 21.9701 177.89 22.0336C177.869 22.0408 177.022 22.141 176.003 22.2562C174.832 22.3892 174.068 22.5542 173.914 22.7071C173.599 23.0211 173.09 24.9863 171.891 30.5069C171.705 31.3596 171.416 32.6448 171.248 33.3629C170.463 36.7179 170.399 37.6587 170.917 38.1772C171.181 38.4414 171.462 38.5036 172.385 38.5036C173.33 38.5036 173.588 38.5631 173.872 38.8479C174.154 39.1296 174.198 39.3114 174.112 39.8475C173.972 40.7275 173.751 41.0999 173.263 41.2856C172.619 41.5307 166.92 41.4444 165.794 41.1725ZM178.686 41.1891C177.655 40.9646 177.094 40.6273 176.558 39.9099C176.057 39.2403 175.998 36.8798 176.436 35.0538C176.617 34.3032 176.912 33.0283 177.095 32.2205C177.278 31.4127 177.732 29.3952 178.105 27.7372C178.854 24.4065 179.145 23.5507 179.954 22.2857C180.695 21.128 181.559 20.4848 183.036 19.9887C184.256 19.5791 184.353 19.5727 189.224 19.5727L194.172 19.5729L195.169 20.0441C196.605 20.7234 196.914 21.229 197 23.0426C197.051 24.1158 196.982 24.8828 196.736 25.9905C196.551 26.814 196.207 28.3691 195.969 29.4462C195.731 30.5233 195.429 31.5147 195.298 31.6493C195.099 31.853 194.177 31.909 189.802 31.9834C186.91 32.0325 184.534 32.0877 184.519 32.1058C184.38 32.291 184.059 33.5409 183.719 35.2186C183.277 37.3992 183.328 37.9952 183.984 38.3466C184.15 38.4354 186.109 38.5036 188.501 38.5036C193.492 38.5036 193.377 38.4704 193.203 39.8774C192.994 41.5399 193.438 41.4442 186.053 41.4198C181.519 41.4047 179.367 41.3373 178.686 41.1891ZM189.116 28.5458C189.544 28.1917 190.174 25.5048 190.174 24.0407C190.174 22.4711 189.167 21.9363 187.621 22.6849C186.765 23.0993 186.332 23.9389 185.705 26.3955C185.242 28.2119 185.288 28.6192 185.971 28.7699C186.611 28.911 188.871 28.75 189.116 28.5458ZM22.2404 28.0998C19.8404 24.8974 18.2073 23.1404 15.6351 20.9934C13.0733 18.8552 11.0886 17.5643 7.84462 15.9261C5.25256 14.6171 4.43429 14.2814 1.76341 13.4307C1.04534 13.202 0.349961 12.9112 0.218261 12.7844C0.00806303 12.5822 0.0181812 12.5148 0.299859 12.2357C0.739838 11.7998 3.8458 10.5915 4.94575 10.4283C5.43942 10.3551 6.38058 10.1795 7.03712 10.038C8.64852 9.69084 10.4597 9.71613 12.0959 10.1085C12.8422 10.2873 13.6138 10.4337 13.8108 10.4337C14.3596 10.4337 16.8532 11.3236 18.1916 11.9971C20.8018 13.3106 22.8135 14.9027 24.619 17.084C25.6683 18.3517 26.0979 18.7568 26.3932 18.7568C26.6075 18.7568 27.3958 18.4641 28.1448 18.1066C28.9093 17.7417 30.4944 17.2048 31.7579 16.8826C33.8334 16.3535 34.1959 16.3088 36.409 16.3106C38.0421 16.3119 39.096 16.3915 39.7067 16.5596C40.2004 16.6954 40.946 16.8749 41.3638 16.9585C42.8944 17.2645 45.4829 18.4371 47.2953 19.6454C49.1555 20.8855 52.2706 23.8534 52.5128 24.6163C52.7068 25.228 52.4005 25.3719 51.4198 25.1301C48.2739 24.3542 39.0621 24.3921 35.8716 25.1942C33.7415 25.7295 32.2838 26.1399 31.4652 26.4348C29.2232 27.2422 27.708 27.8852 26.0203 28.7455C25.0004 29.2655 24.0009 29.691 23.7994 29.691C23.5262 29.691 23.1296 29.2861 22.2404 28.0998ZM159.574 16.842C157.487 16.3191 157.125 13.1136 158.928 11.1182C159.308 10.6968 160.048 10.0951 160.57 9.78093C161.422 9.26898 161.642 9.20974 162.695 9.20974C163.737 9.20974 163.95 9.26522 164.578 9.7034C165.573 10.3968 165.897 11.0849 165.808 12.3229C165.722 13.5142 165.396 14.2512 164.501 15.2671C163.571 16.3246 162.181 16.9675 160.88 16.9425C160.341 16.9321 159.754 16.8868 159.574 16.842ZM35.5404 10.632C31.7473 6.95745 27.3093 5.64845 21.5102 6.49381C20.3615 6.66125 18.8704 7.16945 17.5573 7.841C16.244 8.51256 15.6639 8.56902 14.2248 8.16527C13.5529 7.97678 12.6282 7.82256 12.1701 7.82256C11.111 7.82256 10.8208 7.70751 10.8208 7.2876C10.8208 6.43979 15.3561 3.16247 17.9537 2.13302C21.4015 0.766739 22.0749 0.641732 25.9981 0.641242C29.684 0.640753 29.5064 0.616767 32.8239 1.56119C34.3099 1.98419 37.4195 3.65581 38.8316 4.79052C40.4713 6.10817 42.9406 8.70709 43.0798 9.26147C43.2125 9.79039 42.8623 10.0802 41.2993 10.7351C40.6478 11.0082 39.6789 11.456 39.1464 11.7301C37.6125 12.52 37.433 12.4653 35.5404 10.632Z" fill="#2E2E2E"/>
</svg>
