<?xml version="1.0" encoding="UTF-8"?> <svg xmlns="http://www.w3.org/2000/svg" width="154.292" height="30" viewBox="0 0 154.292 30"><g id="Group_1005" data-name="Group 1005" transform="translate(-40 -75)"><path id="Path_496" data-name="Path 496" d="M112.118,134.075h.255a4.645,4.645,0,0,1,3.747,1.465c.675.874,1.013,2.029,1.013,4.62v2.113c0,2.225-.253,3.719-1.3,4.732a5.214,5.214,0,0,1-3.944,1.381h-.31a5.535,5.535,0,0,1-2.619-.592v4.34c0,.817-.226.986-1.184.986h-2.141c-.93,0-1.183-.169-1.183-.986v-16.9c0-.676.28-.9.987-.9h1.181c.705,0,.9.113,1.044.592l.2.62h.057A5.365,5.365,0,0,1,112.118,134.075Zm-3.153,9.071a1.415,1.415,0,0,0,1.662,1.72h.253a1.462,1.462,0,0,0,1.379-.565,4.688,4.688,0,0,0,.338-2.452v-1.21c0-1.3,0-2.057-.338-2.508a1.6,1.6,0,0,0-1.407-.506h-.2a1.634,1.634,0,0,0-1.324.423c-.309.309-.365.648-.365,1.492Z" transform="translate(-17.742 -50.027)" fill="#000000"></path><path id="Path_497" data-name="Path 497" d="M127.988,135.916a3.237,3.237,0,0,1,3.159-1.525h1.13c.593,0,.819.143.819.791v2.061c0,.621-.2.789-.762.789h-.846a2.952,2.952,0,0,0-2.146.594,2.741,2.741,0,0,0-.479,1.946V147.4c0,.536-.2.818-.96.818h-2.6c-.762,0-.96-.282-.96-.818V135.182c0-.563.226-.791.96-.791h1.355c.648,0,.874.143,1.015.65l.226.875Z" transform="translate(-22.167 -50.098)" fill="#000000"></path><path id="Path_498" data-name="Path 498" d="M141.552,142.333c0,1.243.086,1.722.507,2.147a1.584,1.584,0,0,0,1.184.393h.115a1.584,1.584,0,0,0,1.184-.393c.422-.425.508-.9.508-2.147v-2.2c0-1.242-.086-1.722-.508-2.145a1.578,1.578,0,0,0-1.184-.394h-.115a1.578,1.578,0,0,0-1.184.394c-.421.422-.507.9-.507,2.145Zm8.04-.2c0,2.879-.59,4.232-1.777,5.164a7.249,7.249,0,0,1-4.345,1.1h-.339a7.252,7.252,0,0,1-4.345-1.1c-1.186-.932-1.778-2.285-1.778-5.164V140.33c0-2.878.592-4.232,1.778-5.164a7.263,7.263,0,0,1,4.345-1.1h.339a7.26,7.26,0,0,1,4.345,1.1c1.187.932,1.777,2.257,1.777,5.136Z" transform="translate(-24.983 -50.025)" fill="#000000"></path><path id="Path_499" data-name="Path 499" d="M163.914,138.131a2.21,2.21,0,0,0-.339-1.495,1.66,1.66,0,0,0-1.327-.453h-.282a1.614,1.614,0,0,0-1.3.481c-.368.423-.4,1.1-.4,2.651v1.243c0,1.41.057,2.087.424,2.483a1.74,1.74,0,0,0,1.3.4h.31a1.724,1.724,0,0,0,1.213-.368,1.851,1.851,0,0,0,.4-1.355Zm0-4.994v-4.713c0-.536.2-.818.958-.818H167.5c.761,0,.932.282.932.818v12.839c0,2.229-.366,3.33-1.1,4.121-1.016,1.1-2.37,1.579-5.109,1.579h-.478c-2.4,0-3.613-.45-4.544-1.27-1.044-.9-1.467-2.51-1.467-4.769v-2.257c0-2.314.341-3.725,1.411-4.74a5.457,5.457,0,0,1,3.754-1.3h.337a6,6,0,0,1,2.623.509Z" transform="translate(-29.146 -48.589)" fill="#000000"></path><path id="Path_500" data-name="Path 500" d="M182.865,135.21c0-.535.2-.819.96-.819h2.6c.763,0,.96.284.96.819v8.354a4.655,4.655,0,0,1-1.269,3.725c-1.016.9-2.568,1.185-4.8,1.185s-3.782-.282-4.8-1.185a4.65,4.65,0,0,1-1.268-3.725V135.21c0-.535.2-.819.958-.819h2.6c.763,0,.96.284.96.819v7.959a1.871,1.871,0,0,0,.308,1.3,2.294,2.294,0,0,0,2.484,0,1.916,1.916,0,0,0,.309-1.3Z" transform="translate(-33.488 -50.098)" fill="#000000"></path><path id="Path_501" data-name="Path 501" d="M198.809,145.892c0,.536-.2.818-.96.818h-2.6c-.762,0-.961-.282-.961-.818V128.424c0-.536.2-.817.961-.817h2.6c.764,0,.96.281.96.817v9.2h.2l2.683-4.091a1.134,1.134,0,0,1,1.186-.65h3.273c.309,0,.48.114.48.34a1.146,1.146,0,0,1-.226.536l-3.246,4.853a1.759,1.759,0,0,0-.365.848,1.574,1.574,0,0,0,.365.847l3.472,5.473a.909.909,0,0,1,.167.48c0,.283-.225.451-.591.451H203.07c-.79,0-1.044-.141-1.382-.734l-2.683-4.74h-.2Z" transform="translate(-37.723 -48.589)" fill="#000000"></path><path id="Path_502" data-name="Path 502" d="M218.515,144.761a10.075,10.075,0,0,0,2.455-.367,2.757,2.757,0,0,1,.534-.085.542.542,0,0,1,.51.48l.253,1.44a4.55,4.55,0,0,1,.112.76c0,.368-.14.566-.733.763a12.644,12.644,0,0,1-4.061.65h-.34a6.244,6.244,0,0,1-4.459-1.413c-1.1-1.1-1.438-2.622-1.438-4.824v-1.636c0-2.766.478-4.008,1.438-4.968s2.4-1.495,4.658-1.495h.281a10.369,10.369,0,0,1,4.347.932c.393.2.534.394.534.705a2.524,2.524,0,0,1-.226.847l-.536,1.354c-.142.338-.281.509-.589.509a1.4,1.4,0,0,1-.51-.142,6.624,6.624,0,0,0-2.512-.564h-.112a2.17,2.17,0,0,0-1.607.535c-.566.565-.623,1.327-.623,2.6v.96a3.292,3.292,0,0,0,.567,2.369,2.336,2.336,0,0,0,1.833.593Z" transform="translate(-41.517 -50.025)" fill="#000000"></path><path id="Path_503" data-name="Path 503" d="M234.848,139.85c.255,0,.339-.113.339-.365v-.453a2.381,2.381,0,0,0-.283-1.3,1.438,1.438,0,0,0-1.3-.509h-.252a1.548,1.548,0,0,0-1.186.4,2.187,2.187,0,0,0-.424,1.522v.706Zm-.17,4.91a15.726,15.726,0,0,0,2.991-.367,2.772,2.772,0,0,1,.537-.085.54.54,0,0,1,.508.48l.226,1.412a4.712,4.712,0,0,1,.112.759c0,.369-.141.567-.733.763a14.456,14.456,0,0,1-4.261.679h-.537c-2.229,0-3.95-.481-4.908-1.442-1.131-1.127-1.413-2.566-1.413-4.851v-1.58c0-2.822.734-4.347,1.694-5.193a6.588,6.588,0,0,1,4.43-1.27h.4a5.683,5.683,0,0,1,4.26,1.411c.988,1.1,1.355,2.624,1.355,5.052v1.466c0,.594-.254.791-.819.791h-6.774v.226c0,1.326.65,1.75,2.624,1.75Z" transform="translate(-45.043 -50.025)" fill="#000000"></path><path id="Path_504" data-name="Path 504" d="M65.041,145.627c0,.537-.2.82-.961.82h-2.6c-.764,0-.96-.283-.96-.82V133.438c0-.536.2-.816.96-.816h2.6c.76,0,.961.28.961.816Zm-2.429-14.078c-1.637,0-2.285-.847-2.285-2.342v-.142c0-1.5.648-2.34,2.285-2.34h.337c1.638,0,2.287.844,2.287,2.34v.142c0,1.5-.649,2.342-2.287,2.342Z" transform="translate(-7.928 -48.393)" fill="#e82717"></path><path id="Path_505" data-name="Path 505" d="M69.793,138.409a4.176,4.176,0,0,1,1.1-3.161,6,6,0,0,1,4.288-1.268h.283a18.086,18.086,0,0,1,4.119.508c.481.142.536.309.481.733l-.312,2.314c-.057.366-.282.48-.762.366a13.647,13.647,0,0,0-2.99-.393h-.028c-1.241,0-1.667.2-1.667.762v.083c0,.536.369.705,1.611.96l1.325.281c2.4.507,3.358,1.5,3.358,3.865v.425c0,2.933-1.749,4.428-5.531,4.428h-.281a14.972,14.972,0,0,1-4.712-.761c-.508-.2-.593-.4-.481-.987l.4-1.862c.112-.593.452-.707.959-.538a12.826,12.826,0,0,0,3.386.65h.084c1.269,0,1.665-.254,1.665-.848v-.083c0-.481-.253-.648-1.665-.959l-1.241-.284c-2.4-.536-3.385-1.5-3.385-3.867Z" transform="translate(-9.979 -50.006)" fill="#e82717"></path><path id="Path_506" data-name="Path 506" d="M44.381,127.385l1,9.266,1.817-.2-.805-7.448,5.134-.553-.2-1.817Z" transform="translate(-4.381 -48.373)" fill="#000000"></path><path id="Path_507" data-name="Path 507" d="M47.7,158.293l-1.008-9.339,1.816-.2.813,7.526,5.133-.556.2,1.816Z" transform="translate(-4.894 -53.293)" fill="#000000"></path><path id="Path_508" data-name="Path 508" d="M86.835,153.942l-.2-1.815,5.134-.556-.809-7.509,1.816-.2,1.005,9.326Z" transform="translate(-13.78 -52.205)" fill="#000000"></path><path id="Path_509" data-name="Path 509" d="M89.419,131.882l-.8-7.43-5.134.554-.2-1.816,6.95-.75,1,9.247Z" transform="translate(-13.034 -47.439)" fill="#000000"></path></g></svg> 