<svg version="1.2" xmlns="http://www.w3.org/2000/svg" viewBox="0 0 1552 442" width="1552" height="442">
	<title>logo (48)-svg</title>
	<style>
		.s0 { fill: #003366 } 
		.s1 { fill: #fdc600 } 
	</style>
	<g id="Layer_2">
		<g id="Logo">
			<g id="Diamond">
				<path id="Layer" class="s0" d="m220.8 331.1l-110.4-110.3c23.3 71.4 0 220.7 0 220.7z"/>
				<path id="Layer" class="s1" d="m97.4 234.1l-97.4 97 86.4 86.6c4.9-14.7 8.8-29.8 11.7-45 2.9-15.2 4.8-30.6 5.8-46.1 0.9-15.5 0.8-31-0.3-46.4-1.1-15.5-3.1-30.9-6.2-46.1z"/>
			</g>
			<g id="Diamond-2">
				<path id="Layer" class="s0" d="m220.8 110.4l-110.4-110.4c23.3 71.7 0 220.8 0 220.8z"/>
				<path id="Layer" class="s1" d="m97.4 13.3l-97.4 97.1 86.4 86.3c4.9-14.7 8.8-29.7 11.7-44.9 2.9-15.2 4.8-30.6 5.7-46.1 1-15.4 0.9-30.9-0.2-46.4-1.1-15.4-3.1-30.8-6.2-46z"/>
			</g>
			<path id="E" class="s0" d="m556.6 110.4h178.9v50.7h-112.9v34.1h92.8v47.7h-92.8v37.7h120.8v50.7h-186.8v-220.9z"/>
			<path id="L" class="s0" d="m759.1 110.4h66v169.2h110.7v51.7h-176.7v-220.9z"/>
			<path id="L-2" class="s0" d="m951.5 110.4h66v169.2h110.8v51.7h-176.8v-220.9z"/>
			<path id="E-2" class="s0" d="m1143.9 110.4h179.1v50.7h-113v34.1h92.8v47.7h-92.8v37.7h120.8v50.7h-186.9v-220.9z"/>
			<path id="R" fill-rule="evenodd" class="s0" d="m1346.4 110.4h103q4.6-0.1 9.2 0.2 4.6 0.3 9.1 0.8 4.6 0.6 9.1 1.5 4.5 0.9 8.9 2.1 3.8 1 7.4 2.4 3.7 1.4 7.2 3.1 3.5 1.7 6.8 3.8 3.3 2.1 6.4 4.5 2.9 2.2 5.5 4.8 2.5 2.5 4.8 5.4 2.3 2.9 4.2 6 1.9 3.1 3.4 6.4 1.7 3.7 2.9 7.6 1.3 3.8 2.1 7.8 0.8 4 1.2 8 0.4 4 0.3 8.1 0.1 5-0.5 10-0.7 4.9-2.1 9.8-1.4 4.8-3.5 9.3-2.1 4.6-4.9 8.8-2.7 4-5.9 7.8-3.1 3.7-6.8 6.9-3.6 3.3-7.6 6.1-4 2.8-8.4 5.1l53.3 84.4h-70.9l-42.2-75.1h-27.6v75.1h-64.5zm96.6 99.8q2.9 0.1 5.7-0.3 2.9-0.4 5.6-1.3 2.8-0.9 5.3-2.3 2.5-1.4 4.7-3.3 2-1.8 3.6-3.9 1.6-2.2 2.7-4.7 1-2.4 1.5-5.1 0.5-2.6 0.4-5.3 0.1-2.8-0.3-5.5-0.5-2.7-1.5-5.3-1-2.6-2.5-4.9-1.6-2.3-3.6-4.2-2.3-1.9-4.8-3.4-2.6-1.4-5.5-2.3-2.8-1-5.7-1.3-3-0.4-5.9-0.2h-31.8v53.3z"/>
			<path id="K" class="s0" d="m548.7 110.4h-84l-68.8 68.9v-68.9h-64.5v220.9h64.5v-68.8l68.8 68.8h84l-110.4-110.4 110.4-110.5z"/>
		</g>
	</g>
</svg>