<svg xmlns="http://www.w3.org/2000/svg" viewBox="0 0 573.91 116.79"><defs><style>.cls-1{fill:#02264f;}</style></defs><g id="Vrstva_2" data-name="Vrstva 2"><g id="Vrstva_1-2" data-name="Vrstva 1"><path class="cls-1" d="M188,17.82c0-8.47,6.8-16.13,18.64-16.13,12.79,0,24.74,12.81,25.55,23.79V4.33C231.25,17.25,224,.74,206.53.74c-15.6,0-24.31,9.42-24.31,18.59,0,29.13,66.54,34.28,66.54,66.79,0,15.3-16.35,29.72-42.9,29.72-25.84,0-41-12-46.67-26.19h17.66l4.53-23.91c-.48,2-5.91,23-14.94,23h-7.62C154.35,76.57,156.65,63,165,54l.29-.29a1.4,1.4,0,0,0,.09.29,28.29,28.29,0,0,1,1.06,6.11V31.24s-.56,14-9.06,14h-21.3V2.65h30.36c9,0,14.46,21,14.94,23L176.85,1.69H124.64s5.73.57,5.73,9.06v77.7a23.39,23.39,0,0,1-6.15-.76c-5.47-1.51-7.46-4.83-8-5.9l-.14-.33h0c-4.85-11.23-10-30.39-25.16-34,13.17-1.79,22.15-10.31,22.15-22.7A21.08,21.08,0,0,0,105.45,8C100.69,4.06,94,1.79,86.14,1.7h-.63a33.68,33.68,0,0,0-7.67,1,59.43,59.43,0,0,0-7.07,2.18c-2,.74-4,1.57-6.1,2.46l-1.91.82A96.33,96.33,0,0,1,46.06,14a34.06,34.06,0,0,0-26-12.26H0s5.74.57,5.74,9.06V80.59c0,8.5-5.74,9.06-5.74,9.06H20.06c21,0,37-19.16,37-44,0-11.16-3.25-21.19-8.74-28.83l.42-.07h0c2.46-.42,4.88-1,5.88-1.28l.5-.14A65.66,65.66,0,0,0,61.93,13c1.06-.43,2.11-.85,3.14-1.29V80.59c0,8.5-5.75,9.06-5.75,9.06H76.49s-5.72-.56-5.72-9.06V47.77H85.66c20.6,0,16.57,32.89,30.82,40.37,0,0,.42.56,4.56.91,2,.17,4.74.37,8.72.49h.61l1,0c2.14.05,4.59.08,7.39.08H158c5.42,14.56,20.52,27.14,47.55,27.14,31.15,0,49-16.34,49-33.91C254.56,47.91,188,43,188,17.82ZM51.37,45.67c0,12.14-3.38,22.9-9,30.62S29,88.7,20.06,88.7H11.44V2.64h8.62c8.77,0,16.49,4.54,22.06,12C33.28,16,25.24,14.4,18.24,7.8,25.4,15.87,35,17.9,43.92,17.32,48.6,24.82,51.37,34.67,51.37,45.67Zm19.4,1.15V9.32C80.4,5.22,88.65,2.1,97,5.05c6.45,3.22,10.4,9.72,10.4,19.68,0,14.94-8.89,22.09-21.73,22.09ZM138,88.7h-1.88V46.15h21.3c4.35,0,6.62,3.65,7.79,7.22-.09.09-.19.17-.28.27-6,5.83-9.18,14.28-9.18,23.13a36.9,36.9,0,0,0,2,11.93Z"/><path class="cls-1" d="M259.82,17.07C259.82,8.61,266.64,1,278.48,1,291.26,1,303.21,13.76,304,24.73V3.59C303.06,16.51,295.79,0,278.35,0,262.76,0,254,9.42,254,18.59,254,45.3,307.17,46,307.17,71.38c0,10.17-9.33,18.27-22.55,18.27a32.1,32.1,0,0,1-25.41-12.92,34.93,34.93,0,0,1,.53,6.15V83c4.7,1.83,12.82,7.57,24.78,7.57,16.63,0,28-9.59,28-20.87C312.53,41,259.82,41.13,259.82,17.07Z"/><path class="cls-1" d="M477.5,1.69H457.43s5.74.57,5.74,9.06V80.59a13.32,13.32,0,0,1-.58,4.13c-.48,1.35-2.09,4.22-7,4.26-9.72.09-16.17-1-20.9-3C446.91,78.61,455,63.33,455,45.67,455,20.86,439,.74,418,.74s-37,20.11-37,44.93A53.49,53.49,0,0,0,385.35,67a55.31,55.31,0,0,0-5,5.81l-.67.91c-.37.52-.68,1-.89,1.28,0,0,0,0,0,0-3.33,4.57-12.35,14.59-27.2,14.59-17.82,0-29.41-19.69-29.41-44s12-44,29-44c12.61,0,24.39,12.81,25.18,23.79V4.33C375.37,17.25,368.2.74,351,.74c-20.38,0-34.59,20.11-34.59,44.93S330.25,90.6,351.23,90.6c12.55,0,23-6.81,29.7-17.39a56,56,0,0,1,4.75-5.47C391.91,81.39,403.84,90.6,418,90.6a32,32,0,0,0,15.86-4.2c4.67,2.1,11,3.29,20.61,3.29,1,0,2,0,3.07,0H477.5c21,0,37-19.16,37-44S498.47,1.69,477.5,1.69Zm-90.78,44c0-24.29,13.49-44,31.31-44s31.3,19.69,31.3,44c0,17.11-6.7,31.94-16.88,39.21-5-2.75-7.95-6.75-11.46-11.52a108.05,108.05,0,0,0-7-8.79c-4-4.43-8.51-6.47-13.34-6.06-4.12.36-8,2.42-11.32,5A60.68,60.68,0,0,1,386.72,45.67Zm31.31,44c-12.94,0-23.61-10.39-28.47-25.4,3.29-2.61,7.12-4.7,11.14-5,4.61-.4,8.91,1.57,12.77,5.84a105.72,105.72,0,0,1,7,8.73c3.5,4.76,6.44,8.76,11.37,11.57A24.52,24.52,0,0,1,418,89.65Zm81.8-13.36C494.24,84,486.4,88.7,477.5,88.7h-8.63V2.64h8.63c17.81,0,31.31,18.74,31.31,43C508.81,57.81,505.43,68.57,499.83,76.29Z"/><path class="cls-1" d="M559,88.7H528.59V46.15h21.3c8.51,0,9.07,14,9.07,14V31.24s-.56,14-9.07,14h-21.3V2.64H559c9.16,0,14.63,21.68,14.95,23l-4.55-24H517.15s5.74.57,5.74,9.06V80.59c0,8.5-5.74,9.06-5.74,9.06h52.22l4.54-24C573.59,67,568.12,88.7,559,88.7Z"/></g></g></svg>