<svg width="490" height="136" viewBox="0 0 490 136" fill="none" xmlns="http://www.w3.org/2000/svg">
<path d="M69.5637 63.1123L78.3994 48.6665C87.6559 33.5195 92.5647 27.629 104.626 17.3908C97.7539 6.87203 87.7962 1.54253 74.7529 1.54253C61.4292 1.54253 47.6847 7.43303 38.2879 17.1103C30.8547 24.824 25.8057 36.044 25.8057 45.02C25.8057 54.4168 33.2389 61.1488 43.4772 61.1488C61.2889 61.1488 80.2227 41.7943 81.0642 22.7203C81.2044 21.7385 81.3447 21.3178 81.7654 21.3178C82.3264 21.3178 82.6069 21.8788 82.6069 22.8605C82.6069 31.9768 75.7347 45.1603 67.0392 52.7338C59.8864 59.045 51.0507 62.6915 43.3369 62.6915C31.4157 62.6915 23.7019 54.2765 23.7019 41.3735C23.7019 20.897 49.3677 -0.000217184 74.7529 -0.000217184C87.7962 -0.000217184 98.5954 5.75003 105.748 16.409C115.986 7.99403 123.981 3.50603 128.749 3.50603C129.45 3.50603 129.871 3.78653 129.871 4.06703C129.871 4.62803 129.731 4.62803 127.206 5.04878C121.456 6.45128 113.462 11.6405 106.87 18.2323C111.218 25.946 113.602 35.483 113.602 44.8798C113.602 70.265 89.7597 96.071 66.3379 96.071C60.0267 96.071 55.9594 95.0893 45.5809 90.8818C36.0439 95.2295 29.1717 96.9125 20.4762 96.9125C8.83541 96.9125 -0.00034436 93.1258 -0.00034436 88.217C-0.00034436 84.0095 6.31091 81.3448 16.5492 81.3448C24.8239 81.3448 29.1717 82.607 44.7394 89.0585C54.1362 83.5888 61.5694 75.875 69.5637 63.1123ZM43.0564 90.0403C29.1717 85.1315 21.5982 83.5888 12.4819 83.5888C6.17066 83.5888 1.26191 85.6925 1.26191 88.4975C1.26191 92.2843 9.53666 95.2295 19.9152 95.2295C28.7509 95.2295 35.4829 93.6868 43.0564 90.0403ZM89.6194 42.4955L80.9239 57.7828C73.7712 70.826 61.7097 82.4668 47.4042 90.0403C55.2582 93.266 60.5877 94.5283 66.7587 94.5283C77.9787 94.5283 86.5339 89.6195 95.2294 78.5398C104.346 66.899 110.096 50.9105 110.096 37.727C110.096 30.7145 108.693 24.824 105.748 19.3543C100.839 24.5435 95.3697 32.3975 89.6194 42.4955ZM130.201 64.2343L129.359 65.0758L123.048 71.6675L116.316 79.5215L107.761 91.022C107.2 91.583 106.779 92.2843 106.218 92.9855C105.797 93.9673 105.377 94.1075 103.413 94.1075L98.785 94.388C98.785 93.827 98.785 93.827 100.187 91.8635L107.34 82.4668L120.103 64.655L123.89 58.484C125.292 56.24 126.134 54.2765 126.134 53.0143C126.134 52.1728 125.012 51.4715 123.89 51.4715C122.066 51.4715 117.859 54.1363 114.493 57.362L110.706 61.289C107.901 64.094 107.621 64.5148 106.639 65.6368C106.218 66.1978 105.938 66.338 105.657 66.338C105.377 66.338 105.096 66.0575 105.096 65.777C105.096 65.0758 106.919 62.6915 109.023 60.4475L112.67 56.9413C114.353 55.2583 117.298 53.0143 119.121 51.8923L119.822 51.4715L120.383 51.191C121.646 50.2093 123.188 49.7885 124.591 49.7885C127.536 49.7885 128.939 51.191 128.939 54.2765C128.939 57.0815 127.536 60.728 124.17 66.0575L120.944 71.5273L129.079 62.972L130.481 61.1488L132.164 57.923C134.969 51.8923 140.299 46.4225 142.543 47.1238C143.104 47.5445 143.384 47.825 143.384 48.2458C143.384 50.4898 143.384 50.4898 132.445 62.5513C132.024 63.1123 131.183 66.0575 131.183 67.3198C131.183 69.704 132.305 70.6858 135.25 70.6858C135.39 70.6858 135.671 70.6858 135.811 70.5455L137.073 70.4053C137.213 70.4053 137.354 70.5455 137.354 70.5455C137.494 71.387 135.811 72.0883 134.128 72.0883C131.183 72.0883 129.92 70.6858 129.92 67.3198C129.92 66.338 129.92 65.4965 130.201 64.2343ZM169.673 65.3563L179.911 50.9105C180.332 51.0508 180.612 51.3313 180.612 51.6118C180.612 53.0143 169.953 67.6003 162.8 76.1555L159.855 79.5215C151.44 89.9 144.287 94.8088 137.696 94.8088C133.348 94.8088 130.262 91.022 130.262 85.8328C130.262 79.241 133.067 72.509 138.116 66.4783C146.531 56.6608 156.068 50.4898 162.52 50.4898C164.904 50.4898 166.868 52.313 166.868 54.557C166.868 58.2035 163.502 62.972 158.172 66.6185C154.245 69.2833 146.952 72.2285 143.586 72.509C140.641 72.6493 140.501 72.7895 138.958 75.4543C134.891 82.7473 133.909 85.412 133.909 88.9183C133.909 91.4428 135.592 93.1258 138.257 93.1258C144.287 93.1258 150.599 88.6378 158.873 78.5398L169.673 65.3563ZM144.989 65.9173L141.482 71.2468C142.043 71.2468 142.464 71.387 142.464 71.387C144.287 71.387 148.916 69.8443 151.3 68.582C157.19 65.0758 163.361 57.6425 163.361 53.8558C163.361 52.874 162.38 52.0325 161.117 52.0325C158.873 52.0325 156.489 53.435 153.123 56.6608C149.757 59.8865 146.672 63.3928 144.989 65.9173ZM213.314 47.264L208.967 53.1545C208.125 54.2765 207.704 55.679 207.704 57.362C207.704 58.9048 207.985 60.728 208.686 63.6733C209.387 66.1978 209.528 67.46 209.528 69.8443C209.528 75.1738 207.845 79.9423 204.619 84.1498C199.991 90.1805 193.259 94.1075 187.368 94.1075C184.002 94.1075 181.478 91.8635 180.356 87.7963C174.605 92.4245 168.575 94.5283 161.422 94.5283C158.336 94.5283 156.233 94.2478 154.83 93.4063C152.867 92.2843 151.184 88.9183 151.184 85.8328C151.184 79.6618 156.373 72.9298 161.141 72.9298C162.824 72.9298 164.227 74.4725 164.227 76.436C164.227 78.5398 162.544 80.5033 160.861 80.5033C159.739 80.5033 158.477 79.241 158.477 77.9788C158.477 77.1373 158.757 76.2958 159.178 75.1738C155.812 76.5763 153.007 81.6253 153.007 86.534C153.007 90.0403 155.391 92.8453 158.196 92.8453C162.404 92.8453 167.873 88.3573 171.941 81.6253C174.886 76.7165 176.288 71.948 177.27 63.3928C177.551 61.1488 177.691 59.606 178.252 55.8193C179.514 49.7885 180.496 47.1238 182.459 44.3188C184.002 42.215 185.685 40.8125 186.527 40.8125C187.088 40.8125 187.649 41.3735 187.649 42.0748C187.649 42.9163 186.807 44.5993 185.124 46.703L182.179 50.63C180.356 53.0143 179.654 54.8375 179.654 57.7828V58.7645L180.496 67.8808C180.636 69.0028 180.636 69.0028 180.636 70.826C180.636 79.802 174.886 88.778 166.611 92.8453C171.8 91.583 175.727 89.4793 180.075 85.8328C180.356 79.6618 184.423 74.3323 189.051 74.3323C189.612 74.3323 190.033 74.4725 190.734 74.753C200.692 62.411 203.497 58.9048 206.723 53.8558C208.406 47.4043 211.912 42.3553 214.436 42.3553C214.997 42.3553 215.278 42.6358 215.278 43.4773C215.278 44.3188 214.717 45.581 213.314 47.264ZM205.46 62.411L205.881 57.923C200.832 64.9355 199.43 66.6185 191.856 76.0153C191.996 76.7165 191.996 77.1373 191.996 77.4178C191.996 79.6618 190.173 81.485 188.069 81.485H187.789L187.228 81.3448C184.844 83.8693 183.722 84.9913 181.758 86.6743C182.6 90.3208 184.563 92.4245 187.368 92.4245C192.417 92.4245 197.326 88.0768 201.253 80.0825C203.777 75.0335 204.479 72.2285 205.46 62.411ZM181.758 84.4303C183.722 82.7473 184.283 82.046 185.966 80.2228C185.825 79.802 185.825 79.241 185.825 78.9605C185.825 78.2593 185.966 77.6983 186.246 76.997C184.283 77.6983 182.179 81.2045 181.758 84.4303ZM236.205 82.046L242.236 75.0335C242.797 75.1738 243.077 75.4543 243.077 75.875C243.077 76.7165 239.851 80.5033 234.522 85.973C228.491 92.2843 224.845 94.2478 219.375 94.2478C214.045 94.2478 210.82 90.0403 210.82 83.168C210.82 78.5398 213.625 71.5273 216.85 67.8808L220.076 64.2343L224.003 60.3073L228.07 56.9413C233.68 52.4533 239.29 49.6483 242.937 49.6483C245.742 49.6483 247.144 51.0508 247.144 53.996C247.144 58.3438 243.638 63.8135 240.833 63.8135C240.132 63.8135 239.29 62.8318 239.29 61.85C239.29 59.8865 240.973 57.2218 243.638 54.9778C245.041 53.8558 245.321 53.435 245.321 52.5935C245.321 51.6118 244.48 50.9105 243.217 50.9105C240.693 50.9105 237.748 52.5935 234.101 56.0998L229.192 60.728L225.125 65.6368C219.094 72.6493 214.466 82.607 214.466 88.217C214.466 91.022 216.43 92.8453 219.655 92.8453C224.704 92.8453 229.473 89.7598 236.205 82.046ZM257.243 86.6743L253.877 89.6195C250.231 92.9855 246.304 95.0893 243.92 95.0893C240.133 95.0893 237.328 91.7233 237.328 86.9548C237.328 77.9788 244.481 66.899 255.981 58.3438L261.311 54.2765C263.555 52.5935 268.604 50.63 270.707 50.63C272.811 50.63 274.634 53.1545 274.634 55.8193C274.634 60.0268 270.988 69.2833 267.482 74.4725L266.78 75.314L266.64 75.7348L266.36 76.0153V76.1555L266.5 76.2958C266.921 76.436 267.061 76.436 267.201 76.436C268.604 76.436 272.39 74.4725 275.195 72.0883C276.878 70.6858 276.878 70.6858 282.629 64.655C283.19 64.094 283.751 63.3928 284.312 62.6915C284.732 62.411 285.153 61.9903 285.434 61.5695C285.854 61.0085 285.995 60.8683 286.275 60.8683C286.415 60.8683 286.836 61.289 286.836 61.5695C286.836 62.6915 278.561 71.5273 275.055 74.192C271.829 76.5763 268.183 78.119 265.799 78.119H264.957L262.433 81.2045L257.243 86.6743ZM252.615 67.8808L246.725 76.2958C242.938 81.7655 240.413 87.7963 240.413 91.3025C240.413 92.5648 241.816 93.6868 243.499 93.6868C246.164 93.6868 249.53 91.8635 252.755 88.6378L256.542 84.7108L258.365 82.4668L262.433 76.8568L262.573 76.2958C262.573 76.1555 262.573 75.875 262.433 75.5945C262.292 75.1738 262.292 74.8933 262.292 74.6128C262.292 71.5273 264.957 67.1795 266.921 67.1795C267.061 67.1795 267.201 67.1795 267.341 67.3198H267.902C269.585 67.3198 273.092 59.3255 273.092 55.679C273.092 53.7155 271.689 52.1728 270.006 52.1728C267.482 52.1728 263.414 55.118 259.487 59.7463L252.615 67.8808ZM293.193 79.1008L286.321 86.9548C281.553 92.4245 278.888 94.388 276.083 94.388C273.558 94.388 271.174 91.022 271.174 87.5158C271.174 76.8568 278.888 65.6368 293.334 55.118C297.261 52.313 303.151 49.9288 306.096 49.9288C307.779 49.9288 308.901 51.0508 309.322 53.1545H309.603L333.726 17.9518L342.842 4.90853C343.964 3.36578 344.805 2.94503 347.049 2.94503H347.19C348.312 2.94503 348.312 2.94503 348.592 3.36578L341.299 13.604L315.353 52.1728L299.505 76.0153L295.157 83.5888C293.614 86.2535 292.352 89.4793 292.352 91.022C292.352 91.8635 293.053 92.4245 294.035 92.4245C297.12 92.4245 302.029 88.6378 307.779 81.7655L312.408 76.1555C312.828 75.7348 313.109 75.5945 313.249 75.5945C313.389 75.5945 313.67 75.875 313.67 76.1555C313.67 76.7165 313.53 77.1373 313.109 77.558L308.34 83.3083C305.115 86.6743 303.432 88.4975 303.432 88.4975C298.523 92.8453 296.7 93.9673 294.035 93.9673C291.51 93.9673 289.827 91.8635 289.827 88.778C289.827 86.2535 290.809 83.5888 293.193 79.1008ZM286.181 67.7405L281.272 74.3323C277.766 78.9605 274.119 87.3755 274.119 90.7415C274.119 92.0038 274.961 92.8453 276.223 92.8453C279.028 92.8453 281.833 90.461 288.565 82.046L294.456 74.6128L301.749 64.9355L305.956 57.923C307.078 56.0998 307.779 54.4168 307.779 53.1545C307.779 52.313 306.798 51.4715 305.816 51.4715C302.73 51.4715 297.12 55.679 291.23 62.1305L286.181 67.7405ZM338.562 80.2228L343.611 73.631C343.751 73.3505 344.312 73.07 344.733 73.07C344.873 73.07 345.154 73.3505 345.154 73.631C345.154 74.8933 339.544 82.046 335.617 85.8328C329.446 91.8635 324.116 94.5283 318.647 94.5283C314.159 94.5283 311.073 90.7415 311.073 85.2718C311.073 77.6983 315.421 69.0028 322.574 62.1305L325.238 59.4658C331.409 53.5753 337.861 50.069 342.629 50.069C345.154 50.069 347.117 51.752 347.117 53.996C347.117 58.484 342.77 64.094 336.879 67.3198C332.111 70.1248 326.641 72.0883 323.836 72.2285C321.171 72.3688 321.171 72.3688 320.049 74.4725L318.366 77.4178C315.982 81.7655 314.72 85.8328 314.72 89.0585C314.72 91.3025 316.543 92.9855 318.927 92.9855C323.976 92.9855 330.848 89.1988 335.336 83.8693L338.562 80.2228ZM322.714 70.1248L322.433 70.9663C327.062 70.5455 330.428 69.2833 333.513 66.7588C339.544 62.2708 343.611 56.9413 343.611 53.7155C343.611 52.5935 342.629 51.6118 341.507 51.6118C338.001 51.6118 331.409 57.362 326.36 64.7953L322.714 70.1248Z" fill="white"/>
</svg>
