<svg xmlns="http://www.w3.org/2000/svg" viewBox="0 0 464.94 114.74"><defs><style>.cls-1{fill:#02264f;}</style></defs><g id="Vrstva_2" data-name="Vrstva 2"><g id="Vrstva_1-2" data-name="Vrstva 1"><path class="cls-1" d="M76.19,63c0-10,6.74-10.66,6.74-10.66H62.73S69.47,53,69.47,63V92.07c-5.4,5.65-14.76,12.56-28.15,12.56-21,0-34.6-23.17-34.6-51.76S20.86,1.12,40.84,1.12c14.83,0,28.69,15.07,29.64,28V4.23C69.37,19.44,60.94,0,40.69,0,16.71,0,0,23.67,0,52.87s16.29,52.88,41,52.88A39.38,39.38,0,0,0,69.47,93.48a49,49,0,0,0,6.72-8.62Z"/><path class="cls-1" d="M147.75,94,116.12,1.12H115L83.38,94C80.14,103.51,73,104.63,73,104.63h14.6S81.18,103.69,84.5,94l9-26.41h38.34L141,94c3.29,9.41-3,10.66-3,10.66h20.18S150.77,102.84,147.75,94ZM93.88,66.44l18.65-54.78.17.57,18.75,54.21Z"/><path class="cls-1" d="M227.19,1.12s6.75.66,6.75,10.66V84c-15.21-4.09-30,1.58-46.31,8.7-5.06,2.22-10,4.2-14.86,5.87V12.47c0-10.43,7-11.13,7-11.13H158.71s7,.7,7,11.13V96a16.69,16.69,0,0,1-.65,4.91c-1.49,4.88-5,6-6.09,6.18.84-.06,1.67-.14,2.49-.23s1.76-.21,2.63-.33l1.46-.23h0l1.19-.22c3.43-.63,6.64-1.44,8-1.8l.78-.22a102.43,102.43,0,0,0,10.69-3.62c18.32-7.36,33.14-15.66,47.62-14.23v3c-.32,3.42-3.37,13-27.34,14.1-28.94,1.34-29.11,11.17-29.11,11.4,0,0,2.81-10.11,28.24-8.51a82.75,82.75,0,0,0,21-1.16c.59-.11,1.15-.23,1.68-.35h0l.4-.09-.31.06a15.87,15.87,0,0,0,10.64-9.57,21.83,21.83,0,0,0,1.48-6.44v-1a32.35,32.35,0,0,1,4.91,2,45.66,45.66,0,0,1,10.33,7.38,63.31,63.31,0,0,0-10.83-8.3,47,47,0,0,0-4.41-2.33v-33h25.07c10,0,10.66,16.43,10.66,16.43v-34s-.66,16.43-10.66,16.43H240.65V2.24h35.73c10.62,0,17,24.73,17.59,27L288.62,1.12Z"/><path class="cls-1" d="M276.38,103.51h-38.5a8.17,8.17,0,0,1-1,1.12h51.71L294,76.49C293.4,78.78,287,103.51,276.38,103.51Z"/><path class="cls-1" d="M334.72,54.94c15.51-2.1,26.08-12.12,26.08-26.71a24.87,24.87,0,0,0-9-19.64c-5.66-4.71-13.65-7.41-23-7.47H297.53s6.75.66,6.75,10.66V94c0,10-6.75,10.66-6.75,10.66h20.21S311,104,311,94V55.35h17.53c27.36,0,17.79,49.28,43.9,49.28C361.69,104.63,360.27,61.05,334.72,54.94ZM311,54.23v-52h17.53c15.11,0,25.57,8.42,25.57,26s-10.46,26-25.57,26Z"/><path class="cls-1" d="M394.54,1.12H374.33s6.75.66,6.75,10.66V94c0,10-6.75,10.66-6.75,10.66h20.21S387.79,104,387.79,94V11.78C387.79,1.78,394.54,1.12,394.54,1.12Z"/><path class="cls-1" d="M447.36,103.51H411.63V53.43H436.7c10,0,10.66,16.43,10.66,16.43v-34s-.66,16.43-10.66,16.43H411.63V2.24h35.73c10.62,0,17,24.73,17.58,27L459.6,1.12H398.17s6.74.66,6.74,10.66V94c0,10-6.74,10.66-6.74,10.66H459.6l5.34-28.14C464.37,78.78,458,103.51,447.36,103.51Z"/></g></g></svg>