<svg width="506" height="242" viewBox="0 0 506 242" fill="none" xmlns="http://www.w3.org/2000/svg">
<path d="M39.6926 241.785C33.3568 241.785 27.1141 240.853 20.9647 238.99C15.0016 237.126 10.0634 233.865 6.15011 229.207C2.05048 224.548 0.000658755 217.933 0.000658755 209.361C0.000658755 203.211 1.67778 198.087 5.03203 193.987C8.19992 190.074 10.8088 188.117 12.8586 188.117C13.2313 188.117 13.604 188.303 13.9767 188.676C12.2996 190.167 10.902 192.589 9.78387 195.944C8.85214 199.298 8.38627 202.839 8.38627 206.565C8.38627 214.206 10.902 221.007 15.9333 226.97C21.151 232.934 28.6049 235.915 38.295 235.915C51.3392 235.915 62.9859 232.654 73.235 226.132C83.6704 219.796 93.081 211.317 101.467 200.696C110.039 190.26 118.051 178.893 125.505 166.594C129.046 160.817 132.214 155.693 135.009 151.22C137.991 146.562 140.693 142.369 143.115 138.642C138.084 144.232 132.214 150.102 125.505 156.252C118.983 162.401 111.995 168.178 104.541 173.582C97.2738 178.8 89.7267 182.993 81.9001 186.16C74.2599 189.515 66.7129 191.192 59.259 191.192C51.8051 191.192 45.3761 188.956 39.9721 184.483C34.568 180.011 31.866 172.184 31.866 161.004C31.866 150.568 34.1953 140.226 38.854 129.977C43.5127 119.541 49.6621 109.479 57.3023 99.7887C45.3761 98.2979 35.5929 95.3164 27.9527 90.844C20.3125 86.3717 16.4924 79.8496 16.4924 71.2776C16.4924 65.3145 18.1695 60.3763 21.5237 56.463C24.878 52.3634 29.0708 49.1023 34.1022 46.6798C39.3199 44.2573 44.8171 42.3938 50.5939 41.0894C56.557 39.785 62.0542 38.9464 67.0856 38.5737C72.3033 38.201 76.4029 38.0147 79.3845 38.0147C80.3162 38.0147 82.4592 38.1078 85.8134 38.2942C89.354 38.2942 93.081 38.4805 96.9943 38.8532C101.094 39.0396 104.634 39.4123 107.616 39.9713C110.598 40.5304 112.088 41.1826 112.088 41.928C112.088 42.6733 111.436 43.046 110.132 43.046C107.709 43.046 105.007 42.9529 102.026 42.7665C99.0441 42.3938 96.0625 42.2075 93.081 42.2075C90.8448 42.2075 88.6086 42.2075 86.3725 42.2075C84.1363 42.2075 81.9933 42.3006 79.9435 42.487C76.2166 42.6733 71.5579 43.1392 65.9675 43.8846C60.3771 44.4436 54.7867 45.7481 49.1963 47.7979C43.7922 49.6614 39.2267 52.5497 35.4998 56.463C31.7728 60.19 29.9093 65.3145 29.9093 71.8366C29.9093 78.7315 32.7045 84.1355 38.295 88.0488C44.0717 91.7758 51.5256 94.1983 60.6566 95.3164C69.4149 84.8809 79.3845 75.2841 90.5653 66.5258C101.746 57.5811 113.113 49.8477 124.667 43.3256C136.407 36.8034 147.681 31.6789 158.489 27.9519C169.483 24.225 179.08 22.3615 187.279 22.3615C192.683 22.3615 197.715 23.3864 202.373 25.4362C207.032 27.2997 209.361 31.3062 209.361 37.4556C209.361 44.7232 206.473 51.5248 200.696 57.8606C195.106 64.1964 187.559 69.9732 178.055 75.1909C168.551 80.4086 157.93 84.9741 146.19 88.8874C134.45 92.6143 122.337 95.5027 109.852 97.5525C97.3669 99.6023 85.4407 100.627 74.0736 100.627H72.9555C64.9426 110.876 58.5136 121.591 53.6686 132.772C49.0099 143.767 46.6806 154.482 46.6806 164.917C46.6806 172.557 48.2645 177.868 51.4324 180.85C54.6003 183.831 58.5136 185.322 63.1723 185.322C67.6446 185.322 72.3964 184.39 77.4278 182.527C82.6455 180.663 87.5837 178.427 92.2424 175.818C96.9011 173.023 100.814 170.414 103.982 167.992C111.436 162.215 118.61 156.159 125.505 149.823C132.587 143.487 138.829 137.524 144.233 131.934C149.824 126.343 154.11 121.778 157.091 118.237C160.818 113.392 164.172 109.013 167.154 105.1C170.322 101 174.328 98.9501 179.173 98.9501C182.341 98.9501 183.925 100.348 183.925 103.143C183.925 105.379 182.9 106.963 180.85 107.895C176.192 108.081 171.813 109.665 167.713 112.647C163.8 115.442 160.818 119.355 158.768 124.386C155.787 131.654 152.805 139.108 149.824 146.748C146.842 154.388 143.488 162.029 139.761 169.669C133.611 182.527 125.878 194.453 116.561 205.447C107.43 216.442 96.5284 225.2 83.8568 231.722C71.1852 238.431 56.4638 241.785 39.6926 241.785ZM76.3097 96.1549C86.5588 95.9686 97.4601 94.8505 109.014 92.8007C120.567 90.5645 131.841 87.583 142.836 83.856C154.016 80.1291 164.079 75.8431 173.024 70.9981C182.155 65.9667 189.422 60.5627 194.826 54.7859C200.23 48.8228 202.932 42.7665 202.932 36.6171C202.932 32.3311 201.255 29.5359 197.901 28.2315C194.733 26.927 191.286 26.2748 187.559 26.2748C179.919 26.2748 171.347 28.1383 161.843 31.8652C152.339 35.4058 142.463 40.344 132.214 46.6798C122.151 53.0156 112.275 60.4695 102.585 69.0414C92.8946 77.4271 84.1363 86.4649 76.3097 96.1549ZM205.723 150.941V150.382C202.09 155.134 200.412 157.09 198.456 159.047L188.114 170.507C181.405 177.216 173.578 182.247 168.827 182.247C163.516 182.247 159.602 176.377 159.602 168.83C159.602 156.811 165.193 143.114 174.417 132.772L181.405 124.946L192.306 114.883L203.487 106.777C213.27 99.2296 224.172 94.7573 231.719 94.7573C235.912 94.7573 238.148 96.9935 238.148 101.745V102.863V104.261C239.825 102.584 240.663 101.745 241.502 100.348C244.856 96.1549 245.136 95.8754 253.801 95.8754C254.08 96.4344 254.08 96.714 254.08 96.9935C254.08 97.5525 253.801 98.1116 252.683 99.2296L240.943 114.883L221.376 141.996L210.475 158.208C202.649 171.905 202.09 173.303 202.09 176.377C202.09 177.775 203.767 179.172 205.444 179.172C209.357 179.172 216.345 174.421 222.774 167.433L235.912 153.457L261.907 120.473L279.237 97.5525C280.076 96.714 280.635 96.4344 281.194 96.4344C281.473 96.4344 281.753 96.714 281.753 97.273C281.753 98.3911 271.97 111.808 244.856 146.469L231.998 161.563L222.215 171.346C215.507 178.334 209.357 181.968 204.326 181.968C200.692 181.968 197.617 177.775 197.617 173.023C197.617 167.433 200.412 159.886 205.723 150.941ZM188.673 131.374L180.287 141.996C170.504 155.134 164.634 166.874 164.634 174.141C164.634 177.216 166.87 179.452 169.665 179.452C173.858 179.452 180.287 174.98 187.554 167.153L198.735 154.854L219.42 128.579C230.601 114.324 235.632 105.659 235.632 101.466C235.632 99.2296 233.396 97.273 230.88 97.273C225.01 97.273 217.184 102.025 206.841 112.088L197.338 121.591L188.673 131.374ZM274.42 98.1116L338.989 8.66502C345.138 0.279413 345.698 -0.000104077 353.524 -0.000104077C354.083 -0.000104077 354.363 0.279413 354.363 0.55893C354.363 0.838446 353.245 2.51558 350.17 6.42887L348.493 8.94455L282.526 103.143C255.133 141.996 240.039 167.433 240.039 174.421C240.039 176.657 241.436 178.054 243.393 178.054C251.22 178.054 262.959 167.712 281.408 144.791L293.986 129.418C294.825 128.3 295.104 128.02 295.663 128.02C295.943 128.02 296.502 128.579 296.502 129.418C296.502 130.256 296.222 131.374 295.384 132.213L285.601 144.791C265.755 169.948 252.338 181.409 242.834 181.409C237.803 181.409 233.889 176.936 233.889 171.346C233.889 159.327 245.07 138.922 274.42 98.1116ZM327.931 159.606L318.147 169.669C311.439 176.377 302.215 181.409 295.786 181.409C287.121 181.409 280.692 173.582 280.692 162.681C280.692 147.587 287.68 133.611 302.494 118.237C317.588 102.584 335.478 91.9621 346.379 91.9621C350.572 91.9621 354.485 95.8754 354.485 100.068C354.485 116.28 327.371 135.288 301.376 136.965C293.27 148.146 287.121 162.681 287.121 170.787C287.121 174.98 291.034 178.334 296.065 178.334C303.892 178.334 313.395 171.905 324.017 159.606L341.348 139.481L365.945 107.336C373.772 97.273 380.201 92.5212 386.63 92.5212C390.543 92.5212 393.338 96.1549 393.338 101.186C393.338 110.131 385.791 121.312 379.921 121.312C379.083 121.312 378.244 120.473 378.244 119.635C378.244 119.076 378.244 119.076 379.642 116.839C384.114 110.131 387.468 102.025 387.468 98.9501C387.468 96.9935 386.071 95.5959 384.394 95.5959C380.76 95.5959 374.331 100.627 368.741 108.174L342.745 142.276L327.931 159.606ZM309.762 124.666L303.333 133.89C320.383 133.89 347.776 111.808 347.776 98.3911C347.776 96.4344 346.099 94.7573 344.143 94.7573C340.788 94.7573 335.757 97.273 332.123 100.348L322.061 109.572L309.762 124.666ZM336.172 181.129L335.333 180.291L346.514 164.917L372.51 127.182L382.852 110.97L386.486 104.261C387.604 101.745 390.399 99.5092 391.797 99.5092C392.356 99.5092 392.356 99.5092 392.635 103.143C392.915 107.056 390.678 112.926 385.088 122.709L379.218 133.331V133.611L394.033 117.678L397.387 113.206L400.741 105.938C405.773 94.4778 414.717 84.4151 419.469 84.4151C420.867 84.4151 421.985 85.5331 421.985 86.9307C421.985 90.844 415.556 100.068 408.009 107.895L401.58 114.044C399.903 116.001 398.785 118.796 398.785 122.15C398.785 125.784 400.462 128.02 403.257 128.02C407.729 128.02 410.245 126.343 421.705 116.001C423.941 113.765 424.78 113.206 425.619 113.206C425.898 113.206 426.457 113.765 427.016 115.162C423.662 117.958 422.264 119.355 420.587 121.032C412.202 128.859 408.288 131.095 402.977 131.095C398.505 131.095 395.989 128.02 395.43 121.312L381.454 136.406L368.876 152.059L349.309 180.011L336.172 181.129ZM416.303 135.288L402.886 154.575C396.736 163.519 393.102 171.066 393.102 175.539C393.102 177.775 395.059 179.452 397.575 179.452C403.724 179.452 410.153 175.259 419.936 165.756C426.645 158.767 437.267 146.748 438.944 143.953C439.223 143.394 439.223 143.394 440.062 143.394C440.621 143.394 441.18 143.953 441.18 144.512C441.18 146.748 428.881 161.004 419.936 169.389C409.594 178.893 403.445 182.247 396.177 182.247C390.028 182.247 386.953 178.893 386.953 172.184C386.953 165.196 390.587 155.972 397.854 144.791L403.165 136.685C405.401 133.89 410.712 126.623 414.626 121.312L429.161 102.584C435.031 95.3164 435.031 95.3164 442.857 95.3164C443.416 95.3164 443.975 95.5959 444.814 95.8754L416.303 135.288ZM448.168 76.5885V76.0294C448.168 72.3957 452.081 69.0414 456.274 69.0414C459.628 69.0414 461.864 70.9981 461.864 74.0728C461.864 77.7066 457.951 81.0608 453.479 81.0608C450.125 81.0608 448.168 79.3837 448.168 76.5885ZM488.607 153.457L498.669 140.319C498.949 139.76 500.067 139.201 500.906 139.201C501.185 139.201 501.744 139.76 501.744 140.319C501.744 142.835 490.563 157.09 482.737 164.637C470.438 176.657 459.816 181.968 448.915 181.968C439.97 181.968 433.821 174.421 433.821 163.519C433.821 148.425 442.486 131.095 456.741 117.398L462.052 112.088C474.351 100.348 487.209 93.3597 496.713 93.3597C501.744 93.3597 505.657 96.714 505.657 101.186C505.657 110.131 496.992 121.312 485.252 127.741C475.749 133.331 464.847 137.244 459.257 137.524C453.946 137.803 453.946 137.803 451.71 141.996L448.356 147.866C443.604 156.531 441.088 164.637 441.088 171.066C441.088 175.539 444.722 178.893 449.474 178.893C459.537 178.893 473.233 171.346 482.178 160.724L488.607 153.457ZM457.021 133.331L456.462 135.008C465.686 134.17 472.395 131.654 478.544 126.623C490.563 117.678 498.669 107.056 498.669 100.627C498.669 98.3911 496.713 96.4344 494.477 96.4344C487.489 96.4344 474.351 107.895 464.288 122.709L457.021 133.331Z" fill="white"/>
</svg>
