<svg width="381" height="155" viewBox="0 0 381 155" fill="none" xmlns="http://www.w3.org/2000/svg">
<path d="M94.2763 49.0117L86.6363 62.562C82.8883 69.4812 75.1041 79.8602 70.2029 84.6172C55.7877 98.5999 41.3726 105.375 26.0924 105.375C18.3082 105.375 10.3799 101.771 5.62288 96.2935C2.01908 92.1131 0.000953381 85.9146 0.000953381 79.2836C0.000953381 57.3725 23.9302 35.8939 48.1477 35.8939C61.9863 35.8939 72.2211 44.1105 72.2211 55.2102C72.2211 60.688 69.9146 66.5982 66.3108 70.6345C64.2927 72.7967 61.5538 74.8149 60.5448 74.8149C60.1123 74.8149 59.824 74.3824 59.824 73.95C59.824 73.3733 59.9681 73.2292 61.1214 72.5084C66.7433 69.3371 70.6354 62.2737 70.6354 55.2102C70.6354 44.8313 61.2655 37.4795 48.1477 37.4795C36.0389 37.4795 23.9302 43.2456 14.7044 53.3362C7.0644 61.697 2.16323 72.7967 2.16323 81.7342C2.16323 94.2754 12.6863 103.789 26.6691 103.789C37.4805 103.789 49.1568 98.8882 56.941 91.104C62.2746 85.7704 71.3561 74.5266 74.6716 68.9046L87.2129 48.1468C95.862 34.5965 112.151 16.8658 125.99 5.7661C122.963 6.77517 118.926 9.36991 111.575 15.136L101.34 23.6409C95.862 28.2538 91.2491 30.5602 87.7895 30.5602C83.6091 30.5602 80.4377 27.533 80.4377 23.4968C80.4377 20.6137 81.7351 18.4515 86.0596 13.5503C88.5102 10.8114 89.6634 8.93745 89.6634 7.35177C89.6634 5.4778 87.7895 4.18044 85.0506 4.18044C75.6807 4.18044 62.707 11.9646 56.076 21.767C55.067 23.2085 54.4904 23.7851 53.9138 23.7851C53.4813 23.7851 53.193 23.4968 53.193 23.2085C53.193 21.9111 57.6617 16.5775 61.8421 12.9737C69.1939 6.63101 77.843 2.88307 84.9064 2.88307C89.3751 2.88307 92.8348 5.4778 92.8348 8.93745C92.8348 11.2439 91.8257 13.8386 89.8076 16.2892L85.0506 22.6319C84.1857 23.6409 83.7532 24.7942 83.7532 25.8032C83.7532 27.3889 85.483 28.8304 87.5012 28.8304C91.2491 28.8304 95.1412 26.9564 100.187 22.776L109.412 15.136C118.061 8.07254 124.981 3.60383 127.72 3.60383C128.296 3.60383 128.873 4.03628 128.873 4.61289C128.873 5.04534 128.44 5.4778 127.143 6.63101C117.341 13.8386 108.403 24.65 99.1775 40.0743L96.2944 45.1196C98.0243 45.6962 98.745 45.9845 100.331 46.7052C115.322 42.3807 127.287 35.1731 139.828 22.9202L148.333 14.7035C157.703 5.4778 167.938 2.36424e-05 176.155 2.36424e-05C178.029 2.36424e-05 180.479 1.15324 180.479 2.01815C180.479 2.30646 180.047 2.59476 179.758 2.59476C179.47 2.59476 179.182 2.45061 178.749 2.30646C177.596 1.72985 177.019 1.5857 176.01 1.5857C168.947 1.5857 161.307 5.18949 154.532 11.9646L144.585 21.767C131.612 35.0289 118.206 43.2456 102.061 47.5702C110.998 52.7596 116.332 63.8593 117.196 79.4277L117.773 87.7885C118.494 100.33 125.125 108.114 135.215 108.114C141.27 108.114 145.45 106.384 149.486 102.204C150.063 101.627 150.496 101.339 150.928 101.339C151.216 101.339 151.793 101.771 151.793 102.204C151.793 102.492 151.36 103.069 150.64 103.645C145.883 107.826 141.27 109.555 134.783 109.555C127.864 109.555 121.809 106.672 117.196 101.051C112.728 96.0052 110.421 88.5093 109.845 77.6979C109.268 59.6789 106.385 51.0298 99.8982 48.1468C97.8801 48.5792 96.871 48.7234 94.2763 49.0117ZM172.82 79.4277L172.099 80.7251C174.55 80.1485 175.991 78.5628 180.028 72.9409L186.514 63.571C189.974 58.2374 194.587 54.3453 197.182 54.3453C199.056 54.3453 200.93 56.2193 200.93 58.0932C200.93 62.2737 196.173 70.9228 193.866 70.9228C193.001 70.9228 191.848 70.202 191.848 69.7695C191.848 69.6254 192.28 68.9046 192.713 67.8956L195.163 63.4269C196.317 61.5529 197.47 58.0932 197.47 57.0842C197.47 56.5076 197.182 56.0751 196.605 56.0751C195.163 56.0751 190.983 59.6789 188.532 63.2827L180.748 74.6707C177 79.8602 173.973 82.4549 171.667 82.5991C171.09 82.5991 170.658 82.7432 170.658 82.7432C170.369 82.8874 170.225 83.0315 169.36 84.3289C167.198 87.2119 162.297 92.4014 158.837 95.2844C154.801 98.5999 151.053 100.33 148.17 100.33C145.287 100.33 142.26 95.861 142.26 91.6806C142.26 85.6263 146.008 77.2654 151.053 71.7877L155.522 66.8865L160.279 62.4178L165.036 59.1023C169.937 55.4985 173.252 54.057 176.28 54.057C178.442 54.057 180.316 56.2193 180.316 58.6699C180.316 63.2827 179.451 66.5982 177.289 71.0669L173.973 77.5538L172.82 79.4277ZM157.828 71.7877L154.513 76.4005C148.891 84.1847 145.719 90.8157 145.719 94.7078C145.719 97.3026 146.873 98.7441 148.747 98.7441C151.63 98.7441 155.522 96.4377 158.981 92.5456L163.738 87.5002C165.468 85.4821 168.495 81.1576 168.495 80.4368C168.495 80.4368 168.495 80.1485 168.351 79.8602C168.207 79.5719 168.207 79.1394 168.207 78.8511C168.207 77.2654 168.784 75.3915 169.793 73.6617C170.658 72.2201 172.243 70.6345 172.676 70.6345L174.117 70.7786C174.261 70.7786 174.838 70.202 175.126 69.6254C177.433 65.8774 178.73 62.1295 178.73 59.2465C178.73 57.2283 177.577 55.7868 175.703 55.7868C173.108 55.7868 168.928 58.5257 165.18 62.8503L161.288 67.319L157.828 71.7877ZM170.755 99.609L170.61 98.8882L183.007 81.4459L193.242 66.7424L197.711 59.6789C199.152 58.5257 200.017 57.9491 200.45 57.8049C200.738 58.5257 200.738 58.814 200.738 59.2465C200.738 61.5529 199.873 64.2918 198.143 67.1748L193.963 74.3824L199.729 67.8956C207.657 59.1023 213.423 54.6336 216.883 54.6336C219.045 54.6336 220.343 56.5076 220.343 59.6789C220.343 63.2827 217.892 68.328 213.568 73.8058L202.035 88.3651C199.152 91.8248 197.567 94.852 197.567 96.8701C197.567 97.8792 198.432 98.5999 199.729 98.5999C201.459 98.5999 202.9 98.0233 204.919 96.4377C207.802 94.2754 211.982 90.3833 214 88.0768L223.082 77.6979L235.767 61.4087L238.362 57.8049C238.938 57.2283 239.515 56.5076 240.092 55.7868H240.812L240.956 56.0751C241.101 56.0751 241.101 56.0751 241.101 56.2193C241.101 56.3634 241.101 56.3634 237.353 61.8412L227.55 74.5266L218.036 85.9146L213.423 90.8157C207.802 96.8701 202.612 100.041 198.864 100.041C196.125 100.041 193.963 97.8792 193.963 94.852C193.963 90.8157 196.702 85.6263 202.18 79.1394L210.54 69.3371C215.009 64.0035 217.604 59.6789 217.604 57.6608C217.604 56.94 217.027 56.3634 216.018 56.3634C214.144 56.3634 211.405 58.3815 205.928 63.7152L201.603 68.1839L194.684 75.8239L180.124 95.1403C176.665 99.8973 176.665 99.8973 173.493 99.8973C172.917 99.8973 171.908 99.7531 170.755 99.609ZM240.356 53.1921L235.455 53.3362H234.878C233.581 53.3362 232.86 53.0479 232.86 52.6155C232.86 52.0389 233.437 51.6064 234.158 51.6064H241.509L254.195 34.3082C254.771 33.5874 256.934 33.155 259.817 33.155C260.249 33.155 260.393 33.2991 260.393 33.4433C260.393 33.7316 260.249 33.8757 259.817 34.4523C256.069 38.7769 250.303 46.7052 247.131 51.4623L254.339 51.3181H255.204C256.501 51.3181 257.222 51.4623 257.222 52.0389C257.222 52.4713 256.357 52.9038 254.916 52.9038L245.978 53.0479C244.392 55.3544 242.807 57.6608 241.077 59.9672C223.058 85.4821 218.878 92.1131 218.878 96.0052C218.878 97.3026 219.742 98.3116 220.752 98.3116C223.923 98.3116 231.563 91.5365 241.509 79.716L247.42 72.7967C247.564 72.6526 247.708 72.5084 247.852 72.5084C248.14 72.5084 248.429 73.085 248.429 73.3733C248.429 74.2383 239.635 84.6172 233.725 90.8157C227.815 96.8701 223.346 99.8973 220.319 99.8973C218.157 99.8973 216.715 97.4467 216.715 93.4105C216.715 90.9599 217.436 88.5093 219.022 84.7613C221.328 79.1394 223.346 76.1122 233.725 62.2737C235.888 59.3906 238.194 56.3634 240.356 53.1921ZM260.879 84.0406V83.7523C259.005 86.2029 258.14 87.2119 257.131 88.221L251.797 94.1312C248.338 97.5909 244.301 100.186 241.851 100.186C239.112 100.186 237.094 97.1584 237.094 93.2663C237.094 87.0678 239.977 80.0043 244.734 74.6707L248.338 70.6345L253.959 65.445L259.726 61.2646C264.771 57.3725 270.393 55.0661 274.285 55.0661C276.447 55.0661 277.6 56.2193 277.6 58.6699V59.2465V59.9672C278.465 59.1023 278.898 58.6699 279.33 57.9491C281.06 55.7868 281.204 55.6427 285.673 55.6427C285.817 55.931 285.817 56.0751 285.817 56.2193C285.817 56.5076 285.673 56.7959 285.096 57.3725L279.042 65.445L268.951 79.4277L263.329 87.7885C259.293 94.852 259.005 95.5727 259.005 97.1584C259.005 97.8792 259.87 98.5999 260.735 98.5999C262.753 98.5999 266.356 96.1493 269.672 92.5456L276.447 85.338L289.853 68.328L298.791 56.5076C299.223 56.0751 299.511 55.931 299.8 55.931C299.944 55.931 300.088 56.0751 300.088 56.3634C300.088 56.94 295.043 63.8593 281.06 81.7342L274.429 89.5184L269.384 94.5637C265.924 98.1675 262.753 100.041 260.158 100.041C258.284 100.041 256.698 97.8792 256.698 95.4286C256.698 92.5456 258.14 88.6535 260.879 84.0406ZM252.085 73.95L247.761 79.4277C242.716 86.2029 239.688 92.2572 239.688 96.0052C239.688 97.5909 240.842 98.7441 242.283 98.7441C244.445 98.7441 247.761 96.4377 251.509 92.4014L257.275 86.0587L267.942 72.5084C273.708 65.1567 276.303 60.688 276.303 58.5257C276.303 57.3725 275.15 56.3634 273.852 56.3634C270.825 56.3634 266.789 58.814 261.455 64.0035L256.554 68.9046L252.085 73.95ZM285.783 80.5809L274.539 99.0324C274.251 99.4648 273.674 99.7531 273.098 99.7531H271.656H271.368H270.359H270.071C269.782 99.7531 269.494 99.7531 268.917 99.3207L270.215 96.4377L279.873 80.8692L303.226 46.9935L321.965 20.7579L328.452 12.1088C331.768 7.78423 332.056 7.49593 335.227 7.49593C336.236 7.49593 336.381 7.64008 336.669 8.07254L331.335 14.9918L323.407 26.3798L291.693 71.7877C292.703 72.076 293.567 72.2201 294 72.2201C297.604 72.2201 305.388 67.6073 309.568 62.9944L314.037 57.9491C315.767 56.0751 318.073 54.9219 320.38 54.9219C322.398 54.9219 323.839 56.3634 323.839 58.3815C323.839 61.2646 321.245 64.0035 318.65 64.0035C317.208 64.0035 316.199 62.8503 316.199 61.2646C316.199 59.8231 316.776 58.814 318.217 56.94L316.199 58.0932L310.722 64.5801C307.55 68.1839 303.226 70.7786 296.018 73.5175C298.757 76.1122 299.766 77.8421 299.766 80.2926C299.766 82.7432 299.189 85.1938 298.18 87.7885L296.45 91.9689C295.73 93.8429 295.297 95.4286 295.297 96.8701C295.297 97.735 296.162 98.5999 297.171 98.5999C299.622 98.5999 303.658 95.861 307.838 91.3923L313.605 85.0497L324.272 71.3552L335.371 56.3634C335.804 56.3634 336.236 56.6517 336.236 56.94C336.236 57.2283 335.948 57.8049 335.371 58.6699L327.155 70.0579L319.659 80.0043L313.46 87.5002C306.397 96.0052 300.487 100.474 296.018 100.474C292.847 100.474 290.108 97.8792 290.108 94.9961C290.108 92.978 290.684 90.6716 291.549 88.3651L293.856 82.7432C294.721 81.0134 295.153 78.9953 295.153 77.4096C295.153 75.6798 294.432 74.5266 293.567 74.5266C293.423 74.5266 292.991 74.5266 292.703 74.6707H289.531L285.783 80.5809ZM336.082 53.1921L331.181 53.3362H330.604C329.307 53.3362 328.586 53.0479 328.586 52.6155C328.586 52.0389 329.163 51.6064 329.884 51.6064H337.235L349.921 34.3082C350.497 33.5874 352.66 33.155 355.543 33.155C355.975 33.155 356.119 33.2991 356.119 33.4433C356.119 33.7316 355.975 33.8757 355.543 34.4523C351.795 38.7769 346.029 46.7052 342.857 51.4623L350.065 51.3181H350.93C352.227 51.3181 352.948 51.4623 352.948 52.0389C352.948 52.4713 352.083 52.9038 350.641 52.9038L341.704 53.0479C340.118 55.3544 338.533 57.6608 336.803 59.9672C318.784 85.4821 314.603 92.1131 314.603 96.0052C314.603 97.3026 315.468 98.3116 316.477 98.3116C319.649 98.3116 327.289 91.5365 337.235 79.716L343.146 72.7967C343.29 72.6526 343.434 72.5084 343.578 72.5084C343.866 72.5084 344.155 73.085 344.155 73.3733C344.155 74.2383 335.361 84.6172 329.451 90.8157C323.541 96.8701 319.072 99.8973 316.045 99.8973C313.883 99.8973 312.441 97.4467 312.441 93.4105C312.441 90.9599 313.162 88.5093 314.748 84.7613C317.054 79.1394 319.072 76.1122 329.451 62.2737C331.613 59.3906 333.92 56.3634 336.082 53.1921ZM342.189 104.798L356.028 83.1757C346.226 94.9961 340.892 99.4648 337 99.4648C334.838 99.4648 333.396 97.3026 333.396 94.2754C333.396 89.0859 337.432 80.4368 343.919 71.9318L354.01 58.6699C356.172 55.7868 356.749 55.3544 357.614 55.3544L361.794 55.0661C362.371 55.0661 362.659 55.0661 362.659 55.3544L362.227 55.931L344.784 79.8602C340.027 86.347 335.703 94.2754 335.703 96.5818C335.703 97.4467 336.423 98.1675 337.144 98.1675C341.324 98.1675 352.136 87.2119 362.947 72.076L373.326 57.5166C374.768 55.3544 375.633 55.0661 379.813 55.0661C380.101 55.0661 380.39 55.2102 380.39 55.3544C380.39 55.4985 380.39 55.4985 379.957 55.931L379.092 57.3725L376.93 60.5438L367.416 73.95C361.938 81.8783 357.902 88.221 348.676 103.357C351.703 102.78 353.289 102.636 356.316 102.636C359.343 102.636 360.497 102.924 360.497 103.645C360.497 104.078 360.208 104.222 359.632 104.222H358.911C357.902 104.078 356.893 104.078 356.172 104.078C354.154 104.078 350.983 104.51 347.523 105.087C335.126 126.133 330.946 132.043 322.873 139.539C313.647 148.332 302.259 154.675 296.205 154.675C292.889 154.675 290.727 152.513 290.727 149.197C290.727 135.215 316.819 112.727 342.189 104.798ZM340.892 106.961C320.278 113.736 292.169 137.809 292.169 148.765C292.169 151.504 293.754 153.522 295.772 153.522C301.25 153.522 307.449 149.341 317.107 139.251C326.189 129.737 329.648 124.98 340.892 106.961Z" fill="white"/>
</svg>
