<svg xmlns="http://www.w3.org/2000/svg" viewBox="0 0 459.88 102.27"><defs><style>.cls-1{fill:#02264f;}</style></defs><g id="Vrstva_2" data-name="Vrstva 2"><g id="Vrstva_1-2" data-name="Vrstva 1"><path class="cls-1" d="M15.07,55C28,52.09,35.25,35.62,38.65,25.33h0c1.88-5.93,7.9-8.73,7.9-8.73H34.63s5.22,1.26,3,8.73C33.9,36.4,25.61,54.54,11,54.54V25.33c0-8.18,5.53-8.73,5.53-8.73H0s5.53.55,5.53,8.73v67.3c0,8.18-5.53,8.73-5.53,8.73H16.55S11,100.81,11,92.63V55.46c22.57,0,15.25,45.9,39.31,45.9C41.44,101.36,35.8,59.87,15.07,55Z"/><path class="cls-1" d="M80.88,15.69c-20.2,0-35.66,19.38-35.66,43.29s15.46,43.29,35.66,43.29S116.55,82.89,116.55,59,101.09,15.69,80.88,15.69Zm0,85.67c-17.16,0-30.16-19-30.16-42.38s13-42.38,30.16-42.38,30.17,19,30.17,42.38S98.05,101.36,80.88,101.36Z"/><path class="cls-1" d="M213.36,92.63V17.46A81.84,81.84,0,0,0,224.1,14c21.57-8.66,37-19,54.53-2.66C260.15-6,243.93-.31,225.13,7.9c-21.06,9.19-51,7-65.95-7.12a45.83,45.83,0,0,0,13,9.56V91.5s-28.93-52.37-39.7-70.91C125.72,9,115.82.39,87,0c20.44.38,30.33,6.66,38,17.54V92.63c0,8.18-5.52,8.73-5.52,8.73h12s-5.53-.55-5.53-8.73V18.9c.77,1.17,1.53,2.38,2.27,3.65,12.3,20.91,44.06,78.8,44.06,78.81h.92V10.81c11.72,5.9,26.23,9.17,34.76,7.78v74c0,8.18-5.52,8.73-5.52,8.73h16.54S213.36,100.81,213.36,92.63Z"/><path class="cls-1" d="M281.08,92.63l-25.9-76h-.91l-25.89,76c-2.66,7.81-8.5,8.73-8.5,8.73h12s-5.26-.77-2.55-8.73L236.66,71h31.4l7.48,21.63c2.69,7.71-2.48,8.73-2.48,8.73h16.52A13.17,13.17,0,0,1,281.08,92.63ZM237,70.09h0l15.28-44.86.14.47,15.35,44.39Z"/><path class="cls-1" d="M341.82,16.6l-4.4,23.18s5.31-22.26,14.43-22.26h13.48V86.58c-6.25,3.15-11.49,8.47-17.75,11.14a13.4,13.4,0,0,1-2.52.86c-6.36,1.53-10.21-3.7-11.9-6.83-6-12.56-13.08-33.39-27.4-36.74,12.89-2.92,20.18-19.39,23.58-29.68h0c1.88-5.93,7.9-8.73,7.9-8.73H325.32s5.22,1.26,3,8.73c-3.76,11.07-12.05,29.21-26.64,29.21V25.33c0-8.18,5.53-8.73,5.53-8.73H290.69s5.53.55,5.53,8.73v67.3c0,8.18-5.53,8.73-5.53,8.73h16.55s-5.53-.55-5.53-8.73V55.46c21.26,0,16,40.71,35.43,45.44,9.1,2.81,16.92-4.48,24.18-10.13a44.28,44.28,0,0,1,4-2.73v4.59c0,8.18-5.53,8.73-5.53,8.73h16.55s-5.52-.55-5.52-8.73V85.79c6.37-1.14,13,2.74,17.37,7.29-4.24-4.89-10.78-9-17.37-8.29V17.52h13.48c9.12,0,14.43,22.26,14.43,22.26L394.33,16.6Z"/><path class="cls-1" d="M447.92,16.6s5.06,1,1.35,8.73L430.59,64.49,411.9,25.33c-3.64-7.65,1.36-8.73,1.36-8.73H396.72s5.95.88,9.69,8.73l19.14,40.12V92.63c0,8.18-5.53,8.73-5.53,8.73h16.55s-5.52-.55-5.52-8.73V65.45l19.14-40.12c3.69-7.74,9.69-8.73,9.69-8.73Z"/></g></g></svg>