<svg width="210" height="131" viewBox="0 0 210 131" fill="none" xmlns="http://www.w3.org/2000/svg">
<path d="M6.59969 58.2002L6.11969 57.7202C2.15969 54.4802 -0.000312597 49.3202 -0.000312597 43.0802C-0.000312597 33.7202 4.67969 23.8802 12.8397 16.2002C22.9197 6.72023 38.7597 0.000227451 51.3597 0.000227451C64.4397 0.000227451 73.5597 9.00023 73.5597 22.0802C73.5597 32.1602 70.0797 43.5602 64.0797 53.8802C60.4797 59.7602 56.0397 65.6402 50.2797 71.4002C39.1197 82.9202 29.0397 88.5602 19.9197 88.5602C11.1597 88.5602 4.43969 80.4002 4.43969 69.7202C4.43969 66.1202 5.15969 62.5202 6.59969 58.2002ZM61.3197 11.6402H60.5997C60.2397 11.5202 60.1197 11.5202 59.7597 11.5202C54.5997 11.5202 46.9197 15.4802 40.0797 21.7202C28.4397 32.1602 17.8797 46.8002 12.7197 59.7602C15.9597 60.8402 18.7197 61.3202 21.9597 61.3202C32.1597 61.3202 44.8797 54.3602 52.1997 44.6402C55.5597 40.0802 57.7197 34.9202 57.7197 31.4402C57.7197 30.3602 57.8397 30.1202 58.1997 30.1202C58.7997 30.1202 59.1597 30.7202 59.1597 31.5602C59.1597 35.1602 56.8797 40.5602 53.3997 45.2402C45.4797 55.8002 32.7597 62.7602 21.3597 62.7602C18.1197 62.7602 15.5997 62.2802 12.1197 61.2002C9.47969 69.3602 8.87969 72.2402 8.87969 75.9602C8.87969 82.3202 13.5597 87.2402 19.6797 87.2402C27.4797 87.2402 35.1597 83.2802 44.8797 74.0402C60.2397 59.6402 72.2397 36.1202 72.2397 20.5202C72.2397 9.60023 62.9997 1.20023 50.9997 1.20023C27.8397 1.20023 2.15969 24.3602 2.15969 45.2402C2.15969 50.2802 3.47969 53.1602 7.19969 56.6402C11.9997 45.3602 19.3197 35.8802 31.5597 25.5602C42.5997 16.0802 53.8797 9.96023 60.2397 9.96023C61.4397 9.96023 62.1597 10.3202 62.1597 10.9202C62.1597 11.2802 61.7997 11.6402 61.3197 11.6402ZM82.9712 83.7602L54.5312 126.36C52.2513 129.72 51.6512 130.44 50.8112 130.56C50.6912 130.56 49.6112 130.68 47.4512 130.8C46.6112 130.8 46.1312 130.68 46.1312 130.32C46.1312 129.96 46.2512 129.72 46.8512 129L47.5712 128.16L105.171 44.6402C106.851 42.2402 107.091 42.0002 108.531 41.8802L109.731 41.7602C109.971 41.6402 110.331 41.6402 110.331 41.6402C110.931 41.6402 111.171 41.7602 111.171 42.0002C111.171 42.3602 111.051 42.6002 100.131 57.8402C106.131 52.0802 109.491 49.9202 112.491 49.9202C114.651 49.9202 116.091 52.3202 116.091 55.8002C116.091 61.2002 112.971 67.5602 106.851 74.4002C99.6513 82.5602 91.6113 87.9602 86.5712 87.9602C84.1712 87.9602 83.2112 86.7602 82.9712 83.7602ZM111.771 51.4802C108.171 51.4802 100.371 58.4402 93.4113 68.0402C86.5712 77.4002 84.1712 81.4802 84.1712 84.0002C84.1712 85.4402 85.2512 86.6402 86.5712 86.6402C90.2913 86.6402 97.0113 80.7602 103.971 71.4002C109.611 63.7202 113.451 56.4002 113.451 53.2802C113.451 52.2002 112.731 51.4802 111.771 51.4802ZM131.189 51.7202L158.909 13.3202C161.549 9.72023 161.789 9.60023 165.149 9.60023C165.389 9.60023 165.509 9.72023 165.509 9.84023C165.509 9.96023 165.029 10.6802 163.709 12.3602L162.989 13.4402L134.669 53.8802C122.909 70.5602 116.429 81.4802 116.429 84.4802C116.429 85.4402 117.029 86.0402 117.869 86.0402C121.229 86.0402 126.269 81.6002 134.189 71.7602L139.589 65.1602C139.949 64.6802 140.069 64.5602 140.309 64.5602C140.429 64.5602 140.669 64.8002 140.669 65.1602C140.669 65.5202 140.549 66.0002 140.189 66.3602L135.989 71.7602C127.469 82.5602 121.709 87.4802 117.629 87.4802C115.469 87.4802 113.789 85.5602 113.789 83.1602C113.789 78.0002 118.589 69.2402 131.189 51.7202ZM166.761 62.7602L175.521 50.4002C175.881 50.5202 176.121 50.7602 176.121 51.0002C176.121 52.2002 167.001 64.6802 160.881 72.0002L158.361 74.8802C151.161 83.7602 145.041 87.9602 139.401 87.9602C135.681 87.9602 133.041 84.7202 133.041 80.2802C133.041 74.6402 135.441 68.8802 139.761 63.7202C146.961 55.3202 155.121 50.0402 160.641 50.0402C162.681 50.0402 164.361 51.6002 164.361 53.5202C164.361 56.6402 161.481 60.7202 156.921 63.8402C153.561 66.1202 147.321 68.6402 144.441 68.8802C141.921 69.0002 141.801 69.1202 140.481 71.4002C137.001 77.6402 136.161 79.9202 136.161 82.9202C136.161 85.0802 137.601 86.5202 139.881 86.5202C145.041 86.5202 150.441 82.6802 157.521 74.0402L166.761 62.7602ZM145.641 63.2402L142.641 67.8002C143.121 67.8002 143.481 67.9202 143.481 67.9202C145.041 67.9202 149.001 66.6002 151.041 65.5202C156.081 62.5202 161.361 56.1602 161.361 52.9202C161.361 52.0802 160.521 51.3602 159.441 51.3602C157.521 51.3602 155.481 52.5602 152.601 55.3202C149.721 58.0802 147.081 61.0802 145.641 63.2402ZM173.982 59.1602L174.582 54.6002C175.182 50.8802 175.902 48.4802 177.342 45.8402C178.302 44.0402 180.702 41.7602 181.542 41.7602C182.022 41.7602 182.502 42.2402 182.502 42.8402C182.502 43.5602 181.662 45.2402 180.462 46.8002L177.822 50.1602C176.142 52.3202 175.782 53.4002 175.782 55.9202C175.782 56.2802 175.782 56.8802 175.902 57.1202L176.862 64.9202L176.982 67.3202C176.982 78.0002 167.862 87.8402 157.902 87.8402C153.942 87.8402 150.942 84.6002 150.942 80.1602C150.942 75.0002 155.382 69.2402 159.342 69.2402C160.902 69.2402 162.102 70.5602 162.102 72.2402C162.102 74.0402 160.662 75.7202 159.222 75.7202C158.142 75.7202 157.182 74.6402 157.182 73.5602C157.182 72.8402 157.422 72.1202 157.782 71.1602C155.022 72.2402 152.382 76.9202 152.382 80.6402C152.382 84.0002 154.422 86.2802 157.302 86.2802C160.662 86.2802 164.382 83.6402 168.102 78.7202C171.102 74.6402 173.142 69.1202 173.622 63.6002L173.982 59.1602ZM202.164 75.4802L206.484 69.8402C206.604 69.6002 207.084 69.3602 207.444 69.3602C207.564 69.3602 207.804 69.6002 207.804 69.8402C207.804 70.9202 203.004 77.0402 199.644 80.2802C194.364 85.4402 189.804 87.7202 185.124 87.7202C181.284 87.7202 178.644 84.4802 178.644 79.8002C178.644 73.3202 182.364 65.8802 188.484 60.0002L190.764 57.7202C196.044 52.6802 201.564 49.6802 205.644 49.6802C207.804 49.6802 209.484 51.1202 209.484 53.0402C209.484 56.8802 205.764 61.6802 200.724 64.4402C196.644 66.8402 191.964 68.5202 189.564 68.6402C187.284 68.7602 187.284 68.7602 186.324 70.5602L184.884 73.0802C182.844 76.8002 181.764 80.2802 181.764 83.0402C181.764 84.9602 183.324 86.4002 185.364 86.4002C189.684 86.4002 195.564 83.1602 199.404 78.6002L202.164 75.4802ZM188.604 66.8402L188.364 67.5602C192.324 67.2002 195.204 66.1202 197.844 63.9602C203.004 60.1202 206.484 55.5602 206.484 52.8002C206.484 51.8402 205.644 51.0002 204.684 51.0002C201.684 51.0002 196.044 55.9202 191.724 62.2802L188.604 66.8402Z" fill="white"/>
</svg>
