<svg xmlns="http://www.w3.org/2000/svg" viewBox="0 0 475.25 96.31"><defs><style>.cls-1{fill:#02264f;}</style></defs><g id="Vrstva_2" data-name="Vrstva 2"><g id="Vrstva_1-2" data-name="Vrstva 1"><path class="cls-1" d="M31.41,1H0s5.66.56,5.66,8.94v69c0,8.39-5.66,9-5.66,9H17s-5.66-.56-5.66-9V52.05H30.47c15.79,0,27.09-10.26,27.09-25.55C57.56,11.5,46.71,1.35,31.41,1Zm-.94,50.16H11.29V1.88H30.47c12.68,0,21.46,9.87,21.46,24.62S43.15,51.11,30.47,51.11Z"/><path class="cls-1" d="M246.94,43.89s5.66.55,5.66,8.94v24.4A32.43,32.43,0,0,1,229,87.78c-17.59,0-29-19.44-29-43.42S211.82.94,228.58.94c12.45,0,24.08,12.64,24.87,23.48V3.55c-.92,12.75-8-3.55-25-3.55-20.12,0-34.14,19.86-34.14,44.36S208,88.71,228.68,88.71A33,33,0,0,0,252.6,78.42a41.19,41.19,0,0,0,5.64-7.23V52.83c0-8.39,5.66-8.94,5.66-8.94Z"/><path class="cls-1" d="M458.29,87.78h17s-5.66-.56-5.66-9v-70C470,1.45,475.22.94,475.22.94H464L437.18,79.53,410.43.94h-11.3s5.66.56,5.66,8.94v32.5c-9.66-6.45-18.66-4.93-28.38-1.2L362.7.94h-.93L345,50.19a23.51,23.51,0,0,1-15.66-6.64,25.56,25.56,0,0,0,15.09,8.3l-9.19,27c-2.58,7.6-8.12,8.84-8.67,8.94C317.64,87.56,316.4,51.2,295,46.09c13-1.76,21.87-10.17,21.87-22.4a20.81,20.81,0,0,0-7.54-16.48C304.62,3.25,297.92,1,290.1.94H263.82s5.66.56,5.66,8.94v69c0,8.39-5.66,9-5.66,9h17s-5.66-.56-5.66-9V46.43h14.7c22.91,0,15,41.2,36.71,41.35h12.26s-5.4-.79-2.61-8.94L343,58.75l.71-2.08.32-.93L345,53l.35-1a37.56,37.56,0,0,0,9.53.09c.52,0,1-.13,1.53-.2l.85-.13h0c2.25-.38,4.46-.93,5.37-1.17l.46-.13a59.87,59.87,0,0,0,6.21-2.11c1.11-.44,2.2-.9,3.27-1.35l2.21,6.4.81,2.35.32.93,1,2.83,6.69,19.33c2.76,7.9-2.54,9-2.54,9h16.92s-6.17-1.51-8.7-9l-11.59-34c10-4.26,18.38-7.26,27.14-2.19v36.2c0,8.39-5.66,9-5.66,9h12.26s-5.66-.56-5.66-9V43.22a28,28,0,0,1,4,3.15,37.64,37.64,0,0,0-4-3.33V3.69l28.63,84.08h.95l2.34-6.86L464,3.69V78.83C464,87.22,458.29,87.78,458.29,87.78ZM275.12,45.49V1.88h14.7c12.68,0,21.45,7.06,21.45,21.81s-8.77,21.8-21.45,21.8Zm94.93-1.67c-8.61,3.76-16.72,6.47-24.12,6.39L359.69,9.78l.15.48,11.43,33Z"/><path class="cls-1" d="M189.85,87.78a40.21,40.21,0,0,0-7.69-16,50.92,50.92,0,0,0,7.69-27.45C189.85,19.86,174,0,153.31,0s-36.53,19.86-36.53,44.36c0,21.22,11.88,39,28.51,43.32a25.44,25.44,0,0,1-9.47,4.89,15.66,15.66,0,0,1-6.86.18,20.71,20.71,0,0,1-9-5h0a36.91,36.91,0,0,1-8.43-12.29L111,74h0c-4.32-11-9.91-24.92-22.57-27.95,13-1.76,21.88-10.17,21.88-22.4a20.81,20.81,0,0,0-7.54-16.48C98,3.25,91.28,1,83.46.94H57.19s5.66.56,5.66,8.94v69c0,8.39-5.66,9-5.66,9h17s-5.66-.56-5.66-9V46.43H83.19c13.33,0,16.21,13.94,20.57,25.63h0s6.85,22.2,25.23,24.13a19.79,19.79,0,0,0,11.62-2.3,32.16,32.16,0,0,0,7.8-5.56,31.66,31.66,0,0,0,4.9.38A32.81,32.81,0,0,0,177,78.36a31.25,31.25,0,0,1,10.39,10.35,30.5,30.5,0,0,0-9.86-10.9,41.07,41.07,0,0,0,3.68-4.55A39.81,39.81,0,0,1,189.85,87.78ZM68.48,45.49V1.88H83.19c12.67,0,21.45,7.06,21.45,21.81s-8.78,21.8-21.45,21.8Zm84.83,42.29a23.87,23.87,0,0,1-4-.34c.26-.25.51-.51.76-.77,4.6-5.14,10.39-10.39,17.61-10.71a16,16,0,0,1,6.25,1C168.53,83.7,161.37,87.78,153.31,87.78Zm21.2-11.55c-5.72-2.48-12.28-2.1-18.9,2.56a48.8,48.8,0,0,0-7.19,6.2c-.64.6-1.3,1.19-2,1.76-14.07-4.31-24-21.65-24-42.39,0-24,13.32-43.42,30.9-43.42s30.91,19.44,30.91,43.42a57.28,57.28,0,0,1-5.11,24.19c-8.19-7.61-19.63-9.71-31.15-.66-14.17,10.38-19.52-13.55-21.1-23.53.13,13.32,5.06,37.79,23.44,27.21,1.66-1,3.31-2.13,4.94-3.14,8.35-5.19,16.48-3.18,22.92,2A42.22,42.22,0,0,1,174.51,76.23Z"/></g></g></svg>