<svg width="273" height="136" viewBox="0 0 273 136" fill="none" xmlns="http://www.w3.org/2000/svg">
<path d="M75.7205 53.2798L71.1605 62.0398C60.2405 82.9198 42.4805 95.0398 22.8005 95.0398C9.00047 95.0398 0.000468582 86.8798 0.000468582 74.2798C0.000468582 56.3998 20.8805 38.1598 41.2805 38.1598C52.5605 38.1598 59.7605 43.9198 59.7605 52.9198C59.7605 58.0798 57.6005 62.8798 53.8805 66.4798C52.2005 68.0398 50.4005 69.2398 49.6805 69.2398C49.3205 69.2398 49.0805 68.9998 49.0805 68.6398C49.0805 68.2798 49.3205 68.0398 49.9205 67.7998C54.8405 65.2798 58.4405 59.0398 58.4405 53.0398C58.4405 44.7598 51.8405 39.5998 41.2805 39.5998C31.2005 39.5998 20.5205 44.5198 12.7205 52.9198C6.48047 59.6398 2.16047 68.9998 2.16047 76.0798C2.16047 86.7598 10.5605 93.8398 23.4005 93.8398C37.8005 93.8398 52.0805 83.2798 63.0005 64.4398L73.2005 47.2798C81.7205 32.9998 94.3205 20.3998 106.08 14.3998C102.6 11.8798 98.6405 10.7998 93.1205 10.7998C89.5205 10.7998 87.0005 11.1598 82.8005 12.1198C82.9205 13.1998 82.9205 13.6798 82.9205 14.5198C82.9205 27.9598 72.1205 42.3598 62.0405 42.3598C58.4405 42.3598 55.9205 39.4798 55.9205 35.5198C55.9205 25.5598 66.2405 15.7198 81.3605 11.0398C79.9205 4.79984 75.8405 1.31984 69.6005 1.31984C60.0005 1.31984 46.8005 13.1998 46.4405 22.3198C46.4405 22.7998 46.3205 23.0398 45.9605 23.0398C45.4805 23.0398 45.1205 22.5598 45.1205 21.9598C45.1205 17.5198 49.8005 10.4398 55.6805 5.75984C60.4805 2.03984 65.5205 -0.00015974 69.7205 -0.00015974C76.4405 -0.00015974 81.0005 3.83984 82.5605 10.7998C85.9205 9.95984 90.0005 9.35984 93.0005 9.35984C98.4005 9.35984 103.2 10.7998 107.4 13.7998C111.24 11.9998 114.6 11.0398 117.72 11.0398C118.68 11.0398 119.4 11.5198 119.4 12.1198C119.4 12.4798 119.04 12.7198 118.56 12.7198H118.32C116.88 12.3598 116.88 12.3598 116.28 12.3598H115.8C114.24 12.3598 111.12 13.3198 108.36 14.5198C111.84 17.7598 113.76 21.9598 113.76 26.8798C113.76 33.7198 111 40.0798 105.6 45.1198C99.3605 50.9998 89.4005 55.0798 81.4805 55.0798C79.3205 55.0798 77.4005 54.4798 75.7205 53.2798ZM81.6005 12.3598C66.6005 17.1598 57.2405 26.1598 57.2405 35.7598C57.2405 38.7598 59.2805 41.0398 62.0405 41.0398C71.5205 41.0398 81.7205 27.1198 81.7205 14.3998C81.7205 13.7998 81.7205 13.3198 81.6005 12.3598ZM107.04 15.2398C95.5205 21.5998 86.5205 32.2798 76.4405 51.8398C77.5205 53.1598 79.3205 53.7598 82.2005 53.7598C95.4005 53.7598 110.4 37.7998 110.4 23.7598C110.4 20.2798 109.44 17.6398 107.04 15.2398ZM81.8695 90.9598L77.9095 91.1998C77.9095 90.7198 77.9095 90.7198 79.1095 89.0398L85.2295 80.9998L96.1495 65.7598L99.3895 60.4798C100.59 58.5598 101.31 56.8798 101.31 55.7998C101.31 55.0798 100.35 54.4798 99.3895 54.4798C97.8295 54.4798 94.2295 56.7598 91.3495 59.5198L88.1095 62.8798C85.7095 65.2798 85.4695 65.6398 84.6295 66.5998C84.2695 67.0798 84.0295 67.1998 83.7895 67.1998C83.5495 67.1998 83.3095 66.9598 83.3095 66.7198C83.3095 66.1198 84.8695 64.0798 86.6695 62.1598L89.7895 59.1598C91.2295 57.7198 93.7495 55.7998 95.3095 54.8398L95.9095 54.4798L96.3895 54.2398C97.4695 53.3998 98.7895 53.0398 99.9895 53.0398C102.51 53.0398 103.71 54.2398 103.71 56.8798C103.71 59.2798 102.51 62.3998 99.6295 66.9598L96.8695 71.6398L103.83 64.3198L105.03 62.7598L106.47 59.9998C108.87 54.8398 113.43 50.1598 115.35 50.7598C115.95 51.1198 116.07 51.3598 116.07 51.8398C116.07 52.9198 115.35 54.2398 113.91 56.0398L110.91 59.3998L107.07 62.9998C106.23 63.8398 105.63 65.2798 105.63 66.7198C105.63 68.1598 106.35 69.2398 107.55 69.2398C109.59 69.2398 110.43 68.7598 114.87 64.6798L115.95 63.7198H116.31C116.55 63.9598 116.67 64.3198 116.67 64.5598C116.67 64.7998 116.67 64.7998 113.91 67.1998C110.91 69.8398 109.59 70.5598 107.43 70.5598C105.27 70.5598 104.55 69.5998 104.07 66.1198L98.6695 71.7598L92.9095 78.4798L85.5895 88.3198C85.1095 88.7998 84.7495 89.3998 84.2695 89.9998C83.9095 90.8398 83.5495 90.9598 81.8695 90.9598ZM120.208 84.5998L117.328 87.1198C114.208 89.9998 110.848 91.7998 108.808 91.7998C105.568 91.7998 103.168 88.9198 103.168 84.8398C103.168 77.1598 109.288 67.6798 119.128 60.3598L123.688 56.8798C125.608 55.4398 129.928 53.7598 131.728 53.7598C133.528 53.7598 135.088 55.9198 135.088 58.1998C135.088 61.7998 131.968 69.7198 128.968 74.1598L128.368 74.8798L128.248 75.2398L128.008 75.4798V75.5998L128.128 75.7198C128.488 75.8398 128.608 75.8398 128.728 75.8398C129.928 75.8398 133.168 74.1598 135.568 72.1198C137.008 70.9198 137.008 70.9198 141.928 65.7598C142.408 65.2798 142.888 64.6798 143.368 64.0798C143.728 63.8398 144.088 63.4798 144.328 63.1198C144.688 62.6398 144.808 62.5198 145.048 62.5198C145.168 62.5198 145.528 62.8798 145.528 63.1198C145.528 64.0798 138.448 71.6398 135.448 73.9198C132.688 75.9598 129.568 77.2798 127.528 77.2798H126.808L124.648 79.9198L120.208 84.5998ZM116.248 68.5198L111.208 75.7198C107.968 80.3998 105.808 85.5598 105.808 88.5598C105.808 89.6398 107.008 90.5998 108.448 90.5998C110.728 90.5998 113.608 89.0398 116.368 86.2798L119.608 82.9198L121.168 80.9998L124.648 76.1998L124.768 75.7198C124.768 75.5998 124.768 75.3598 124.648 75.1198C124.528 74.7598 124.528 74.5198 124.528 74.2798C124.528 71.6398 126.808 67.9198 128.488 67.9198C128.608 67.9198 128.728 67.9198 128.848 68.0398H129.328C130.768 68.0398 133.768 61.1998 133.768 58.0798C133.768 56.3998 132.568 55.0798 131.128 55.0798C128.968 55.0798 125.488 57.5998 122.128 61.5598L116.248 68.5198ZM173.287 54.7198L172.327 55.7998C171.727 56.6398 171.127 57.3598 170.407 58.0798C160.927 68.9998 155.767 76.1998 144.487 94.5598C146.767 94.1998 149.407 93.9598 150.847 93.9598C152.887 93.9598 154.327 94.3198 154.327 94.7998C154.327 95.2798 154.327 95.2798 150.967 95.2798C148.807 95.2798 145.567 95.6398 143.527 95.9998C133.207 112.68 129.847 117.12 122.287 124.44C114.967 131.4 106.807 135.84 101.047 135.84C98.287 135.84 96.367 133.92 96.367 131.04C96.367 120.36 118.807 101.88 139.207 95.6398C141.007 92.7598 141.367 92.0398 144.487 87.3598L149.887 79.3198C140.887 88.5598 138.247 90.5998 134.887 90.5998C132.727 90.5998 131.167 88.3198 131.167 85.1998C131.167 78.1198 135.847 70.3198 144.727 62.7598C150.607 57.5998 157.927 53.9998 162.487 53.9998C164.287 53.9998 165.487 55.3198 165.487 57.3598C165.487 57.7198 165.487 57.9598 165.247 58.5598C165.727 58.0798 166.087 57.5998 166.447 57.1198C166.927 56.6398 167.407 56.1598 167.767 55.5598C169.087 54.1198 169.927 53.7598 173.047 53.7598C173.527 53.7598 173.767 53.8798 173.767 53.9998C173.767 54.2398 173.647 54.3598 173.287 54.7198ZM138.127 97.3198C134.887 98.2798 132.367 99.3598 129.487 100.68C113.887 108.24 98.407 123.6 98.407 131.64C98.407 133.32 99.607 134.52 101.287 134.52C110.167 134.52 121.927 122.64 138.127 97.3198ZM162.247 55.1998C155.287 54.3598 133.207 78.7198 133.207 87.2398C133.207 88.3198 134.047 89.2798 135.007 89.2798C138.127 89.2798 143.167 84.9598 152.167 74.6398C159.847 65.9998 164.287 59.3998 164.287 56.9998C164.287 56.0398 163.447 55.3198 162.247 55.1998ZM156.805 90.9598L156.445 90.5998L161.245 83.9998L172.405 67.7998L176.845 60.8398L178.405 57.9598C178.885 56.8798 180.085 55.9198 180.685 55.9198C180.925 55.9198 180.925 55.9198 181.045 57.4798C181.165 59.1598 180.205 61.6798 177.805 65.8798L175.285 70.4398V70.5598L181.645 63.7198L183.085 61.7998L184.525 58.6798C186.685 53.7598 190.525 49.4398 192.565 49.4398C193.165 49.4398 193.645 49.9198 193.645 50.5198C193.645 52.1998 190.885 56.1598 187.645 59.5198L184.885 62.1598C184.165 62.9998 183.685 64.1998 183.685 65.6398C183.685 67.1998 184.405 68.1598 185.605 68.1598C187.525 68.1598 188.605 67.4398 193.525 62.9998C194.485 62.0398 194.845 61.7998 195.205 61.7998C195.325 61.7998 195.565 62.0398 195.805 62.6398C194.365 63.8398 193.765 64.4398 193.045 65.1598C189.445 68.5198 187.765 69.4798 185.485 69.4798C183.565 69.4798 182.485 68.1598 182.245 65.2798L176.245 71.7598L170.845 78.4798L162.445 90.4798L156.805 90.9598ZM193.485 84.7198L190.245 87.9598C188.325 89.9998 186.165 91.1998 184.845 91.1998C182.085 91.1998 180.405 88.6798 180.405 84.5998C180.405 77.8798 184.485 70.3198 191.085 64.5598L194.685 61.4398C199.365 57.2398 207.045 53.5198 210.765 53.5198C212.445 53.5198 213.405 54.4798 213.405 56.1598C213.405 56.7598 213.405 57.1198 213.285 57.7198C213.645 57.3598 214.005 56.9998 214.245 56.6398C216.525 53.7598 216.525 53.7598 218.805 53.7598H219.285H220.005H220.605L220.725 54.2398L211.485 67.0798L203.445 78.3598L200.325 83.6398C199.125 85.6798 198.405 87.3598 198.405 88.4398C198.405 89.1598 199.125 89.7598 199.965 89.7598C202.245 89.7598 206.205 86.1598 211.485 79.1998L224.085 62.8798C229.365 56.0398 232.005 53.6398 234.645 53.6398C236.685 53.6398 238.005 55.0798 238.005 57.3598C238.005 60.1198 235.605 64.5598 233.085 66.2398C232.725 66.4798 232.725 66.4798 230.805 66.7198C230.565 66.7198 230.325 66.5998 229.845 66.4798L233.205 61.0798C233.445 60.5998 233.685 60.2398 233.925 59.8798C235.005 58.1998 235.725 56.8798 235.725 55.7998C235.725 55.1998 235.125 54.7198 234.405 54.7198C232.965 54.7198 231.045 56.0398 229.365 58.0798L225.285 62.8798L211.365 81.2398L207.165 86.1598C204.525 89.1598 201.645 90.9598 199.485 90.9598C197.805 90.9598 196.605 89.2798 196.605 86.9998C196.605 84.7198 196.965 83.6398 200.205 77.0398L199.245 77.8798L197.925 79.5598L193.485 84.7198ZM200.445 74.6398L208.485 63.9598C211.125 60.3598 212.325 58.0798 212.325 56.1598C212.325 55.1998 211.485 54.3598 210.525 54.3598C208.725 54.3598 206.325 55.6798 202.845 58.5598C199.485 61.3198 194.325 66.5998 191.925 69.7198L188.565 74.2798C185.085 78.8398 182.685 84.2398 182.685 87.2398C182.685 88.7998 183.525 89.8798 184.725 89.8798C187.005 89.8798 190.965 86.5198 196.005 80.1598L200.445 74.6398ZM218.566 90.8398L213.406 90.9598C213.526 90.2398 213.526 90.1198 213.766 89.7598L214.006 89.3998L214.846 87.9598L215.326 87.3598L232.486 62.5198C235.606 57.1198 235.726 56.9998 237.766 55.9198C237.886 56.6398 238.006 57.2398 238.006 57.5998C238.006 59.7598 236.686 63.1198 234.166 67.0798L233.566 68.3998H233.806L238.246 62.9998C243.646 56.6398 247.726 53.5198 250.726 53.5198C252.406 53.5198 253.726 55.0798 253.726 57.2398C253.726 59.3998 252.886 62.1598 251.206 65.1598L248.566 69.9598L251.446 66.3598L256.246 60.9598C260.926 55.9198 264.646 53.2798 267.286 53.2798C268.846 53.2798 270.406 54.8398 270.406 56.5198C270.406 58.6798 269.326 62.1598 268.006 64.0798L264.526 69.3598L255.046 81.9598C253.006 84.7198 251.686 87.3598 251.686 88.6798C251.686 89.5198 252.406 90.1198 253.486 90.1198C256.126 90.1198 259.126 88.6798 262.126 85.7998C266.206 81.9598 269.926 77.7598 271.846 74.8798C271.846 74.6398 271.966 74.6398 272.086 74.6398C272.446 74.6398 272.686 74.7598 272.926 74.9998C271.006 78.2398 266.926 82.9198 262.366 87.1198C259.006 90.2398 256.486 91.4398 253.366 91.4398C250.606 91.4398 248.806 89.7598 248.806 87.2398C248.806 83.9998 251.206 79.0798 255.046 74.0398L262.606 64.5598C265.846 60.3598 267.646 57.2398 267.646 55.7998C267.646 55.1998 267.046 54.7198 266.446 54.7198C265.486 54.7198 261.886 56.9998 260.446 58.5598L252.406 67.3198L246.406 74.6398L236.806 88.1998C235.126 90.7198 234.886 90.8398 233.446 90.8398H231.886C230.686 90.8398 230.686 90.8398 229.726 90.7198L229.606 90.2398L235.606 81.7198L246.046 66.3598L249.766 60.2398C250.606 58.6798 251.206 57.1198 251.206 55.9198C251.206 55.4398 250.726 54.9598 250.246 54.9598C248.686 54.9598 246.046 56.6398 243.526 59.1598L241.246 61.3198L238.966 63.9598L230.446 74.3998L218.566 90.8398Z" fill="white"/>
</svg>
