<svg xmlns="http://www.w3.org/2000/svg" viewBox="0 0 456.48 118.39"><defs><style>.cls-1{fill:#02264f;}</style></defs><g id="Vrstva_2" data-name="Vrstva 2"><g id="Vrstva_1-2" data-name="Vrstva 1"><path class="cls-1" d="M55.17,8s4.16.53,3.07,6.37a8.32,8.32,0,0,1-.2.91c-.06.28-.14.54-.23.83L48.67,40l-2.25,5.9-15.27,40L24.49,60.74l-.06-.23L12.67,16.08C10.47,8.68,15.4,8,15.4,8H0s5.33.63,7.55,8.11l13,48.54.13.5,7.85,29.25h.85l2.17-7.06L47.09,46.5l2.22-5.84,9.35-24.58c.1-.32.2-.61.31-.9s.23-.62.36-.9c2.52-5.75,7-6.31,7-6.31Z"/><path class="cls-1" d="M49.31,40.66,48.67,40c-3-3.08-4.85-6.47-4.85-10.42,0-7,5.15-13.35,14.22-14.34a9.23,9.23,0,0,1,.93-.07q.78-.06,1.59-.06c11.47,0,22.19,11.5,22.92,21.35v-19c-.85,11.59-7.37-3.23-23-3.23l-1.11,0c-.37,0-.74,0-1.09.06C45.63,15.18,38.63,23.16,38.63,31c0,5.9,3.06,10.71,7.79,15l.67.59C63.56,60.64,98.34,68.62,98.34,90.87c0,13.73-14.67,26.67-38.5,26.67-41.62,0-52.13-33.69-39.14-52.42a27.15,27.15,0,0,1,3.79-4.38A28.28,28.28,0,0,1,27.2,58.5a25.44,25.44,0,0,0-2.77,2,25,25,0,0,0-3.86,4.11c-13.45,17.87-4.22,53.77,39,53.77,28,0,43.93-14.65,43.93-30.42C103.55,62.47,64.08,54.75,49.31,40.66Z"/><path class="cls-1" d="M135.9,6.14c-.94.39-1.89.79-2.84,1.21-.24.12-.49.21-.73.33C113,16,95.73,20,82,7c9.71,11,23.26,12.22,35,10.3v69c0,7.62-5.15,8.12-5.15,8.12h15.41s-5.14-.5-5.14-8.12v-70a78.08,78.08,0,0,0,10-3.22c.77-.31,1.54-.62,2.29-.95,2.14-.88,4.21-1.78,6.23-2.63,15.6-6.7,28-11.73,41.67.55C166.26-4.66,152-.72,135.9,6.14Z"/><path class="cls-1" d="M175.36,15.45s5.15.52,5.15,8.13V74.05c0,10.55-9.86,20.32-20.7,20.32a20.28,20.28,0,0,1-20.15-20.32V18.1a10.82,10.82,0,0,1,1-4.82c-2,.86-4.09,1.76-6.23,2.64a14.37,14.37,0,0,1,.16,2.18v56c0,11.7,11.69,21.19,24.62,21.19,12.71,0,22.19-11.17,22.19-21.19V23.58c0-7.61,5.15-8.13,5.15-8.13Z"/><path class="cls-1" d="M217.53,15.47v0H189s5.14.52,5.14,8.13V86.25c0,7.62-5.14,8.12-5.14,8.12h15.41s-5.15-.5-5.15-8.12V61.91h17.44c14.35,0,24.61-9.33,24.61-23.23C241.29,25.05,231.43,15.83,217.53,15.47Zm-.85,45.58H199.24V16.3h17.44c11.52,0,19.49,9,19.49,22.38S228.2,61.05,216.68,61.05Z"/><path class="cls-1" d="M278.81,93.53H251.57V55.34h19.12c7.62,0,8.12,12.53,8.12,12.53V42s-.5,12.52-8.12,12.52H251.57V16.3h27.24c8.1,0,13,18.84,13.41,20.61l-4.07-21.46H241.3s5.15.52,5.15,8.13V86.25c0,7.62-5.15,8.12-5.15,8.12h46.85l4.07-21.44C291.78,74.7,286.91,93.53,278.81,93.53Z"/><path class="cls-1" d="M339.51,15.45s5.15.52,5.15,8.13V85.2s-26.94-48.77-37-66C301.36,8.28,292.05.24,264.75,0c19.42.25,28.73,6.12,35.91,16.34V86.25c0,7.62-5.14,8.12-5.14,8.12h11.14s-5.15-.5-5.15-8.12V17.59c.73,1.09,1.43,2.22,2.12,3.4,11.45,19.48,41,73.38,41,73.38h.85V23.58c0-7.61,5.15-8.13,5.15-8.13Z"/><path class="cls-1" d="M367.3,51.22c12-2.73,18.79-18.06,21.95-27.65,1.76-5.51,7.36-8.12,7.36-8.12h-11.1s4.86,1.17,2.82,8.13c-3.5,10.31-11.22,27.2-24.8,27.2V23.58c0-7.61,5.14-8.13,5.14-8.13H353.26s5.15.52,5.15,8.13V86.25c0,7.62-5.15,8.12-5.15,8.12h15.41s-5.14-.5-5.14-8.12V51.64c21,0,14.2,42.73,36.6,42.73C391.85,94.37,386.6,55.74,367.3,51.22Z"/><path class="cls-1" d="M445.34,15.45s4.71.92,1.26,8.13L429.2,60,411.8,23.57c-3.39-7.1,1.27-8.12,1.27-8.12h-15.4s5.53.83,9,8.13l17.82,37.35V86.25c0,7.62-5.14,8.12-5.14,8.12h15.4s-5.14-.5-5.14-8.12V60.93l17.82-37.35c3.44-7.21,9-8.13,9-8.13Z"/></g></g></svg>