<svg width="500" height="218" viewBox="0 0 500 218" fill="none" xmlns="http://www.w3.org/2000/svg">
<path d="M67.0008 84L82.2008 64.2C95.0008 47.4 101.001 35.2 101.001 25.4C101.001 19.2 98.2008 12.6 93.6008 8.39999C89.4008 4.59999 81.4008 2.4 71.8008 2.4C58.0008 2.4 44.8008 8 30.8008 19.6C13.8008 33.8 2.80078 53.2 2.80078 69C2.80078 80.8 12.2008 90 24.0008 90C33.8008 90 42.4008 86.6 53.4008 78.2C67.6008 67.4 76.0008 55.8 78.2008 44.2C78.4008 42.6 78.8008 42 79.6008 42C80.4008 42 81.0008 42.8 81.0008 43.8C81.0008 45.8 77.8008 53.6 75.4008 57.6C63.0008 78.2 41.6008 92.4 23.0008 92.4C10.2008 92.4 0.00078097 80.6 0.00078097 66C0.00078097 33.2 37.4008 -8.58307e-06 74.0008 -8.58307e-06C92.6008 -8.58307e-06 104.601 12.2 104.601 30.8C104.601 43.2 100.001 55 90.0008 68.6L70.2008 95.6C57.8008 112.2 48.6008 129.2 48.6008 135.2C48.6008 137.2 50.0008 138.8 51.8008 138.8C54.4008 138.8 58.4008 136.4 63.4008 131.6C71.0008 124.2 85.8008 107.2 94.0008 96.4L119.001 63C129.201 49.6 147.601 30 160.401 19C174.601 6.8 187.001 0.799993 198.001 0.799993C204.601 0.799993 211.001 3.4 211.001 6C211.001 6.59999 210.401 7.19999 209.801 7.19999C209.201 7.19999 209.201 7.19999 208.201 6C206.801 4.39999 202.001 2.99999 198.201 2.99999C189.201 2.99999 179.801 6.8 170.001 14C159.201 22.2 144.401 37.2 134.401 50L100.801 93.4C94.6008 101.4 81.6008 116 68.4008 129.6C61.4008 137 55.4008 140.8 51.4008 140.8C47.6008 140.8 44.8008 136.8 44.8008 131.8C44.8008 118.4 51.4008 104.4 67.0008 84ZM113.13 114.8L117.53 109.6C124.93 100.8 127.73 97.2 138.73 81.8C139.33 81 139.73 80 140.13 79L140.93 76.8C143.33 71 148.73 64.2 150.93 64.2C151.73 64.2 152.33 65 152.33 65.6C152.33 66.8 151.33 69 149.33 71.8L141.53 82.4C140.93 83.2 140.53 85.8 140.53 88L140.73 90L142.33 98.4C142.93 100.8 143.13 103.4 143.13 105.6C143.13 115 139.13 123.8 131.53 131.2C124.33 138.2 116.73 141.8 108.73 141.8C102.33 141.8 98.1305 137.6 98.1305 131C98.1305 122 103.93 114.2 110.33 114.2C111.53 114.2 112.13 114.4 113.13 114.8ZM136.73 93.8L137.93 86.8C129.73 98.4 126.33 102.8 119.13 111.4L114.53 116.8V118.2C114.53 121.4 112.13 124.4 109.53 124.4C109.13 124.4 108.73 124.4 107.93 124C106.73 125.6 106.53 125.8 104.53 127.8C103.73 128.8 102.53 130 100.33 132.2C100.93 137.4 103.93 140 108.93 140C121.13 140 132.13 125.2 135.13 104.8L136.73 93.8ZM103.73 125.2L106.33 122.6C105.93 121.8 105.93 121.4 105.93 120.6C105.93 120 105.93 119.6 106.13 118.6C103.13 120 101.13 123.8 100.33 128.8C102.13 127 102.33 126.8 103.73 125.2ZM175.859 76.8L169.059 77H168.259C166.459 77 165.459 76.6 165.459 76C165.459 75.2 166.259 74.6 167.259 74.6H177.459L195.059 50.6C195.859 49.6 198.859 49 202.859 49C203.459 49 203.659 49.2 203.659 49.4C203.659 49.8 203.459 50 202.859 50.8C197.659 56.8 189.659 67.8 185.259 74.4L195.259 74.2H196.459C198.259 74.2 199.259 74.4 199.259 75.2C199.259 75.8 198.059 76.4 196.059 76.4L183.659 76.6C181.459 79.8 179.259 83 176.859 86.2C151.859 121.6 146.059 130.8 146.059 136.2C146.059 138 147.259 139.4 148.659 139.4C153.059 139.4 163.659 130 177.459 113.6L185.659 104C185.859 103.8 186.059 103.6 186.259 103.6C186.659 103.6 187.059 104.4 187.059 104.8C187.059 106 174.859 120.4 166.659 129C158.459 137.4 152.259 141.6 148.059 141.6C145.059 141.6 143.059 138.2 143.059 132.6C143.059 129.2 144.059 125.8 146.259 120.6C149.459 112.8 152.259 108.6 166.659 89.4C169.659 85.4 172.859 81.2 175.859 76.8ZM196.132 126.4L188.732 134C184.332 138.4 179.532 141.4 176.532 141.4C173.732 141.4 171.732 138.4 171.732 134.2C171.732 129.2 173.332 124.6 177.532 117.4L181.932 110L183.732 107.4C184.532 106.4 185.132 105.4 185.732 104.4L199.532 86.6C201.932 83.6 203.732 81.4 204.132 81.2C204.332 81 207.532 80.8 208.732 80.8H209.732H210.332H210.732H211.132L212.332 81.2L185.732 116.8L178.932 127.4C176.332 131.6 174.732 135.2 174.732 137.6C174.732 138.4 175.932 139.6 177.132 139.6C179.332 139.6 184.332 136.2 188.532 131.8L198.332 121.2L208.532 108.8L228.932 81.6C229.332 80.8 230.132 80.8 235.332 80.8C236.332 80.8 236.732 81 236.732 81.4C236.732 81.8 236.532 82 235.532 83.8L215.932 110.8C206.132 124.6 200.732 134 200.732 137.6C200.732 138.8 201.732 139.6 203.132 139.6C206.532 139.6 210.132 137.4 215.532 132L222.332 125.2L235.732 109.2L254.132 84.2C256.332 80.8 256.332 80.8 257.132 80.8C257.332 80.8 257.532 80.8 257.932 81L257.132 83L242.332 103.2L229.132 119.8L219.932 130C218.132 132.2 214.132 135.6 211.132 138C207.532 140.6 205.732 141.4 202.932 141.4C199.732 141.4 197.332 138.4 197.332 134.6C197.332 131.2 198.732 127 203.332 117.8L196.132 126.4ZM224.099 135.2L176.699 206.2C172.899 211.8 171.899 213 170.499 213.2C170.299 213.2 168.499 213.4 164.899 213.6C163.499 213.6 162.699 213.4 162.699 212.8C162.699 212.2 162.899 211.8 163.899 210.6L165.099 209.2L261.099 70C263.899 66 264.299 65.6 266.699 65.4L268.699 65.2C269.099 65 269.699 65 269.699 65C270.699 65 271.099 65.2 271.099 65.6C271.099 66.2 270.899 66.6 252.699 92C262.699 82.4 268.299 78.8 273.299 78.8C276.899 78.8 279.299 82.8 279.299 88.6C279.299 97.6 274.099 108.2 263.899 119.6C251.899 133.2 238.499 142.2 230.099 142.2C226.099 142.2 224.499 140.2 224.099 135.2ZM272.099 81.4C266.099 81.4 253.099 93 241.499 109C230.099 124.6 226.099 131.4 226.099 135.6C226.099 138 227.899 140 230.099 140C236.299 140 247.499 130.2 259.099 114.6C268.499 101.8 274.899 89.6 274.899 84.4C274.899 82.6 273.699 81.4 272.099 81.4ZM313.062 125.8L306.062 133C301.262 137.8 294.662 141.4 290.062 141.4C283.862 141.4 279.262 135.8 279.262 128C279.262 117.2 284.262 107.2 294.862 96.2C305.662 85 318.462 77.4 326.262 77.4C329.262 77.4 332.062 80.2 332.062 83.2C332.062 94.8 312.662 108.4 294.062 109.6C288.262 117.6 283.862 128 283.862 133.8C283.862 136.8 286.662 139.2 290.262 139.2C295.862 139.2 302.662 134.6 310.262 125.8L322.662 111.4L340.262 88.4C345.862 81.2 350.462 77.8 355.062 77.8C357.862 77.8 359.862 80.4 359.862 84C359.862 90.4 354.462 98.4 350.262 98.4C349.662 98.4 349.062 97.8 349.062 97.2C349.062 96.8 349.062 96.8 350.062 95.2C353.262 90.4 355.662 84.6 355.662 82.4C355.662 81 354.662 80 353.462 80C350.862 80 346.262 83.6 342.262 89L323.662 113.4L313.062 125.8ZM300.062 100.8L295.462 107.4C307.662 107.4 327.262 91.6 327.262 82C327.262 80.6 326.062 79.4 324.662 79.4C322.262 79.4 318.662 81.2 316.062 83.4L308.862 90L300.062 100.8ZM318.159 141.2L317.959 140.2L335.159 116L349.359 95.6L355.559 85.8C357.559 84.2 358.759 83.4 359.359 83.2C359.759 84.2 359.759 84.6 359.759 85.2C359.759 88.4 358.559 92.2 356.159 96.2L350.359 106.2L358.359 97.2C369.359 85 377.359 78.8 382.159 78.8C385.159 78.8 386.959 81.4 386.959 85.8C386.959 90.8 383.559 97.8 377.559 105.4L361.559 125.6C357.559 130.4 355.359 134.6 355.359 137.4C355.359 138.8 356.559 139.8 358.359 139.8C360.759 139.8 362.759 139 365.559 136.8C369.559 133.8 375.359 128.4 378.159 125.2L390.759 110.8L408.359 88.2L411.959 83.2C412.759 82.4 413.559 81.4 414.359 80.4H415.359L415.559 80.8C415.759 80.8 415.759 80.8 415.759 81C415.759 81.2 415.759 81.2 410.559 88.8L396.959 106.4L383.759 122.2L377.359 129C369.559 137.4 362.359 141.8 357.159 141.8C353.359 141.8 350.359 138.8 350.359 134.6C350.359 129 354.159 121.8 361.759 112.8L373.359 99.2C379.559 91.8 383.159 85.8 383.159 83C383.159 82 382.359 81.2 380.959 81.2C378.359 81.2 374.559 84 366.959 91.4L360.959 97.6L351.359 108.2L331.159 135C326.359 141.6 326.359 141.6 321.959 141.6C321.159 141.6 319.759 141.4 318.159 141.2ZM395.726 112.8L381.526 136.6C380.526 138.2 380.526 138.2 373.726 138.4C373.526 137.8 373.526 137.6 373.526 137.4C373.526 137 373.926 136 374.326 135.4L374.526 135L376.126 132.2L377.726 129.2L383.326 119.8L389.126 110.6L422.126 63L449.526 24.4L457.926 13C460.126 10.2 461.126 9.8 465.126 9.8C466.326 9.8 466.526 9.8 466.926 10.4L457.326 23.6L439.126 49.6L427.126 66.8L404.926 99.2C406.326 99.8 407.526 100 407.926 100C412.926 100 423.526 93.6 429.526 87L436.326 79.6C438.726 76.8 441.726 75.4 444.726 75.4C447.526 75.4 449.526 77.2 449.526 80.2C449.526 84.2 445.726 88.2 442.126 88.2C440.326 88.2 438.926 86.6 438.926 84.2C438.926 82.2 439.726 80.8 441.926 78.4C439.726 79.2 439.126 79.6 436.926 82.2L432.326 87.6C427.126 93.8 421.726 97.6 413.726 100.4L410.926 101.6C414.726 105.4 416.126 108 416.126 111.2C416.126 114.4 415.326 117.8 413.926 121.4L411.326 128C410.326 130.4 409.726 133 409.726 135.4C409.726 138.2 411.526 140 414.326 140C420.126 140 428.126 133.2 437.126 120.8L442.726 113.2H444.126C444.526 113.4 444.526 113.6 444.526 113.8C444.126 114.8 442.126 117.8 438.726 122.6L434.126 128.6C428.726 134 425.526 137 424.726 137.6C419.726 141.2 417.726 142 413.526 142C407.526 142 402.726 137 402.726 131C402.726 128.4 403.526 124.8 404.926 121.8L408.326 114C409.326 111.6 409.726 109.4 409.726 107C409.726 105.6 408.726 103.4 408.126 103.4L405.526 103.2H403.326C402.126 103.2 402.126 103.2 395.726 112.8ZM446.832 148.4L466.032 118.4C452.432 134.8 445.032 141 439.632 141C436.632 141 434.632 138 434.632 133.8C434.632 126.6 440.232 114.6 449.232 102.8L463.232 84.4C466.232 80.4 467.032 79.8 468.232 79.8L474.032 79.4C474.832 79.4 475.232 79.4 475.232 79.8L474.632 80.6L450.432 113.8C443.832 122.8 437.832 133.8 437.832 137C437.832 138.2 438.832 139.2 439.832 139.2C445.632 139.2 460.632 124 475.632 103L490.032 82.8C492.032 79.8 493.232 79.4 499.032 79.4C499.432 79.4 499.832 79.6 499.832 79.8C499.832 80 499.832 80 499.232 80.6L498.032 82.6L495.032 87L481.832 105.6C474.232 116.6 468.632 125.4 455.832 146.4C460.032 145.6 462.232 145.4 466.432 145.4C470.632 145.4 472.232 145.8 472.232 146.8C472.232 147.4 471.832 147.6 471.032 147.6H470.032C468.632 147.4 467.232 147.4 466.232 147.4C463.432 147.4 459.032 148 454.232 148.8C437.032 178 431.232 186.2 420.032 196.6C407.232 208.8 391.432 217.6 383.032 217.6C378.432 217.6 375.432 214.6 375.432 210C375.432 190.6 411.632 159.4 446.832 148.4ZM445.032 151.4C416.432 160.8 377.432 194.2 377.432 209.4C377.432 213.2 379.632 216 382.432 216C390.032 216 398.632 210.2 412.032 196.2C424.632 183 429.432 176.4 445.032 151.4Z" fill="white"/>
</svg>
