<svg width="293" height="43" viewBox="0 0 293 43" fill="none" xmlns="http://www.w3.org/2000/svg">
<path d="M44.8815 15.1556C40.9181 8.29588 32.1783 5.95849 25.3694 9.92189C25.3694 9.92189 25.3694 9.92189 25.3185 9.92189L12.5645 17.3406C11.0401 18.2044 10.532 20.1861 11.3958 21.6596C12.2596 23.184 14.2413 23.6922 15.7149 22.8283L28.4181 15.4605C28.4181 15.4605 28.4181 15.4605 28.4689 15.4605C32.2291 13.2755 37.1071 14.5459 39.2921 18.3568C39.2921 18.3568 39.2921 18.3568 39.2921 18.4076C41.477 22.2186 40.2067 27.0458 36.3957 29.2308L23.7433 36.5478C22.219 37.4116 21.7108 39.3933 22.5746 40.8669C23.4385 42.3913 25.4202 42.8994 26.8937 42.0356L39.6478 34.6677C46.4567 30.7043 48.7941 21.9645 44.8815 15.1556Z" fill="#F3E7E7"/>
<path d="M34.1617 25.1656C35.6861 24.3018 36.1942 22.3201 35.3304 20.8465C34.4666 19.3221 32.4849 18.814 31.0113 19.6778L18.3081 27.0457C18.3081 27.0457 18.3081 27.0457 18.2573 27.0457C14.4971 29.2306 9.6191 27.9603 7.43415 24.1493C7.43415 24.1493 7.43415 24.1493 7.43415 24.0985C5.2492 20.2876 6.51952 15.4604 10.3305 13.2754L23.0337 5.90754C24.5581 5.04372 25.0662 3.06202 24.2024 1.58845C23.3386 0.0640611 21.3569 -0.444065 19.8833 0.419753L7.12928 7.78761C0.320356 11.751 -2.01704 20.44 1.89555 27.2997C1.89555 27.2997 1.89555 27.2997 1.89555 27.3506C5.85895 34.1595 14.5988 36.4969 21.4077 32.5843C21.4077 32.5843 21.4077 32.5843 21.4585 32.5843L34.1617 25.1656Z" fill="#F3E7E7"/>
<path d="M65.87 29.028C66.9879 29.028 67.8009 28.8247 68.2583 28.469C68.7664 28.1133 69.0204 27.5544 69.0204 26.8938C69.0204 26.4873 68.9188 26.1316 68.7664 25.8268C68.6139 25.5219 68.3599 25.2678 68.055 25.0138C67.7501 24.7597 67.3436 24.5564 66.8863 24.3532C66.429 24.1499 65.9209 23.9467 65.3111 23.7434C64.7522 23.5402 64.1424 23.2861 63.6343 23.0321C63.0753 22.778 62.618 22.4731 62.2115 22.0666C61.805 21.7109 61.4493 21.2536 61.1953 20.6947C60.9412 20.1865 60.8396 19.526 60.8396 18.8146C60.8396 17.2902 61.3477 16.0707 62.4148 15.2069C63.4818 14.3431 64.9046 13.8857 66.7339 13.8857C67.8009 13.8857 68.7156 13.9874 69.5286 14.2414C70.3416 14.4955 71.0021 14.7496 71.4595 15.0036L70.494 17.4935C69.9351 17.1886 69.3253 16.9345 68.6647 16.7821C68.0042 16.6296 67.3436 16.528 66.6322 16.528C65.8192 16.528 65.1587 16.6804 64.7014 17.0361C64.244 17.3918 63.99 17.8491 63.99 18.4589C63.99 18.8146 64.0916 19.1703 64.244 19.4243C64.3965 19.6784 64.5997 19.9325 64.9046 20.1357C65.2095 20.339 65.5144 20.5422 65.9209 20.7455C66.3274 20.9487 66.7339 21.1012 67.1912 21.2536C68.0042 21.5585 68.7156 21.8634 69.3253 22.1682C69.9351 22.4731 70.494 22.8288 70.9005 23.2353C71.307 23.6418 71.6627 24.1499 71.866 24.7089C72.0692 25.2678 72.2216 25.9792 72.2216 26.7414C72.2216 28.2658 71.6627 29.4853 70.5956 30.2983C69.5286 31.1621 67.9534 31.5686 65.87 31.5686C65.1587 31.5686 64.5489 31.5178 63.9392 31.4162C63.3802 31.3145 62.8721 31.2129 62.4148 31.0605C61.9575 30.908 61.6018 30.8064 61.2461 30.654C60.9412 30.5015 60.6871 30.3999 60.4839 30.2983L61.3985 27.7576C61.8558 28.0117 62.4148 28.2658 63.177 28.469C63.8883 28.9263 64.803 29.028 65.87 29.028Z" fill="#F3E7E7"/>
<path d="M74.6111 15.1561L77.5582 14.6479V18.5097H82.0806V20.9996H77.5582V26.2333C77.5582 27.2495 77.7107 28.0117 78.0664 28.4182C78.3712 28.8755 78.9302 29.0788 79.7432 29.0788C80.3021 29.0788 80.7594 29.028 81.1659 28.9263C81.5724 28.8247 81.9281 28.7231 82.1314 28.6215L82.6395 30.9589C82.2838 31.1113 81.8773 31.2637 81.3184 31.4162C80.7594 31.5686 80.0989 31.6702 79.3875 31.6702C78.4729 31.6702 77.7107 31.5686 77.1009 31.3146C76.4912 31.0605 76.0338 30.7048 75.6273 30.2475C75.2717 29.7902 75.0176 29.2312 74.8651 28.5707C74.7127 27.9101 74.6619 27.1479 74.6619 26.2841V15.1561H74.6111Z" fill="#F3E7E7"/>
<path d="M95.0354 30.9589C94.4765 31.1113 93.7143 31.2638 92.7996 31.4162C91.885 31.5686 90.8688 31.6703 89.8017 31.6703C88.7854 31.6703 87.9216 31.5178 87.2102 31.2129C86.4989 30.9081 85.9907 30.5016 85.5334 29.9934C85.1269 29.4853 84.822 28.8247 84.6696 28.1134C84.4663 27.402 84.4155 26.589 84.4155 25.7252V18.5605H87.3627V25.2678C87.3627 26.6398 87.5659 27.6052 87.9724 28.215C88.3789 28.8247 89.0395 29.0788 90.0558 29.0788C90.4114 29.0788 90.7671 29.0788 91.1736 29.028C91.5801 28.9772 91.885 28.9772 92.0375 28.9264V18.5605H94.9846V30.9589H95.0354Z" fill="#F3E7E7"/>
<path d="M109.312 30.9593C108.702 31.1626 107.991 31.315 107.127 31.4674C106.263 31.6199 105.298 31.6707 104.332 31.6707C103.316 31.6707 102.401 31.5182 101.639 31.2134C100.826 30.9085 100.166 30.4512 99.6068 29.8922C99.0478 29.3333 98.6413 28.6219 98.3365 27.8089C98.0316 26.9959 97.8792 26.0813 97.8792 25.0142C97.8792 23.998 97.9808 23.0833 98.2348 22.2703C98.4889 21.4573 98.8446 20.7459 99.3527 20.1362C99.8608 19.5264 100.42 19.1199 101.131 18.7642C101.843 18.4594 102.656 18.3069 103.519 18.3069C104.129 18.3069 104.688 18.3577 105.145 18.5102C105.603 18.6626 106.009 18.815 106.365 19.0183V12.8699L109.312 12.3618V30.9593ZM100.877 24.9126C100.877 26.2337 101.182 27.25 101.792 27.9614C102.401 28.7235 103.265 29.0792 104.332 29.0792C104.79 29.0792 105.196 29.0792 105.552 29.0284C105.908 28.9776 106.162 28.9268 106.365 28.876V21.5081C106.111 21.3049 105.755 21.1524 105.349 21C104.942 20.8476 104.485 20.7459 103.977 20.7459C102.91 20.7459 102.147 21.1016 101.639 21.8638C101.131 22.626 100.877 23.6423 100.877 24.9126Z" fill="#F3E7E7"/>
<path d="M112.158 25.0135C112.158 23.8956 112.31 22.8793 112.666 22.0663C113.022 21.2025 113.428 20.4911 113.987 19.9322C114.546 19.3733 115.156 18.9667 115.867 18.6619C116.578 18.357 117.29 18.2554 118.052 18.2554C119.78 18.2554 121.152 18.8143 122.168 19.8814C123.133 20.9993 123.641 22.6253 123.641 24.7594C123.641 24.9118 123.641 25.1151 123.641 25.3184C123.641 25.5216 123.641 25.7249 123.591 25.8773H115.206C115.308 26.8935 115.664 27.7066 116.274 28.2655C116.934 28.8244 117.849 29.1293 119.068 29.1293C119.78 29.1293 120.44 29.0785 121.05 28.9261C121.66 28.7736 122.117 28.672 122.473 28.5196L122.879 30.9586C122.727 31.0602 122.473 31.111 122.219 31.2126C121.914 31.3143 121.609 31.3651 121.253 31.4667C120.898 31.5175 120.491 31.6191 120.085 31.67C119.678 31.7208 119.221 31.7208 118.814 31.7208C117.696 31.7208 116.731 31.5683 115.918 31.2126C115.105 30.8569 114.393 30.3996 113.885 29.8407C113.326 29.2309 112.971 28.5196 112.717 27.7574C112.31 26.8427 112.158 25.9789 112.158 25.0135ZM120.694 23.6923C120.694 23.2858 120.643 22.8793 120.542 22.5237C120.44 22.168 120.237 21.8123 120.034 21.5582C119.83 21.3041 119.526 21.1009 119.221 20.8976C118.916 20.7452 118.509 20.6436 118.103 20.6436C117.646 20.6436 117.239 20.7452 116.934 20.8976C116.578 21.0501 116.324 21.3041 116.07 21.5582C115.816 21.8123 115.664 22.168 115.511 22.5237C115.359 22.8793 115.308 23.235 115.257 23.6415H120.694V23.6923Z" fill="#F3E7E7"/>
<path d="M126.488 18.9677C127.047 18.8153 127.809 18.6628 128.724 18.5104C129.639 18.3579 130.655 18.3071 131.722 18.3071C132.738 18.3071 133.653 18.4596 134.313 18.7136C135.025 19.0185 135.584 19.3742 135.99 19.9331C136.397 20.4413 136.702 21.051 136.854 21.8132C137.007 22.5246 137.108 23.3376 137.108 24.2014V31.4168H134.161V24.6587C134.161 23.9982 134.11 23.3884 134.009 22.9311C133.907 22.4738 133.755 22.0673 133.551 21.7624C133.348 21.4575 133.094 21.2543 132.738 21.1018C132.383 20.9494 131.976 20.8986 131.468 20.8986C131.112 20.8986 130.706 20.8986 130.299 20.9494C129.893 21.0002 129.588 21.051 129.385 21.051V31.366H126.438V18.9677H126.488Z" fill="#F3E7E7"/>
<path d="M140.309 15.1561L143.256 14.6479V18.5097H147.779V20.9996H143.256V26.2333C143.256 27.2495 143.409 28.0117 143.764 28.4182C144.069 28.8755 144.628 29.0788 145.441 29.0788C146 29.0788 146.457 29.028 146.864 28.9263C147.27 28.8247 147.626 28.7231 147.829 28.6215L148.338 30.9589C147.982 31.1113 147.575 31.2637 147.016 31.4162C146.457 31.5686 145.797 31.6702 145.085 31.6702C144.171 31.6702 143.409 31.5686 142.799 31.3146C142.189 31.0605 141.732 30.7048 141.325 30.2475C140.97 29.7902 140.716 29.2312 140.563 28.5707C140.411 27.9101 140.36 27.1479 140.36 26.2841V15.1561H140.309Z" fill="#F3E7E7"/>
<path d="M154.18 29.2305C154.943 29.2305 155.552 29.1289 155.908 28.9256C156.264 28.7224 156.467 28.4175 156.467 27.9602C156.467 27.5537 156.264 27.198 155.908 26.8931C155.501 26.639 154.892 26.3342 154.028 25.9785C153.469 25.7752 153.012 25.572 152.554 25.3687C152.097 25.1655 151.741 24.9114 151.386 24.6065C151.081 24.3016 150.827 23.946 150.623 23.5394C150.42 23.1329 150.319 22.6248 150.319 22.0151C150.319 20.8464 150.725 19.9317 151.589 19.2204C152.453 18.5598 153.621 18.2041 155.095 18.2041C155.857 18.2041 156.569 18.2549 157.229 18.4073C157.89 18.5598 158.398 18.6614 158.753 18.8139L158.195 21.2021C157.89 21.0496 157.432 20.8972 156.975 20.7956C156.467 20.6939 155.908 20.5923 155.247 20.5923C154.638 20.5923 154.18 20.6939 153.774 20.8972C153.418 21.1004 153.215 21.4053 153.215 21.8626C153.215 22.0659 153.266 22.2691 153.317 22.4216C153.367 22.574 153.52 22.7264 153.672 22.8789C153.875 23.0313 154.079 23.1329 154.384 23.2854C154.688 23.4378 155.044 23.5903 155.451 23.6919C156.162 23.946 156.721 24.2 157.229 24.4541C157.737 24.7081 158.093 25.013 158.449 25.3179C158.753 25.6228 159.008 25.9785 159.16 26.385C159.312 26.7915 159.363 27.2996 159.363 27.8585C159.363 29.078 158.906 29.9927 157.991 30.6532C157.077 31.263 155.806 31.6187 154.13 31.6187C153.012 31.6187 152.097 31.5171 151.436 31.3138C150.776 31.1106 150.268 30.9581 150.014 30.8565L150.522 28.3667C150.979 28.5699 151.487 28.7224 152.097 28.8748C152.707 29.1289 153.418 29.2305 154.18 29.2305Z" fill="#F3E7E7"/>
<path d="M164.904 23.5406C165.26 23.1341 165.667 22.7276 166.073 22.2703C166.48 21.813 166.886 21.3557 167.293 20.8984C167.699 20.4411 168.106 20.0346 168.461 19.5772C168.817 19.1707 169.122 18.815 169.376 18.5102H172.882C172.069 19.4248 171.205 20.3902 170.341 21.3557C169.427 22.3211 168.563 23.2866 167.648 24.2012C168.156 24.6077 168.665 25.1158 169.173 25.6748C169.732 26.2337 170.24 26.8943 170.748 27.504C171.256 28.1646 171.713 28.8252 172.171 29.4857C172.628 30.1463 172.984 30.7561 173.289 31.315H169.884C169.579 30.8069 169.274 30.2987 168.868 29.7398C168.461 29.1809 168.055 28.6219 167.648 28.1138C167.191 27.6057 166.784 27.0975 166.327 26.6402C165.87 26.1829 165.413 25.7764 165.006 25.4715V31.3658H161.957V12.8699L164.904 12.3618V23.5406Z" fill="#F3E7E7"/>
<path d="M179.384 18.2048C180.349 18.2048 181.162 18.3064 181.823 18.5605C182.484 18.8146 183.043 19.1703 183.398 19.5768C183.805 20.0341 184.059 20.5422 184.262 21.2028C184.415 21.8125 184.516 22.5239 184.516 23.2861V31.0605C184.059 31.1621 183.398 31.2637 182.484 31.4162C181.569 31.5686 180.553 31.6194 179.384 31.6194C178.622 31.6194 177.91 31.5686 177.301 31.4162C176.691 31.2637 176.132 31.0097 175.675 30.7048C175.217 30.3999 174.862 29.9426 174.608 29.4345C174.354 28.9263 174.252 28.2658 174.252 27.5036C174.252 26.7922 174.404 26.1316 174.658 25.6235C174.963 25.1154 175.319 24.7089 175.827 24.404C176.335 24.0991 176.894 23.845 177.504 23.6926C178.165 23.5402 178.825 23.4894 179.536 23.4894C179.841 23.4894 180.197 23.4894 180.553 23.5402C180.908 23.591 181.315 23.6418 181.721 23.7434V23.2353C181.721 22.8796 181.671 22.5747 181.62 22.2698C181.518 21.965 181.417 21.7109 181.213 21.4568C181.01 21.2028 180.756 21.0503 180.4 20.8979C180.045 20.7455 179.638 20.6946 179.13 20.6946C178.469 20.6946 177.809 20.7455 177.25 20.8471C176.691 20.9487 176.234 21.0503 175.878 21.2028L175.522 18.8146C175.878 18.6621 176.437 18.5605 177.148 18.4081C177.809 18.2556 178.571 18.2048 179.384 18.2048ZM179.638 29.282C180.553 29.282 181.213 29.2312 181.721 29.1296V25.8267C181.569 25.7759 181.315 25.7251 181.01 25.6743C180.705 25.6235 180.349 25.6235 179.994 25.6235C179.689 25.6235 179.333 25.6235 179.028 25.6743C178.673 25.7251 178.419 25.8267 178.114 25.9284C177.86 26.0808 177.606 26.2333 177.453 26.4873C177.301 26.7414 177.199 27.0463 177.199 27.4019C177.199 28.1133 177.402 28.5706 177.86 28.8755C178.266 29.1296 178.876 29.282 179.638 29.282ZM183.043 13.276L179.079 17.1378L177.606 15.8166L181.162 11.5483L183.043 13.276Z" fill="#F3E7E7"/>
<path d="M204.282 30.9589C203.724 31.1113 202.961 31.2638 202.047 31.4162C201.132 31.5686 200.116 31.6703 199.049 31.6703C198.033 31.6703 197.169 31.5178 196.457 31.2129C195.746 30.9081 195.238 30.5016 194.78 29.9934C194.374 29.4853 194.069 28.8247 193.917 28.1134C193.713 27.402 193.663 26.589 193.663 25.7252V18.5605H196.61V25.2678C196.61 26.6398 196.813 27.6052 197.219 28.215C197.626 28.8247 198.287 29.0788 199.303 29.0788C199.659 29.0788 200.014 29.0788 200.421 29.028C200.827 28.9772 201.132 28.9772 201.285 28.9264V18.5605H204.232V30.9589H204.282Z" fill="#F3E7E7"/>
<path d="M207.741 18.9677C208.299 18.8153 209.062 18.6628 209.976 18.5104C210.891 18.3579 211.907 18.3071 212.974 18.3071C213.99 18.3071 214.905 18.4596 215.566 18.7136C216.277 19.0185 216.836 19.3742 217.243 19.9331C217.649 20.4413 217.954 21.051 218.106 21.8132C218.259 22.5246 218.36 23.3376 218.36 24.2014V31.4168H215.413V24.6587C215.413 23.9982 215.362 23.3884 215.261 22.9311C215.159 22.4738 215.007 22.0673 214.803 21.7624C214.6 21.4575 214.346 21.2543 213.991 21.1018C213.635 20.9494 213.228 20.8986 212.72 20.8986C212.364 20.8986 211.958 20.8986 211.551 20.9494C211.145 21.0002 210.84 21.051 210.637 21.051V31.366H207.69V18.9677H207.741Z" fill="#F3E7E7"/>
<path d="M224.964 14.8005C224.964 15.3594 224.761 15.8167 224.406 16.1216C224.05 16.4265 223.643 16.6297 223.135 16.6297C222.627 16.6297 222.221 16.4773 221.865 16.1216C221.509 15.8167 221.306 15.3594 221.306 14.8005C221.306 14.2415 221.509 13.7842 221.865 13.4285C222.221 13.1237 222.627 12.9204 223.135 12.9204C223.643 12.9204 224.05 13.0728 224.406 13.4285C224.812 13.7842 224.964 14.1907 224.964 14.8005ZM224.66 31.3655H221.712V18.5606H224.66V31.3655Z" fill="#F3E7E7"/>
<path d="M227.455 25.0135C227.455 23.8956 227.608 22.8793 227.963 22.0663C228.319 21.2025 228.726 20.4911 229.285 19.9322C229.844 19.3733 230.453 18.9667 231.165 18.6619C231.876 18.357 232.587 18.2554 233.35 18.2554C235.077 18.2554 236.449 18.8143 237.465 19.8814C238.431 20.9993 238.939 22.6253 238.939 24.7594C238.939 24.9118 238.939 25.1151 238.939 25.3184C238.939 25.5216 238.939 25.7249 238.888 25.8773H230.504C230.606 26.8935 230.961 27.7066 231.571 28.2655C232.232 28.8244 233.146 29.1293 234.366 29.1293C235.077 29.1293 235.738 29.0785 236.348 28.9261C236.957 28.7736 237.415 28.672 237.77 28.5196L238.177 30.9586C238.024 31.0602 237.77 31.111 237.516 31.2126C237.211 31.3143 236.906 31.3651 236.551 31.4667C236.195 31.5175 235.789 31.6191 235.382 31.67C234.976 31.7208 234.518 31.7208 234.112 31.7208C232.994 31.7208 232.028 31.5683 231.215 31.2126C230.402 30.8569 229.691 30.3996 229.183 29.8407C228.624 29.2309 228.268 28.5196 228.014 27.7574C227.557 26.8427 227.455 25.9789 227.455 25.0135ZM235.992 23.6923C235.992 23.2858 235.941 22.8793 235.839 22.5237C235.738 22.168 235.535 21.8123 235.331 21.5582C235.128 21.3041 234.823 21.1009 234.518 20.8976C234.213 20.7452 233.807 20.6436 233.4 20.6436C232.943 20.6436 232.537 20.7452 232.232 20.8976C231.876 21.0501 231.622 21.3041 231.368 21.5582C231.114 21.8123 230.961 22.168 230.809 22.5237C230.657 22.8793 230.606 23.235 230.555 23.6415H235.992V23.6923Z" fill="#F3E7E7"/>
<path d="M254.688 31.7212C253.519 31.7212 252.554 31.5688 251.741 31.2131C250.928 30.8574 250.216 30.4001 249.708 29.7904C249.149 29.1806 248.743 28.4692 248.489 27.6562C248.234 26.8432 248.082 25.9286 248.082 24.9631V14.3433H251.182V24.6583C251.182 25.4205 251.283 26.081 251.436 26.64C251.588 27.1989 251.842 27.6562 252.147 27.9611C252.452 28.3168 252.858 28.5709 253.265 28.7233C253.671 28.8757 254.18 28.9774 254.739 28.9774C255.297 28.9774 255.755 28.8757 256.212 28.7233C256.669 28.5709 257.025 28.3168 257.33 27.9611C257.635 27.6054 257.889 27.1481 258.041 26.64C258.194 26.081 258.295 25.4205 258.295 24.6583V14.3433H261.395V24.9631C261.395 25.9286 261.243 26.8432 260.989 27.6562C260.734 28.4692 260.328 29.1806 259.769 29.7904C259.21 30.4001 258.549 30.8574 257.686 31.2131C256.822 31.518 255.806 31.7212 254.688 31.7212Z" fill="#F3E7E7"/>
<path d="M277.099 14.3433V17.0363H271.916V31.3656H268.816V17.0363H263.633V14.3433H277.099Z" fill="#F3E7E7"/>
<path d="M284.517 31.5186C283.602 31.5186 282.739 31.4678 281.824 31.417C280.909 31.3661 280.096 31.2645 279.436 31.0613V14.5979C279.791 14.5471 280.198 14.4963 280.604 14.3947C281.011 14.3438 281.417 14.293 281.824 14.2422C282.231 14.1914 282.688 14.1914 283.094 14.1914C283.501 14.1914 283.907 14.1914 284.263 14.1914C285.279 14.1914 286.245 14.293 287.109 14.4455C287.972 14.5979 288.735 14.852 289.395 15.2077C290.056 15.5634 290.513 16.0207 290.869 16.6304C291.224 17.2402 291.428 17.9516 291.428 18.8154C291.428 19.6284 291.224 20.2889 290.869 20.8479C290.462 21.4068 289.954 21.8641 289.293 22.2198C290.31 22.5755 291.072 23.0837 291.58 23.7442C292.088 24.4048 292.291 25.2686 292.291 26.2849C292.291 28.0125 291.682 29.3336 290.411 30.1974C289.039 31.1121 287.109 31.5186 284.517 31.5186ZM282.434 21.2544H284.619C285.787 21.2544 286.702 21.102 287.363 20.7463C288.023 20.3906 288.379 19.8316 288.379 18.9678C288.379 18.1548 288.023 17.5959 287.363 17.2402C286.651 16.8845 285.787 16.732 284.67 16.732C284.212 16.732 283.806 16.732 283.399 16.732C283.043 16.732 282.739 16.7829 282.485 16.7829V21.2544H282.434ZM282.434 23.6934V28.8763C282.789 28.9271 283.145 28.9271 283.552 28.9271C283.958 28.9271 284.314 28.9271 284.619 28.9271C285.228 28.9271 285.838 28.8763 286.397 28.8255C286.956 28.7239 287.413 28.6222 287.82 28.419C288.226 28.2157 288.531 27.9617 288.785 27.606C289.039 27.2503 289.141 26.8438 289.141 26.2849C289.141 25.3194 288.785 24.6588 288.074 24.2523C287.363 23.8458 286.397 23.6934 285.178 23.6934H282.434Z" fill="#F3E7E7"/>
</svg>
