<svg width="321" height="43" viewBox="0 0 321 43" fill="none" xmlns="http://www.w3.org/2000/svg">
<path d="M23.517 0.103215L0.444336 7.86575V0.00976562H23.517V0.103215ZM0.537785 9.05256C0.537785 10.174 2.37874 11.205 4.55923 11.205C5.36912 11.205 6.14787 11.0493 6.80513 10.8312C7.49043 10.6132 28.9745 3.09983 28.9745 3.09983V33.9631C28.9745 33.9631 7.36583 41.5107 6.77398 41.7287C6.15098 41.9468 5.24764 42.1025 4.52808 42.1025C2.31644 42.1025 0.444336 40.9811 0.444336 38.9844V9.05256H0.537785Z" fill="#121212"/>
<path d="M57.7977 20.6185C57.7977 25.7333 55.8322 28.5399 50.842 28.5399C45.8549 28.5399 43.7959 25.7333 43.7959 20.6185V5.90332H46.7582V20.4939C46.7582 23.9546 47.727 25.7333 50.842 25.7333C53.9601 25.7333 54.8323 23.9578 54.8323 20.4939V5.90332H57.7946V20.6185H57.7977Z" fill="#121212"/>
<path d="M70.4741 18.7183C70.4741 17.0362 69.5396 15.8805 67.8856 15.8805C65.9512 15.8805 64.9544 17.0673 64.9544 18.7494V28.3841H62.1509V13.5412H64.9575V14.7872C65.487 14.1642 66.5804 13.3823 68.3559 13.3823C71.256 13.3823 73.2838 15.3479 73.2838 18.6529V28.381H70.4772V18.7183H70.4741Z" fill="#121212"/>
<path d="M79.0429 10.7343C77.8592 10.7343 77.2051 10.1113 77.2051 8.9899C77.2051 7.8062 77.8592 7.21436 79.0429 7.21436C80.1986 7.21436 80.8839 7.8062 80.8839 8.9899C80.8839 10.1736 80.1986 10.7343 79.0429 10.7343ZM80.4478 13.5409V28.3838H77.6412V13.5409H80.4478Z" fill="#121212"/>
<path d="M82.6262 13.541H85.7443L89.4231 24.6397L93.0708 13.541H96.1889L90.7626 28.3839H88.0494L82.6262 13.541Z" fill="#121212"/>
<path d="M99.8293 22.0859C100.141 24.799 101.701 25.8893 103.602 25.8893C105.751 25.8893 107.031 25.3597 108.121 24.799L108.62 27.5122C107.28 28.1352 105.907 28.5401 103.57 28.5401C99.8293 28.5401 96.8047 26.2319 96.8047 21.0891C96.8047 16.0709 99.6113 13.3857 103.134 13.3857C107.159 13.3857 109.371 16.2546 109.371 20.5907V22.089H99.8293V22.0859ZM106.408 19.84C106.408 17.2514 105.128 15.8777 103.134 15.8777C101.608 15.8777 100.141 16.7499 99.8293 19.84H106.408Z" fill="#121212"/>
<path d="M119.308 16.6281C118.965 16.4724 118.342 16.2543 117.56 16.2543C116.376 16.2543 115.598 17.2231 115.598 18.7494V28.3841H112.791V13.5412H115.598V15.2233C116.065 14.2576 116.812 13.3823 118.311 13.3823C118.875 13.3823 119.404 13.5381 119.684 13.6627L119.308 16.6281Z" fill="#121212"/>
<path d="M131.963 28.3842H120.927L128.004 15.8807H121.238V13.5444H132.309L125.543 25.8922H131.966V28.3842H131.963Z" fill="#121212"/>
<path d="M136.508 10.7343C135.324 10.7343 134.67 10.1113 134.67 8.9899C134.67 7.8062 135.324 7.21436 136.508 7.21436C137.664 7.21436 138.349 7.8062 138.349 8.9899C138.349 10.1736 137.664 10.7343 136.508 10.7343ZM137.913 13.5409V28.3838H135.106V13.5409H137.913Z" fill="#121212"/>
<path d="M149.416 28.0416C148.917 28.2908 148.26 28.54 146.983 28.54C145.269 28.54 143.273 27.8859 143.273 24.6432V15.8807H141.338V13.5445H143.273V7.77244L146.079 7.46094V13.5414H148.512V15.8776H146.079V24.6401C146.079 25.6992 146.64 26.0107 147.263 26.0107C147.98 26.0107 148.509 25.7926 149.042 25.5434L149.416 28.0416Z" fill="#121212"/>
<path d="M159.854 27.073C159.386 27.6025 158.386 28.5401 156.296 28.5401C153.085 28.5401 151.278 26.8549 151.278 23.8022C151.278 20.653 153.462 18.9678 156.393 18.9678C157.95 18.9678 159.262 19.5596 159.854 20.1858V18.3759C159.854 16.6004 158.667 15.9463 157.109 15.9463C155.362 15.9463 153.801 16.507 152.96 16.8496L152.649 14.2922C153.552 13.9496 155.019 13.3857 157.418 13.3857C160.754 13.3857 162.657 15.1332 162.657 18.3759V28.3844H159.854V27.073ZM159.854 23.363C159.854 22.2105 158.449 21.4317 156.954 21.4317C155.49 21.4317 154.24 22.0547 154.24 23.8022C154.24 25.3909 155.58 25.9827 156.954 25.9827C158.576 25.9827 159.854 24.9236 159.854 23.8614V23.363Z" fill="#121212"/>
<path d="M178.396 28.3842V8.70992H172.938V5.90332H186.813V8.70992H181.358V28.3842H178.396Z" fill="#121212"/>
<path d="M192.484 28.5398C188.868 28.5398 185.718 26.4497 185.718 20.9611C185.718 15.4725 188.992 13.3823 192.484 13.3823C196.007 13.3823 199.25 15.4725 199.25 20.9611C199.25 26.4497 196.069 28.5398 192.484 28.5398ZM192.484 15.8805C190.269 15.8805 188.677 17.628 188.677 20.9642C188.677 24.1757 190.332 25.8921 192.484 25.8921C194.664 25.8921 196.287 24.1789 196.287 20.9642C196.287 17.6249 194.696 15.8805 192.484 15.8805Z" fill="#121212"/>
<path d="M219.321 18.7183C219.321 17.0362 218.386 15.8805 216.732 15.8805C214.798 15.8805 213.801 17.0673 213.801 18.7494V28.3841H210.997V18.7183C210.997 17.0362 210.06 15.8805 208.409 15.8805C206.474 15.8805 205.478 17.0673 205.478 18.7494V28.3841H202.671V13.5412H205.478V14.7872C206.007 14.1642 207.1 13.3823 208.876 13.3823C210.714 13.3823 212.181 14.1642 213.022 15.5659C213.801 14.4445 215.171 13.3823 217.199 13.3823C220.099 13.3823 222.124 15.3479 222.124 18.6529V28.381H219.317V18.7183H219.321Z" fill="#121212"/>
<path d="M234.119 27.0723C233.651 27.6019 232.654 28.5395 230.564 28.5395C227.353 28.5395 225.543 26.8543 225.543 23.8016C225.543 20.6523 227.727 18.9671 230.658 18.9671C232.218 18.9671 233.527 19.559 234.119 20.1851V18.3753C234.119 16.5997 232.935 15.9456 231.374 15.9456C229.627 15.9456 228.069 16.5063 227.228 16.8489L226.917 14.2915C227.823 13.9489 229.287 13.3851 231.689 13.3851C235.025 13.3851 236.928 15.1326 236.928 18.3753V28.3837H234.122V27.0723H234.119ZM234.119 23.3624C234.119 22.2098 232.717 21.4311 231.218 21.4311C229.751 21.4311 228.505 22.0541 228.505 23.8016C228.505 25.3902 229.848 25.9821 231.218 25.9821C232.841 25.9821 234.119 24.923 234.119 23.8608V23.3624ZM232.218 6.52588H235.368L232.44 11.4538H230.225L232.218 6.52588Z" fill="#121212"/>
<path d="M245.241 28.5395C242.902 28.5395 241.282 27.8853 240.379 27.4773L240.877 24.8264C242.061 25.3871 243.556 25.8855 245.241 25.8855C246.55 25.8855 247.796 25.5117 247.796 24.1723C247.796 22.8297 246.363 22.4871 244.771 22.0821C242.712 21.5526 240.344 20.8984 240.344 17.8115C240.344 14.818 242.432 13.382 245.923 13.382C247.982 13.382 249.446 13.8492 250.446 14.2542L249.979 16.8739C248.823 16.3443 247.702 15.8771 245.989 15.8771C244.304 15.8771 243.276 16.4409 243.276 17.7803C243.276 18.8394 244.494 19.1852 245.927 19.5901C248.11 20.182 250.823 20.8673 250.823 24.11C250.823 26.9477 249.169 28.5395 245.241 28.5395ZM241.189 6.52588H243.684L245.587 9.30133L247.49 6.52588H249.985L247.085 11.4538H244.092L241.189 6.52588Z" fill="#121212"/>
<path d="M256.333 22.0859C256.647 24.799 258.205 25.8893 260.105 25.8893C262.257 25.8893 263.535 25.3597 264.628 24.799L265.126 27.5122C263.784 28.1352 262.413 28.5401 260.074 28.5401C256.333 28.5401 253.308 26.2319 253.308 21.0891C253.308 16.0709 256.115 13.3857 259.638 13.3857C263.659 13.3857 265.874 16.2546 265.874 20.5907V22.089H256.333V22.0859ZM262.912 19.84C262.912 17.2514 261.634 15.8777 259.638 15.8777C258.108 15.8777 256.644 16.7499 256.33 19.84H262.912Z" fill="#121212"/>
<path d="M282.702 28.3842H276.466V5.90332H283.169C287.315 5.90332 289.748 8.18037 289.748 11.8903C289.748 14.4477 288.408 15.8495 286.536 16.7559C288.561 17.6001 289.904 19.5314 289.904 21.933C289.904 25.9825 287.128 28.3842 282.702 28.3842ZM283.2 8.70992H279.428V15.3822H282.795C285.1 15.3822 286.63 14.2608 286.63 12.0461C286.63 9.76901 285.197 8.70992 283.2 8.70992ZM282.795 18.1888H279.428V25.5776H282.795C285.135 25.5776 286.786 24.3004 286.786 21.9922C286.786 19.5906 285.1 18.1888 282.795 18.1888Z" fill="#121212"/>
<path d="M301.279 27.073C300.811 27.6025 299.815 28.5401 297.724 28.5401C294.513 28.5401 292.703 26.8549 292.703 23.8022C292.703 20.653 294.887 18.9678 297.818 18.9678C299.379 18.9678 300.687 19.5596 301.279 20.1858V18.3759C301.279 16.6004 300.095 15.9463 298.534 15.9463C296.787 15.9463 295.229 16.507 294.388 16.8496L294.077 14.2922C294.98 13.9496 296.447 13.3857 298.849 13.3857C302.185 13.3857 304.088 15.1332 304.088 18.3759V28.3844H301.282V27.073H301.279ZM301.279 23.363C301.279 22.2105 299.877 21.4317 298.379 21.4317C296.911 21.4317 295.665 22.0547 295.665 23.8022C295.665 25.3909 297.008 25.9827 298.379 25.9827C300.002 25.9827 301.279 24.9236 301.279 23.8614V23.363Z" fill="#121212"/>
<path d="M314.954 28.0416C314.456 28.2908 313.802 28.54 312.525 28.54C310.808 28.54 308.815 27.8859 308.815 24.6432V15.8807H306.88V13.5445H308.815V7.77244L311.621 7.46094V13.5414H314.054V15.8776H311.621V24.6401C311.621 25.6992 312.182 26.0107 312.805 26.0107C313.522 26.0107 314.051 25.7926 314.581 25.5434L314.954 28.0416Z" fill="#121212"/>
<path d="M319.159 10.7343C317.975 10.7343 317.321 10.1113 317.321 8.9899C317.321 7.8062 317.975 7.21436 319.159 7.21436C320.315 7.21436 321 7.8062 321 8.9899C321 10.1736 320.315 10.7343 319.159 10.7343ZM320.564 13.5409V28.3838H317.757V13.5409H320.564Z" fill="#121212"/>
</svg>
