<?xml version="1.0" encoding="UTF-8"?>
<svg id="svg107" xmlns="http://www.w3.org/2000/svg" xmlns:xlink="http://www.w3.org/1999/xlink" viewBox="0 0 738.04 794.54">
  <defs>
    <style>
      .cls-1 {
        stroke: #f3e7e7;
        stroke-miterlimit: 10;
      }

      .cls-1, .cls-2 {
        fill: #f3e7e7;
      }

      .cls-3 {
        fill: none;
      }

      .cls-3, .cls-2 {
        stroke-width: 0px;
      }

      .cls-4 {
        clip-path: url(#clippath);
      }
    </style>
    <clipPath id="clippath">
      <rect class="cls-3" width="738.04" height="794.04"/>
    </clipPath>
  </defs>
  <g class="cls-4">
    <g id="Vrstva_2" data-name="Vrstva 2">
      <g id="Vrstva_1-2" data-name="Vrstva 1-2">
        <path id="path1" class="cls-2" d="m62.19,266.64c-21.69,0-13.74-40.92-36.46-40.92h-14.55v32.07c0,8.3,5.6,8.85,5.6,8.85H0s5.61-.55,5.61-8.85v-68.24C5.61,181.25,0,180.7,0,180.7h26c15.48.11,26.53,8.93,26.53,22.51,0,12.11-8.78,20.43-21.65,22.17,21.21,5.08,22.39,41.26,31.31,41.26h0Zm-51-41.84h14.55c12.55,0,21.23-7,21.23-21.59s-8.68-21.58-21.23-21.58h-14.56v43.17Z"/>
        <path id="path2" class="cls-2" d="m119.63,243.14l-4.47,23.5h-51s5.61-.55,5.61-8.85v-68.24c0-8.3-5.61-8.85-5.61-8.85h51l4.47,23.5s-5.39-22.57-14.63-22.57h-29.67v41.58h20.82c8.3,0,8.85-13.64,8.85-13.64v28.2s-.55-13.64-8.85-13.64h-20.82v41.58h29.67c9.24,0,14.63-22.57,14.63-22.57h0Z"/>
        <path id="path3" class="cls-2" d="m179.52,206c0,15.13-11.18,25.29-26.8,25.29h-19v26.5c0,8.3,5.61,8.85,5.61,8.85h-16.77s5.6-.55,5.6-8.85v-68.24c0-8.3-5.6-8.85-5.6-8.85h31.09c15.14.41,25.87,10.46,25.87,25.3h0Zm-5.57,0c0-14.6-8.68-24.37-21.23-24.37h-19v48.73h19c12.55,0,21.23-9.77,21.23-24.36Z"/>
        <path id="path4" class="cls-2" d="m241.34,266.64c-21.68,0-13.73-40.92-36.45-40.92h-14.55v32.07c0,8.3,5.6,8.85,5.6,8.85h-16.78s5.6-.55,5.6-8.85v-68.24c0-8.3-5.6-8.85-5.6-8.85h26c15.48.11,26.53,8.93,26.53,22.51,0,12.11-8.78,20.43-21.65,22.17,21.21,5.08,22.39,41.26,31.3,41.26h0Zm-51-41.84h14.55c12.55,0,21.23-7,21.23-21.59s-8.68-21.58-21.23-21.58h-14.55v43.17Z"/>
        <path id="path5" class="cls-2" d="m298.79,243.14l-4.47,23.5h-51s5.6-.55,5.6-8.85v-68.24c0-8.3-5.6-8.85-5.6-8.85h51l4.47,23.5s-5.39-22.57-14.63-22.57h-29.67v41.58h20.82c8.29,0,8.85-13.64,8.85-13.64v28.2s-.56-13.64-8.85-13.64h-20.82v41.58h29.67c9.24,0,14.63-22.57,14.63-22.57h0Z"/>
        <path id="path6" class="cls-2" d="m352.27,243.14l-4.48,23.5h-48.36l46.75-85h-27.61c-9.25,0-14.63,22.57-14.63,22.57l4.47-23.5h43.86l-46.75,85h32.12c9.24,0,14.63-22.57,14.63-22.57h0Z"/>
        <path id="path7" class="cls-2" d="m410.93,243.14l-4.47,23.5h-51s5.6-.55,5.6-8.85v-68.24c0-8.3-5.6-8.85-5.6-8.85h51l4.47,23.5s-5.38-22.57-14.63-22.57h-29.67v41.58h20.82c8.3,0,8.85-13.64,8.85-13.64v28.2s-.55-13.64-8.85-13.64h-20.82v41.58h29.67c9.25,0,14.63-22.57,14.63-22.57h0Z"/>
        <path id="path8" class="cls-2" d="m473.9,180.7s-5.6.55-5.6,8.85v77.09h-.93l-47-84.26v75.41c0,8.3,5.61,8.85,5.61,8.85h-12.12s5.6-.55,5.6-8.85v-68.24c0-8.3-5.6-8.85-5.6-8.85h11.17l42.34,75.94v-67.09c0-8.3-5.6-8.85-5.6-8.85h12.13Z"/>
        <path id="path9" class="cls-2" d="m536.09,204.2s-5.38-22.57-14.63-22.57h-13.67v76.16c0,8.3,5.6,8.85,5.6,8.85h-16.78s5.61-.55,5.61-8.85v-76.16h-13.68c-9.24,0-14.63,22.57-14.63,22.57l4.47-23.5h53.24l4.47,23.5Z"/>
        <path id="path10" class="cls-2" d="m594.69,266.64h-16.75s5.24-1,2.51-8.85l-7.58-21.93h-31.84l-7.47,21.93c-2.76,8.07,2.58,8.85,2.58,8.85h-12.12s5.92-.93,8.61-8.85l26.25-77.09h.91l26.26,77.09c1.26,4.19,4.49,7.49,8.64,8.85h0Zm-22.15-31.71l-15.56-45-.15-.48-15.48,45.48h31.19Z"/>
        <path id="path11" class="cls-2" d="m650.59,250.22h.93c-6.51,10.54-16.85,17.35-29.25,17.35-20.49,0-34-19.65-34-43.9s13.87-43.9,33.78-43.9c16.8,0,23.81,16.14,24.72,3.51v20.66c-.79-10.73-12.3-23.24-24.61-23.24-16.59,0-28.33,19.24-28.33,43s11.32,43,28.73,43c18.81-.06,28.03-16.48,28.03-16.48h0Z"/>
        <path id="path12" class="cls-2" d="m711.79,180.7s-5.61.55-5.61,8.85v77.09h-.93l-47-84.26v75.41c0,8.3,5.61,8.85,5.61,8.85h-12.07s5.61-.55,5.61-8.85v-68.24c0-8.3-5.61-8.85-5.61-8.85h11.17l42.34,75.94v-67.09c0-8.3-5.6-8.85-5.6-8.85h12.09Z"/>
        <path id="path13" class="cls-2" d="m726.18,189.55v68.24c0,8.3,5.61,8.85,5.61,8.85h-16.78s5.6-.55,5.6-8.85v-68.24c0-8.3-5.6-8.85-5.6-8.85h16.78s-5.61.55-5.61,8.85h0Z"/>
        <path id="path14" class="cls-2" d="m304.2,327.55c0,15.14-11.18,25.3-26.8,25.3h-19v26.5c0,8.3,5.61,8.85,5.61,8.85h-16.77s5.6-.55,5.6-8.85v-68.24c0-8.3-5.6-8.85-5.6-8.85h31.09c15.13.41,25.87,10.46,25.87,25.29Zm-5.57,0c0-14.59-8.68-24.36-21.23-24.36h-19v48.73h19c12.55,0,21.23-9.77,21.23-24.37h0Z"/>
        <path id="path15" class="cls-2" d="m359.7,364.7l-4.47,23.5h-51s5.6-.55,5.6-8.85v-68.24c0-8.3-5.6-8.85-5.6-8.85h16.78s-5.6.55-5.6,8.85v76.16h29.66c9.24,0,14.63-22.58,14.63-22.57h0Z"/>
        <path id="path16" class="cls-2" d="m486.67,381.58c0,17.18-17.41,33.14-47.85,33.14-26.4,0-41.17-12.29-46.46-26.52h-32.63s5.6-.55,5.6-8.85v-68.24c0-8.3-5.6-8.85-5.6-8.85h51l4.46,23.49c-.16-.69-5.53-22.56-14.63-22.56h-29.66v41.57h20.82c8.3,0,8.85-13.63,8.85-13.63v28.2c-.11-2.03-.44-4.04-1-6l-.09-.29-.27.29c-8.15,8.8-10.42,22.06-6,33.91h7.44c9.1,0,14.47-21.88,14.63-22.56l-4.49,23.52h-17.3c5.56,13.87,20.35,25.59,45.59,25.59s41.92-14.09,41.92-29c0-31.77-65-36.8-65-65.26,0-9,8.51-18.16,23.75-18.16,17,0,24.15,16.13,25.07,3.51v20.62c-.8-10.73-12.47-23.24-25-23.24-11.57,0-18.22,7.48-18.22,15.76.04,24.57,65.07,29.4,65.07,63.56h0Zm-94.64,5.69c-1.28-3.75-1.94-7.69-1.94-11.66,0-8.64,3.14-16.9,9-22.6l.28-.26c-1.15-3.49-3.37-7.06-7.62-7.06h-20.85v41.58h21.13Z"/>
        <path id="path17" class="cls-2" d="m203.03,450.65v-12.65h2.51v12.65c0,1.45-.29,2.89-.84,4.24-.56,1.4-1.5,2.62-2.71,3.51-1.38.98-3.05,1.48-4.75,1.41-1.7.07-3.38-.43-4.76-1.43-1.2-.91-2.13-2.12-2.69-3.52-.55-1.34-.84-2.77-.85-4.21v-12.65h2.52v12.62c0,1.13.2,2.25.61,3.31.38,1.03,1.04,1.93,1.91,2.6,1.97,1.35,4.56,1.35,6.53,0,.86-.68,1.52-1.58,1.91-2.6.4-1.05.61-2.16.61-3.28h0Z"/>
        <path id="path18" class="cls-2" d="m225.22,453.41v-15.41h2.51v21.44h-3.88l-11.3-19.17h-.4c.16,1.24.24,2.49.24,3.74v15.43h-2.51v-21.44h3.91l11.27,19.17h.4c-.16-1.25-.24-2.5-.24-3.76h0Z"/>
        <path id="path19" class="cls-2" d="m234.79,438v21.44h-2.51v-21.44h2.51Z"/>
        <path id="path20" class="cls-2" d="m253.88,438h2.63l-7.65,21.44h-3.92l-7.66-21.44h2.64l6.4,17.64c.17.5.3,1.01.39,1.53h.37c.09-.52.22-1.03.4-1.53l6.4-17.64Z"/>
        <path id="path21" class="cls-2" d="m272.22,440.3h-10.69v7.26h9.68v2.2h-9.68v7.44h10.69v2.27h-13.2v-21.44h13.17l.03,2.27Z"/>
        <path id="path22" class="cls-2" d="m288.98,449c.48.29.89.7,1.18,1.18.29.47.44,1.01.44,1.56v7.72h-2.33v-7.65c.01-.53-.2-1.04-.58-1.41-.36-.38-.86-.6-1.38-.59h-8.52v9.65h-2.48v-21.46h9.19c1.21-.04,2.42.21,3.52.71.89.41,1.64,1.08,2.16,1.91.49.83.74,1.78.72,2.74.02.86-.2,1.7-.64,2.44-.36.59-.84,1.1-1.4,1.51-.44.32-.92.59-1.42.8h0v.43c.55.01,1.08.17,1.54.46h0Zm-2.7-1.86c.62-.26,1.15-.69,1.54-1.23.4-.59.6-1.29.58-2,.02-.71-.18-1.41-.58-2-.39-.54-.92-.97-1.54-1.23-.63-.27-1.31-.41-2-.41h-6.49v7.26h6.43c.71.02,1.41-.11,2.06-.38h0Z"/>
        <path id="path23" class="cls-2" d="m296.12,456.87v.33h12.8v2.27h-15.68v-2.11l11.24-15.1c.45-.67,1.06-1.21,1.77-1.59v-.37h-12.37v-2.3h15.19v2.12l-11.12,14.94c-.49.72-1.11,1.33-1.83,1.81Z"/>
        <path id="path24" class="cls-2" d="m314.59,438v21.44h-2.51v-21.44h2.51Z"/>
        <path id="path25" class="cls-2" d="m332.9,440.3h-6.58v19.17h-2.53v-19.17h-6.58v-2.3h15.67l.02,2.3Z"/>
        <path id="path26" class="cls-2" d="m343.68,446.06l4.78-8h2.63l-7,11.86v9.58h-2.51v-9.61l-7-11.83h2.63l4.75,8c.26.46.48.94.67,1.44h.43c.16-.5.37-.98.62-1.44Z"/>
        <path id="path27" class="cls-2" d="m375.9,440.3h-6.59v19.17h-2.52v-19.17h-6.58v-2.3h15.68v2.3Z"/>
        <path id="path28" class="cls-2" d="m391.34,439.31c1.45,1.06,2.58,2.5,3.25,4.16.67,1.69,1.01,3.49,1,5.31.02,1.81-.32,3.61-1,5.29-.67,1.66-1.79,3.09-3.24,4.14-3.37,2.17-7.7,2.17-11.07,0-1.45-1.05-2.58-2.48-3.26-4.14-1.39-3.4-1.39-7.2,0-10.6.68-1.66,1.81-3.1,3.26-4.16,3.37-2.19,7.71-2.19,11.08,0h-.02Zm-1.44,17c1.09-.86,1.93-2.01,2.42-3.31,1.04-2.7,1.04-5.7,0-8.4-.49-1.31-1.32-2.46-2.42-3.32-1.18-.9-2.64-1.37-4.12-1.31-1.49-.05-2.95.41-4.13,1.31-1.1.86-1.94,2.01-2.42,3.32-1.01,2.71-1.01,5.69,0,8.4.49,1.3,1.32,2.45,2.42,3.31,1.19.9,2.64,1.36,4.13,1.3,1.49.05,2.94-.43,4.12-1.34v.04Z"/>
        <path id="path29" class="cls-2" d="m417.69,438h4.16v21.44h-2.51v-15.65c0-1.17.1-2.33.28-3.49h-.43l-7,19.17h-3.49l-7-19.17h-.43c.08.51.14,1.08.2,1.7.06.62.07,1.22.07,1.79v15.68h-2.51v-21.47h4.2l7,19.17h.43l7.03-19.17Z"/>
        <path id="path30" class="cls-2" d="m443.13,459.47h-2.34l-1.9-5.36h-10.3l-1.9,5.36h-2.33l7.72-21.47h3.34l7.71,21.47Zm-5-7.44l-4.16-11.73h-.43l-4.19,11.7,8.78.03Zm-3.15-15.62h-2.19l1.9-4h2.33l-2.04,4Z"/>
        <path id="path31" class="cls-2" d="m460.05,453.44c.01,2.33-1.32,4.46-3.43,5.46-1.39.67-2.93,1-4.47.94-1.55.05-3.09-.29-4.47-1-1.1-.55-2-1.41-2.61-2.48-.54-.96-.82-2.04-.82-3.14h2.54c0,.72.2,1.43.56,2.06.43.7,1.05,1.26,1.79,1.62.96.46,2.01.68,3.07.64,1.03.03,2.06-.17,3-.6.73-.33,1.34-.87,1.76-1.54.37-.6.57-1.29.57-2,.02-.69-.23-1.36-.71-1.86-.5-.49-1.1-.87-1.76-1.11-.82-.3-1.67-.53-2.53-.68l-.91-.18-.49-.09c-1.11-.21-2.2-.51-3.25-.92-.91-.36-1.72-.96-2.34-1.72-.7-.89-1.05-1.99-1-3.12,0-1.03.28-2.03.81-2.91.61-.98,1.49-1.77,2.53-2.28,1.35-.65,2.83-.95,4.32-.9,1.49-.05,2.98.26,4.33.9,1.05.5,1.93,1.29,2.54,2.28.53.88.82,1.88.82,2.91v.28h-2.52v-.25c0-.65-.19-1.28-.55-1.82-.42-.63-1.01-1.13-1.7-1.44-.92-.41-1.92-.61-2.92-.57-.99-.04-1.98.16-2.89.57-.69.31-1.28.81-1.7,1.44-.36.54-.55,1.17-.56,1.82-.03.67.18,1.32.6,1.84.4.47.91.84,1.49,1.06.73.27,1.49.47,2.26.59l.55.09h.07c1.36.24,2.69.57,4,1,1.07.36,2.03.98,2.8,1.81.82.9,1.26,2.08,1.22,3.3h0Zm-9.53-17.44h3l2.48-3.64h-2.26l-1.59,2.27h-.22l-1.59-2.27h-2.27l2.45,3.64Z"/>
        <path id="path32" class="cls-2" d="m476.79,440.3h-10.71v7.26h9.71v2.2h-9.67v7.44h10.67v2.27h-13.22v-21.44h13.22v2.27Z"/>
        <path id="path33" class="cls-2" d="m503.7,457c-.8.86-1.82,1.5-2.94,1.85-1.22.39-2.5.59-3.79.58h-7.9v-21.43h7.87c1.11,0,2.21.18,3.25.56.98.33,1.84.93,2.5,1.73,1.58,1.94,1.29,4.79-.65,6.37-.17.14-.36.27-.55.39-.64.38-1.36.63-2.1.72v.43c.93.14,1.83.44,2.65.89.81.44,1.5,1.09,2,1.87.53.83.8,1.8.78,2.79.05,1.19-.35,2.35-1.12,3.25h0Zm-3.62-10.92c.81-.56,1.27-1.5,1.21-2.48.07-.99-.39-1.94-1.21-2.51-.89-.58-1.94-.87-3-.83h-5.49v6.74h5.49c1.07.02,2.11-.29,3-.88v-.04Zm-.36,10.67c.75-.24,1.4-.7,1.89-1.32.96-1.35.96-3.16,0-4.51-.49-.6-1.15-1.05-1.89-1.3-.83-.29-1.71-.43-2.59-.42h-5.55v8h5.55c.88.01,1.76-.13,2.59-.41v-.04Z"/>
        <path id="path34" class="cls-2" d="m524.69,459.47h-2.33l-1.9-5.36h-10.32l-1.89,5.36h-2.33l7.72-21.47h3.33l7.72,21.47Zm-5-7.44l-4.17-11.73h-.43l-4.18,11.7,8.78.03Z"/>
        <path id="path35" class="cls-2" d="m538.39,440.3h-6.6v19.17h-2.51v-19.17h-6.59v-2.3h15.7v2.3Z"/>
        <path id="path36" class="cls-2" d="m543.53,438v21.44h-2.51v-21.44h2.51Z"/>
        <polygon id="polygon46" class="cls-2" points="631.33 163.72 636.91 163.72 622.36 177.32 621.43 177.32 631.33 163.72"/>
        <polygon id="polygon47" class="cls-2" points="732.47 163.72 738.04 163.72 723.49 177.32 722.56 177.32 732.47 163.72"/>
        <polygon id="polygon48" class="cls-2" points="622.32 177.32 621.39 177.32 606.84 163.72 612.42 163.72 622.32 177.32"/>
       
        <path id="path104" class="cls-2" d="m357.6,43.86c3.63,7.18,8,14.77,11.42,21.6-3.36-8-5.85-15.32-8.94-23-1-2.35-1.93-4.52-1.79-7.06s1.22-4.77,2.3-7l3.53-7.4c1.2-2.54,3.21-6.85,4.9-10.51,2.74,5.94,5.67,12.16,8.43,17.89l.89,1.84c1.46,2.64,1.82,5.75,1,8.66-3.52,9-6.51,17.33-10.3,26.56,3.42-6.81,7.75-14.44,11.39-21.59l1-1.91c2.22-4.11,2.36-9.03.36-13.25-3.4-7.92-7.18-16.5-10.74-24.31L369.05,0l-2,4.38c-3,6.63-7.07,15.74-10,22.43l-.8,1.87c-2.03,4.22-1.9,9.15.34,13.26l1.01,1.92Z"/>
        <path id="path105" class="cls-2" d="m410.79,45.35c-7-3.48-15-2.68-22,2.2-12.81,8.9-15,20.08-14.61,27.9v.7c-1.57-.07-3.14-.11-4.72-.12-.4-4.11-.45-7.47-.45-7.47,0,0-.05,3.36-.45,7.47-1.57,0-3.15,0-4.72.12v-.7c.41-7.82-1.79-19-14.61-27.9-7-4.88-15-5.68-22-2.2-5.91,2.95-9.88,8.67-10.1,14.56s3.19,11.29,9.54,15.09l4,2.38-.73-4.6c0-.06-.93-6.19,2.22-9.78,1.65-1.9,4.25-2.83,7.75-2.74,9.76.22,17.29,5.11,19.7,12.79.03,1.14-.01,2.28-.12,3.42-2.1.2-4.19.51-6.26.93,1.98.4,3.99.7,6,.9-.4,2.56-1.09,5.07-2.07,7.47-1.98-2.17-4.31-4.01-6.88-5.44-3.58-2-8.58-1.4-9.52,3.19-.44,2.5.47,5.04,2.39,6.69.92.77,2.02,1.31,3.2,1.57,1.15.25,2.34.28,3.5.1-4.81.48-9.2-3.2-8-8.11,1-3.54,4.91-3.55,7.53-1.77,6.57,4.33,12.35,14.29,16.3,22-1.45,1.6-2.45,3.56-2.89,5.68-1,4.41-2.84,5-2.84,5,1.98-.27,3.84-1.1,5.35-2.4h0c-.37,3.23,1.05,6.4,3.71,8.27,2.66-1.87,4.08-5.04,3.71-8.27h0c1.52,1.31,3.38,2.14,5.36,2.41,0,0-1.81-.6-2.83-5-.44-2.12-1.44-4.09-2.9-5.69,4.14-8.06,12-21.69,19.21-23.12,7.43-.78,6.29,11.8-3.4,11,5.11.92,10-2.91,9.09-8.36-.94-4.59-6-5.2-9.52-3.19-2.57,1.46-4.91,3.28-6.94,5.42-.95-2.4-1.62-4.9-2-7.45,2-.21,4-.5,6-.91-2.07-.42-4.16-.74-6.26-.94-.11-1.13-.15-2.27-.12-3.4,2.41-7.69,9.94-12.58,19.7-12.8,3.48-.08,6.1.84,7.75,2.74,3.15,3.59,2.23,9.72,2.22,9.77l-.76,4.63,4-2.4c6.35-3.79,9.73-9.15,9.51-15.08-.22-5.93-4.14-11.61-10.04-14.56Zm-70.79,10.54c-4.86-.11-8.61,1.32-11.15,4.25-1.98,2.45-3.14,5.46-3.32,8.6-2.55-2.15-4.02-5.33-4-8.67.17-4.32,3.18-8.57,7.69-10.82,2.17-1.09,4.57-1.66,7-1.66,3.8.07,7.49,1.31,10.57,3.55,3.89,2.57,7.15,5.99,9.53,10-4.75-3.43-10.46-5.27-16.32-5.25Zm37.64,33.4c-3.14,3.87-6.02,7.94-8.61,12.2-.59-1-1.2-1.9-1.82-2.85-2.1-3.23-4.38-6.34-6.82-9.31,1.58-3.4,2.66-7.01,3.19-10.72,1.56.07,3.12.11,4.69.13-.62,4.74-1.72,9.68-3.71,11.34,0,0,4.46,3,4.46,7.24,0-4.25,4.46-7.24,4.46-7.24-2-1.66-3.09-6.6-3.71-11.34,1.57,0,3.13,0,4.69-.13.53,3.7,1.6,7.3,3.18,10.68Zm34.87-20.55c-.18-3.14-1.34-6.15-3.32-8.6-2.45-2.83-6-4.26-10.65-4.26h-.5c-5.86-.01-11.58,1.84-16.32,5.28,2.38-4.01,5.64-7.43,9.53-10,5.68-4,12.09-4.63,17.58-1.89,4.51,2.25,7.53,6.5,7.69,10.82.02,3.34-1.45,6.51-4.01,8.65Z"/>
      </g>
    </g>
  </g>
</svg>