<?xml version="1.0" encoding="UTF-8" standalone="no"?>
<svg
   viewBox="0 0 1510.46 1021.77"
   version="1.1"
   id="svg107"
   sodipodi:docname="HeroHeadingRight.svg"
   xmlns:inkscape="http://www.inkscape.org/namespaces/inkscape"
   xmlns:sodipodi="http://sodipodi.sourceforge.net/DTD/sodipodi-0.dtd"
   xmlns="http://www.w3.org/2000/svg"
   xmlns:svg="http://www.w3.org/2000/svg">
  <sodipodi:namedview
     id="namedview107"
     pagecolor="#ffffff"
     bordercolor="#000000"
     borderopacity="0.25"
     inkscape:showpageshadow="2"
     inkscape:pageopacity="0.0"
     inkscape:pagecheckerboard="0"
     inkscape:deskcolor="#d1d1d1"
     inkscape:zoom="0.81525195"
     inkscape:cx="-157.00668"
     inkscape:cy="465.50027"
     inkscape:window-width="1920"
     inkscape:window-height="1051"
     inkscape:window-x="-9"
     inkscape:window-y="-9"
     inkscape:window-maximized="1"
     inkscape:current-layer="svg107" />
  <defs
     id="defs1">
    <style
       id="style1">.cls-1{fill:#f3e7e7;}</style>
  </defs>
  <g
     id="Vrstva_2"
     data-name="Vrstva 2">
    <g
       id="Vrstva_1-2"
       data-name="Vrstva 1">
      <path
         class="cls-1"
         d="M448.4,266.64c-21.69,0-13.74-40.92-36.46-40.92H397.39v32.07c0,8.3,5.6,8.85,5.6,8.85H386.21s5.61-.55,5.61-8.85V189.55c0-8.3-5.61-8.85-5.61-8.85h26c15.48.11,26.53,8.93,26.53,22.51,0,12.11-8.78,20.43-21.65,22.17C438.3,230.46,439.48,266.64,448.4,266.64Zm-51-41.84h14.55c12.55,0,21.23-7,21.23-21.59s-8.68-21.58-21.23-21.58H397.39Z"
         id="path1" />
      <path
         class="cls-1"
         d="M505.84,243.14l-4.47,23.5h-51s5.61-.55,5.61-8.85V189.55c0-8.3-5.61-8.85-5.61-8.85h51l4.47,23.5s-5.39-22.57-14.63-22.57H461.54v41.58h20.82c8.3,0,8.85-13.64,8.85-13.64v28.2s-.55-13.64-8.85-13.64H461.54v41.58h29.67C500.45,265.71,505.84,243.14,505.84,243.14Z"
         id="path2" />
      <path
         class="cls-1"
         d="M565.73,206c0,15.13-11.18,25.29-26.8,25.29h-19v26.5c0,8.3,5.61,8.85,5.61,8.85H508.77s5.6-.55,5.6-8.85V189.55c0-8.3-5.6-8.85-5.6-8.85h31.09C555,181.11,565.73,191.16,565.73,206Zm-5.57,0c0-14.6-8.68-24.37-21.23-24.37h-19v48.73h19C551.48,230.36,560.16,220.59,560.16,206Z"
         id="path3" />
      <path
         class="cls-1"
         d="M627.55,266.64c-21.68,0-13.73-40.92-36.45-40.92H576.55v32.07c0,8.3,5.6,8.85,5.6,8.85H565.37s5.6-.55,5.6-8.85V189.55c0-8.3-5.6-8.85-5.6-8.85h26c15.48.11,26.53,8.93,26.53,22.51,0,12.11-8.78,20.43-21.65,22.17C617.46,230.46,618.64,266.64,627.55,266.64Zm-51-41.84H591.1c12.55,0,21.23-7,21.23-21.59s-8.68-21.58-21.23-21.58H576.55Z"
         id="path4" />
      <path
         class="cls-1"
         d="M685,243.14l-4.47,23.5h-51s5.6-.55,5.6-8.85V189.55c0-8.3-5.6-8.85-5.6-8.85h51L685,204.2s-5.39-22.57-14.63-22.57H640.7v41.58h20.82c8.29,0,8.85-13.64,8.85-13.64v28.2s-.56-13.64-8.85-13.64H640.7v41.58h29.67C679.61,265.71,685,243.14,685,243.14Z"
         id="path5" />
      <path
         class="cls-1"
         d="M738.48,243.14,734,266.64H685.64l46.75-85H704.78c-9.25,0-14.63,22.57-14.63,22.57l4.47-23.5h43.86l-46.75,85h32.12C733.09,265.71,738.48,243.14,738.48,243.14Z"
         id="path6" />
      <path
         class="cls-1"
         d="M797.14,243.14l-4.47,23.5h-51s5.6-.55,5.6-8.85V189.55c0-8.3-5.6-8.85-5.6-8.85h51l4.47,23.5s-5.38-22.57-14.63-22.57H752.84v41.58h20.82c8.3,0,8.85-13.64,8.85-13.64v28.2s-.55-13.64-8.85-13.64H752.84v41.58h29.67C791.76,265.71,797.14,243.14,797.14,243.14Z"
         id="path7" />
      <path
         class="cls-1"
         d="M860.11,180.7s-5.6.55-5.6,8.85v77.09h-.93l-47-84.26v75.41c0,8.3,5.61,8.85,5.61,8.85H800.07s5.6-.55,5.6-8.85V189.55c0-8.3-5.6-8.85-5.6-8.85h11.17l42.34,75.94V189.55c0-8.3-5.6-8.85-5.6-8.85Z"
         id="path8" />
      <path
         class="cls-1"
         d="M922.3,204.2s-5.38-22.57-14.63-22.57H894v76.16c0,8.3,5.6,8.85,5.6,8.85H882.82s5.61-.55,5.61-8.85V181.63H874.75c-9.24,0-14.63,22.57-14.63,22.57l4.47-23.5h53.24Z"
         id="path9" />
      <path
         class="cls-1"
         d="M980.9,266.64H964.15s5.24-1,2.51-8.85l-7.58-21.93H927.24l-7.47,21.93c-2.76,8.07,2.58,8.85,2.58,8.85H910.23s5.92-.93,8.61-8.85l26.25-77.09H946l26.26,77.09A13.36,13.36,0,0,0,980.9,266.64Zm-22.15-31.71-15.56-45-.15-.48-15.48,45.48Z"
         id="path10" />
      <path
         class="cls-1"
         d="M1036.8,250.22h.93c-6.51,10.54-16.85,17.35-29.25,17.35-20.49,0-34-19.65-34-43.9s13.87-43.9,33.78-43.9c16.8,0,23.81,16.14,24.72,3.51v20.66c-.79-10.73-12.3-23.24-24.61-23.24-16.59,0-28.33,19.24-28.33,43s11.32,43,28.73,43C1027.58,266.64,1036.8,250.22,1036.8,250.22Z"
         id="path11" />
      <path
         class="cls-1"
         d="M1098,180.7s-5.61.55-5.61,8.85v77.09h-.93l-47-84.26v75.41c0,8.3,5.61,8.85,5.61,8.85H1038s5.61-.55,5.61-8.85V189.55c0-8.3-5.61-8.85-5.61-8.85h11.17l42.34,75.94V189.55c0-8.3-5.6-8.85-5.6-8.85Z"
         id="path12" />
      <path
         class="cls-1"
         d="M1112.39,189.55v68.24c0,8.3,5.61,8.85,5.61,8.85h-16.78s5.6-.55,5.6-8.85V189.55c0-8.3-5.6-8.85-5.6-8.85H1118S1112.39,181.25,1112.39,189.55Z"
         id="path13" />
      <path
         class="cls-1"
         d="M690.41,327.55c0,15.14-11.18,25.3-26.8,25.3h-19v26.5c0,8.3,5.61,8.85,5.61,8.85H633.45s5.6-.55,5.6-8.85V311.11c0-8.3-5.6-8.85-5.6-8.85h31.09C679.67,302.67,690.41,312.72,690.41,327.55Zm-5.57,0c0-14.59-8.68-24.36-21.23-24.36h-19v48.73h19C676.16,351.92,684.84,342.15,684.84,327.55Z"
         id="path14" />
      <path
         class="cls-1"
         d="M745.91,364.7l-4.47,23.5h-51s5.6-.55,5.6-8.85V311.11c0-8.3-5.6-8.85-5.6-8.85h16.78s-5.6.55-5.6,8.85v76.16h29.66C740.52,387.27,745.91,364.69,745.91,364.7Z"
         id="path15" />
      <path
         class="cls-1"
         d="M872.88,381.58c0,17.18-17.41,33.14-47.85,33.14-26.4,0-41.17-12.29-46.46-26.52H745.94s5.6-.55,5.6-8.85V311.11c0-8.3-5.6-8.85-5.6-8.85h51l4.46,23.49c-.16-.69-5.53-22.56-14.63-22.56H757.11v41.57h20.82c8.3,0,8.85-13.63,8.85-13.63v28.2a27,27,0,0,0-1-6l-.09-.29-.27.29c-8.15,8.8-10.42,22.06-6,33.91h7.44c9.1,0,14.47-21.88,14.63-22.56L797,388.2H779.7c5.56,13.87,20.35,25.59,45.59,25.59,25.94,0,41.92-14.09,41.92-29,0-31.77-65-36.8-65-65.26,0-9,8.51-18.16,23.75-18.16,17,0,24.15,16.13,25.07,3.51V325.5c-.8-10.73-12.47-23.24-25-23.24-11.57,0-18.22,7.48-18.22,15.76C807.85,342.59,872.88,347.42,872.88,381.58Zm-94.64,5.69a36.05,36.05,0,0,1-1.94-11.66c0-8.64,3.14-16.9,9-22.6l.28-.26c-1.15-3.49-3.37-7.06-7.62-7.06H757.11v41.58Z"
         id="path16" />
      <path
         class="cls-1"
         d="M589.24,450.65V438h2.51v12.65a11.28,11.28,0,0,1-.84,4.24,8.08,8.08,0,0,1-2.71,3.51,7.68,7.68,0,0,1-4.75,1.41,7.59,7.59,0,0,1-4.76-1.43,8.27,8.27,0,0,1-2.69-3.52,11.26,11.26,0,0,1-.85-4.21V438h2.52v12.62a9.12,9.12,0,0,0,.61,3.31,5.88,5.88,0,0,0,1.91,2.6,5.78,5.78,0,0,0,6.53,0,6,6,0,0,0,1.91-2.6A9.12,9.12,0,0,0,589.24,450.65Z"
         id="path17" />
      <path
         class="cls-1"
         d="M611.43,453.41V438h2.51v21.44h-3.88l-11.3-19.17h-.4a29.35,29.35,0,0,1,.24,3.74v15.43h-2.51V438H600l11.27,19.17h.4A28.38,28.38,0,0,1,611.43,453.41Z"
         id="path18" />
      <path
         class="cls-1"
         d="M621,438v21.44h-2.51V438Z"
         id="path19" />
      <path
         class="cls-1"
         d="M640.09,438h2.63l-7.65,21.44h-3.92L623.49,438h2.64l6.4,17.64a9.56,9.56,0,0,1,.39,1.53h.37a9.63,9.63,0,0,1,.4-1.53Z"
         id="path20" />
      <path
         class="cls-1"
         d="M658.43,440.3H647.74v7.26h9.68v2.2h-9.68v7.44h10.69v2.27h-13.2l0-21.44h13.17Z"
         id="path21" />
      <path
         class="cls-1"
         d="M675.19,449a3.51,3.51,0,0,1,1.18,1.18,3,3,0,0,1,.44,1.56v7.72h-2.33v-7.65a1.89,1.89,0,0,0-.58-1.41,1.86,1.86,0,0,0-1.38-.59H664v9.65h-2.48V438h9.19a7.94,7.94,0,0,1,3.52.71,5,5,0,0,1,2.16,1.91,5.26,5.26,0,0,1,.72,2.74,4.5,4.5,0,0,1-.64,2.44,5.28,5.28,0,0,1-1.4,1.51,7.16,7.16,0,0,1-1.42.8h0v.43A3,3,0,0,1,675.19,449Zm-2.7-1.86a3.67,3.67,0,0,0,1.54-1.23,3.41,3.41,0,0,0,.58-2,3.35,3.35,0,0,0-.58-2,3.67,3.67,0,0,0-1.54-1.23,5.07,5.07,0,0,0-2-.41H664v7.26h6.43A5.07,5.07,0,0,0,672.49,447.15Z"
         id="path22" />
      <path
         class="cls-1"
         d="M682.33,456.87v.33h12.8v2.27H679.45v-2.11l11.24-15.1a4.9,4.9,0,0,1,1.77-1.59v-.37H680.09V438h15.19v2.12l-11.12,14.94A6.66,6.66,0,0,1,682.33,456.87Z"
         id="path23" />
      <path
         class="cls-1"
         d="M700.8,438v21.44h-2.51V438Z"
         id="path24" />
      <path
         class="cls-1"
         d="M719.11,440.3h-6.58v19.17H710V440.3h-6.58V438h15.67Z"
         id="path25" />
      <path
         class="cls-1"
         d="M729.89,446.06l4.78-8h2.63l-7,11.86v9.58h-2.51v-9.61l-7-11.83h2.63l4.75,8a10.4,10.4,0,0,1,.67,1.44h.43A8.34,8.34,0,0,1,729.89,446.06Z"
         id="path26" />
      <path
         class="cls-1"
         d="M762.11,440.3h-6.59v19.17H753V440.3h-6.58V438h15.68Z"
         id="path27" />
      <path
         class="cls-1"
         d="M777.55,439.31a9.61,9.61,0,0,1,3.25,4.16,14.06,14.06,0,0,1,1,5.31,13.67,13.67,0,0,1-1,5.29,9.55,9.55,0,0,1-3.24,4.14,10.21,10.21,0,0,1-11.07,0,9.52,9.52,0,0,1-3.26-4.14,14,14,0,0,1,0-10.6,9.63,9.63,0,0,1,3.26-4.16,10.18,10.18,0,0,1,11.08,0Zm-1.44,17a7.66,7.66,0,0,0,2.42-3.31,11.7,11.7,0,0,0,0-8.4,7.57,7.57,0,0,0-2.42-3.32,6.39,6.39,0,0,0-4.12-1.31,6.46,6.46,0,0,0-4.13,1.31,7.49,7.49,0,0,0-2.42,3.32,12,12,0,0,0,0,8.4,7.58,7.58,0,0,0,2.42,3.31,6.45,6.45,0,0,0,4.13,1.3A6.39,6.39,0,0,0,776.11,456.27Z"
         id="path28" />
      <path
         class="cls-1"
         d="M803.9,438h4.16v21.44h-2.51V443.79a24.18,24.18,0,0,1,.28-3.49h-.43l-7,19.17h-3.49l-7-19.17h-.43c.08.51.14,1.08.2,1.7s.07,1.22.07,1.79v15.68h-2.51V438h4.2l7,19.17h.43Z"
         id="path29" />
      <path
         class="cls-1"
         d="M829.34,459.47H827l-1.9-5.36H814.8l-1.9,5.36h-2.33L818.29,438h3.34Zm-5-7.44-4.16-11.73h-.43L815.56,452Zm-3.15-15.62H819l1.9-4h2.33Z"
         id="path30" />
      <path
         class="cls-1"
         d="M846.26,453.44a6,6,0,0,1-3.43,5.46,9.49,9.49,0,0,1-4.47.94,9.19,9.19,0,0,1-4.47-1,6.22,6.22,0,0,1-2.61-2.48,6.46,6.46,0,0,1-.82-3.14H833a4.14,4.14,0,0,0,.56,2.06,4.37,4.37,0,0,0,1.79,1.62,6.56,6.56,0,0,0,3.07.64,6.76,6.76,0,0,0,3-.6,4.06,4.06,0,0,0,1.76-1.54,3.81,3.81,0,0,0,.57-2,2.57,2.57,0,0,0-.71-1.86,4.77,4.77,0,0,0-1.76-1.11,15.21,15.21,0,0,0-2.53-.68l-.91-.18-.49-.09a18.48,18.48,0,0,1-3.25-.92,5.76,5.76,0,0,1-2.34-1.72,4.68,4.68,0,0,1-1-3.12,5.66,5.66,0,0,1,.81-2.91,6.22,6.22,0,0,1,2.53-2.28,9.22,9.22,0,0,1,4.32-.9,9.32,9.32,0,0,1,4.33.9,6.06,6.06,0,0,1,2.54,2.28,5.67,5.67,0,0,1,.82,2.91V444h-2.52v-.25a3.34,3.34,0,0,0-.55-1.82,4,4,0,0,0-1.7-1.44,6.55,6.55,0,0,0-2.92-.57,6.44,6.44,0,0,0-2.89.57,4,4,0,0,0-1.7,1.44,3.35,3.35,0,0,0-.56,1.82,2.73,2.73,0,0,0,.6,1.84,3.73,3.73,0,0,0,1.49,1.06,12,12,0,0,0,2.26.59l.55.09h.07a28.34,28.34,0,0,1,4,1,6.76,6.76,0,0,1,2.8,1.81A4.66,4.66,0,0,1,846.26,453.44ZM836.73,436h3l2.48-3.64h-2.26l-1.59,2.27h-.22l-1.59-2.27h-2.27Z"
         id="path31" />
      <path
         class="cls-1"
         d="M863,440.3H852.29v7.26H862v2.2h-9.67v7.44H863v2.27H849.78l0-21.44H863Z"
         id="path32" />
      <path
         class="cls-1"
         d="M889.91,457a6.76,6.76,0,0,1-2.94,1.85,12.17,12.17,0,0,1-3.79.58h-7.9V438h7.87a9.45,9.45,0,0,1,3.25.56,5.57,5.57,0,0,1,2.5,1.73,4.53,4.53,0,0,1-1.2,6.76,5.46,5.46,0,0,1-2.1.72v.43a7.91,7.91,0,0,1,2.65.89,5.49,5.49,0,0,1,2,1.87,5,5,0,0,1,.78,2.79A4.71,4.71,0,0,1,889.91,457Zm-3.62-10.92a2.8,2.8,0,0,0,1.21-2.48,2.83,2.83,0,0,0-1.21-2.51,5.21,5.21,0,0,0-3-.83h-5.49V447h5.49A5.21,5.21,0,0,0,886.29,446.12Zm-.36,10.67a4,4,0,0,0,1.89-1.32,3.89,3.89,0,0,0,0-4.51,4.12,4.12,0,0,0-1.89-1.3,7.69,7.69,0,0,0-2.59-.42h-5.55v8h5.55A7.69,7.69,0,0,0,885.93,456.79Z"
         id="path33" />
      <path
         class="cls-1"
         d="M910.9,459.47h-2.33l-1.9-5.36H896.35l-1.89,5.36h-2.33L899.85,438h3.33Zm-5-7.44-4.17-11.73h-.43L897.12,452Z"
         id="path34" />
      <path
         class="cls-1"
         d="M924.6,440.3H918v19.17h-2.51V440.3h-6.59V438H924.6Z"
         id="path35" />
      <path
         class="cls-1"
         d="M929.74,438v21.44h-2.51V438Z"
         id="path36" />
      <path
         class="cls-1"
         d="M558.83,346.1l7.78,10.81h-2.09L557.36,347H557l-7.13,9.89h-2.12l7.81-10.81-7.65-10.63H550l7.17,10,7.16-10h2.11Z"
         id="path37" />
      <path
         class="cls-1"
         d="M579.24,346.1,587,356.91h-2.09L577.77,347h-.34l-7.13,9.89h-2.12L576,346.1l-7.65-10.63h2.11l7.17,10,7.16-10h2.11Z"
         id="path38" />
      <path
         class="cls-1"
         d="M591.28,335.47v21.44h-1.71V335.47Z"
         id="path39" />
      <path
         class="cls-1"
         d="M597.61,335.47v21.44h-1.72V335.47Z"
         id="path40" />
      <path
         class="cls-1"
         d="M603.93,335.47v21.44h-1.71V335.47Z"
         id="path41" />
      <path
         class="cls-1"
         d="M608.42,356.94a1.09,1.09,0,0,1-.35-.8,1.14,1.14,0,0,1,.35-.83,1.21,1.21,0,0,1,.85-.33,1.09,1.09,0,0,1,.56.15,1.21,1.21,0,0,1,.43.41,1.13,1.13,0,0,1,.17.6,1.09,1.09,0,0,1-.35.8,1.17,1.17,0,0,1-.81.33A1.21,1.21,0,0,1,608.42,356.94Z"
         id="path42" />
      <path
         class="cls-1"
         d="M892.32,355.71h8.33v1.56H886.23v-1.53q5.06-4.5,10.1-9c.08-.06.29-.26.61-.58a8.38,8.38,0,0,0,1.4-2,4.85,4.85,0,0,0,.47-2,5.55,5.55,0,0,0-.56-2.43,4.51,4.51,0,0,0-1.8-1.88,6.74,6.74,0,0,0-6.14,0,4.67,4.67,0,0,0-1.79,1.88,5.43,5.43,0,0,0-.58,2.43,6.75,6.75,0,0,0,0,.71h-1.71a6.75,6.75,0,0,1,0-.71,7.1,7.1,0,0,1,.75-3.17,6,6,0,0,1,2.36-2.48,9,9,0,0,1,8.08,0,6,6,0,0,1,2.36,2.48,7.1,7.1,0,0,1,.75,3.17,6.59,6.59,0,0,1-.65,2.84,7.3,7.3,0,0,1-1.71,2.34l-9.46,8.45v.37A18.29,18.29,0,0,1,892.32,355.71Z"
         id="path43" />
      <path
         class="cls-1"
         d="M916.82,337.09a9.45,9.45,0,0,1,2.88,4.17,15.7,15.7,0,0,1,0,10.59,9.39,9.39,0,0,1-2.88,4.17,8.5,8.5,0,0,1-10,0,9.39,9.39,0,0,1-2.88-4.17,15.7,15.7,0,0,1,0-10.59,9.45,9.45,0,0,1,2.88-4.17,8.5,8.5,0,0,1,10,0Zm-1,17.6a7.85,7.85,0,0,0,2.33-3.57,14.83,14.83,0,0,0,0-9.13,7.85,7.85,0,0,0-2.33-3.57,6,6,0,0,0-4-1.39,5.89,5.89,0,0,0-4,1.39,8,8,0,0,0-2.33,3.57,14.45,14.45,0,0,0,0,9.13,8,8,0,0,0,2.33,3.57,5.84,5.84,0,0,0,4,1.39A5.91,5.91,0,0,0,915.85,354.69Z"
         id="path44" />
      <path
         class="cls-1"
         d="M929.12,355.71h8.33v1.56H923v-1.53q5.06-4.5,10.11-9c.08-.06.28-.26.61-.58a8.32,8.32,0,0,0,1.39-2,4.71,4.71,0,0,0,.48-2,5.42,5.42,0,0,0-.57-2.43,4.48,4.48,0,0,0-1.79-1.88,6.74,6.74,0,0,0-6.14,0,4.61,4.61,0,0,0-1.79,1.88,5.3,5.3,0,0,0-.58,2.43,6.75,6.75,0,0,0,0,.71h-1.72a6.75,6.75,0,0,1,0-.71,7.1,7.1,0,0,1,.75-3.17,6,6,0,0,1,2.36-2.48,9,9,0,0,1,8.09,0,6,6,0,0,1,2.35,2.48,7.1,7.1,0,0,1,.75,3.17,6.58,6.58,0,0,1-.64,2.84,7.45,7.45,0,0,1-1.71,2.34q-4.49,4-9.47,8.45v.37A18.38,18.38,0,0,1,929.12,355.71Z"
         id="path45" />
      <path
         class="cls-1"
         d="M954.9,349.83a8.79,8.79,0,0,1-.82,3.74,7,7,0,0,1-2.59,2.92,8,8,0,0,1-4.46,1.15,8.27,8.27,0,0,1-4.21-1,6.84,6.84,0,0,1-2.57-2.58,8.57,8.57,0,0,1-1-3.41h1.72a7.5,7.5,0,0,0,.86,2.65,5.12,5.12,0,0,0,2,2,6.41,6.41,0,0,0,3.23.77,6.16,6.16,0,0,0,3.49-.92,5.47,5.47,0,0,0,2-2.37,7.59,7.59,0,0,0,0-6.1,5.66,5.66,0,0,0-2-2.4,6,6,0,0,0-3.49-1,6.32,6.32,0,0,0-3,.64,5.48,5.48,0,0,0-2,1.69h-1.93l1.32-9.83h11.73v1.56H943l-.46,3.67a13.47,13.47,0,0,1-.32,1.67,15.86,15.86,0,0,1-.48,1.61H942a6.08,6.08,0,0,1,2.15-1.73,7.19,7.19,0,0,1,3.09-.66,7.42,7.42,0,0,1,4.3,1.13,6.92,6.92,0,0,1,2.53,3A9.23,9.23,0,0,1,954.9,349.83Z"
         id="path46" />
      <polygon
         class="cls-1"
         points="1008.57 177.32 1007.64 177.32 1017.54 163.72 1023.12 163.72 1008.57 177.32"
         id="polygon46" />
      <polygon
         class="cls-1"
         points="1109.7 177.32 1108.77 177.32 1118.68 163.72 1124.25 163.72 1109.7 177.32"
         id="polygon47" />
      <polygon
         class="cls-1"
         points="993.05 163.72 998.63 163.72 1008.53 177.32 1007.6 177.32 993.05 163.72"
         id="polygon48" />
      <path
         class="cls-1"
         d="M922,550.58h8.23s-3.8.37-3.8,6v52.3h-.63s-21.85-39.83-30.31-54.22c-.51-.86-1-1.7-1.56-2.5v50.72c0,5.62,3.8,6,3.8,6h-8.23s3.8-.38,3.8-6V551.23c-5.43-7.72-12.5-12.08-27.5-12.08,20.92,0,27.94,6,32.69,14.17,7.41,12.75,27.31,48.78,27.31,48.78V556.58c0-5.63-3.8-6-3.8-6Z"
         id="path48" />
      <path
         class="cls-1"
         d="M607.53,550.57s-3.8.38-3.8,6v47.28a4.68,4.68,0,0,0-3.22,3.21l-.64.12h0l-.78.12c-.47.07-.94.13-1.42.18l-1.34.13a4.51,4.51,0,0,0,3.28-3.34,9,9,0,0,0,.35-2.64V556.58c0-5.63-3.8-6-3.8-6Z"
         id="path49" />
      <path
         class="cls-1"
         d="M659.14,549.94c-13.89,0-24.53,13.34-24.53,29.78a34.8,34.8,0,0,0,3.72,15.93c.18.36.37.72.57,1.06,4.36,7.74,11.68,12.8,20.24,12.8,13.9,0,24.54-13.33,24.54-29.79S673,549.94,659.14,549.94Zm0,58.94c-6.66,0-12.41-4.15-16.15-10.67-.1-.16-.19-.33-.28-.49a37.57,37.57,0,0,1-4.32-18c0-16.09,8.94-29.15,20.75-29.15s20.75,13.06,20.75,29.15S671,608.88,659.14,608.88Z"
         id="path50" />
      <path
         class="cls-1"
         d="M714.56,550.57s3.65.48,2,6l-14.15,46L688.7,556.56c-1.62-5.45,2-6,2-6H679.34s3.94.48,5.58,6l15.51,52.3h.63l1.6-5.21,14.47-47.09c1.7-5.51,5.65-6,5.65-6Z"
         id="path51" />
      <path
         class="cls-1"
         d="M751.48,608.25H731.36V580h14.12c5.63,0,6,9.25,6,9.25V570.16s-.37,9.25-6,9.25H731.36v-28.2h20.12c6.08,0,9.7,14.37,9.92,15.27l-3-15.91H723.77s3.8.38,3.8,6v46.29c0,5.64-3.8,6-3.8,6h34.62l3-15.9C761.18,593.88,757.56,608.25,751.48,608.25Z"
         id="path52" />
      <path
         class="cls-1"
         d="M796.58,602.87V556.58c0-5.63,3.8-6,3.8-6H789s3.8.38,3.8,6v46.29c0,5.64-3.8,6-3.8,6h11.38S796.58,608.51,796.58,602.87Z"
         id="path53" />
      <path
         class="cls-1"
         d="M884.13,602.87V556.58c0-5.63,3.8-6,3.8-6H876.54s3.8.38,3.8,6v46.29c0,5.64-3.8,6-3.8,6h11.39S884.13,608.51,884.13,602.87Z"
         id="path54" />
      <path
         class="cls-1"
         d="M611.75,608.91c-14.49,6.33-27.46,9.45-37.74-.26,7.17,8.09,17.18,9,25.85,7.62V667.2c0,5.63-3.8,6-3.8,6h11.39s-3.8-.37-3.8-6V615.49A55.27,55.27,0,0,0,611,613.1c14.84-6,25.43-13.06,37.52-1.82C635.83,599.32,624.68,603.26,611.75,608.91Z"
         id="path55" />
      <path
         class="cls-1"
         d="M648.94,667.2V620.9c0-5.62,3.8-6,3.8-6H641.35s3.81.38,3.81,6v22.84H616.88V620.9c0-5.62,3.8-6,3.8-6H609.29s3.8.38,3.8,6v46.3c0,5.63-3.8,6-3.8,6h11.39s-3.8-.37-3.8-6V644.37h28.28V667.2c0,5.63-3.81,6-3.81,6h11.39S648.94,672.83,648.94,667.2Z"
         id="path56" />
      <path
         class="cls-1"
         d="M682.64,672.58H662.51V644.36h14.12c5.64,0,6,9.26,6,9.26V634.48s-.37,9.26-6,9.26H662.51V615.53h20.13c6.08,0,9.7,14.38,9.92,15.28l-3-15.91h-34.6s3.8.38,3.8,6v46.3c0,5.63-3.8,6-3.8,6h34.6l3-15.9C692.34,658.2,688.72,672.58,682.64,672.58Z"
         id="path57" />
      <path
         class="cls-1"
         d="M754.07,673.2h11.36a9,9,0,0,1-5.84-6l-17.82-52.3h-.63l-17.8,52.3c-1.83,5.37-5.85,6-5.85,6h8.22s-3.62-.52-1.75-6l4.27-12.53.8-2.35.21-.62.31-.94,10.2-29.92.1.32,10.08,29.14.48,1.4.21.62.74,2.11,4.41,12.77C757.63,672.5,754.07,673.2,754.07,673.2Z"
         id="path58" />
      <path
         class="cls-1"
         d="M773.78,667.2V620.9c0-5.62,3.8-6,3.8-6H766.19s3.81.38,3.81,6v46.3c0,5.63-3.81,6-3.81,6h11.39S773.78,672.83,773.78,667.2Z"
         id="path59" />
      <path
         class="cls-1"
         d="M800.32,645.21c8.73-1.18,14.69-6.83,14.69-15,0-9.21-7.5-15.2-18-15.26H779.37s3.8.38,3.8,6v46.3c0,5.63-3.8,6-3.8,6h11.38s-3.81-.37-3.81-6V645.44h9.88c15.41,0,10,27.76,24.74,27.76C815.5,673.2,814.7,648.66,800.32,645.21Zm-13.38-.39V615.53h9.88c8.51,0,14.4,4.74,14.4,14.64s-5.89,14.65-14.4,14.65Z"
         id="path60" />
      <path
         class="cls-1"
         d="M808.71,561.32c0-5.62,4.51-10.69,12.36-10.69,8.48,0,16.4,8.48,16.93,15.76v-14c-.62,8.56-5.44-2.38-17-2.38-10.34,0-16.12,6.24-16.12,12.32,0,19.31,44.12,22.72,44.12,44.27,0,10.14-10.85,19.7-28.45,19.7-16.78,0-26.75-7.63-30.69-16.8,0,0,0,0,0,0h0a.18.18,0,0,0,0-.1c0-.09-.07-.18-.1-.28l-.06-.13c-.08-.18-.16-.4-.24-.62s-.19-.53-.27-.8h0c-2.55-7.72-1-16.18,4.13-21.94l-.11-.23a21.44,21.44,0,0,0-5.81,15.06,24.55,24.55,0,0,0,1.11,7.3.54.54,0,0,1,0,.1c0,.11.07.22.1.32a.84.84,0,0,1,.07.19c.07.19.14.41.22.62,0,0,0,.08,0,.12,3.64,9.6,13.64,17.87,31.49,17.87,20.65,0,32.46-10.83,32.46-22.47C852.83,581.26,808.71,578,808.71,561.32Z"
         id="path61" />
      <path
         class="cls-1"
         d="M777.58,649.55c-10.34-9.61-19.4-3.54-32.09,1.56a49.82,49.82,0,0,1-4.94,1.68l-.36.09c-.72.2-2.47.63-4.26.94h0l-.67.1-1.21.16c-6.95.77-14.61-.43-20.24-6.77,8.8,8.3,19.9,5.63,32.29.22C757.16,642.7,766.7,639.32,777.58,649.55Z"
         id="path62" />
      <path
         class="cls-1"
         d="M648.55,602.2a25.09,25.09,0,0,0-5.56-4,18,18,0,0,0-4.09-1.5c-8.51-2-17.06,3-27.86,7.32a55.44,55.44,0,0,1-5.77,2l-.42.12c-.76.2-2.49.63-4.34,1l-.64.12h0l-.78.12c-.47.07-.94.13-1.42.18l-1.34.13a4.51,4.51,0,0,0,3.28-3.34c1.36-.36,2.74-.79,4.13-1.27,2.62-.9,5.29-2,8-3.17,9.37-4.09,17.8-7.29,26.58-4.19a23.4,23.4,0,0,1,4.38,2.07A33.91,33.91,0,0,1,648.55,602.2Z"
         id="path63" />
      <path
         class="cls-1"
         d="M621.92,742.1a5.65,5.65,0,0,1,2.37,2,6.14,6.14,0,0,1,0,6.48,5.7,5.7,0,0,1-2.39,2,7.38,7.38,0,0,1-3.08.66h-6.65v9.65h-2.51V741.44h9.16A7.45,7.45,0,0,1,621.92,742.1Zm-1.32,8.44a3.85,3.85,0,0,0,1.52-1.24,3.65,3.65,0,0,0,0-3.95,3.74,3.74,0,0,0-1.52-1.23,5.06,5.06,0,0,0-2-.41h-6.4V751h6.4A4.9,4.9,0,0,0,620.6,750.54Z"
         id="path64" />
      <path
         class="cls-1"
         d="M643.1,762.88h-2.33l-1.9-5.36H628.55l-1.9,5.36h-2.33L632,741.44h3.34Zm-5-7.44-4.16-11.73h-.43l-4.19,11.73ZM635,739.82h-2.17l1.89-4H637Z"
         id="path65" />
      <path
         class="cls-1"
         d="M656.8,743.71h-6.59v19.17H647.7V743.71h-6.58v-2.27H656.8Z"
         id="path66" />
      <path
         class="cls-1"
         d="M672.63,743.71H661.94V751h9.67v2.2h-9.67v7.44h10.69v2.27h-13.2l0-21.44h13.17Z"
         id="path67" />
      <path
         class="cls-1"
         d="M681.48,752v.43l10.26,10.44h-3.46l-9.37-9.49h-.67v9.49h-2.51V741.44h2.51v9.65h.67l9.49-9.65h3.46Z"
         id="path68" />
      <path
         class="cls-1"
         d="M706.62,741.44h2.52v21.44h-2.52V749.56A16.86,16.86,0,0,1,707,746h-.4a6.67,6.67,0,0,1-1,1.92,5.57,5.57,0,0,1-1.7,1.46,5.41,5.41,0,0,1-2.3.66v-2.36a4.72,4.72,0,0,0,3.81-2A7.21,7.21,0,0,0,706.62,741.44Z"
         id="path69" />
      <path
         class="cls-1"
         d="M729.17,758.59H726.6v4.29h-2.51v-4.29H711.6v-2.94l11-14.21h4v15.07h2.57Zm-5.45-14.88-9.8,12.8h6.68a14.37,14.37,0,0,1,3.49.43V743.71Z"
         id="path70" />
      <path
         class="cls-1"
         d="M732.28,762.8a1.47,1.47,0,0,1,0-2.17,1.56,1.56,0,0,1,1.11-.45,1.43,1.43,0,0,1,.75.22,1.94,1.94,0,0,1,.59.55,1.34,1.34,0,0,1,.23.76,1.42,1.42,0,0,1-.48,1.09,1.57,1.57,0,0,1-2.2,0Z"
         id="path71" />
      <path
         class="cls-1"
         d="M754,760.61h7.72v2.27H746.65v-2.11q4.73-4.17,9.37-8.33a7.55,7.55,0,0,0,.65-.59,11.89,11.89,0,0,0,1.76-2.17,3.85,3.85,0,0,0,.63-2,4.35,4.35,0,0,0-.54-2.1,4.15,4.15,0,0,0-1.65-1.62,6.51,6.51,0,0,0-5.61,0,4.15,4.15,0,0,0-1.64,1.63,4.42,4.42,0,0,0-.52,2.08v.7h-2.51v-.7a6.85,6.85,0,0,1,.78-3.17,6,6,0,0,1,2.48-2.48,8.55,8.55,0,0,1,4.24-1,8.36,8.36,0,0,1,4.2,1,6.16,6.16,0,0,1,2.48,2.48,6.75,6.75,0,0,1,.8,3.17,6,6,0,0,1-.77,2.92,9.8,9.8,0,0,1-2,2.5q-3.71,3.32-8.45,7.5V761A15.9,15.9,0,0,1,754,760.61Z"
         id="path72" />
      <path
         class="cls-1"
         d="M765,762.8a1.47,1.47,0,0,1,0-2.17,1.56,1.56,0,0,1,1.12-.45,1.48,1.48,0,0,1,.75.22,1.9,1.9,0,0,1,.58.55,1.34,1.34,0,0,1,.23.76,1.42,1.42,0,0,1-.48,1.09,1.52,1.52,0,0,1-1.08.45A1.56,1.56,0,0,1,765,762.8Z"
         id="path73" />
      <path
         class="cls-1"
         d="M794.52,742.71a9.64,9.64,0,0,1,3.25,4.17,14,14,0,0,1,1,5.31,13.77,13.77,0,0,1-1,5.28,9.54,9.54,0,0,1-3.25,4.15,10.21,10.21,0,0,1-11.07,0,9.56,9.56,0,0,1-3.26-4.15,14,14,0,0,1,0-10.59,9.73,9.73,0,0,1,3.26-4.17,10.19,10.19,0,0,1,11.09,0Zm-1.44,17a7.74,7.74,0,0,0,2.42-3.31,11.7,11.7,0,0,0,0-8.4,7.74,7.74,0,0,0-2.42-3.33,7.19,7.19,0,0,0-8.25,0,7.5,7.5,0,0,0-2.42,3.33,11.84,11.84,0,0,0,0,8.4,7.5,7.5,0,0,0,2.42,3.31,7.19,7.19,0,0,0,8.25,0Z"
         id="path74" />
      <path
         class="cls-1"
         d="M818.66,757.92a8.91,8.91,0,0,1-3.58,3.69,10.78,10.78,0,0,1-5.27,1.27h-7.56V741.44h7.56A10.65,10.65,0,0,1,815,742.7a9,9,0,0,1,3.61,3.69,11.94,11.94,0,0,1,1.32,5.77A12.07,12.07,0,0,1,818.66,757.92ZM814,759.4a7,7,0,0,0,2.59-3.06,10.61,10.61,0,0,0,0-8.37,7.19,7.19,0,0,0-2.59-3.1,7.47,7.47,0,0,0-4.24-1.16h-5v16.84h5A7.46,7.46,0,0,0,814,759.4Z"
         id="path75" />
      <path
         class="cls-1"
         d="M835.47,741.44H838v21.44h-2.51V749.56a16.86,16.86,0,0,1,.4-3.58h-.4a6.67,6.67,0,0,1-1.05,1.92,5.57,5.57,0,0,1-1.7,1.46,5.41,5.41,0,0,1-2.3.66v-2.36a4.72,4.72,0,0,0,3.81-2A7.21,7.21,0,0,0,835.47,741.44Z"
         id="path76" />
      <path
         class="cls-1"
         d="M844.87,755.71a7,7,0,0,1-2.77-2.78,8.39,8.39,0,0,1-1-4,8.11,8.11,0,0,1,1-4,7.1,7.1,0,0,1,2.84-2.78,8.53,8.53,0,0,1,4.22-1,9.71,9.71,0,0,1,4.67,1.11,7.9,7.9,0,0,1,3.32,3.56,14.16,14.16,0,0,1,1.26,6.42,16,16,0,0,1-.89,5.3,9.24,9.24,0,0,1-2.83,4.16,7.35,7.35,0,0,1-4.89,1.63,8,8,0,0,1-3.69-.83,7.81,7.81,0,0,1-2.66-2.19,8.82,8.82,0,0,1-1.52-3h2.45a5.64,5.64,0,0,0,2,2.71,5.81,5.81,0,0,0,3.55,1,5.45,5.45,0,0,0,3.58-1.26,7.58,7.58,0,0,0,2.31-3.59,14.52,14.52,0,0,0,.57-5.53H856a5.69,5.69,0,0,1-.93,3,6.8,6.8,0,0,1-2.48,2.27,7.26,7.26,0,0,1-3.51.85A8.49,8.49,0,0,1,844.87,755.71Zm1.35-11.54a5.08,5.08,0,0,0-1.94,2.08,5.85,5.85,0,0,0,0,5.28,5,5,0,0,0,1.94,2.09,7.29,7.29,0,0,0,6.68,0,5.17,5.17,0,0,0,1.94-2.09,5.85,5.85,0,0,0,0-5.28,5.13,5.13,0,0,0-2-2.08,7.1,7.1,0,0,0-6.66,0Z"
         id="path77" />
      <path
         class="cls-1"
         d="M861.73,750.19a1.5,1.5,0,0,1,0-2.18,1.61,1.61,0,0,1,1.12-.44,1.47,1.47,0,0,1,.75.21,1.9,1.9,0,0,1,.58.55,1.37,1.37,0,0,1,.23.77,1.46,1.46,0,0,1-.47,1.09,1.58,1.58,0,0,1-1.09.44A1.61,1.61,0,0,1,861.73,750.19Zm0,12.61a1.49,1.49,0,0,1,0-2.17,1.58,1.58,0,0,1,1.12-.45,1.48,1.48,0,0,1,.75.22,1.9,1.9,0,0,1,.58.55,1.34,1.34,0,0,1,.23.76,1.44,1.44,0,0,1-.47,1.09,1.55,1.55,0,0,1-1.09.45A1.58,1.58,0,0,1,861.73,762.8Z"
         id="path78" />
      <path
         class="cls-1"
         d="M881.29,742.7a9.38,9.38,0,0,1,2.94,4.16,15.41,15.41,0,0,1,0,10.6,9.38,9.38,0,0,1-2.94,4.16,8.73,8.73,0,0,1-10.16,0,9.38,9.38,0,0,1-2.94-4.16,15.41,15.41,0,0,1,0-10.6,9.38,9.38,0,0,1,2.94-4.16,8.73,8.73,0,0,1,10.16,0Zm-1.44,17a7.45,7.45,0,0,0,2.13-3.3,13.47,13.47,0,0,0,0-8.45,7.48,7.48,0,0,0-2.13-3.31,5.31,5.31,0,0,0-3.66-1.29,5.24,5.24,0,0,0-3.64,1.29,7.53,7.53,0,0,0-2.11,3.31,13.47,13.47,0,0,0,0,8.45,7.5,7.5,0,0,0,2.11,3.3,5.24,5.24,0,0,0,3.64,1.29A5.31,5.31,0,0,0,879.85,759.69Z"
         id="path79" />
      <path
         class="cls-1"
         d="M901.65,742.7a9.54,9.54,0,0,1,2.94,4.16,15.57,15.57,0,0,1,0,10.6,9.54,9.54,0,0,1-2.94,4.16,8.75,8.75,0,0,1-10.17,0,9.38,9.38,0,0,1-2.94-4.16,15.57,15.57,0,0,1,0-10.6,9.38,9.38,0,0,1,2.94-4.16,8.75,8.75,0,0,1,10.17,0Zm-1.44,17a7.45,7.45,0,0,0,2.13-3.3,13.66,13.66,0,0,0,0-8.45,7.48,7.48,0,0,0-2.13-3.31,5.82,5.82,0,0,0-7.31,0,7.53,7.53,0,0,0-2.11,3.31,13.66,13.66,0,0,0,0,8.45,7.5,7.5,0,0,0,2.11,3.3,5.82,5.82,0,0,0,7.31,0Z"
         id="path80" />
      <path
         class="cls-1"
         d="M624.71,786.29v.21l7.44,7.24h-.9l-7.26-7h-.5v7h-.63V779.05h.63v7.07h.5l7.26-7.07h.9Z"
         id="path81" />
      <path
         class="cls-1"
         d="M642.24,779.92a6.5,6.5,0,0,1,2.08,2.86,10.3,10.3,0,0,1,.65,3.64,10,10,0,0,1-.66,3.61,6.49,6.49,0,0,1-2.08,2.85,5.64,5.64,0,0,1-3.6,1.11,5.71,5.71,0,0,1-3.61-1.11,6.41,6.41,0,0,1-2.08-2.85,10.14,10.14,0,0,1,0-7.25,6.5,6.5,0,0,1,2.08-2.86,6.38,6.38,0,0,1,7.22,0Zm-.38,12.48a6,6,0,0,0,1.88-2.64,9.68,9.68,0,0,0,0-6.71,6,6,0,0,0-1.88-2.64,4.91,4.91,0,0,0-3.23-1,5,5,0,0,0-3.24,1A5.9,5.9,0,0,0,633.5,783a9.63,9.63,0,0,0-.6,3.38,9.45,9.45,0,0,0,.6,3.34,6,6,0,0,0,1.89,2.64,5.64,5.64,0,0,0,6.47,0Z"
         id="path82" />
      <path
         class="cls-1"
         d="M657.72,790.8V779.05h.63v14.69h-1l-9.19-14.12H648a18,18,0,0,1,.17,2.39v11.73h-.63V779.05h1l9.18,14.12h.17A18.35,18.35,0,0,1,657.72,790.8Z"
         id="path83" />
      <path
         class="cls-1"
         d="M673.79,786.79v7h-.63v-1.93a17.56,17.56,0,0,1,.21-2.39h-.21a6.17,6.17,0,0,1-2.74,3.76,5.44,5.44,0,0,1-3,.81,5.82,5.82,0,0,1-3.68-1.12,6.38,6.38,0,0,1-2.13-2.86,9.85,9.85,0,0,1-.68-3.61,9.7,9.7,0,0,1,.7-3.64,6.37,6.37,0,0,1,2.2-2.85,6.29,6.29,0,0,1,3.82-1.11,6.63,6.63,0,0,1,2.87.58,5.62,5.62,0,0,1,2,1.56,7.48,7.48,0,0,1,1.25,2.25h-.63a6.25,6.25,0,0,0-2-2.77,5.59,5.59,0,0,0-3.49-1,5.54,5.54,0,0,0-3.46,1,5.93,5.93,0,0,0-2,2.63,9.29,9.29,0,0,0,0,6.7,6.09,6.09,0,0,0,2,2.63,5.34,5.34,0,0,0,3.37,1.06,5.12,5.12,0,0,0,3.15-1,6,6,0,0,0,1.91-2.48,7.85,7.85,0,0,0,.63-3.07.21.21,0,0,0-.07-.17.21.21,0,0,0-.16-.06h-5.58v-.57h5.72a.71.71,0,0,1,.53.2A.73.73,0,0,1,673.79,786.79Z"
         id="path84" />
      <path
         class="cls-1"
         d="M685.6,786.41a2,2,0,0,1,.7.7,1.85,1.85,0,0,1,.26.94v5.69h-.63V788a1.19,1.19,0,0,0-.38-.9,1.23,1.23,0,0,0-.9-.38h-7.38v7h-.63V779.05h5.45a5.61,5.61,0,0,1,2.47.5,3.6,3.6,0,0,1,1.54,1.33,3.49,3.49,0,0,1,.52,1.89,3.25,3.25,0,0,1-.34,1.55,3.34,3.34,0,0,1-.74,1,5.7,5.7,0,0,1-.87.63h0v.21A1.8,1.8,0,0,1,685.6,786.41ZM684,785.8a3.44,3.44,0,0,0,1.47-1.08,3.29,3.29,0,0,0,0-3.7A3.42,3.42,0,0,0,684,780a5.36,5.36,0,0,0-1.86-.33h-4.82v6.52h4.82A5.15,5.15,0,0,0,684,785.8Z"
         id="path85" />
      <path
         class="cls-1"
         d="M698.29,779.62h-8v6.5h7.34v.57h-7.34v6.48h8v.57h-8.66l0-14.69h8.64Z"
         id="path86" />
      <path
         class="cls-1"
         d="M709.7,789.84a3.85,3.85,0,0,1-2.24,3.55,6.4,6.4,0,0,1-3,.6,6,6,0,0,1-2.94-.64,4,4,0,0,1-1.7-1.64,4.3,4.3,0,0,1-.54-2.08H700a3.79,3.79,0,0,0,.47,1.81,3.61,3.61,0,0,0,1.51,1.43,5.5,5.5,0,0,0,2.6.55,5.74,5.74,0,0,0,2.57-.51,3.54,3.54,0,0,0,1.49-1.33,3.5,3.5,0,0,0,.47-1.74,2.45,2.45,0,0,0-.56-1.66,3.73,3.73,0,0,0-1.42-1,11.7,11.7,0,0,0-2-.62l-.73-.14-.34-.07a14.36,14.36,0,0,1-2.15-.53,3.52,3.52,0,0,1-1.5-1,3,3,0,0,1-.63-2,3.68,3.68,0,0,1,2.1-3.34,5.83,5.83,0,0,1,2.77-.58,6,6,0,0,1,2.81.58,3.7,3.7,0,0,1,2.12,3.34V783h-.63v-.26a3.19,3.19,0,0,0-.44-1.6,3.3,3.3,0,0,0-1.41-1.26,5.34,5.34,0,0,0-2.45-.49,5.15,5.15,0,0,0-2.4.49,3.27,3.27,0,0,0-1.4,1.26,3.19,3.19,0,0,0-.44,1.6,2.47,2.47,0,0,0,.54,1.69,2.77,2.77,0,0,0,1.26.87,12.12,12.12,0,0,0,1.83.46l.34.07h0a19.87,19.87,0,0,1,2.68.68,4.64,4.64,0,0,1,1.86,1.17A3,3,0,0,1,709.7,789.84Z"
         id="path87" />
      <path
         class="cls-1"
         d="M721.37,779.92a6.5,6.5,0,0,1,2.08,2.86,10.3,10.3,0,0,1,.65,3.64,10,10,0,0,1-.66,3.61,6.49,6.49,0,0,1-2.08,2.85,5.64,5.64,0,0,1-3.6,1.11,5.73,5.73,0,0,1-3.61-1.11,6.41,6.41,0,0,1-2.08-2.85,10.28,10.28,0,0,1,0-7.25,6.5,6.5,0,0,1,2.08-2.86,6.38,6.38,0,0,1,7.22,0ZM721,792.4a6,6,0,0,0,1.88-2.64,9.68,9.68,0,0,0,0-6.71,6,6,0,0,0-1.88-2.64,4.91,4.91,0,0,0-3.23-1,5,5,0,0,0-3.24,1,5.9,5.9,0,0,0-1.89,2.64,9.63,9.63,0,0,0-.6,3.38,9.45,9.45,0,0,0,.6,3.34,6,6,0,0,0,1.89,2.64,5.64,5.64,0,0,0,6.47,0Z"
         id="path88" />
      <path
         class="cls-1"
         d="M736.17,779.05h.68l-5.65,14.69h-1l-5.65-14.69h.67l5.12,13.28a6.32,6.32,0,0,1,.28.84h.12a6.32,6.32,0,0,1,.28-.84Z"
         id="path89" />
      <path
         class="cls-1"
         d="M747.33,779.62h-8v6.5h7.34v.57H739.3v6.48h8v.57h-8.66l0-14.69h8.64Zm-4.21-1.72h-.63l1.11-2.2h.63Z"
         id="path90" />
      <path
         class="cls-1"
         d="M767.12,789.61h.65l0,.06a7.47,7.47,0,0,1-1.23,2.22,5.53,5.53,0,0,1-2,1.53,6.51,6.51,0,0,1-2.8.57,5.89,5.89,0,0,1-3.71-1.12,6.66,6.66,0,0,1-2.14-2.87,10,10,0,0,1-.68-3.65,9.78,9.78,0,0,1,.68-3.59,6.48,6.48,0,0,1,2.15-2.85,6,6,0,0,1,3.7-1.11,6.43,6.43,0,0,1,2.82.58,5.58,5.58,0,0,1,2,1.55,7.57,7.57,0,0,1,1.23,2.26h-.65a6.1,6.1,0,0,0-2-2.77,5.4,5.4,0,0,0-3.42-1,5.29,5.29,0,0,0-3.35,1,5.78,5.78,0,0,0-1.94,2.62,9.15,9.15,0,0,0-.61,3.33,9.41,9.41,0,0,0,.61,3.38,5.86,5.86,0,0,0,1.94,2.65,5.23,5.23,0,0,0,3.35,1,5.38,5.38,0,0,0,3.35-1,6.06,6.06,0,0,0,2-2.67Z"
         id="path91" />
      <path
         class="cls-1"
         d="M778.73,779.62h-8v6.5H778v.57h-7.34v6.48h8v.57h-8.67l0-14.69h8.65Z"
         id="path92" />
      <path
         class="cls-1"
         d="M791.16,790.8V779.05h.63v14.69h-1l-9.19-14.12h-.17a16.49,16.49,0,0,1,.17,2.39v11.73H781V779.05h1l9.19,14.12h.17A16.72,16.72,0,0,1,791.16,790.8Z"
         id="path93" />
      <path
         class="cls-1"
         d="M803.84,779.62H799v14.12h-.63V779.62H793.6v-.57h10.24Z"
         id="path94" />
      <path
         class="cls-1"
         d="M814.62,786.41a2,2,0,0,1,.71.7,1.85,1.85,0,0,1,.26.94v5.69H815V788a1.3,1.3,0,0,0-1.28-1.28H806.3v7h-.63V779.05h5.45a5.61,5.61,0,0,1,2.47.5,3.6,3.6,0,0,1,1.54,1.33,3.49,3.49,0,0,1,.52,1.89,3.25,3.25,0,0,1-.34,1.55,3.34,3.34,0,0,1-.74,1,5.7,5.7,0,0,1-.87.63h0v.21A1.74,1.74,0,0,1,814.62,786.41ZM813,785.8a3.44,3.44,0,0,0,1.47-1.08,3.29,3.29,0,0,0,0-3.7A3.42,3.42,0,0,0,813,780a5.36,5.36,0,0,0-1.86-.33H806.3v6.52h4.82A5.15,5.15,0,0,0,813,785.8Z"
         id="path95" />
      <path
         class="cls-1"
         d="M828.33,787.91v-8.86H829v8.86a8.15,8.15,0,0,1-.49,2.75,5.34,5.34,0,0,1-1.68,2.37,4.72,4.72,0,0,1-3.07,1,4.62,4.62,0,0,1-3.06-1,5.34,5.34,0,0,1-1.68-2.37,7.92,7.92,0,0,1-.51-2.73v-8.86h.63v8.86a7.18,7.18,0,0,0,.49,2.63,4.61,4.61,0,0,0,1.52,2.08,4.66,4.66,0,0,0,5.22,0,4.68,4.68,0,0,0,1.52-2.08A7.38,7.38,0,0,0,828.33,787.91Z"
         id="path96" />
      <path
         class="cls-1"
         d="M844.84,779.05h1.09v14.69h-.63V782a15.65,15.65,0,0,1,.19-2.39h-.21l-5.71,14.12h-1.09l-5.7-14.12h-.21c0,.35.1.74.13,1.16s.06.84.06,1.23v11.73h-.63V779.05h1.09l5.7,14.12h.21Z"
         id="path97" />
      <path
         class="cls-1"
         d="M854.81,793v.14h9.31v.57h-9.69v-.86l8.79-12.15a2.71,2.71,0,0,1,1-.94v-.17h-9.36v-.57h9.69v.86L855.81,792A3.27,3.27,0,0,1,854.81,793Z"
         id="path98" />
      <path
         class="cls-1"
         d="M867.35,793.17h7.34v.57h-8V779.05h.63Z"
         id="path99" />
      <path
         class="cls-1"
         d="M877.24,779.05v14.69h-.63V779.05Zm.06-1.15h-.63l1.11-2.2h.63Z"
         id="path100" />
      <path
         class="cls-1"
         d="M890.73,790.8V779.05h.63v14.69h-1l-9.19-14.12H881a18,18,0,0,1,.17,2.39v11.73h-.63V779.05h1l9.18,14.12h.17A18.35,18.35,0,0,1,890.73,790.8Z"
         id="path101" />
      <path
         class="cls-1"
         d="M444.38,503.28c197.4-2.69,398.8-2.62,596.21-.31l19.24.31-19.24.3c-197.42,2.31-398.81,2.38-596.21-.3Z"
         id="path102" />
      <path
         class="cls-1"
         d="M521.17,709.08c151.34-2.69,305.78-2.62,457.14-.3l14.74.3-14.74.3c-151.37,2.31-305.79,2.38-457.14-.3Z"
         id="path103" />
      <path
         class="cls-1"
         d="M743.81,43.86c3.63,7.18,8,14.77,11.42,21.6-3.36-8-5.85-15.32-8.94-23-1-2.35-1.93-4.52-1.79-7.06s1.22-4.77,2.3-7L750.33,21c1.2-2.54,3.21-6.85,4.9-10.51,2.74,5.94,5.67,12.16,8.43,17.89l.89,1.84a11.48,11.48,0,0,1,1,8.66c-3.52,9-6.51,17.33-10.3,26.56C758.67,58.63,763,51,766.64,43.85l1-1.91A14.66,14.66,0,0,0,768,28.69c-3.4-7.92-7.18-16.5-10.74-24.31l-2-4.38-2,4.38c-3,6.63-7.07,15.74-10,22.43l-.8,1.87a14.54,14.54,0,0,0,.34,13.26Z"
         id="path104" />
      <path
         class="cls-1"
         d="M797,45.35c-7-3.48-15-2.68-22,2.2-12.81,8.9-15,20.08-14.61,27.9,0,.24,0,.47,0,.7-1.57-.07-3.14-.11-4.72-.12-.4-4.11-.45-7.47-.45-7.47s-.05,3.36-.45,7.47c-1.57,0-3.15,0-4.72.12,0-.23,0-.46,0-.7.41-7.82-1.79-19-14.61-27.9-7-4.88-15-5.68-22-2.2-5.91,2.95-9.88,8.67-10.1,14.56S706.53,71.2,712.88,75l4,2.38-.73-4.6c0-.06-.93-6.19,2.22-9.78,1.65-1.9,4.25-2.83,7.75-2.74,9.76.22,17.29,5.11,19.7,12.79a29.43,29.43,0,0,1-.12,3.42,58.35,58.35,0,0,0-6.26.93,59.46,59.46,0,0,0,6,.9,33.47,33.47,0,0,1-2.07,7.47,27.27,27.27,0,0,0-6.88-5.44c-3.58-2-8.58-1.4-9.52,3.19a7.17,7.17,0,0,0,2.39,6.69,7.45,7.45,0,0,0,3.2,1.57,9.59,9.59,0,0,0,3.5.1c-4.81.48-9.2-3.2-8-8.11,1-3.54,4.91-3.55,7.53-1.77,6.57,4.33,12.35,14.29,16.3,22a12.08,12.08,0,0,0-2.89,5.68c-1,4.41-2.84,5-2.84,5a10.35,10.35,0,0,0,5.35-2.4v0a8.86,8.86,0,0,0,3.71,8.27,8.86,8.86,0,0,0,3.71-8.27l0,0a10.33,10.33,0,0,0,5.36,2.41s-1.81-.6-2.83-5a12.16,12.16,0,0,0-2.9-5.69c4.14-8.06,12-21.69,19.21-23.12,7.43-.78,6.29,11.8-3.4,11,5.11.92,10-2.91,9.09-8.36-.94-4.59-6-5.2-9.52-3.19A30,30,0,0,0,767,85.75a33.7,33.7,0,0,1-2-7.45c2-.21,4-.5,6-.91a61,61,0,0,0-6.26-.94,29.08,29.08,0,0,1-.12-3.4c2.41-7.69,9.94-12.58,19.7-12.8,3.48-.08,6.1.84,7.75,2.74,3.15,3.59,2.23,9.72,2.22,9.77l-.76,4.63,4-2.4c6.35-3.79,9.73-9.15,9.51-15.08S802.9,48.3,797,45.35ZM726.21,55.89c-4.86-.11-8.61,1.32-11.15,4.25a15,15,0,0,0-3.32,8.6,11.26,11.26,0,0,1-4-8.67c.17-4.32,3.18-8.57,7.69-10.82a15.56,15.56,0,0,1,7-1.66A18.59,18.59,0,0,1,733,51.14a31,31,0,0,1,9.53,10A27.71,27.71,0,0,0,726.21,55.89Zm37.64,33.4a110.6,110.6,0,0,0-8.61,12.2c-.59-1-1.2-1.9-1.82-2.85a103.83,103.83,0,0,0-6.82-9.31,38.3,38.3,0,0,0,3.19-10.72c1.56.07,3.12.11,4.69.13-.62,4.74-1.72,9.68-3.71,11.34,0,0,4.46,3,4.46,7.24,0-4.25,4.46-7.24,4.46-7.24-2-1.66-3.09-6.6-3.71-11.34,1.57,0,3.13,0,4.69-.13A38.1,38.1,0,0,0,763.85,89.29Zm34.87-20.55a15,15,0,0,0-3.32-8.6c-2.45-2.83-6-4.26-10.65-4.26h-.5a27.71,27.71,0,0,0-16.32,5.28,31,31,0,0,1,9.53-10c5.68-4,12.09-4.63,17.58-1.89,4.51,2.25,7.53,6.5,7.69,10.82A11.19,11.19,0,0,1,798.72,68.74Z"
         id="path105" />
      <polygon
         class="cls-1"
         points="77.9 45.08 597.46 46.41 77.9 47.75 77.9 45.08 77.9 45.08"
         id="polygon105" />
      <path
         class="cls-1"
         d="M2.66,1021.77H0V118H1.33A71.62,71.62,0,0,0,72.87,46.41V45.08h5v2.67H75.52A74.27,74.27,0,0,1,2.66,120.6Z"
         id="path106" />
      <path
         class="cls-1"
         d="M1510.46,1021.77h-2.66V120.6a74.28,74.28,0,0,1-72.86-72.85h-4.61V45.08h7.26v1.33A71.62,71.62,0,0,0,1509.13,118h1.33Z"
         id="path107" />
      <polygon
         class="cls-1"
         points="913 46.41 1430.33 45.08 1430.33 47.75 913 46.41 913 46.41"
         id="polygon107" />
    </g>
  </g>
</svg>
