<?xml version="1.0" encoding="UTF-8"?>
<svg id="svg107" xmlns="http://www.w3.org/2000/svg" xmlns:xlink="http://www.w3.org/1999/xlink" viewBox="0 0 738.04 794.54">
  <defs>
    <style>
      .cls-1 {
        stroke: #f3e7e7;
        stroke-miterlimit: 10;
      }

      .cls-1, .cls-2 {
        fill: #f3e7e7;
      }

      .cls-3 {
        fill: none;
      }

      .cls-3, .cls-2 {
        stroke-width: 0px;
      }

      .cls-4 {
        clip-path: url(#clippath);
      }
    </style>
    <clipPath id="clippath">
      <rect class="cls-3" width="738.04" height="794.04"/>
    </clipPath>
  </defs>
  <g class="cls-4">
    <g id="Vrstva_2" data-name="Vrstva 2">
      <g id="Vrstva_1-2" data-name="Vrstva 1-2">
        <path id="path1" class="cls-2" d="m62.19,266.64c-21.69,0-13.74-40.92-36.46-40.92h-14.55v32.07c0,8.3,5.6,8.85,5.6,8.85H0s5.61-.55,5.61-8.85v-68.24C5.61,181.25,0,180.7,0,180.7h26c15.48.11,26.53,8.93,26.53,22.51,0,12.11-8.78,20.43-21.65,22.17,21.21,5.08,22.39,41.26,31.31,41.26h0Zm-51-41.84h14.55c12.55,0,21.23-7,21.23-21.59s-8.68-21.58-21.23-21.58h-14.56v43.17Z"/>
        <path id="path2" class="cls-2" d="m119.63,243.14l-4.47,23.5h-51s5.61-.55,5.61-8.85v-68.24c0-8.3-5.61-8.85-5.61-8.85h51l4.47,23.5s-5.39-22.57-14.63-22.57h-29.67v41.58h20.82c8.3,0,8.85-13.64,8.85-13.64v28.2s-.55-13.64-8.85-13.64h-20.82v41.58h29.67c9.24,0,14.63-22.57,14.63-22.57h0Z"/>
        <path id="path3" class="cls-2" d="m179.52,206c0,15.13-11.18,25.29-26.8,25.29h-19v26.5c0,8.3,5.61,8.85,5.61,8.85h-16.77s5.6-.55,5.6-8.85v-68.24c0-8.3-5.6-8.85-5.6-8.85h31.09c15.14.41,25.87,10.46,25.87,25.3h0Zm-5.57,0c0-14.6-8.68-24.37-21.23-24.37h-19v48.73h19c12.55,0,21.23-9.77,21.23-24.36Z"/>
        <path id="path4" class="cls-2" d="m241.34,266.64c-21.68,0-13.73-40.92-36.45-40.92h-14.55v32.07c0,8.3,5.6,8.85,5.6,8.85h-16.78s5.6-.55,5.6-8.85v-68.24c0-8.3-5.6-8.85-5.6-8.85h26c15.48.11,26.53,8.93,26.53,22.51,0,12.11-8.78,20.43-21.65,22.17,21.21,5.08,22.39,41.26,31.3,41.26h0Zm-51-41.84h14.55c12.55,0,21.23-7,21.23-21.59s-8.68-21.58-21.23-21.58h-14.55v43.17Z"/>
        <path id="path5" class="cls-2" d="m298.79,243.14l-4.47,23.5h-51s5.6-.55,5.6-8.85v-68.24c0-8.3-5.6-8.85-5.6-8.85h51l4.47,23.5s-5.39-22.57-14.63-22.57h-29.67v41.58h20.82c8.29,0,8.85-13.64,8.85-13.64v28.2s-.56-13.64-8.85-13.64h-20.82v41.58h29.67c9.24,0,14.63-22.57,14.63-22.57h0Z"/>
        <path id="path6" class="cls-2" d="m352.27,243.14l-4.48,23.5h-48.36l46.75-85h-27.61c-9.25,0-14.63,22.57-14.63,22.57l4.47-23.5h43.86l-46.75,85h32.12c9.24,0,14.63-22.57,14.63-22.57h0Z"/>
        <path id="path7" class="cls-2" d="m410.93,243.14l-4.47,23.5h-51s5.6-.55,5.6-8.85v-68.24c0-8.3-5.6-8.85-5.6-8.85h51l4.47,23.5s-5.38-22.57-14.63-22.57h-29.67v41.58h20.82c8.3,0,8.85-13.64,8.85-13.64v28.2s-.55-13.64-8.85-13.64h-20.82v41.58h29.67c9.25,0,14.63-22.57,14.63-22.57h0Z"/>
        <path id="path8" class="cls-2" d="m473.9,180.7s-5.6.55-5.6,8.85v77.09h-.93l-47-84.26v75.41c0,8.3,5.61,8.85,5.61,8.85h-12.12s5.6-.55,5.6-8.85v-68.24c0-8.3-5.6-8.85-5.6-8.85h11.17l42.34,75.94v-67.09c0-8.3-5.6-8.85-5.6-8.85h12.13Z"/>
        <path id="path9" class="cls-2" d="m536.09,204.2s-5.38-22.57-14.63-22.57h-13.67v76.16c0,8.3,5.6,8.85,5.6,8.85h-16.78s5.61-.55,5.61-8.85v-76.16h-13.68c-9.24,0-14.63,22.57-14.63,22.57l4.47-23.5h53.24l4.47,23.5Z"/>
        <path id="path10" class="cls-2" d="m594.69,266.64h-16.75s5.24-1,2.51-8.85l-7.58-21.93h-31.84l-7.47,21.93c-2.76,8.07,2.58,8.85,2.58,8.85h-12.12s5.92-.93,8.61-8.85l26.25-77.09h.91l26.26,77.09c1.26,4.19,4.49,7.49,8.64,8.85h0Zm-22.15-31.71l-15.56-45-.15-.48-15.48,45.48h31.19Z"/>
        <path id="path11" class="cls-2" d="m650.59,250.22h.93c-6.51,10.54-16.85,17.35-29.25,17.35-20.49,0-34-19.65-34-43.9s13.87-43.9,33.78-43.9c16.8,0,23.81,16.14,24.72,3.51v20.66c-.79-10.73-12.3-23.24-24.61-23.24-16.59,0-28.33,19.24-28.33,43s11.32,43,28.73,43c18.81-.06,28.03-16.48,28.03-16.48h0Z"/>
        <path id="path12" class="cls-2" d="m711.79,180.7s-5.61.55-5.61,8.85v77.09h-.93l-47-84.26v75.41c0,8.3,5.61,8.85,5.61,8.85h-12.07s5.61-.55,5.61-8.85v-68.24c0-8.3-5.61-8.85-5.61-8.85h11.17l42.34,75.94v-67.09c0-8.3-5.6-8.85-5.6-8.85h12.09Z"/>
        <path id="path13" class="cls-2" d="m726.18,189.55v68.24c0,8.3,5.61,8.85,5.61,8.85h-16.78s5.6-.55,5.6-8.85v-68.24c0-8.3-5.6-8.85-5.6-8.85h16.78s-5.61.55-5.61,8.85h0Z"/>
        <path id="path14" class="cls-2" d="m304.2,327.55c0,15.14-11.18,25.3-26.8,25.3h-19v26.5c0,8.3,5.61,8.85,5.61,8.85h-16.77s5.6-.55,5.6-8.85v-68.24c0-8.3-5.6-8.85-5.6-8.85h31.09c15.13.41,25.87,10.46,25.87,25.29Zm-5.57,0c0-14.59-8.68-24.36-21.23-24.36h-19v48.73h19c12.55,0,21.23-9.77,21.23-24.37h0Z"/>
        <path id="path15" class="cls-2" d="m359.7,364.7l-4.47,23.5h-51s5.6-.55,5.6-8.85v-68.24c0-8.3-5.6-8.85-5.6-8.85h16.78s-5.6.55-5.6,8.85v76.16h29.66c9.24,0,14.63-22.58,14.63-22.57h0Z"/>
        <path id="path16" class="cls-2" d="m486.67,381.58c0,17.18-17.41,33.14-47.85,33.14-26.4,0-41.17-12.29-46.46-26.52h-32.63s5.6-.55,5.6-8.85v-68.24c0-8.3-5.6-8.85-5.6-8.85h51l4.46,23.49c-.16-.69-5.53-22.56-14.63-22.56h-29.66v41.57h20.82c8.3,0,8.85-13.63,8.85-13.63v28.2c-.11-2.03-.44-4.04-1-6l-.09-.29-.27.29c-8.15,8.8-10.42,22.06-6,33.91h7.44c9.1,0,14.47-21.88,14.63-22.56l-4.49,23.52h-17.3c5.56,13.87,20.35,25.59,45.59,25.59s41.92-14.09,41.92-29c0-31.77-65-36.8-65-65.26,0-9,8.51-18.16,23.75-18.16,17,0,24.15,16.13,25.07,3.51v20.62c-.8-10.73-12.47-23.24-25-23.24-11.57,0-18.22,7.48-18.22,15.76.04,24.57,65.07,29.4,65.07,63.56h0Zm-94.64,5.69c-1.28-3.75-1.94-7.69-1.94-11.66,0-8.64,3.14-16.9,9-22.6l.28-.26c-1.15-3.49-3.37-7.06-7.62-7.06h-20.85v41.58h21.13Z"/>
        <path id="path17" class="cls-2" d="m203.03,450.65v-12.65h2.51v12.65c0,1.45-.29,2.89-.84,4.24-.56,1.4-1.5,2.62-2.71,3.51-1.38.98-3.05,1.48-4.75,1.41-1.7.07-3.38-.43-4.76-1.43-1.2-.91-2.13-2.12-2.69-3.52-.55-1.34-.84-2.77-.85-4.21v-12.65h2.52v12.62c0,1.13.2,2.25.61,3.31.38,1.03,1.04,1.93,1.91,2.6,1.97,1.35,4.56,1.35,6.53,0,.86-.68,1.52-1.58,1.91-2.6.4-1.05.61-2.16.61-3.28h0Z"/>
        <path id="path18" class="cls-2" d="m225.22,453.41v-15.41h2.51v21.44h-3.88l-11.3-19.17h-.4c.16,1.24.24,2.49.24,3.74v15.43h-2.51v-21.44h3.91l11.27,19.17h.4c-.16-1.25-.24-2.5-.24-3.76h0Z"/>
        <path id="path19" class="cls-2" d="m234.79,438v21.44h-2.51v-21.44h2.51Z"/>
        <path id="path20" class="cls-2" d="m253.88,438h2.63l-7.65,21.44h-3.92l-7.66-21.44h2.64l6.4,17.64c.17.5.3,1.01.39,1.53h.37c.09-.52.22-1.03.4-1.53l6.4-17.64Z"/>
        <path id="path21" class="cls-2" d="m272.22,440.3h-10.69v7.26h9.68v2.2h-9.68v7.44h10.69v2.27h-13.2v-21.44h13.17l.03,2.27Z"/>
        <path id="path22" class="cls-2" d="m288.98,449c.48.29.89.7,1.18,1.18.29.47.44,1.01.44,1.56v7.72h-2.33v-7.65c.01-.53-.2-1.04-.58-1.41-.36-.38-.86-.6-1.38-.59h-8.52v9.65h-2.48v-21.46h9.19c1.21-.04,2.42.21,3.52.71.89.41,1.64,1.08,2.16,1.91.49.83.74,1.78.72,2.74.02.86-.2,1.7-.64,2.44-.36.59-.84,1.1-1.4,1.51-.44.32-.92.59-1.42.8h0v.43c.55.01,1.08.17,1.54.46h0Zm-2.7-1.86c.62-.26,1.15-.69,1.54-1.23.4-.59.6-1.29.58-2,.02-.71-.18-1.41-.58-2-.39-.54-.92-.97-1.54-1.23-.63-.27-1.31-.41-2-.41h-6.49v7.26h6.43c.71.02,1.41-.11,2.06-.38h0Z"/>
        <path id="path23" class="cls-2" d="m296.12,456.87v.33h12.8v2.27h-15.68v-2.11l11.24-15.1c.45-.67,1.06-1.21,1.77-1.59v-.37h-12.37v-2.3h15.19v2.12l-11.12,14.94c-.49.72-1.11,1.33-1.83,1.81Z"/>
        <path id="path24" class="cls-2" d="m314.59,438v21.44h-2.51v-21.44h2.51Z"/>
        <path id="path25" class="cls-2" d="m332.9,440.3h-6.58v19.17h-2.53v-19.17h-6.58v-2.3h15.67l.02,2.3Z"/>
        <path id="path26" class="cls-2" d="m343.68,446.06l4.78-8h2.63l-7,11.86v9.58h-2.51v-9.61l-7-11.83h2.63l4.75,8c.26.46.48.94.67,1.44h.43c.16-.5.37-.98.62-1.44Z"/>
        <path id="path27" class="cls-2" d="m375.9,440.3h-6.59v19.17h-2.52v-19.17h-6.58v-2.3h15.68v2.3Z"/>
        <path id="path28" class="cls-2" d="m391.34,439.31c1.45,1.06,2.58,2.5,3.25,4.16.67,1.69,1.01,3.49,1,5.31.02,1.81-.32,3.61-1,5.29-.67,1.66-1.79,3.09-3.24,4.14-3.37,2.17-7.7,2.17-11.07,0-1.45-1.05-2.58-2.48-3.26-4.14-1.39-3.4-1.39-7.2,0-10.6.68-1.66,1.81-3.1,3.26-4.16,3.37-2.19,7.71-2.19,11.08,0h-.02Zm-1.44,17c1.09-.86,1.93-2.01,2.42-3.31,1.04-2.7,1.04-5.7,0-8.4-.49-1.31-1.32-2.46-2.42-3.32-1.18-.9-2.64-1.37-4.12-1.31-1.49-.05-2.95.41-4.13,1.31-1.1.86-1.94,2.01-2.42,3.32-1.01,2.71-1.01,5.69,0,8.4.49,1.3,1.32,2.45,2.42,3.31,1.19.9,2.64,1.36,4.13,1.3,1.49.05,2.94-.43,4.12-1.34v.04Z"/>
        <path id="path29" class="cls-2" d="m417.69,438h4.16v21.44h-2.51v-15.65c0-1.17.1-2.33.28-3.49h-.43l-7,19.17h-3.49l-7-19.17h-.43c.08.51.14,1.08.2,1.7.06.62.07,1.22.07,1.79v15.68h-2.51v-21.47h4.2l7,19.17h.43l7.03-19.17Z"/>
        <path id="path30" class="cls-2" d="m443.13,459.47h-2.34l-1.9-5.36h-10.3l-1.9,5.36h-2.33l7.72-21.47h3.34l7.71,21.47Zm-5-7.44l-4.16-11.73h-.43l-4.19,11.7,8.78.03Zm-3.15-15.62h-2.19l1.9-4h2.33l-2.04,4Z"/>
        <path id="path31" class="cls-2" d="m460.05,453.44c.01,2.33-1.32,4.46-3.43,5.46-1.39.67-2.93,1-4.47.94-1.55.05-3.09-.29-4.47-1-1.1-.55-2-1.41-2.61-2.48-.54-.96-.82-2.04-.82-3.14h2.54c0,.72.2,1.43.56,2.06.43.7,1.05,1.26,1.79,1.62.96.46,2.01.68,3.07.64,1.03.03,2.06-.17,3-.6.73-.33,1.34-.87,1.76-1.54.37-.6.57-1.29.57-2,.02-.69-.23-1.36-.71-1.86-.5-.49-1.1-.87-1.76-1.11-.82-.3-1.67-.53-2.53-.68l-.91-.18-.49-.09c-1.11-.21-2.2-.51-3.25-.92-.91-.36-1.72-.96-2.34-1.72-.7-.89-1.05-1.99-1-3.12,0-1.03.28-2.03.81-2.91.61-.98,1.49-1.77,2.53-2.28,1.35-.65,2.83-.95,4.32-.9,1.49-.05,2.98.26,4.33.9,1.05.5,1.93,1.29,2.54,2.28.53.88.82,1.88.82,2.91v.28h-2.52v-.25c0-.65-.19-1.28-.55-1.82-.42-.63-1.01-1.13-1.7-1.44-.92-.41-1.92-.61-2.92-.57-.99-.04-1.98.16-2.89.57-.69.31-1.28.81-1.7,1.44-.36.54-.55,1.17-.56,1.82-.03.67.18,1.32.6,1.84.4.47.91.84,1.49,1.06.73.27,1.49.47,2.26.59l.55.09h.07c1.36.24,2.69.57,4,1,1.07.36,2.03.98,2.8,1.81.82.9,1.26,2.08,1.22,3.3h0Zm-9.53-17.44h3l2.48-3.64h-2.26l-1.59,2.27h-.22l-1.59-2.27h-2.27l2.45,3.64Z"/>
        <path id="path32" class="cls-2" d="m476.79,440.3h-10.71v7.26h9.71v2.2h-9.67v7.44h10.67v2.27h-13.22v-21.44h13.22v2.27Z"/>
        <path id="path33" class="cls-2" d="m503.7,457c-.8.86-1.82,1.5-2.94,1.85-1.22.39-2.5.59-3.79.58h-7.9v-21.43h7.87c1.11,0,2.21.18,3.25.56.98.33,1.84.93,2.5,1.73,1.58,1.94,1.29,4.79-.65,6.37-.17.14-.36.27-.55.39-.64.38-1.36.63-2.1.72v.43c.93.14,1.83.44,2.65.89.81.44,1.5,1.09,2,1.87.53.83.8,1.8.78,2.79.05,1.19-.35,2.35-1.12,3.25h0Zm-3.62-10.92c.81-.56,1.27-1.5,1.21-2.48.07-.99-.39-1.94-1.21-2.51-.89-.58-1.94-.87-3-.83h-5.49v6.74h5.49c1.07.02,2.11-.29,3-.88v-.04Zm-.36,10.67c.75-.24,1.4-.7,1.89-1.32.96-1.35.96-3.16,0-4.51-.49-.6-1.15-1.05-1.89-1.3-.83-.29-1.71-.43-2.59-.42h-5.55v8h5.55c.88.01,1.76-.13,2.59-.41v-.04Z"/>
        <path id="path34" class="cls-2" d="m524.69,459.47h-2.33l-1.9-5.36h-10.32l-1.89,5.36h-2.33l7.72-21.47h3.33l7.72,21.47Zm-5-7.44l-4.17-11.73h-.43l-4.18,11.7,8.78.03Z"/>
        <path id="path35" class="cls-2" d="m538.39,440.3h-6.6v19.17h-2.51v-19.17h-6.59v-2.3h15.7v2.3Z"/>
        <path id="path36" class="cls-2" d="m543.53,438v21.44h-2.51v-21.44h2.51Z"/>
        <path id="path37" class="cls-2" d="m172.62,346.1l7.78,10.81h-2.09l-7.16-9.91h-.36l-7.13,9.89h-2.12l7.81-10.81-7.65-10.63h2.09l7.17,10,7.16-10h2.11l-7.61,10.65Z"/>
        <path id="path38" class="cls-2" d="m193.03,346.1l7.76,10.81h-2.09l-7.14-9.91h-.34l-7.13,9.89h-2.12l7.82-10.79-7.65-10.63h2.11l7.17,10,7.16-10h2.11l-7.66,10.63Z"/>
        <path id="path39" class="cls-2" d="m205.07,335.47v21.44h-1.71v-21.44h1.71Z"/>
        <path id="path40" class="cls-2" d="m211.4,335.47v21.44h-1.72v-21.44h1.72Z"/>
        <path id="path41" class="cls-2" d="m217.72,335.47v21.44h-1.71v-21.44h1.71Z"/>
        <path id="path42" class="cls-2" d="m222.21,356.94c-.22-.21-.35-.5-.35-.8,0-.31.12-.61.35-.83.23-.22.53-.34.85-.33.2,0,.39.05.56.15.18.1.32.24.43.41.11.18.17.39.17.6,0,.3-.13.59-.35.8-.22.21-.51.33-.81.33-.32,0-.62-.11-.85-.33h0Z"/>
        <path id="path43" class="cls-2" d="m506.11,355.71h8.33v1.56h-14.42v-1.53c3.37-3,6.74-6,10.1-9,.08-.06.29-.26.61-.58.56-.59,1.03-1.27,1.4-2,.3-.63.46-1.31.47-2,0-.84-.19-1.67-.56-2.43-.4-.79-1.03-1.44-1.8-1.88-1.93-.99-4.21-.99-6.14,0-.76.44-1.38,1.1-1.79,1.88-.38.75-.58,1.59-.58,2.43-.01.24-.01.47,0,.71h-1.71c-.01-.24-.01-.47,0-.71,0-1.1.26-2.19.75-3.17.53-1.04,1.35-1.9,2.36-2.48,2.54-1.28,5.54-1.28,8.08,0,1.01.58,1.83,1.44,2.36,2.48.49.98.75,2.07.75,3.17,0,.98-.22,1.95-.65,2.84-.41.89-.99,1.68-1.71,2.34l-9.46,8.45v.37c1.19-.27,2.39-.42,3.61-.45h0Z"/>
        <path id="path44" class="cls-2" d="m530.61,337.09c1.32,1.1,2.32,2.54,2.88,4.17,1.23,3.42,1.23,7.17,0,10.59-.56,1.63-1.56,3.07-2.88,4.17-2.98,2.17-7.02,2.17-10,0-1.32-1.1-2.32-2.54-2.88-4.17-1.23-3.42-1.23-7.17,0-10.59.56-1.63,1.56-3.07,2.88-4.17,2.98-2.17,7.02-2.17,10,0Zm-1,17.6c1.09-.95,1.9-2.19,2.33-3.57.96-2.97.96-6.16,0-9.13-.43-1.38-1.24-2.62-2.33-3.57-1.12-.93-2.54-1.43-4-1.39-1.46-.05-2.89.45-4,1.39-1.09.96-1.89,2.19-2.33,3.57-.99,2.96-.99,6.17,0,9.13.44,1.38,1.24,2.61,2.33,3.57,1.11.95,2.54,1.44,4,1.39,1.47.05,2.91-.44,4.03-1.39h-.03Z"/>
        <path id="path45" class="cls-2" d="m542.91,355.71h8.33v1.56h-14.45v-1.53c3.37-3,6.74-6,10.11-9,.08-.06.28-.26.61-.58.56-.59,1.03-1.27,1.39-2,.31-.62.47-1.31.48-2,0-.84-.19-1.68-.57-2.43-.4-.79-1.02-1.44-1.79-1.88-1.93-.99-4.21-.99-6.14,0-.76.44-1.39,1.09-1.79,1.88-.38.75-.58,1.59-.58,2.43-.01.24-.01.47,0,.71h-1.72c-.01-.24-.01-.47,0-.71,0-1.1.26-2.19.75-3.17.53-1.04,1.35-1.9,2.36-2.48,2.54-1.28,5.55-1.28,8.09,0,1.01.58,1.82,1.44,2.35,2.48.49.98.75,2.07.75,3.17,0,.98-.22,1.95-.64,2.84-.41.88-.99,1.68-1.71,2.34-2.99,2.67-6.15,5.48-9.47,8.45v.37c1.2-.27,2.41-.42,3.64-.45Z"/>
        <path id="path46" class="cls-2" d="m568.69,349.83c0,1.29-.28,2.57-.82,3.74-.57,1.2-1.47,2.21-2.59,2.92-1.34.81-2.89,1.21-4.46,1.15-1.47.05-2.92-.3-4.21-1-1.07-.61-1.96-1.5-2.57-2.58-.57-1.05-.91-2.22-1-3.41h1.72c.12.93.41,1.83.86,2.65.47.84,1.16,1.53,2,2,.99.54,2.1.8,3.23.77,1.23.05,2.44-.27,3.49-.92.88-.58,1.58-1.4,2-2.37.85-1.94.85-4.16,0-6.1-.43-.97-1.12-1.8-2-2.4-1.03-.69-2.25-1.04-3.49-1-1.04-.04-2.07.18-3,.64-.79.39-1.48.97-2,1.69h-1.93l1.32-9.83h11.73v1.56h-10.18l-.46,3.67c-.07.56-.18,1.12-.32,1.67-.13.54-.29,1.08-.48,1.61h.26c.57-.73,1.31-1.33,2.15-1.73.97-.45,2.02-.67,3.09-.66,1.52-.07,3.02.32,4.3,1.13,1.12.73,1.99,1.78,2.53,3,.54,1.19.83,2.49.83,3.8h0Z"/>
        <polygon id="polygon46" class="cls-2" points="631.33 163.72 636.91 163.72 622.36 177.32 621.43 177.32 631.33 163.72"/>
        <polygon id="polygon47" class="cls-2" points="732.47 163.72 738.04 163.72 723.49 177.32 722.56 177.32 732.47 163.72"/>
        <polygon id="polygon48" class="cls-2" points="622.32 177.32 621.39 177.32 606.84 163.72 612.42 163.72 622.32 177.32"/>
        <path id="path48" class="cls-2" d="m535.79,550.58h8.23s-3.8.37-3.8,6v52.3h-.63s-21.85-39.83-30.31-54.22c-.51-.86-1-1.7-1.56-2.5v50.72c0,5.62,3.8,6,3.8,6h-8.23s3.8-.38,3.8-6v-51.65c-5.43-7.72-12.5-12.08-27.5-12.08,20.92,0,27.94,6,32.69,14.17,7.41,12.75,27.31,48.78,27.31,48.78v-45.52c0-5.63-3.8-6-3.8-6h0Z"/>
        <path id="path49" class="cls-2" d="m221.32,550.57s-3.8.38-3.8,6v47.28c-1.56.44-2.77,1.66-3.22,3.21l-.64.12h0l-.78.12c-.47.07-.94.13-1.42.18l-1.34.13c1.63-.41,2.9-1.7,3.28-3.34.25-.86.36-1.75.35-2.64v-45.05c0-5.63-3.8-6-3.8-6h11.37Z"/>
        <path id="path50" class="cls-2" d="m272.93,549.94c-13.89,0-24.53,13.34-24.53,29.78-.04,5.53,1.23,10.99,3.72,15.93.18.36.37.72.57,1.06,4.36,7.74,11.68,12.8,20.24,12.8,13.9,0,24.54-13.33,24.54-29.79s-10.68-29.78-24.54-29.78h0Zm0,58.94c-6.66,0-12.41-4.15-16.15-10.67-.1-.16-.19-.33-.28-.49-2.92-5.55-4.4-11.73-4.32-18,0-16.09,8.94-29.15,20.75-29.15s20.75,13.06,20.75,29.15-8.89,29.16-20.75,29.16h0Z"/>
        <path id="path51" class="cls-2" d="m328.35,550.57s3.65.48,2,6l-14.15,46-13.71-46.01c-1.62-5.45,2-6,2-6h-11.36s3.94.48,5.58,6l15.51,52.3h.63l1.6-5.21,14.47-47.09c1.7-5.51,5.65-6,5.65-6h-8.22Z"/>
        <path id="path52" class="cls-2" d="m365.27,608.25h-20.12v-28.25h14.12c5.63,0,6,9.25,6,9.25v-19.09s-.37,9.25-6,9.25h-14.12v-28.2h20.12c6.08,0,9.7,14.37,9.92,15.27l-3-15.91h-34.63s3.8.38,3.8,6v46.29c0,5.64-3.8,6-3.8,6h34.62l3-15.9c-.21.92-3.83,15.29-9.91,15.29h0Z"/>
        <path id="path53" class="cls-2" d="m410.37,602.87v-46.29c0-5.63,3.8-6,3.8-6h-11.38s3.8.38,3.8,6v46.29c0,5.64-3.8,6-3.8,6h11.38s-3.8-.36-3.8-6Z"/>
        <path id="path54" class="cls-2" d="m497.92,602.87v-46.29c0-5.63,3.8-6,3.8-6h-11.39s3.8.38,3.8,6v46.29c0,5.64-3.8,6-3.8,6h11.39s-3.8-.36-3.8-6Z"/>
        <path id="path55" class="cls-2" d="m225.54,608.91c-14.49,6.33-27.46,9.45-37.74-.26,7.17,8.09,17.18,9,25.85,7.62v50.93c0,5.63-3.8,6-3.8,6h11.39s-3.8-.37-3.8-6v-51.71c2.5-.62,4.96-1.42,7.35-2.39,14.84-6,25.43-13.06,37.52-1.82-12.69-11.96-23.84-8.02-36.77-2.37Z"/>
        <path id="path56" class="cls-2" d="m262.73,667.2v-46.3c0-5.62,3.8-6,3.8-6h-11.39s3.81.38,3.81,6v22.84h-28.28v-22.84c0-5.62,3.8-6,3.8-6h-11.39s3.8.38,3.8,6v46.3c0,5.63-3.8,6-3.8,6h11.39s-3.8-.37-3.8-6v-22.83h28.28v22.83c0,5.63-3.81,6-3.81,6h11.39s-3.8-.37-3.8-6h0Z"/>
        <path id="path57" class="cls-2" d="m296.43,672.58h-20.13v-28.22h14.12c5.64,0,6,9.26,6,9.26v-19.14s-.37,9.26-6,9.26h-14.12v-28.21h20.13c6.08,0,9.7,14.38,9.92,15.28l-3-15.91h-34.6s3.8.38,3.8,6v46.3c0,5.63-3.8,6-3.8,6h34.6l3-15.9c-.22.9-3.84,15.28-9.92,15.28h0Z"/>
        <path id="path58" class="cls-2" d="m367.86,673.2h11.36c-2.82-.92-5-3.16-5.84-6l-17.82-52.3h-.63l-17.8,52.3c-1.83,5.37-5.85,6-5.85,6h8.22s-3.62-.52-1.75-6l4.27-12.53.8-2.35.21-.62.31-.94,10.2-29.92.1.32,10.08,29.14.48,1.4.21.62.74,2.11,4.41,12.77c1.86,5.3-1.7,6-1.7,6h0Z"/>
        <path id="path59" class="cls-2" d="m387.57,667.2v-46.3c0-5.62,3.8-6,3.8-6h-11.39s3.81.38,3.81,6v46.3c0,5.63-3.81,6-3.81,6h11.39s-3.8-.37-3.8-6Z"/>
        <path id="path60" class="cls-2" d="m414.11,645.21c8.73-1.18,14.69-6.83,14.69-15,0-9.21-7.5-15.2-18-15.26h-17.64s3.8.38,3.8,6v46.3c0,5.63-3.8,6-3.8,6h11.38s-3.81-.37-3.81-6v-21.81h9.88c15.41,0,10,27.76,24.74,27.76-6.06,0-6.86-24.54-21.24-27.99Zm-13.38-.39v-29.29h9.88c8.51,0,14.4,4.74,14.4,14.64s-5.89,14.65-14.4,14.65h-9.88Z"/>
        <path id="path61" class="cls-2" d="m422.5,561.32c0-5.62,4.51-10.69,12.36-10.69,8.48,0,16.4,8.48,16.93,15.76v-14c-.62,8.56-5.44-2.38-17-2.38-10.34,0-16.12,6.24-16.12,12.32,0,19.31,44.12,22.72,44.12,44.27,0,10.14-10.85,19.7-28.45,19.7s-26.75-7.63-30.69-16.8h0s0-.07,0-.1c0-.09-.07-.18-.1-.28l-.06-.13c-.08-.18-.16-.4-.24-.62s-.19-.53-.27-.8h0c-2.55-7.72-1-16.18,4.13-21.94l-.11-.23c-3.82,4.07-5.91,9.47-5.81,15.06,0,2.48.37,4.94,1.11,7.3,0,.03,0,.07,0,.1,0,.11.07.22.1.32.03.06.05.12.07.19.07.19.14.41.22.62v.12c3.64,9.6,13.64,17.87,31.49,17.87,20.65,0,32.46-10.83,32.46-22.47-.02-23.25-44.14-26.51-44.14-43.19h0Z"/>
        <path id="path62" class="cls-2" d="m391.37,649.55c-10.34-9.61-19.4-3.54-32.09,1.56-1.62.65-3.27,1.21-4.94,1.68l-.36.09c-.72.2-2.47.63-4.26.94h0l-.67.1-1.21.16c-6.95.77-14.61-.43-20.24-6.77,8.8,8.3,19.9,5.63,32.29.22,11.06-4.83,20.6-8.21,31.48,2.02h0Z"/>
        <path id="path63" class="cls-2" d="m262.34,602.2c-1.66-1.58-3.53-2.93-5.56-4-1.3-.66-2.67-1.17-4.09-1.5-8.51-2-17.06,3-27.86,7.32-1.89.77-3.81,1.44-5.77,2l-.42.12c-.76.2-2.49.63-4.34,1l-.64.12h0l-.78.12c-.47.07-.94.13-1.42.18l-1.34.13c1.63-.41,2.9-1.7,3.28-3.34,1.36-.36,2.74-.79,4.13-1.27,2.62-.9,5.29-2,8-3.17,9.37-4.09,17.8-7.29,26.58-4.19,1.53.54,3,1.23,4.38,2.07,2.1,1.25,4.06,2.73,5.85,4.41h0Z"/>
        <path id="path64" class="cls-2" d="m235.71,742.1c.96.43,1.78,1.13,2.37,2,1.23,1.98,1.23,4.5,0,6.48-.6.88-1.42,1.57-2.39,2-.97.44-2.02.66-3.08.66h-6.65v9.65h-2.51v-21.45h9.16c1.07,0,2.13.22,3.1.66h0Zm-1.32,8.44c.61-.28,1.13-.7,1.52-1.24.77-1.2.77-2.75,0-3.95-.39-.54-.91-.96-1.52-1.23-.63-.27-1.31-.41-2-.41h-6.4v7.29h6.4c.69-.01,1.37-.17,2-.46Z"/>
        <path id="path65" class="cls-2" d="m256.89,762.88h-2.33l-1.9-5.36h-10.32l-1.9,5.36h-2.33l7.68-21.44h3.34l7.76,21.44Zm-5-7.44l-4.16-11.73h-.43l-4.19,11.73h8.78Zm-3.1-15.62h-2.17l1.89-4h2.28l-2,4Z"/>
        <path id="path66" class="cls-2" d="m270.59,743.71h-6.59v19.17h-2.51v-19.17h-6.58v-2.27h15.68v2.27Z"/>
        <path id="path67" class="cls-2" d="m286.42,743.71h-10.69v7.29h9.67v2.2h-9.67v7.44h10.69v2.27h-13.2v-21.44h13.17l.03,2.24Z"/>
        <path id="path68" class="cls-2" d="m295.27,752v.43l10.26,10.44h-3.46l-9.37-9.49h-.67v9.49h-2.51v-21.43h2.51v9.65h.67l9.49-9.65h3.46l-10.38,10.56Z"/>
        <path id="path69" class="cls-2" d="m320.41,741.44h2.52v21.44h-2.52v-13.32c0-1.2.13-2.39.38-3.56h-.4c-.23.69-.56,1.34-1,1.92-.46.6-1.04,1.09-1.7,1.46-.71.39-1.49.61-2.3.66v-2.36c1.52-.02,2.94-.76,3.81-2,.84-1.25,1.26-2.73,1.21-4.24Z"/>
        <path id="path70" class="cls-2" d="m342.96,758.59h-2.57v4.29h-2.51v-4.29h-12.49v-2.94l11-14.21h4v15.07h2.57v2.08Zm-5.45-14.88l-9.8,12.8h6.68c1.18,0,2.35.14,3.49.43v-13.23h-.37Z"/>
        <path id="path71" class="cls-2" d="m346.07,762.8c-.6-.55-.64-1.48-.09-2.08.03-.03.06-.06.09-.09.3-.29.69-.45,1.11-.45.27,0,.53.08.75.22.23.14.43.33.59.55.15.22.23.49.23.76,0,.42-.17.81-.48,1.09-.61.6-1.59.6-2.2,0Z"/>
        <path id="path72" class="cls-2" d="m367.79,760.61h7.72v2.27h-15.07v-2.11c3.15-2.78,6.28-5.56,9.37-8.33.23-.18.45-.38.65-.59.67-.65,1.26-1.38,1.76-2.17.39-.6.61-1.29.63-2,0-.73-.19-1.46-.54-2.1-.39-.69-.96-1.25-1.65-1.62-1.77-.85-3.84-.85-5.61,0-.69.38-1.26.94-1.64,1.63-.34.64-.52,1.35-.52,2.08v.7h-2.51v-.7c0-1.1.27-2.19.78-3.17.56-1.06,1.42-1.92,2.48-2.48,1.3-.69,2.76-1.04,4.24-1,1.46-.04,2.91.3,4.2,1,1.05.57,1.91,1.43,2.48,2.48.52.98.8,2.06.8,3.17,0,1.02-.27,2.03-.77,2.92-.53.94-1.2,1.78-2,2.5-2.47,2.21-5.29,4.71-8.45,7.5v.41c1.2-.27,2.42-.4,3.65-.39h0Z"/>
        <path id="path73" class="cls-2" d="m378.79,762.8c-.6-.55-.64-1.48-.09-2.08.03-.03.06-.06.09-.09.3-.29.7-.46,1.12-.45.27,0,.52.08.75.22.23.14.43.33.58.55.15.22.23.49.23.76,0,.42-.17.81-.48,1.09-.29.29-.67.45-1.08.45-.42,0-.82-.16-1.12-.45Z"/>
        <path id="path74" class="cls-2" d="m408.31,742.71c1.45,1.06,2.58,2.5,3.25,4.17.67,1.69,1.01,3.49,1,5.31.02,1.81-.32,3.6-1,5.28-.67,1.66-1.8,3.1-3.25,4.15-3.37,2.17-7.7,2.17-11.07,0-1.45-1.05-2.58-2.49-3.26-4.15-1.39-3.39-1.39-7.2,0-10.59.68-1.66,1.81-3.11,3.26-4.17,3.37-2.19,7.72-2.19,11.09,0h-.02Zm-1.44,17c1.09-.87,1.93-2.01,2.42-3.31,1.04-2.7,1.04-5.7,0-8.4-.49-1.31-1.33-2.46-2.42-3.33-2.48-1.73-5.77-1.73-8.25,0-1.1.86-1.94,2.02-2.42,3.33-1.03,2.71-1.03,5.69,0,8.4.48,1.31,1.32,2.45,2.42,3.31,2.48,1.73,5.77,1.73,8.25,0Z"/>
        <path id="path75" class="cls-2" d="m432.45,757.92c-.8,1.56-2.05,2.84-3.58,3.69-1.62.87-3.43,1.3-5.27,1.27h-7.56v-21.44h7.56c1.81-.03,3.6.41,5.19,1.26,1.54.85,2.79,2.13,3.61,3.69.92,1.78,1.37,3.77,1.32,5.77.06,2-.38,3.97-1.27,5.76h0Zm-4.66,1.48c1.14-.75,2.04-1.81,2.59-3.06,1.15-2.67,1.15-5.7,0-8.37-.55-1.26-1.45-2.34-2.59-3.1-1.27-.8-2.74-1.21-4.24-1.16h-5v16.84h5c1.5.05,2.97-.35,4.24-1.15Z"/>
        <path id="path76" class="cls-2" d="m449.26,741.44h2.53v21.44h-2.51v-13.32c0-1.2.14-2.4.4-3.58h-.4c-.24.69-.6,1.34-1.05,1.92-.46.6-1.04,1.09-1.7,1.46-.71.39-1.49.61-2.3.66v-2.36c1.52-.02,2.94-.76,3.81-2,.84-1.25,1.26-2.72,1.22-4.22Z"/>
        <path id="path77" class="cls-2" d="m458.66,755.71c-1.17-.64-2.13-1.61-2.77-2.78-.66-1.23-1-2.6-1-4-.02-1.4.33-2.78,1-4,.66-1.18,1.65-2.14,2.84-2.78,1.3-.69,2.75-1.04,4.22-1,1.62-.03,3.23.35,4.67,1.11,1.45.81,2.62,2.05,3.32,3.56.92,2.01,1.35,4.21,1.26,6.42,0,1.8-.3,3.6-.89,5.3-.54,1.62-1.52,3.06-2.83,4.16-1.38,1.12-3.12,1.69-4.89,1.63-1.28.02-2.54-.26-3.69-.83-1.04-.52-1.95-1.27-2.66-2.19-.69-.89-1.21-1.91-1.52-3h2.45c.38,1.09,1.07,2.03,2,2.71,1.04.71,2.29,1.06,3.55,1,1.31.02,2.58-.42,3.58-1.26,1.1-.95,1.9-2.2,2.31-3.59.54-1.79.74-3.67.57-5.53h-.39c-.02,1.07-.34,2.11-.93,3-.62.95-1.48,1.73-2.48,2.27-1.08.57-2.29.87-3.51.85-1.47.02-2.92-.34-4.21-1.05h0Zm1.35-11.54c-.83.49-1.5,1.22-1.94,2.08-.84,1.66-.84,3.62,0,5.28.43.87,1.1,1.6,1.94,2.09,2.1,1.08,4.58,1.08,6.68,0,.83-.5,1.5-1.23,1.94-2.09.84-1.66.84-3.62,0-5.28-.45-.87-1.15-1.59-2-2.08-2.08-1.11-4.58-1.11-6.66,0h.04Z"/>
        <path id="path78" class="cls-2" d="m475.52,750.19c-.6-.57-.63-1.52-.06-2.12.02-.02.04-.04.06-.06.3-.29.7-.44,1.12-.44.26,0,.52.07.75.21.23.14.43.33.58.55.15.23.23.5.23.77,0,.41-.17.81-.47,1.09-.29.28-.68.44-1.09.44-.42,0-.82-.15-1.12-.44h0Zm0,12.61c-.6-.56-.63-1.51-.06-2.11.02-.02.04-.04.06-.06.3-.29.7-.45,1.12-.45.27,0,.52.08.75.22.23.14.43.33.58.55.15.22.23.49.23.76,0,.41-.16.81-.47,1.09-.29.29-.68.45-1.09.45-.42,0-.82-.16-1.12-.45Z"/>
        <path id="path79" class="cls-2" d="m495.08,742.7c1.34,1.09,2.36,2.53,2.94,4.16,1.25,3.42,1.25,7.18,0,10.6-.58,1.63-1.6,3.07-2.94,4.16-3.04,2.17-7.12,2.17-10.16,0-1.34-1.09-2.36-2.53-2.94-4.16-1.25-3.42-1.25-7.18,0-10.6.58-1.63,1.6-3.07,2.94-4.16,3.04-2.17,7.12-2.17,10.16,0Zm-1.44,17c.99-.89,1.73-2.03,2.13-3.3.91-2.74.91-5.71,0-8.45-.4-1.27-1.14-2.42-2.13-3.31-1.01-.88-2.32-1.34-3.66-1.29-1.33-.05-2.64.41-3.64,1.29-.98.9-1.71,2.04-2.11,3.31-.91,2.74-.91,5.71,0,8.45.4,1.27,1.13,2.41,2.11,3.3,1,.88,2.31,1.34,3.64,1.29,1.34.04,2.65-.42,3.66-1.3h0Z"/>
        <path id="path80" class="cls-2" d="m515.44,742.7c1.34,1.09,2.36,2.53,2.94,4.16,1.24,3.42,1.24,7.18,0,10.6-.58,1.63-1.6,3.07-2.94,4.16-3.04,2.17-7.13,2.17-10.17,0-1.34-1.09-2.36-2.53-2.94-4.16-1.24-3.42-1.24-7.18,0-10.6.58-1.63,1.6-3.07,2.94-4.16,3.04-2.17,7.13-2.17,10.17,0Zm-1.44,17c.99-.89,1.73-2.03,2.13-3.3.89-2.75.89-5.7,0-8.45-.4-1.27-1.14-2.42-2.13-3.31-2.13-1.72-5.18-1.72-7.31,0-.98.9-1.71,2.04-2.11,3.31-.89,2.75-.89,5.7,0,8.45.4,1.27,1.13,2.41,2.11,3.3,2.13,1.72,5.18,1.72,7.31,0Z"/>
        <path id="path81" class="cls-1" d="m238.5,786.29v.21l7.44,7.24h-.9l-7.26-7h-.5v7h-.63v-14.69h.63v7.07h.5l7.26-7.07h.9l-7.44,7.24Z"/>
        <path id="path82" class="cls-1" d="m256.03,779.92c.94.74,1.66,1.73,2.08,2.86.43,1.16.65,2.4.65,3.64,0,1.23-.22,2.46-.66,3.61-.42,1.12-1.14,2.11-2.08,2.85-1.04.77-2.31,1.16-3.6,1.11-1.29.05-2.57-.34-3.61-1.11-.95-.74-1.67-1.72-2.08-2.85-.89-2.33-.89-4.92,0-7.25.42-1.13,1.14-2.12,2.08-2.86,2.18-1.49,5.04-1.49,7.22,0h0Zm-.38,12.48c.86-.69,1.51-1.6,1.88-2.64.8-2.17.8-4.54,0-6.71-.37-1.04-1.02-1.95-1.88-2.64-.92-.71-2.07-1.06-3.23-1-1.16-.05-2.31.3-3.24,1-.86.67-1.51,1.57-1.89,2.59-.4,1.08-.6,2.23-.6,3.38,0,1.14.2,2.27.6,3.34.38,1.04,1.03,1.95,1.89,2.64,1.94,1.36,4.53,1.36,6.47,0v.04Z"/>
        <path id="path83" class="cls-1" d="m271.51,790.8v-11.75h.63v14.69h-1l-9.19-14.12h-.16c.11.79.17,1.59.17,2.39v11.73h-.63v-14.69h1l9.18,14.12h.17c-.11-.79-.16-1.58-.17-2.37Z"/>
        <path id="path84" class="cls-1" d="m287.58,786.79v7h-.63v-1.93c.02-.8.09-1.6.21-2.39h-.21c-.39,1.56-1.37,2.91-2.74,3.76-.9.56-1.94.84-3,.81-1.32.05-2.62-.34-3.68-1.12-.97-.73-1.71-1.72-2.13-2.86-.45-1.15-.68-2.37-.68-3.61,0-1.25.23-2.48.7-3.64.44-1.14,1.21-2.13,2.2-2.85,1.12-.77,2.46-1.16,3.82-1.11.99-.02,1.97.18,2.87.58.78.36,1.46.89,2,1.56.54.67.97,1.43,1.25,2.25h-.63c-.4-1.09-1.09-2.05-2-2.77-1.02-.71-2.25-1.06-3.49-1-1.23-.06-2.45.29-3.46,1-.9.67-1.6,1.58-2,2.63-.83,2.16-.83,4.54,0,6.7.41,1.04,1.1,1.95,2,2.63.97.73,2.16,1.1,3.37,1.06,1.13.02,2.24-.33,3.15-1,.84-.64,1.5-1.5,1.91-2.48.41-.97.63-2.01.63-3.07,0-.06-.02-.13-.07-.17-.04-.04-.1-.06-.16-.06h-5.58v-.57h5.72c.2,0,.39.06.53.2.08.14.12.29.1.45h0Z"/>
        <path id="path85" class="cls-1" d="m299.39,786.41c.29.17.53.41.7.7.17.28.26.61.26.94v5.69h-.63v-5.74c0-.34-.13-.67-.38-.9-.23-.25-.56-.38-.9-.38h-7.38v7h-.63v-14.67h5.45c.85-.02,1.7.15,2.47.5.63.29,1.17.75,1.54,1.33.35.57.53,1.22.52,1.89.02.54-.1,1.07-.34,1.55-.18.38-.43.72-.74,1-.27.24-.56.45-.87.63h0v.21c.33,0,.65.08.93.25h0Zm-1.6-.61c.58-.22,1.09-.59,1.47-1.08.76-1.12.76-2.58,0-3.7-.39-.46-.9-.82-1.47-1.02-.6-.22-1.23-.33-1.86-.33h-4.82v6.52h4.82c.64-.01,1.27-.15,1.86-.39Z"/>
        <path id="path86" class="cls-1" d="m312.08,779.62h-8v6.5h7.34v.57h-7.34v6.48h8v.57h-8.66v-14.69h8.64l.02.57Z"/>
        <path id="path87" class="cls-1" d="m323.49,789.84c.02,1.52-.86,2.91-2.24,3.55-.94.44-1.97.65-3,.6-1.02.04-2.03-.18-2.94-.64-.72-.36-1.31-.93-1.7-1.64-.35-.64-.54-1.35-.54-2.08h.72c0,.63.16,1.26.47,1.81.35.61.88,1.11,1.51,1.43.81.39,1.7.58,2.6.55.88.03,1.76-.14,2.57-.51.61-.29,1.13-.75,1.49-1.33.31-.53.47-1.13.47-1.74.02-.6-.18-1.19-.56-1.66-.39-.44-.87-.78-1.42-1-.65-.27-1.32-.47-2-.62l-.73-.14-.34-.07c-.73-.12-1.45-.3-2.15-.53-.58-.2-1.1-.54-1.5-1-.44-.57-.67-1.28-.63-2,0-1.43.81-2.73,2.1-3.34.86-.42,1.81-.62,2.77-.58.97-.04,1.93.16,2.81.58,1.29.61,2.12,1.91,2.12,3.34v.18h-.63v-.26c0-.56-.15-1.11-.44-1.6-.34-.55-.83-.99-1.41-1.26-.77-.35-1.61-.52-2.45-.49-.83-.03-1.65.14-2.4.49-.58.27-1.07.71-1.4,1.26-.29.49-.44,1.04-.44,1.6-.04.61.16,1.21.54,1.69.33.4.77.7,1.26.87.6.2,1.21.35,1.83.46l.34.07h0c.91.16,1.8.39,2.68.68.7.24,1.34.64,1.86,1.17.54.59.82,1.37.78,2.16h0Z"/>
        <path id="path88" class="cls-1" d="m335.16,779.92c.94.74,1.66,1.73,2.08,2.86.43,1.16.65,2.4.65,3.64,0,1.23-.22,2.46-.66,3.61-.42,1.12-1.14,2.11-2.08,2.85-1.04.77-2.31,1.16-3.6,1.11-1.29.05-2.57-.34-3.61-1.11-.95-.74-1.67-1.72-2.08-2.85-.88-2.34-.88-4.91,0-7.25.42-1.13,1.14-2.12,2.08-2.86,2.18-1.49,5.04-1.49,7.22,0h0Zm-.37,12.48c.86-.69,1.51-1.6,1.88-2.64.8-2.17.8-4.54,0-6.71-.37-1.04-1.02-1.95-1.88-2.64-.92-.71-2.07-1.06-3.23-1-1.16-.05-2.31.3-3.24,1-.86.69-1.52,1.6-1.89,2.64-.4,1.08-.6,2.23-.6,3.38,0,1.14.2,2.27.6,3.34.38,1.04,1.03,1.95,1.89,2.64,1.94,1.36,4.53,1.36,6.47,0h0Z"/>
        <path id="path89" class="cls-1" d="m349.96,779.05h.68l-5.65,14.69h-1l-5.65-14.69h.67l5.12,13.28c.11.27.21.55.28.84h.12c.07-.29.17-.57.28-.84l5.15-13.28Z"/>
        <path id="path90" class="cls-1" d="m361.12,779.62h-8v6.5h7.34v.57h-7.37v6.48h8v.57h-8.66v-14.69h8.64l.05.57Zm-4.21-1.72h-.63l1.11-2.2h.63l-1.11,2.2Z"/>
        <path id="path91" class="cls-1" d="m380.91,789.61h.65v.06c-.28.8-.7,1.56-1.23,2.22-.54.66-1.22,1.18-2,1.53-.88.4-1.84.59-2.8.57-1.33.06-2.64-.34-3.71-1.12-.96-.74-1.7-1.74-2.14-2.87-.45-1.16-.68-2.4-.68-3.65,0-1.23.23-2.45.68-3.59.44-1.13,1.18-2.12,2.15-2.85,1.08-.77,2.38-1.16,3.7-1.11.97-.02,1.94.18,2.82.58.78.36,1.46.89,2,1.55.54.68.95,1.44,1.23,2.26h-.65c-.39-1.09-1.08-2.06-2-2.77-.99-.71-2.2-1.06-3.42-1-1.2-.06-2.38.3-3.35,1-.88.67-1.56,1.58-1.94,2.62-.41,1.06-.62,2.19-.61,3.33,0,1.15.2,2.3.61,3.38.38,1.05,1.05,1.97,1.94,2.65.97.71,2.15,1.06,3.35,1,1.2.05,2.38-.3,3.35-1,.9-.69,1.6-1.61,2-2.67l.05-.12Z"/>
        <path id="path92" class="cls-1" d="m392.52,779.62h-8v6.5h7.27v.57h-7.34v6.48h8v.57h-8.67v-14.69h8.65l.09.57Z"/>
        <path id="path93" class="cls-1" d="m404.95,790.8v-11.75h.63v14.69h-1l-9.19-14.12h-.17c.11.79.17,1.59.17,2.39v11.73h-.6v-14.69h1l9.19,14.12h.17c-.12-.78-.19-1.58-.2-2.37Z"/>
        <path id="path94" class="cls-1" d="m417.63,779.62h-4.84v14.12h-.63v-14.12h-4.77v-.57h10.24v.57Z"/>
        <path id="path95" class="cls-1" d="m428.41,786.41c.29.17.54.41.71.7.17.28.26.61.26.94v5.69h-.59v-5.74c-.01-.7-.58-1.27-1.28-1.28h-7.42v7h-.63v-14.67h5.45c.85-.02,1.7.15,2.47.5.63.29,1.17.75,1.54,1.33.35.57.53,1.22.52,1.89.02.54-.1,1.07-.34,1.55-.18.38-.43.72-.74,1-.27.24-.56.45-.87.63h0v.21c.32,0,.64.08.92.25h0Zm-1.62-.61c.58-.22,1.09-.59,1.47-1.08.76-1.12.76-2.58,0-3.7-.39-.46-.9-.82-1.47-1.02-.6-.22-1.23-.33-1.86-.33h-4.84v6.52h4.82c.65-.01,1.28-.14,1.88-.39Z"/>
        <path id="path96" class="cls-1" d="m442.12,787.91v-8.86h.67v8.86c0,.94-.17,1.87-.49,2.75-.33.93-.91,1.75-1.68,2.37-.87.68-1.96,1.04-3.07,1-1.11.04-2.19-.31-3.06-1-.77-.62-1.35-1.44-1.68-2.37-.33-.87-.5-1.8-.51-2.73v-8.86h.63v8.86c0,.9.16,1.79.49,2.63.3.82.83,1.55,1.52,2.08,1.58,1.07,3.64,1.07,5.22,0,.69-.54,1.22-1.26,1.52-2.08.31-.85.46-1.75.44-2.65Z"/>
        <path id="path97" class="cls-1" d="m458.63,779.05h1.09v14.69h-.63v-11.74c0-.8.07-1.6.19-2.39h-.21l-5.71,14.12h-1.09l-5.7-14.12h-.21c0,.35.1.74.13,1.16s.06.84.06,1.23v11.73h-.63v-14.68h1.09l5.7,14.12h.21l5.71-14.12Z"/>
        <path id="path98" class="cls-1" d="m468.6,793v.14h9.31v.57h-9.69v-.86l8.79-12.15c.25-.39.59-.72,1-.94v-.17h-9.36v-.57h9.69v.86l-8.74,12.12c-.26.4-.6.74-1,1Z"/>
        <path id="path99" class="cls-1" d="m481.14,793.17h7.34v.57h-8v-14.69h.63l.03,14.12Z"/>
        <path id="path100" class="cls-1" d="m491.03,779.05v14.69h-.63v-14.69h.63Zm.06-1.15h-.63l1.11-2.2h.63l-1.11,2.2Z"/>
        <path id="path101" class="cls-1" d="m504.52,790.8v-11.75h.63v14.69h-1l-9.19-14.12h-.17c.11.79.17,1.59.17,2.39v11.73h-.63v-14.69h1l9.18,14.12h.17c-.1-.79-.16-1.58-.16-2.37Z"/>
        <path id="path102" class="cls-2" d="m58.17,503.28c197.4-2.69,398.8-2.62,596.21-.31l19.24.31-19.24.3c-197.42,2.31-398.81,2.38-596.21-.3h0Z"/>
        <path id="path103" class="cls-2" d="m134.96,709.08c151.34-2.69,305.78-2.62,457.14-.3l14.74.3-14.74.3c-151.37,2.31-305.79,2.38-457.14-.3Z"/>
        <path id="path104" class="cls-2" d="m357.6,43.86c3.63,7.18,8,14.77,11.42,21.6-3.36-8-5.85-15.32-8.94-23-1-2.35-1.93-4.52-1.79-7.06s1.22-4.77,2.3-7l3.53-7.4c1.2-2.54,3.21-6.85,4.9-10.51,2.74,5.94,5.67,12.16,8.43,17.89l.89,1.84c1.46,2.64,1.82,5.75,1,8.66-3.52,9-6.51,17.33-10.3,26.56,3.42-6.81,7.75-14.44,11.39-21.59l1-1.91c2.22-4.11,2.36-9.03.36-13.25-3.4-7.92-7.18-16.5-10.74-24.31L369.05,0l-2,4.38c-3,6.63-7.07,15.74-10,22.43l-.8,1.87c-2.03,4.22-1.9,9.15.34,13.26l1.01,1.92Z"/>
        <path id="path105" class="cls-2" d="m410.79,45.35c-7-3.48-15-2.68-22,2.2-12.81,8.9-15,20.08-14.61,27.9v.7c-1.57-.07-3.14-.11-4.72-.12-.4-4.11-.45-7.47-.45-7.47,0,0-.05,3.36-.45,7.47-1.57,0-3.15,0-4.72.12v-.7c.41-7.82-1.79-19-14.61-27.9-7-4.88-15-5.68-22-2.2-5.91,2.95-9.88,8.67-10.1,14.56s3.19,11.29,9.54,15.09l4,2.38-.73-4.6c0-.06-.93-6.19,2.22-9.78,1.65-1.9,4.25-2.83,7.75-2.74,9.76.22,17.29,5.11,19.7,12.79.03,1.14-.01,2.28-.12,3.42-2.1.2-4.19.51-6.26.93,1.98.4,3.99.7,6,.9-.4,2.56-1.09,5.07-2.07,7.47-1.98-2.17-4.31-4.01-6.88-5.44-3.58-2-8.58-1.4-9.52,3.19-.44,2.5.47,5.04,2.39,6.69.92.77,2.02,1.31,3.2,1.57,1.15.25,2.34.28,3.5.1-4.81.48-9.2-3.2-8-8.11,1-3.54,4.91-3.55,7.53-1.77,6.57,4.33,12.35,14.29,16.3,22-1.45,1.6-2.45,3.56-2.89,5.68-1,4.41-2.84,5-2.84,5,1.98-.27,3.84-1.1,5.35-2.4h0c-.37,3.23,1.05,6.4,3.71,8.27,2.66-1.87,4.08-5.04,3.71-8.27h0c1.52,1.31,3.38,2.14,5.36,2.41,0,0-1.81-.6-2.83-5-.44-2.12-1.44-4.09-2.9-5.69,4.14-8.06,12-21.69,19.21-23.12,7.43-.78,6.29,11.8-3.4,11,5.11.92,10-2.91,9.09-8.36-.94-4.59-6-5.2-9.52-3.19-2.57,1.46-4.91,3.28-6.94,5.42-.95-2.4-1.62-4.9-2-7.45,2-.21,4-.5,6-.91-2.07-.42-4.16-.74-6.26-.94-.11-1.13-.15-2.27-.12-3.4,2.41-7.69,9.94-12.58,19.7-12.8,3.48-.08,6.1.84,7.75,2.74,3.15,3.59,2.23,9.72,2.22,9.77l-.76,4.63,4-2.4c6.35-3.79,9.73-9.15,9.51-15.08-.22-5.93-4.14-11.61-10.04-14.56Zm-70.79,10.54c-4.86-.11-8.61,1.32-11.15,4.25-1.98,2.45-3.14,5.46-3.32,8.6-2.55-2.15-4.02-5.33-4-8.67.17-4.32,3.18-8.57,7.69-10.82,2.17-1.09,4.57-1.66,7-1.66,3.8.07,7.49,1.31,10.57,3.55,3.89,2.57,7.15,5.99,9.53,10-4.75-3.43-10.46-5.27-16.32-5.25Zm37.64,33.4c-3.14,3.87-6.02,7.94-8.61,12.2-.59-1-1.2-1.9-1.82-2.85-2.1-3.23-4.38-6.34-6.82-9.31,1.58-3.4,2.66-7.01,3.19-10.72,1.56.07,3.12.11,4.69.13-.62,4.74-1.72,9.68-3.71,11.34,0,0,4.46,3,4.46,7.24,0-4.25,4.46-7.24,4.46-7.24-2-1.66-3.09-6.6-3.71-11.34,1.57,0,3.13,0,4.69-.13.53,3.7,1.6,7.3,3.18,10.68Zm34.87-20.55c-.18-3.14-1.34-6.15-3.32-8.6-2.45-2.83-6-4.26-10.65-4.26h-.5c-5.86-.01-11.58,1.84-16.32,5.28,2.38-4.01,5.64-7.43,9.53-10,5.68-4,12.09-4.63,17.58-1.89,4.51,2.25,7.53,6.5,7.69,10.82.02,3.34-1.45,6.51-4.01,8.65Z"/>
      </g>
    </g>
  </g>
</svg>