<svg width="1222" height="290" viewBox="0 0 1222 290" fill="none" xmlns="http://www.w3.org/2000/svg">
<path d="M151.657 116.871L142.495 133.083C118.53 175.608 84.4628 198.868 46.1664 198.868C20.5573 198.868 1.99647 181.012 1.99647 156.107C1.99647 121.335 43.1121 86.3283 84.2278 86.3283C105.138 86.3283 119 98.5455 119 117.106C119 126.974 115.946 135.432 109.367 142.95C106.548 146.24 103.024 149.059 101.614 149.059C100.909 149.059 100.204 148.354 100.204 147.649C100.204 146.71 100.674 146.24 102.789 144.83C110.072 140.366 116.181 127.914 116.181 117.576C116.181 99.9552 103.963 89.1477 83.9929 89.1477C45.6966 89.1477 6.22551 124.86 6.22551 159.632C6.22551 181.952 22.9067 196.283 48.5159 196.283C65.902 196.283 83.523 189 96.9149 176.548C104.433 169.499 116.181 153.993 123.229 142.481L140.38 113.817C162.935 77.8702 180.086 59.5444 208.515 41.4535C200.526 36.2847 192.068 33.9352 180.321 33.9352C174.682 33.9352 170.923 34.4051 163.17 36.2847V39.339C163.17 66.8277 142.73 95.2563 122.759 95.2563C115.476 95.2563 110.307 89.6176 110.307 81.6294C110.307 72.4665 115.946 61.8939 125.578 52.7309C134.506 44.2729 144.374 38.8691 160.116 34.1702C157.296 22.6578 149.778 15.8443 139.91 15.8443C125.578 15.8443 110.307 25.0072 100.674 39.339C97.3848 44.2729 95.7402 47.7971 95.2703 50.8514C94.8004 52.9659 94.3305 53.4358 93.1558 53.4358C92.4509 53.4358 91.981 52.9659 91.981 51.7912C91.981 47.5621 95.5052 40.9836 101.614 33.9352C112.891 21.0131 126.283 13.4949 138.5 13.4949C151.423 13.4949 160.116 20.7782 162.465 33.4653C167.869 32.2906 173.977 31.5857 181.026 31.5857C193.243 31.5857 202.406 34.1702 211.099 40.0438C220.732 34.6401 228.485 31.8207 233.419 31.8207C235.533 31.8207 236.238 32.5255 236.238 34.875C235.533 35.1099 235.064 35.3449 234.829 35.3449C234.594 35.3449 233.889 35.1099 232.949 34.875C232.479 34.6401 232.244 34.6401 232.009 34.6401C228.72 34.6401 220.262 37.9293 213.683 41.9234C221.202 48.9718 224.726 56.96 224.726 67.0627C224.726 80.4546 216.973 92.9068 202.406 103.01C193.948 109.118 186.665 111.937 170.688 115.227C182.67 123.215 189.954 137.782 191.598 156.577L193.478 176.783C195.123 193.934 206.165 206.856 219.087 206.856C229.66 206.856 242.817 201.452 247.751 195.109C248.456 194.169 248.69 193.934 249.16 193.934C249.865 193.934 250.57 194.404 250.57 195.109C250.57 196.518 248.69 198.633 243.992 201.922C237.413 206.386 227.78 209.44 220.027 209.44C207.105 209.44 194.653 201.922 187.839 190.41C184.315 184.301 181.966 176.078 181.026 165.505L178.206 138.956C176.797 127.209 171.158 117.341 165.754 116.167C160.585 116.636 158.471 116.636 151.657 116.871ZM160.351 36.7546C151.423 39.5739 147.428 41.2186 141.32 44.5078C123.934 54.6105 113.126 68.7073 113.126 81.8643C113.126 87.9729 117.12 92.4369 122.759 92.4369C140.85 92.4369 160.585 65.653 160.585 40.9836C160.585 40.0438 160.585 38.6341 160.351 36.7546ZM154.712 110.528C159.411 110.998 161.525 111.468 166.929 112.877C183.61 110.058 192.773 105.359 203.111 94.0816C212.744 83.509 219.322 69.1772 219.322 58.6046C219.322 53.2008 215.798 46.6223 211.099 43.3331C193.948 53.2008 174.447 75.2858 159.881 102.07C158.236 104.889 156.591 107.708 154.712 110.528ZM288.428 141.071L305.579 116.871C306.284 117.106 306.753 117.576 306.753 118.046C306.753 120.396 288.898 144.83 276.915 159.162L271.981 164.8C257.885 182.187 245.902 190.41 234.86 190.41C227.576 190.41 222.408 184.066 222.408 175.373C222.408 164.331 227.107 153.053 235.565 142.95C249.661 126.504 265.638 116.167 276.445 116.167C280.439 116.167 283.729 119.221 283.729 122.98C283.729 129.089 278.09 137.077 269.162 143.185C262.584 147.649 250.366 152.583 244.728 153.053C239.794 153.288 239.559 153.523 236.974 157.987C230.161 170.204 228.516 174.668 228.516 180.542C228.516 184.771 231.336 187.59 235.8 187.59C245.902 187.59 256.475 180.072 270.337 163.156L288.428 141.071ZM247.077 142.011L241.203 150.939C242.143 150.939 242.848 151.174 242.848 151.174C245.902 151.174 253.656 148.589 257.65 146.475C267.517 140.601 277.855 128.149 277.855 121.805C277.855 120.161 276.21 118.751 274.096 118.751C270.337 118.751 266.343 121.1 260.704 126.504C255.065 131.908 249.896 137.782 247.077 142.011ZM267.088 182.187L211.406 265.593C206.942 272.171 205.767 273.581 204.122 273.816C203.887 273.816 201.773 274.051 197.544 274.286C195.899 274.286 194.959 274.051 194.959 273.346C194.959 272.641 195.194 272.171 196.369 270.761L197.779 269.117L310.553 105.594C313.842 100.895 314.312 100.425 317.132 100.19L319.481 99.9552C319.951 99.7203 320.656 99.7203 320.656 99.7203C321.83 99.7203 322.3 99.9552 322.3 100.425C322.3 101.13 322.065 101.6 300.685 131.438C312.433 120.161 319.011 115.932 324.885 115.932C329.114 115.932 331.933 120.631 331.933 127.444C331.933 138.017 325.825 150.469 313.842 163.861C299.745 179.837 284.004 190.41 274.136 190.41C269.437 190.41 267.558 188.06 267.088 182.187ZM323.475 118.986C316.427 118.986 301.155 132.613 287.528 151.409C274.136 169.734 269.437 177.723 269.437 182.656C269.437 185.476 271.552 187.825 274.136 187.825C281.42 187.825 294.577 176.313 308.204 157.987C319.246 142.95 326.764 128.619 326.764 122.51C326.764 120.396 325.355 118.986 323.475 118.986ZM365.017 139.191L363.607 140.601L353.034 151.643L341.757 164.8L327.425 184.066C326.485 185.006 325.78 186.181 324.841 187.355C324.136 189 323.431 189.235 320.142 189.235L312.389 189.705C312.389 188.765 312.389 188.765 314.738 185.476L326.72 169.734L348.1 139.896L354.444 129.558C356.793 125.799 358.203 122.51 358.203 120.396C358.203 118.986 356.324 117.811 354.444 117.811C351.39 117.811 344.341 122.275 338.703 127.679L332.359 134.257C327.66 138.956 327.19 139.661 325.546 141.541C324.841 142.481 324.371 142.716 323.901 142.716C323.431 142.716 322.961 142.246 322.961 141.776C322.961 140.601 326.015 136.607 329.54 132.848L335.648 126.974C338.468 124.155 343.401 120.396 346.456 118.516L347.631 117.811L348.57 117.341C350.685 115.697 353.269 114.992 355.619 114.992C360.553 114.992 362.902 117.341 362.902 122.51C362.902 127.209 360.553 133.318 354.914 142.246L349.51 151.409L363.137 137.077L365.486 134.022L368.306 128.619C373.005 118.516 381.933 109.353 385.692 110.528C386.632 111.233 387.102 111.703 387.102 112.407C387.102 116.167 387.102 116.167 368.776 136.372C368.071 137.312 366.661 142.246 366.661 144.36C366.661 148.354 368.541 149.999 373.475 149.999C373.71 149.999 374.179 149.999 374.414 149.764L376.529 149.529C376.764 149.529 376.999 149.764 376.999 149.764C377.234 151.174 374.414 152.348 371.595 152.348C366.661 152.348 364.547 149.999 364.547 144.36C364.547 142.716 364.547 141.306 365.017 139.191ZM412.579 165.975L421.037 154.933C421.272 154.463 422.211 153.993 422.916 153.993C423.151 153.993 423.621 154.463 423.621 154.933C423.621 157.047 414.223 169.03 407.645 175.373C397.307 185.476 388.379 189.94 379.216 189.94C371.698 189.94 366.529 183.596 366.529 174.433C366.529 161.746 373.812 147.179 385.795 135.667L390.259 131.203C400.596 121.335 411.404 115.462 419.392 115.462C423.621 115.462 426.91 118.281 426.91 122.04C426.91 129.558 419.627 138.956 409.759 144.36C401.771 149.059 392.608 152.348 387.909 152.583C383.445 152.818 383.445 152.818 381.566 156.342L378.746 161.276C374.752 168.56 372.638 175.373 372.638 180.777C372.638 184.536 375.692 187.355 379.686 187.355C388.144 187.355 399.657 181.012 407.175 172.084L412.579 165.975ZM386.03 149.059L385.56 150.469C393.313 149.764 398.952 147.649 404.121 143.42C414.223 135.902 421.037 126.974 421.037 121.57C421.037 119.691 419.392 118.046 417.512 118.046C411.639 118.046 400.596 127.679 392.138 140.131L386.03 149.059ZM443.353 195.579L451.341 195.344C463.793 195.344 474.601 198.868 474.601 203.097C474.601 204.037 474.131 204.741 473.426 204.741C472.956 204.741 472.721 204.506 471.781 203.332C469.197 200.042 460.269 197.693 450.401 197.693C447.112 197.693 445.467 197.693 442.178 197.928C435.13 212.025 422.678 228.236 408.346 241.393C386.496 262.068 361.591 276.4 348.434 276.4C341.856 276.4 337.392 272.171 337.392 265.828C337.392 239.514 385.086 205.446 433.955 196.988C441.003 185.241 443.588 178.662 443.588 172.789C443.588 169.734 440.769 167.15 437.244 167.15C434.19 167.15 431.371 168.325 428.316 170.909L422.443 175.843C419.858 178.192 417.039 179.837 415.629 179.837C414.689 179.837 413.75 178.897 413.75 177.958C413.75 174.903 418.918 171.144 430.196 166.445C433.72 164.096 434.425 163.391 440.299 158.222C449.227 149.999 456.51 144.595 482.354 125.799C475.776 127.914 473.191 128.384 470.137 128.384C467.317 128.384 466.613 128.149 461.209 125.564C458.624 124.39 456.275 123.685 454.395 123.685C449.931 123.685 444.998 126.034 442.178 129.558L435.365 137.782C434.19 139.191 433.25 139.896 432.78 139.896C432.075 139.896 431.841 139.661 431.841 139.191C431.841 138.721 432.075 138.017 432.545 137.547L448.757 116.636C450.166 114.757 451.341 113.817 452.516 113.817C452.986 113.817 453.221 114.052 453.221 114.522C453.221 115.227 452.986 115.932 450.871 118.046L447.817 122.275C453.221 119.691 457.685 118.281 461.209 118.281C463.793 118.281 466.613 119.221 471.312 121.1C474.366 122.51 475.541 122.745 478.36 122.745C482.119 122.745 484.704 122.275 489.872 120.865C496.216 116.167 500.915 113.582 502.794 113.582C503.499 113.582 503.969 114.052 503.969 114.757C503.969 116.636 501.62 118.046 493.866 121.57L490.342 122.98C482.824 128.149 482.119 128.854 472.721 136.607C464.498 143.42 460.974 146.24 452.046 152.818C441.943 160.102 440.299 161.276 435.835 165.035C436.774 164.8 437.479 164.8 437.949 164.8C444.763 164.8 448.522 169.264 448.522 177.253C448.522 182.656 447.347 187.12 443.353 195.579ZM430.901 199.573H430.431C414.924 202.392 391.665 212.965 377.333 223.537C369.815 228.941 359.242 238.339 351.959 246.092C344.44 254.08 340.446 261.364 340.446 267.002C340.446 270.996 343.736 274.051 347.73 274.051C356.893 274.051 370.05 266.532 386.261 252.436C403.177 237.399 414.689 224.007 432.31 199.338C431.606 199.338 431.606 199.338 430.901 199.573ZM517.29 171.144L509.066 179.602C503.428 185.241 495.674 189.47 490.271 189.47C482.987 189.47 477.584 182.891 477.584 173.728C477.584 161.041 483.457 149.294 495.909 136.372C508.596 123.215 523.633 114.287 532.796 114.287C536.32 114.287 539.609 117.576 539.609 121.1C539.609 134.727 516.82 150.704 494.97 152.113C488.156 161.511 482.987 173.728 482.987 180.542C482.987 184.066 486.277 186.885 490.506 186.885C497.084 186.885 505.072 181.482 514 171.144L528.567 154.228L549.242 127.209C555.821 118.751 561.225 114.757 566.628 114.757C569.918 114.757 572.267 117.811 572.267 122.04C572.267 129.558 565.923 138.956 560.99 138.956C560.285 138.956 559.58 138.252 559.58 137.547C559.58 137.077 559.58 137.077 560.755 135.197C564.514 129.558 567.333 122.745 567.333 120.161C567.333 118.516 566.158 117.341 564.749 117.341C561.694 117.341 556.291 121.57 551.592 127.914L529.742 156.577L517.29 171.144ZM502.018 141.776L496.614 149.529C510.946 149.529 533.971 130.968 533.971 119.691C533.971 118.046 532.561 116.636 530.916 116.636C528.097 116.636 523.868 118.751 520.814 121.335L512.356 129.089L502.018 141.776ZM523.277 189.235L523.042 188.06L543.247 159.632L559.929 135.667L567.212 124.155C569.561 122.275 570.971 121.335 571.676 121.1C572.146 122.275 572.146 122.745 572.146 123.45C572.146 127.209 570.736 131.673 567.917 136.372L561.103 148.119L570.501 137.547C583.423 123.215 592.821 115.932 598.46 115.932C601.984 115.932 604.099 118.986 604.099 124.155C604.099 130.028 600.105 138.252 593.056 147.179L574.26 170.909C569.561 176.548 566.977 181.482 566.977 184.771C566.977 186.416 568.387 187.59 570.501 187.59C573.321 187.59 575.67 186.651 578.959 184.066C583.658 180.542 590.472 174.198 593.761 170.439L608.563 153.523L629.238 126.974L633.467 121.1C634.407 120.161 635.347 118.986 636.286 117.811H637.461L637.696 118.281C637.931 118.281 637.931 118.281 637.931 118.516C637.931 118.751 637.931 118.751 631.822 127.679L615.846 148.354L600.34 166.915L592.821 174.903C583.658 184.771 575.2 189.94 569.092 189.94C564.628 189.94 561.103 186.416 561.103 181.482C561.103 174.903 565.567 166.445 574.495 155.873L588.122 139.896C595.406 131.203 599.635 124.155 599.635 120.865C599.635 119.691 598.695 118.751 597.05 118.751C593.996 118.751 589.532 122.04 580.604 130.733L573.556 138.017L562.278 150.469L538.549 181.952C532.91 189.705 532.91 189.705 527.741 189.705C526.801 189.705 525.157 189.47 523.277 189.235ZM636.718 113.582L628.729 113.817H627.79C625.675 113.817 624.5 113.347 624.5 112.642C624.5 111.703 625.44 110.998 626.615 110.998H638.597L659.273 82.8041C660.212 81.6294 663.737 80.9245 668.435 80.9245C669.14 80.9245 669.375 81.1595 669.375 81.3944C669.375 81.8643 669.14 82.0993 668.435 83.0391C662.327 90.0875 652.929 103.01 647.76 110.763L659.507 110.528H660.917C663.032 110.528 664.206 110.763 664.206 111.703C664.206 112.407 662.797 113.112 660.447 113.112L645.881 113.347C643.296 117.106 640.712 120.865 637.892 124.625C608.524 166.21 601.711 177.018 601.711 183.361C601.711 185.476 603.12 187.12 604.765 187.12C609.934 187.12 622.386 176.078 638.597 156.812L648.23 145.535C648.465 145.3 648.7 145.065 648.935 145.065C649.405 145.065 649.875 146.005 649.875 146.475C649.875 147.884 635.543 164.8 625.91 174.903C616.277 184.771 608.994 189.705 604.06 189.705C600.536 189.705 598.186 185.711 598.186 179.132C598.186 175.138 599.361 171.144 601.946 165.035C605.705 155.873 608.994 150.939 625.91 128.384C629.434 123.685 633.193 118.751 636.718 113.582ZM664.058 169.499L656.774 177.723C650.431 184.536 643.617 189.235 639.388 189.235C634.924 189.235 631.4 183.831 631.4 177.488C631.4 167.855 635.864 156.812 643.617 147.884L649.256 141.541L658.419 132.848L670.636 123.92C676.275 119.691 686.848 115.697 691.781 115.697C696.245 115.697 697.655 117.576 697.655 123.215C698.36 123.215 698.36 123.215 700.944 119.691C703.059 116.871 703.999 116.636 708.463 116.636H709.168L711.282 116.871C711.282 117.576 711.282 117.576 709.872 119.456L694.366 140.366L676.51 165.27L672.281 172.319C668.992 177.488 667.347 181.717 667.347 184.066C667.347 185.476 668.757 186.416 670.401 186.416C673.456 186.416 673.456 186.416 680.739 181.717L687.787 175.373L695.071 168.09L703.999 156.812C704.469 156.342 705.173 155.873 705.643 155.873C706.113 155.873 706.818 156.342 706.818 156.812C706.818 157.517 706.348 158.457 704.938 159.867L696.245 170.439L689.197 177.488C681.914 185.006 675.1 189 669.696 189C665.937 189 663.353 185.946 663.353 181.482C663.353 177.488 664.998 171.614 667.347 167.385L668.522 165.27L669.462 163.156L664.058 169.499ZM657.009 145.065L649.021 155.403C641.738 164.566 635.864 176.548 635.864 182.187C635.864 184.536 637.979 186.651 640.093 186.651C643.617 186.651 648.786 182.891 655.6 175.608L664.998 165.27L681.209 144.36C691.781 131.203 695.541 124.86 695.541 121.335C695.541 119.456 693.661 117.811 691.547 117.811C686.613 117.811 678.859 122.51 671.811 129.793L663.353 138.252L657.009 145.065ZM777.438 139.661L782.137 131.438C784.486 127.444 786.131 123.215 786.131 121.1C786.131 119.926 784.956 118.986 783.781 118.986C780.962 118.986 776.028 122.745 772.034 127.914L762.166 140.601L760.757 142.716C750.889 156.812 736.087 174.903 729.509 181.247C723.635 186.651 716.822 190.175 711.653 190.175C703.9 190.175 698.496 183.361 698.496 173.728C698.496 159.867 708.129 144.36 725.985 129.324C736.557 120.396 745.955 115.462 752.534 115.462C755.823 115.462 758.642 118.516 758.642 122.275C758.642 129.558 753.238 138.486 749.009 138.486C747.365 138.486 745.72 136.607 745.72 134.727C745.72 132.143 748.07 128.619 752.299 125.095C754.413 123.215 755.353 121.805 755.353 120.631C755.353 118.986 753.473 117.576 751.359 117.576C745.72 117.576 734.208 127.209 725.28 139.661L718.231 149.529L713.532 157.282C708.599 165.505 704.839 175.843 704.839 180.542C704.839 184.066 708.129 187.59 711.418 187.59C716.822 187.59 722.93 184.301 729.039 177.958L734.913 172.084L741.021 164.8L766.865 130.733C774.149 121.335 780.022 116.401 784.721 116.401C788.48 116.401 791.77 119.691 791.77 123.215C791.77 125.564 788.01 134.962 786.131 137.782C785.191 139.191 784.251 139.426 781.197 139.426L777.438 139.661ZM761.931 77.4003C763.811 77.4003 765.691 85.6235 765.691 93.3767C765.691 93.8466 765.691 93.8466 766.16 93.8466C767.335 93.8466 768.51 93.1418 785.426 82.3342C790.83 78.81 793.884 77.1654 794.589 77.1654C795.059 77.1654 795.529 77.6353 795.529 77.8702C795.529 78.5751 794.589 79.5149 792.944 80.9245C789.185 83.509 780.257 90.5574 766.395 101.835C763.576 104.184 762.166 104.889 760.287 104.889C758.642 104.889 756.998 103.479 756.998 102.305C756.998 101.6 757.232 100.66 757.467 99.4853C758.172 97.6058 758.407 95.7262 759.582 87.503C760.287 82.5692 760.522 80.9245 760.522 79.7498C760.522 78.1052 760.992 77.4003 761.931 77.4003ZM780.918 151.643L756.484 183.361C752.02 189.47 752.02 189.47 746.146 189.47H745.206C744.031 189.47 743.562 189.47 742.152 188.765C742.387 187.825 742.387 187.59 742.857 187.12L743.092 186.416C744.266 185.241 745.206 183.831 746.146 182.656L775.984 140.836L779.508 135.902C781.623 132.613 783.502 129.324 785.617 125.799C787.262 122.98 788.906 121.335 790.316 121.335C791.021 121.335 791.256 121.805 791.256 122.51V123.685V124.39C791.256 127.679 790.081 131.673 787.731 135.902L780.213 149.059C780.448 149.059 780.448 149.059 780.683 148.589L781.153 148.119L781.858 147.179L783.502 145.065L792.195 135.432L798.304 129.324C807.467 120.161 813.106 116.401 818.04 116.401C821.564 116.401 823.678 119.221 823.678 123.685C823.678 130.263 820.624 137.077 814.046 145.535L793.37 171.614C788.906 177.488 786.557 181.952 786.557 184.771C786.557 186.651 788.201 188.06 790.316 188.06C797.364 188.06 804.883 182.656 815.69 169.969L824.383 159.397L825.558 159.162C826.028 159.162 826.498 159.632 826.498 160.337C826.498 161.276 826.498 161.276 819.214 169.969L814.046 175.608C803.473 187.12 798.069 190.41 790.316 190.41C784.442 190.41 780.683 187.12 780.683 182.187C780.683 175.373 784.912 167.15 793.605 156.577L808.642 138.956C816.16 129.793 819.449 124.625 819.449 121.57C819.449 120.161 818.275 119.221 817.1 119.221C814.28 119.221 810.991 120.865 807.702 123.92L799.009 131.908L788.671 142.716L780.918 151.643ZM861.45 151.643L864.974 146.945C865.914 145.77 866.383 145.3 867.088 145.3C867.558 145.3 868.028 145.77 868.028 146.475C868.028 146.945 867.793 147.414 867.088 148.354L863.329 153.288C843.124 179.602 831.611 189.705 822.214 189.705C818.689 189.705 815.635 186.416 815.635 182.421C815.635 172.319 821.744 160.806 839.835 136.607C850.407 122.51 854.636 116.871 855.341 116.401C856.046 116.167 859.1 115.932 861.92 115.932C863.329 115.932 863.799 116.167 863.799 116.636V116.871L839.835 150.234C828.087 166.68 820.099 180.307 820.099 184.301C820.099 185.711 821.509 187.12 823.153 187.12C830.202 187.12 844.768 173.728 861.45 151.643ZM891.523 78.1052L903.975 79.045C904.445 79.2799 904.68 79.5149 904.68 79.7498C904.68 80.6896 900.216 84.4487 894.107 88.6778C885.179 95.2563 880.01 98.0756 872.022 101.365C867.558 103.244 862.624 104.889 862.154 104.889C861.45 104.889 860.98 104.419 860.98 103.714C860.98 103.244 861.215 103.01 861.92 102.54C869.203 99.4853 882.83 87.9729 888.703 79.7498C889.878 78.3401 890.348 78.1052 891.523 78.1052ZM1043.92 115.462L1034.99 132.613C1013.61 173.494 978.837 197.223 940.305 197.223C913.287 197.223 895.666 181.247 895.666 156.577C895.666 121.57 936.546 85.8584 976.487 85.8584C998.572 85.8584 1012.67 97.1359 1012.67 114.757C1012.67 124.86 1008.44 134.257 1001.16 141.306C997.867 144.36 994.343 146.71 992.934 146.71C992.229 146.71 991.759 146.24 991.759 145.535C991.759 144.83 992.229 144.36 993.403 143.89C1003.04 138.956 1010.08 126.739 1010.08 114.992C1010.08 98.7805 997.163 88.6778 976.487 88.6778C956.752 88.6778 935.841 98.3106 920.57 114.757C908.353 127.914 899.895 146.24 899.895 160.102C899.895 181.012 916.341 194.874 941.48 194.874C969.674 194.874 997.632 174.198 1019.01 137.312L1038.98 103.714C1055.66 75.7557 1080.33 51.0863 1103.36 39.339C1096.54 34.4051 1088.79 32.2906 1077.98 32.2906C1070.94 32.2906 1066 32.9954 1057.78 34.875C1058.01 36.9895 1058.01 37.9293 1058.01 39.5739C1058.01 65.8879 1036.87 94.0816 1017.13 94.0816C1010.08 94.0816 1005.15 88.4428 1005.15 80.6896C1005.15 61.189 1025.36 41.9234 1054.96 32.7605C1052.14 20.5433 1044.15 13.7298 1031.93 13.7298C1013.14 13.7298 987.295 36.9895 986.59 54.8455C986.59 55.7852 986.355 56.2551 985.65 56.2551C984.71 56.2551 984.006 55.3154 984.006 54.1406C984.006 45.4476 993.168 31.5857 1004.68 22.4228C1014.08 15.1395 1023.95 11.1454 1032.17 11.1454C1045.33 11.1454 1054.25 18.6637 1057.31 32.2906C1063.89 30.646 1071.88 29.4712 1077.75 29.4712C1088.32 29.4712 1097.72 32.2906 1105.94 38.1643C1113.46 34.6401 1120.04 32.7605 1126.15 32.7605C1128.03 32.7605 1129.44 33.7003 1129.44 34.875C1129.44 35.5798 1128.73 36.0497 1127.79 36.0497H1127.32C1124.5 35.3449 1124.5 35.3449 1123.33 35.3449H1122.39C1119.33 35.3449 1113.23 37.2245 1107.82 39.5739C1114.64 45.9175 1118.4 54.1406 1118.4 63.7734C1118.4 77.1654 1112.99 89.6176 1102.42 99.4853C1090.2 110.998 1070.7 118.986 1055.19 118.986C1050.97 118.986 1047.21 117.811 1043.92 115.462ZM1055.43 35.3449C1026.06 44.7428 1007.74 62.3638 1007.74 81.1595C1007.74 87.0332 1011.73 91.4971 1017.13 91.4971C1035.69 91.4971 1055.66 64.2433 1055.66 39.339C1055.66 38.1643 1055.66 37.2245 1055.43 35.3449ZM1105.24 40.9836C1082.68 53.4358 1065.06 74.346 1045.33 112.642C1047.44 115.227 1050.97 116.401 1056.6 116.401C1082.45 116.401 1111.82 85.1536 1111.82 57.6648C1111.82 50.8514 1109.94 45.6825 1105.24 40.9836ZM1097.31 119.456L1151.58 44.2729C1156.75 37.2245 1157.22 36.9895 1163.8 36.9895C1164.27 36.9895 1164.5 37.2245 1164.5 37.4594C1164.5 37.6944 1163.56 39.104 1160.98 42.3933L1159.57 44.5078L1104.12 123.685C1081.1 156.342 1068.41 177.723 1068.41 183.596C1068.41 185.476 1069.58 186.651 1071.23 186.651C1077.81 186.651 1087.67 177.958 1103.18 158.692L1113.75 145.77C1114.46 144.83 1114.69 144.595 1115.16 144.595C1115.4 144.595 1115.87 145.065 1115.87 145.77C1115.87 146.475 1115.63 147.414 1114.93 148.119L1106.7 158.692C1090.02 179.837 1078.75 189.47 1070.76 189.47C1066.53 189.47 1063.24 185.711 1063.24 181.012C1063.24 170.909 1072.64 153.758 1097.31 119.456ZM1166.95 141.071L1184.1 116.871C1184.81 117.106 1185.28 117.576 1185.28 118.046C1185.28 120.396 1167.42 144.83 1155.44 159.162L1150.51 164.8C1136.41 182.187 1124.43 190.41 1113.39 190.41C1106.1 190.41 1100.93 184.066 1100.93 175.373C1100.93 164.331 1105.63 153.053 1114.09 142.95C1128.19 126.504 1144.16 116.167 1154.97 116.167C1158.97 116.167 1162.25 119.221 1162.25 122.98C1162.25 129.089 1156.62 137.077 1147.69 143.185C1141.11 147.649 1128.89 152.583 1123.25 153.053C1118.32 153.288 1118.08 153.523 1115.5 157.987C1108.69 170.204 1107.04 174.668 1107.04 180.542C1107.04 184.771 1109.86 187.59 1114.33 187.59C1124.43 187.59 1135 180.072 1148.86 163.156L1166.95 141.071ZM1125.6 142.011L1119.73 150.939C1120.67 150.939 1121.37 151.174 1121.37 151.174C1124.43 151.174 1132.18 148.589 1136.18 146.475C1146.04 140.601 1156.38 128.149 1156.38 121.805C1156.38 120.161 1154.74 118.751 1152.62 118.751C1148.86 118.751 1144.87 121.1 1139.23 126.504C1133.59 131.908 1128.42 137.782 1125.6 142.011ZM1181.09 134.022L1182.27 125.095C1183.44 117.811 1184.85 113.112 1187.67 107.943C1189.55 104.419 1194.25 99.9552 1195.89 99.9552C1196.83 99.9552 1197.77 100.895 1197.77 102.07C1197.77 103.479 1196.13 106.769 1193.78 109.823L1188.61 116.401C1185.32 120.631 1184.62 122.745 1184.62 127.679C1184.62 128.384 1184.62 129.558 1184.85 130.028L1186.73 145.3L1186.96 149.999C1186.96 170.909 1169.11 190.175 1149.61 190.175C1141.85 190.175 1135.98 183.831 1135.98 175.138C1135.98 165.035 1144.67 153.758 1152.43 153.758C1155.48 153.758 1157.83 156.342 1157.83 159.632C1157.83 163.156 1155.01 166.445 1152.19 166.445C1150.08 166.445 1148.2 164.331 1148.2 162.216C1148.2 160.806 1148.67 159.397 1149.37 157.517C1143.97 159.632 1138.8 168.795 1138.8 176.078C1138.8 182.656 1142.79 187.12 1148.43 187.12C1155.01 187.12 1162.3 181.952 1169.58 172.319C1175.45 164.331 1179.45 153.523 1180.39 142.716L1181.09 134.022Z" fill="#F1F0EF"/>
<path d="M569.48 236.027L564.957 234.148H575.001L570.185 236.027L562.197 262.224C560.826 266.727 558.888 270.212 556.382 272.679C553.876 275.107 550.586 276.32 546.514 276.32C542.755 276.32 540.033 275.165 538.35 272.855C536.666 270.545 536.431 267.314 537.645 263.163L545.574 236.027L541.698 234.148H555.148L550.273 236.027L541.815 264.691C540.758 268.058 540.66 270.74 541.521 272.738C542.383 274.735 544.184 275.733 546.925 275.733C553.856 275.733 558.692 271.23 561.433 262.224L569.48 236.027ZM572.017 275.263H567.905L574.484 253.061C574.797 252.003 574.542 251.259 573.72 250.829L571.723 249.771L580.651 246.306L574.19 267.98C575.286 265.043 576.442 262.341 577.655 259.874C578.869 257.407 580.201 255.097 581.65 252.943C583.138 250.79 584.723 249.106 586.407 247.892C588.13 246.639 589.853 246.012 591.576 246.012C593.064 246.012 593.984 246.639 594.337 247.892C594.728 249.106 594.552 250.711 593.808 252.708L586.995 271.445C586.29 273.325 586.368 274.265 587.23 274.265C588.13 274.265 589.168 273.54 590.343 272.091C591.517 270.643 592.477 269.174 593.221 267.686C591.772 270.897 590.421 273.09 589.168 274.265C587.915 275.439 586.623 276.027 585.291 276.027C582.628 276.027 581.963 274.147 583.294 270.388L589.638 252.826C590.46 250.594 590.088 249.478 588.522 249.478C586.838 249.478 584.9 250.848 582.707 253.589C580.514 256.33 578.478 259.659 576.598 263.575C574.719 267.451 573.191 271.347 572.017 275.263ZM599.764 276.027C597.14 276.027 596.416 274.147 597.591 270.388L602.936 253.061C603.288 252.043 603.033 251.299 602.172 250.829L600.116 249.771L609.044 246.306L601.467 271.445C600.88 273.325 600.958 274.265 601.702 274.265C602.603 274.265 603.64 273.54 604.815 272.091C605.99 270.643 606.949 269.174 607.693 267.686C606.244 270.897 604.893 273.09 603.64 274.265C602.387 275.439 601.095 276.027 599.764 276.027ZM605.579 239.316C605.579 238.181 606.049 237.163 606.988 236.262C607.928 235.361 609.025 234.911 610.278 234.911C611.061 234.911 611.687 235.126 612.157 235.557C612.666 235.988 612.921 236.556 612.921 237.261C612.921 238.396 612.451 239.414 611.511 240.315C610.611 241.215 609.534 241.666 608.281 241.666C607.497 241.666 606.851 241.45 606.342 241.02C605.833 240.589 605.579 240.021 605.579 239.316ZM615.746 275.557H615.217L616.157 248.949L612.691 247.07H620.68L619.505 272.972C623.46 270.623 626.357 268.215 628.198 265.748C630.077 263.242 631.017 260.54 631.017 257.642C631.017 256.076 630.508 254.353 629.49 252.473C628.511 250.594 628.022 249.262 628.022 248.479C628.022 247.657 628.257 247.05 628.726 246.658C629.236 246.228 629.823 246.012 630.489 246.012C631.937 246.012 632.975 246.639 633.602 247.892C634.267 249.106 634.6 250.594 634.6 252.356C634.6 256.82 632.975 261.088 629.725 265.16C626.475 269.194 621.815 272.659 615.746 275.557ZM635.814 267.451C635.814 263.81 636.558 260.344 638.046 257.055C639.534 253.726 641.531 251.064 644.037 249.067C646.543 247.03 649.206 246.012 652.025 246.012C655.354 246.012 657.018 247.383 657.018 250.124C657.018 253.022 655.589 255.841 652.73 258.582C649.872 261.323 645.877 262.928 640.748 263.398C640.552 264.769 640.454 265.983 640.454 267.04C640.454 271.387 641.825 273.56 644.566 273.56C646.954 273.56 649.088 272.424 650.968 270.153C652.848 267.882 654.296 265.239 655.314 262.224C654.257 266.022 652.593 269.331 650.322 272.15C648.051 274.93 645.368 276.32 642.275 276.32C640.395 276.32 638.849 275.635 637.635 274.265C636.421 272.855 635.814 270.584 635.814 267.451ZM640.865 262.811C644.703 261.95 647.679 259.972 649.793 256.879C651.947 253.785 653.024 250.907 653.024 248.244C653.024 247.148 652.515 246.6 651.497 246.6C649.382 246.6 647.268 248.283 645.153 251.651C643.039 255.019 641.609 258.739 640.865 262.811ZM678.576 246.012C679.711 246.012 680.573 246.326 681.16 246.952C681.747 247.579 682.041 248.283 682.041 249.067C682.041 249.967 681.767 250.77 681.219 251.475C680.71 252.141 680.024 252.473 679.163 252.473C678.341 252.473 677.597 252.238 676.931 251.769C675.952 251.025 675.228 250.653 674.758 250.653C673.544 250.653 671.997 252.375 670.117 255.821C668.238 259.267 666.672 262.635 665.419 265.924C664.165 269.213 663.069 272.326 662.129 275.263H658.018L664.596 253.061C664.909 252.003 664.655 251.259 663.833 250.829L661.836 249.771L670.764 246.306L664.89 265.924C665.83 263.496 666.691 261.382 667.474 259.58C668.297 257.779 669.315 255.723 670.529 253.413C671.782 251.064 673.093 249.243 674.464 247.951C675.835 246.658 677.205 246.012 678.576 246.012ZM691.955 247.657L684.026 255.821L686.669 247.07H707.579L682.616 274.676H693.717L701.588 265.337L698.592 275.263H676.449L701.412 247.657H691.955ZM709.379 276.027C706.755 276.027 706.031 274.147 707.206 270.388L712.551 253.061C712.903 252.043 712.648 251.299 711.787 250.829L709.731 249.771L718.659 246.306L711.082 271.445C710.495 273.325 710.573 274.265 711.317 274.265C712.218 274.265 713.255 273.54 714.43 272.091C715.605 270.643 716.564 269.174 717.308 267.686C715.859 270.897 714.508 273.09 713.255 274.265C712.002 275.439 710.71 276.027 709.379 276.027ZM715.194 239.316C715.194 238.181 715.664 237.163 716.603 236.262C717.543 235.361 718.64 234.911 719.893 234.911C720.676 234.911 721.302 235.126 721.772 235.557C722.281 235.988 722.536 236.556 722.536 237.261C722.536 238.396 722.066 239.414 721.126 240.315C720.226 241.215 719.149 241.666 717.896 241.666C717.112 241.666 716.466 241.45 715.957 241.02C715.448 240.589 715.194 240.021 715.194 239.316ZM736.579 266.511C735.483 268.978 733.975 271.132 732.057 272.972C730.177 274.813 728.2 275.733 726.124 275.733C722.404 275.733 721.23 273.344 722.6 268.567L728.709 247.657H723.07C725.537 247.657 727.984 246.933 730.412 245.484C732.84 243.996 734.367 242.508 734.993 241.02L733.231 247.07H740.162L739.986 247.657H733.055L726.535 269.448C725.713 272.228 726.3 273.619 728.298 273.619C729.551 273.619 730.921 272.972 732.409 271.68C733.897 270.388 735.287 268.665 736.579 266.511ZM734.863 289.184C733.375 289.184 732.239 288.753 731.456 287.892C730.673 287.03 730.281 285.953 730.281 284.661C730.281 283.565 730.595 282.644 731.221 281.9C731.848 281.196 732.592 280.843 733.453 280.843C734.275 280.843 734.863 281.235 735.215 282.018C735.568 282.84 735.744 283.741 735.744 284.72C735.705 285.699 735.783 286.58 735.979 287.363C736.214 288.185 736.605 288.596 737.153 288.596C738.955 288.596 740.521 287.402 741.852 285.013C743.223 282.625 743.986 279.473 744.143 275.557L745.083 250.535L741.617 247.07H749.606L748.49 272.914V273.09L748.901 272.855C756.576 268.391 760.413 263.32 760.413 257.642C760.413 256.076 759.904 254.353 758.886 252.473C757.907 250.594 757.418 249.262 757.418 248.479C757.418 247.657 757.653 247.05 758.122 246.658C758.631 246.228 759.219 246.012 759.885 246.012C761.333 246.012 762.371 246.639 762.998 247.892C763.663 249.106 763.996 250.594 763.996 252.356C763.996 256.389 762.665 260.266 760.002 263.986C757.339 267.706 753.482 270.995 748.431 273.854C748.039 278.552 746.571 282.272 744.026 285.013C741.52 287.794 738.465 289.184 734.863 289.184ZM816.589 234.148L813.358 244.485L811.537 234.735H803.667L792.331 273.384L796.266 275.263H782.698L787.573 273.384L798.968 234.735H792.331L783.814 244.485L786.986 234.148H816.589ZM807.492 266.864C807.492 261.695 809.137 256.937 812.426 252.591C815.755 248.205 819.671 246.012 824.174 246.012C829.068 246.012 831.516 248.949 831.516 254.823C831.516 258.151 830.811 261.46 829.401 264.749C828.031 267.999 826.053 270.74 823.469 272.972C820.884 275.204 818.085 276.32 815.069 276.32C810.018 276.32 807.492 273.168 807.492 266.864ZM812.133 267.862C812.133 273.11 813.268 275.733 815.539 275.733C817.223 275.733 818.966 274.46 820.767 271.915C822.568 269.37 824.037 266.316 825.172 262.752C826.308 259.189 826.876 255.939 826.876 253.002C826.876 248.734 825.877 246.6 823.88 246.6C822.196 246.6 820.434 247.598 818.594 249.595C816.792 251.592 815.265 254.275 814.012 257.642C812.759 260.971 812.133 264.377 812.133 267.862ZM837.135 275.263H833.023L839.602 253.061C839.915 252.003 839.66 251.259 838.838 250.829L836.841 249.771L845.769 246.306L839.132 268.332C840.228 265.395 841.383 262.674 842.597 260.168C843.85 257.662 845.221 255.312 846.709 253.119C848.197 250.927 849.802 249.204 851.525 247.951C853.248 246.658 854.971 246.012 856.694 246.012C858.143 246.012 859.043 246.639 859.396 247.892C859.787 249.106 859.631 250.711 858.926 252.708L854.345 266.746C856.694 260.794 859.318 255.861 862.215 251.945C865.152 247.99 868.167 246.012 871.261 246.012C872.749 246.012 873.669 246.639 874.021 247.892C874.413 249.106 874.237 250.711 873.493 252.708L866.679 271.445C865.974 273.325 866.053 274.265 866.914 274.265C867.815 274.265 868.853 273.54 870.027 272.091C871.202 270.643 872.161 269.174 872.905 267.686C871.456 270.897 870.106 273.09 868.853 274.265C867.599 275.439 866.307 276.027 864.976 276.027C863.723 276.027 862.92 275.557 862.568 274.617C862.215 273.638 862.352 272.228 862.979 270.388L869.322 252.826C870.145 250.594 869.773 249.478 868.206 249.478C866.601 249.478 864.761 250.711 862.685 253.178C860.649 255.645 858.73 258.66 856.929 262.224C855.167 265.787 853.64 269.487 852.348 273.325L851.701 275.263H847.59L854.756 252.826C855.108 251.455 855.186 250.555 854.991 250.124C854.795 249.693 854.345 249.478 853.64 249.478C851.956 249.478 850.018 250.848 847.825 253.589C845.632 256.33 843.596 259.659 841.716 263.575C839.837 267.451 838.309 271.347 837.135 275.263ZM894.958 271.445C894.41 273.325 894.488 274.265 895.193 274.265C896.72 274.265 898.619 272.072 900.89 267.686C898.619 273.247 896.074 276.027 893.254 276.027C891.962 276.027 891.101 275.518 890.67 274.5C890.278 273.482 890.337 272.111 890.846 270.388L893.607 261.049C891.257 266.453 889.123 270.349 887.205 272.738C885.286 275.126 883.073 276.32 880.567 276.32C879.197 276.32 878.081 275.772 877.219 274.676C876.358 273.579 875.927 271.974 875.927 269.859C875.927 266.218 876.71 262.556 878.277 258.876C879.882 255.195 882.016 252.141 884.679 249.713C887.342 247.246 890.102 246.012 892.961 246.012C894.214 246.012 895.251 246.267 896.074 246.776C896.896 247.246 897.444 247.814 897.718 248.479L902.006 246.423L894.958 271.445ZM880.861 269.448C880.861 272.15 881.625 273.501 883.152 273.501C884.561 273.501 886.265 272.15 888.262 269.448C890.298 266.707 892.158 263.477 893.842 259.757L897.248 248.714C896.7 247.422 895.565 246.776 893.842 246.776C891.806 246.776 889.75 248.029 887.674 250.535C885.638 253.002 883.994 255.998 882.741 259.522C881.487 263.046 880.861 266.355 880.861 269.448ZM889.848 241.959V241.901C891.531 241.078 892.98 240.178 894.194 239.199C895.408 238.22 897.17 236.634 899.48 234.441C900.068 233.893 900.675 233.619 901.301 233.619C901.928 233.619 902.437 233.834 902.828 234.265C903.22 234.696 903.416 235.205 903.416 235.792C903.416 236.732 902.887 237.496 901.83 238.083C900.185 238.984 898.188 239.806 895.839 240.55C893.529 241.255 891.531 241.725 889.848 241.959ZM908.525 276.32C905.98 276.32 904.061 275.733 902.769 274.558C901.477 273.384 900.909 271.856 901.065 269.977C901.183 268.646 901.555 267.627 902.181 266.923C902.847 266.179 903.591 265.807 904.413 265.807C905.04 265.807 905.51 266.022 905.823 266.453C906.136 266.844 906.195 267.432 905.999 268.215C905.373 270.76 905.216 272.659 905.529 273.912C905.843 275.126 906.704 275.733 908.114 275.733C909.915 275.733 911.305 275.107 912.284 273.854C913.302 272.6 913.811 271.015 913.811 269.096C913.811 267.764 913.341 266.335 912.402 264.808C911.462 263.242 910.522 261.597 909.582 259.874C908.642 258.151 908.173 256.428 908.173 254.705C908.173 252.395 909.073 250.378 910.874 248.655C912.676 246.893 914.79 246.012 917.218 246.012C919.372 246.012 920.938 246.58 921.917 247.716C922.935 248.851 923.385 250.163 923.268 251.651C923.072 253.922 922.171 255.058 920.566 255.058C919.861 255.058 919.333 254.803 918.98 254.294C918.628 253.746 918.549 253.061 918.745 252.238C919.254 250.515 919.411 249.145 919.215 248.127C919.019 247.109 918.334 246.6 917.159 246.6C915.867 246.6 914.712 247.167 913.694 248.303C912.676 249.399 912.167 250.927 912.167 252.885C912.167 254.177 912.48 255.489 913.106 256.82C913.733 258.112 914.418 259.228 915.162 260.168C915.945 261.108 916.65 262.224 917.277 263.516C917.903 264.769 918.217 266.002 918.217 267.216C918.217 269.801 917.335 271.974 915.573 273.736C913.811 275.459 911.462 276.32 908.525 276.32ZM910.757 236.556C910.757 236.047 910.933 235.616 911.286 235.264C911.638 234.872 912.069 234.676 912.578 234.676C913.87 234.676 915.064 235.636 916.161 237.554C917.257 239.473 917.923 241.313 918.158 243.075C918.941 241.431 920.253 239.63 922.093 237.672C923.973 235.675 925.559 234.676 926.851 234.676C927.36 234.676 927.81 234.852 928.202 235.205C928.633 235.518 928.848 235.968 928.848 236.556C928.848 237.535 928.3 238.181 927.203 238.494C923.679 239.512 920.605 241.255 917.982 243.722C917.277 242.312 916.494 241.215 915.632 240.432C914.81 239.649 913.635 238.905 912.108 238.2C911.207 237.809 910.757 237.261 910.757 236.556ZM925.31 267.451C925.31 263.81 926.054 260.344 927.542 257.055C929.03 253.726 931.027 251.064 933.533 249.067C936.039 247.03 938.702 246.012 941.521 246.012C944.85 246.012 946.514 247.383 946.514 250.124C946.514 253.022 945.085 255.841 942.226 258.582C939.368 261.323 935.373 262.928 930.244 263.398C930.048 264.769 929.95 265.983 929.95 267.04C929.95 271.387 931.321 273.56 934.062 273.56C936.45 273.56 938.584 272.424 940.464 270.153C942.344 267.882 943.792 265.239 944.81 262.224C943.753 266.022 942.089 269.331 939.818 272.15C937.547 274.93 934.864 276.32 931.771 276.32C929.891 276.32 928.345 275.635 927.131 274.265C925.917 272.855 925.31 270.584 925.31 267.451ZM930.361 262.811C934.199 261.95 937.175 259.972 939.289 256.879C941.443 253.785 942.52 250.907 942.52 248.244C942.52 247.148 942.011 246.6 940.993 246.6C938.878 246.6 936.764 248.283 934.649 251.651C932.535 255.019 931.105 258.739 930.361 262.811ZM979.854 252.826C982.164 253.1 984.161 254.059 985.845 255.704C987.529 257.309 988.371 259.228 988.371 261.46C988.371 265.18 986.843 268.411 983.789 271.152C980.774 273.893 977.113 275.263 972.805 275.263H956.535L961.587 273.384L972.57 236.027L968.87 234.148H982.849C985.825 234.148 988.077 234.833 989.604 236.203C991.17 237.535 991.954 239.179 991.954 241.137C991.954 244.231 990.7 246.854 988.194 249.008C985.688 251.162 982.908 252.434 979.854 252.826ZM965.874 274.676H969.986C971.905 274.676 973.628 274.382 975.155 273.795C976.721 273.207 978.013 272.424 979.031 271.445C980.05 270.466 980.891 269.331 981.557 268.039C982.262 266.746 982.751 265.454 983.026 264.162C983.339 262.831 983.495 261.48 983.495 260.109C983.495 256.389 982.164 254.02 979.501 253.002C978.17 253.746 976.741 254.118 975.214 254.118C974.43 254.118 974.039 253.824 974.039 253.237C974.039 252.61 974.607 252.297 975.742 252.297C976.917 252.297 978.17 252.454 979.501 252.767C981.851 251.827 983.672 250.261 984.964 248.068C986.295 245.875 986.961 243.722 986.961 241.607C986.961 239.767 986.491 238.161 985.551 236.791C984.611 235.42 983.123 234.735 981.087 234.735H977.681L965.874 274.676ZM1010.37 271.445C1009.82 273.325 1009.9 274.265 1010.6 274.265C1012.13 274.265 1014.03 272.072 1016.3 267.686C1014.03 273.247 1011.48 276.027 1008.66 276.027C1007.37 276.027 1006.51 275.518 1006.08 274.5C1005.69 273.482 1005.75 272.111 1006.25 270.388L1009.02 261.049C1006.67 266.453 1004.53 270.349 1002.61 272.738C1000.69 275.126 998.482 276.32 995.976 276.32C994.605 276.32 993.489 275.772 992.628 274.676C991.766 273.579 991.335 271.974 991.335 269.859C991.335 266.218 992.119 262.556 993.685 258.876C995.29 255.195 997.424 252.141 1000.09 249.713C1002.75 247.246 1005.51 246.012 1008.37 246.012C1009.62 246.012 1010.66 246.267 1011.48 246.776C1012.3 247.246 1012.85 247.814 1013.13 248.479L1017.41 246.423L1010.37 271.445ZM996.269 269.448C996.269 272.15 997.033 273.501 998.56 273.501C999.97 273.501 1001.67 272.15 1003.67 269.448C1005.71 266.707 1007.57 263.477 1009.25 259.757L1012.66 248.714C1012.11 247.422 1010.97 246.776 1009.25 246.776C1007.21 246.776 1005.16 248.029 1003.08 250.535C1001.05 253.002 999.402 255.998 998.149 259.522C996.896 263.046 996.269 266.355 996.269 269.448ZM1034.56 266.511C1033.47 268.978 1031.96 271.132 1030.04 272.972C1028.16 274.813 1026.18 275.733 1024.11 275.733C1020.39 275.733 1019.21 273.344 1020.59 268.567L1026.69 247.657H1021.06C1023.52 247.657 1025.97 246.933 1028.4 245.484C1030.83 243.996 1032.35 242.508 1032.98 241.02L1031.22 247.07H1038.15L1037.97 247.657H1031.04L1024.52 269.448C1023.7 272.228 1024.29 273.619 1026.28 273.619C1027.54 273.619 1028.91 272.972 1030.39 271.68C1031.88 270.388 1033.27 268.665 1034.56 266.511ZM1040.81 276.027C1038.18 276.027 1037.46 274.147 1038.63 270.388L1043.98 253.061C1044.33 252.043 1044.07 251.299 1043.21 250.829L1041.16 249.771L1050.09 246.306L1042.51 271.445C1041.92 273.325 1042 274.265 1042.74 274.265C1043.64 274.265 1044.68 273.54 1045.86 272.091C1047.03 270.643 1047.99 269.174 1048.73 267.686C1047.29 270.897 1045.93 273.09 1044.68 274.265C1043.43 275.439 1042.14 276.027 1040.81 276.027ZM1046.62 239.316C1046.62 238.181 1047.09 237.163 1048.03 236.262C1048.97 235.361 1050.07 234.911 1051.32 234.911C1052.1 234.911 1052.73 235.126 1053.2 235.557C1053.71 235.988 1053.96 236.556 1053.96 237.261C1053.96 238.396 1053.49 239.414 1052.55 240.315C1051.65 241.215 1050.57 241.666 1049.32 241.666C1048.54 241.666 1047.89 241.45 1047.38 241.02C1046.87 240.589 1046.62 240.021 1046.62 239.316ZM1083.49 270.858L1088.95 265.219L1086.07 275.263H1062.28L1081.73 255.586C1087.48 249.752 1090.36 244.426 1090.36 239.61C1090.36 237.887 1090.01 236.477 1089.3 235.381C1088.6 234.245 1087.48 233.678 1085.96 233.678C1083.88 233.678 1082.08 234.5 1080.55 236.145L1072.62 246.306L1075.62 236.203C1076.83 235.42 1078.42 234.715 1080.38 234.089C1082.37 233.423 1084.27 233.09 1086.07 233.09C1088.74 233.09 1090.83 233.795 1092.36 235.205C1093.88 236.575 1094.65 238.592 1094.65 241.255C1094.65 246.698 1091.12 252.238 1084.08 257.877L1067.75 270.858H1083.49ZM1119.9 233.09C1125.23 233.09 1127.89 236.967 1127.89 244.72C1127.89 249.732 1126.89 254.686 1124.89 259.58C1122.9 264.475 1120.25 268.489 1116.96 271.622C1113.67 274.754 1110.31 276.32 1106.86 276.32C1104.08 276.32 1102.04 275.283 1100.75 273.207C1099.46 271.093 1098.81 268.254 1098.81 264.691C1098.81 259.678 1099.81 254.725 1101.81 249.83C1103.81 244.935 1106.45 240.922 1109.74 237.789C1113.03 234.657 1116.42 233.09 1119.9 233.09ZM1103.1 266.629C1103.1 268.156 1103.2 269.546 1103.4 270.799C1103.59 272.052 1104 273.188 1104.63 274.206C1105.29 275.224 1106.14 275.733 1107.15 275.733C1108.84 275.733 1110.64 274.774 1112.56 272.855C1114.52 270.936 1116.32 268.489 1117.96 265.513C1119.61 262.498 1120.98 258.954 1122.07 254.882C1123.17 250.77 1123.72 246.737 1123.72 242.782C1123.72 241.685 1123.66 240.648 1123.54 239.669C1123.42 238.69 1123.21 237.73 1122.9 236.791C1122.62 235.851 1122.19 235.107 1121.6 234.559C1121.06 233.971 1120.39 233.678 1119.61 233.678C1117.37 233.678 1114.97 235.244 1112.38 238.377C1109.84 241.509 1107.64 245.699 1105.8 250.946C1104 256.154 1103.1 261.382 1103.1 266.629ZM1148.31 270.858L1153.77 265.219L1150.89 275.263H1127.1L1146.54 255.586C1152.3 249.752 1155.18 244.426 1155.18 239.61C1155.18 237.887 1154.82 236.477 1154.12 235.381C1153.42 234.245 1152.3 233.678 1150.77 233.678C1148.7 233.678 1146.9 234.5 1145.37 236.145L1137.44 246.306L1140.43 236.203C1141.65 235.42 1143.23 234.715 1145.19 234.089C1147.19 233.423 1149.09 233.09 1150.89 233.09C1153.55 233.09 1155.65 233.795 1157.17 235.205C1158.7 236.575 1159.46 238.592 1159.46 241.255C1159.46 246.698 1155.94 252.238 1148.89 257.877L1132.56 270.858H1148.31ZM1179.72 249.008C1181.8 249.008 1183.44 249.791 1184.66 251.357C1185.91 252.924 1186.54 255.019 1186.54 257.642C1186.54 262.772 1185.11 267.177 1182.25 270.858C1179.43 274.5 1175.73 276.32 1171.15 276.32C1165.86 276.32 1163.22 272.679 1163.22 265.395C1163.22 259.757 1164.22 254.451 1166.22 249.478C1168.25 244.505 1170.99 240.53 1174.44 237.554C1177.88 234.578 1181.58 233.09 1185.54 233.09C1187.89 233.09 1190 233.678 1191.88 234.852L1189 244.368L1187.07 234.911C1186.32 234.089 1185.36 233.678 1184.19 233.678C1181.84 233.678 1179.35 235.42 1176.73 238.905C1174.14 242.39 1171.99 246.776 1170.27 252.062C1168.58 257.349 1167.74 262.4 1167.74 267.216C1167.74 272.894 1169.17 275.733 1172.03 275.733C1174.58 275.733 1176.85 273.971 1178.84 270.447C1180.84 266.923 1181.84 262.987 1181.84 258.641C1181.84 256.722 1181.41 255.058 1180.55 253.648C1179.69 252.199 1178.45 251.475 1176.85 251.475C1174.5 251.475 1172.15 252.826 1169.8 255.528C1172.62 251.181 1175.93 249.008 1179.72 249.008Z" fill="#F1F0EF"/>
<path d="M306.041 39.2585L301.519 37.379H311.562L306.746 39.2585L298.758 65.4551C297.387 69.9582 295.449 73.4433 292.943 75.9102C290.437 78.338 287.148 79.5519 283.075 79.5519C279.316 79.5519 276.595 78.3967 274.911 76.0864C273.227 73.7761 272.992 70.5456 274.206 66.3949L282.135 39.2585L278.259 37.379H291.709L286.834 39.2585L278.376 67.922C277.319 71.2896 277.221 73.9719 278.083 75.969C278.944 77.966 280.745 78.9645 283.486 78.9645C290.417 78.9645 295.253 74.4614 297.994 65.4551L306.041 39.2585ZM345.966 37.379L342.735 47.7166L340.914 37.9663H333.044L321.707 76.6151L325.643 78.4946H312.075L316.95 76.6151L328.345 37.9663H321.707L313.191 47.7166L316.362 37.379H345.966ZM362.16 56.0572C364.47 56.3313 366.467 57.2907 368.151 58.9353C369.834 60.5408 370.676 62.4595 370.676 64.6915C370.676 68.4115 369.149 71.642 366.095 74.3831C363.08 77.1241 359.418 78.4946 355.111 78.4946H338.841L343.892 76.6151L354.876 39.2585L351.176 37.379H365.155C368.131 37.379 370.383 38.0642 371.91 39.4347C373.476 40.7661 374.259 42.4107 374.259 44.3686C374.259 47.4621 373.006 50.0857 370.5 52.2393C367.994 54.393 365.214 55.6656 362.16 56.0572ZM348.18 77.9073H352.292C354.21 77.9073 355.933 77.6136 357.461 77.0262C359.027 76.4388 360.319 75.6557 361.337 74.6767C362.355 73.6978 363.197 72.5622 363.863 71.27C364.568 69.9778 365.057 68.6856 365.331 67.3934C365.645 66.062 365.801 64.7111 365.801 63.3406C365.801 59.6206 364.47 57.2515 361.807 56.2334C360.476 56.9774 359.046 57.3494 357.519 57.3494C356.736 57.3494 356.345 57.0557 356.345 56.4684C356.345 55.8419 356.912 55.5286 358.048 55.5286C359.223 55.5286 360.476 55.6852 361.807 55.9985C364.157 55.0587 365.977 53.4924 367.27 51.2996C368.601 49.1067 369.267 46.953 369.267 44.8385C369.267 42.9981 368.797 41.3926 367.857 40.0221C366.917 38.6516 365.429 37.9663 363.393 37.9663H359.986L348.18 77.9073ZM390.064 79.5519C387.518 79.5519 385.6 78.9645 384.307 77.7898C383.015 76.6151 382.447 75.0879 382.604 73.2083C382.721 71.877 383.093 70.8589 383.72 70.154C384.386 69.41 385.13 69.038 385.952 69.038C386.579 69.038 387.048 69.2534 387.362 69.6841C387.675 70.0757 387.734 70.6631 387.538 71.4462C386.911 73.9915 386.755 75.8906 387.068 77.1437C387.381 78.3576 388.243 78.9645 389.652 78.9645C391.454 78.9645 392.844 78.338 393.823 77.0849C394.841 75.8319 395.35 74.246 395.35 72.3273C395.35 70.9959 394.88 69.5667 393.94 68.0395C393 66.4732 392.061 64.8286 391.121 63.1056C390.181 61.3827 389.711 59.6597 389.711 57.9368C389.711 55.6265 390.612 53.6099 392.413 51.8869C394.214 50.1248 396.329 49.2438 398.757 49.2438C400.91 49.2438 402.477 49.8116 403.456 50.9471C404.474 52.0827 404.924 53.3945 404.806 54.8825C404.611 57.1536 403.71 58.2892 402.105 58.2892C401.4 58.2892 400.871 58.0347 400.519 57.5256C400.166 56.9774 400.088 56.2922 400.284 55.4699C400.793 53.7469 400.949 52.3764 400.754 51.3583C400.558 50.3402 399.873 49.8311 398.698 49.8311C397.406 49.8311 396.25 50.3989 395.232 51.5345C394.214 52.6309 393.705 54.1581 393.705 56.116C393.705 57.4082 394.019 58.72 394.645 60.0513C395.272 61.3435 395.957 62.4595 396.701 63.3993C397.484 64.3391 398.189 65.4551 398.815 66.7473C399.442 68.0003 399.755 69.2338 399.755 70.4477C399.755 73.0321 398.874 75.2054 397.112 76.9675C395.35 78.6904 393 79.5519 390.064 79.5519ZM408.638 79.2582C406.093 79.2582 405.388 77.3786 406.524 73.6195L415.863 43.0764C416.137 42.0583 415.882 41.3143 415.099 40.8444L413.22 39.7284L422.03 36.3217L410.341 74.6767C409.754 76.5563 409.832 77.4961 410.576 77.4961C411.477 77.4961 412.515 76.7717 413.689 75.3228C414.864 73.874 415.824 72.4056 416.568 70.9176C415.119 74.1285 413.768 76.3214 412.515 77.4961C411.262 78.6708 409.969 79.2582 408.638 79.2582ZM438.273 74.6767C437.725 76.5563 437.803 77.4961 438.508 77.4961C440.035 77.4961 441.934 75.3033 444.205 70.9176C441.934 76.478 439.389 79.2582 436.57 79.2582C435.277 79.2582 434.416 78.7492 433.985 77.7311C433.594 76.713 433.652 75.3424 434.161 73.6195L436.922 64.2804C434.573 69.6841 432.439 73.5803 430.52 75.969C428.601 78.3576 426.389 79.5519 423.883 79.5519C422.512 79.5519 421.396 79.0037 420.535 77.9073C419.673 76.8108 419.242 75.2054 419.242 73.0909C419.242 69.4492 420.026 65.7879 421.592 62.1071C423.197 58.4263 425.331 55.372 427.994 52.9442C430.657 50.4772 433.417 49.2438 436.276 49.2438C437.529 49.2438 438.567 49.4983 439.389 50.0073C440.211 50.4772 440.76 51.045 441.034 51.7107L445.321 49.6549L438.273 74.6767ZM424.176 72.6797C424.176 75.3816 424.94 76.7325 426.467 76.7325C427.877 76.7325 429.58 75.3816 431.577 72.6797C433.613 69.9387 435.473 66.7081 437.157 62.9882L440.564 51.9457C440.016 50.6535 438.88 50.0073 437.157 50.0073C435.121 50.0073 433.065 51.2604 430.99 53.7665C428.954 56.2334 427.309 59.229 426.056 62.7532C424.803 66.2774 424.176 69.5862 424.176 72.6797ZM451.253 78.7883H450.724L451.664 52.1806L448.199 50.301H456.187L455.012 76.2039C458.967 73.8544 461.865 71.4462 463.705 68.9793C465.585 66.4732 466.524 63.7713 466.524 60.8736C466.524 59.3073 466.015 57.5844 464.997 55.7048C464.018 53.8252 463.529 52.4939 463.529 51.7107C463.529 50.8884 463.764 50.2815 464.234 49.8899C464.743 49.4591 465.33 49.2438 465.996 49.2438C467.445 49.2438 468.482 49.8703 469.109 51.1233C469.775 52.3372 470.107 53.8252 470.107 55.5873C470.107 60.0513 468.482 64.3195 465.232 68.3919C461.982 72.4252 457.322 75.8906 451.253 78.7883ZM475.022 79.2582C472.398 79.2582 471.674 77.3786 472.848 73.6195L478.193 56.2922C478.546 55.2741 478.291 54.5301 477.43 54.0602L475.374 53.0029L484.302 49.5375L476.725 74.6767C476.138 76.5563 476.216 77.4961 476.96 77.4961C477.861 77.4961 478.898 76.7717 480.073 75.3228C481.248 73.874 482.207 72.4056 482.951 70.9176C481.502 74.1285 480.151 76.3214 478.898 77.4961C477.645 78.6708 476.353 79.2582 475.022 79.2582ZM476.784 45.1909V45.1322C478.467 44.3099 479.916 43.4093 481.13 42.4303C482.344 41.4514 484.106 39.8655 486.416 37.6726C487.004 37.1244 487.611 36.8503 488.237 36.8503C488.864 36.8503 489.373 37.0657 489.764 37.4964C490.156 37.9272 490.352 38.4362 490.352 39.0236C490.352 39.9634 489.823 40.727 488.766 41.3143C487.121 42.215 485.124 43.0373 482.775 43.7813C480.464 44.4861 478.467 44.956 476.784 45.1909ZM517.705 74.0894L523.167 68.4507L520.289 78.4946H496.501L515.943 58.8178C521.699 52.9833 524.577 47.6579 524.577 42.8415C524.577 41.1185 524.225 39.7089 523.52 38.6124C522.815 37.4769 521.699 36.9091 520.172 36.9091C518.096 36.9091 516.295 37.7314 514.768 39.376L506.838 49.5375L509.834 39.4347C511.048 38.6516 512.634 37.9468 514.592 37.3202C516.589 36.6545 518.488 36.3217 520.289 36.3217C522.952 36.3217 525.047 37.0265 526.574 38.4362C528.101 39.8067 528.865 41.8234 528.865 44.4861C528.865 49.929 525.341 55.4699 518.292 61.1086L501.963 74.0894H517.705ZM547.362 52.5918C550.182 52.5918 552.335 53.512 553.823 55.3524C555.35 57.1536 556.114 59.3073 556.114 61.8134C556.114 66.434 554.352 70.5456 550.828 74.1481C547.303 77.7506 543.114 79.5519 538.258 79.5519C534.851 79.5519 531.817 78.7687 529.154 77.2024L532.032 67.8046L534.029 77.3786C535.008 78.4359 536.418 78.9645 538.258 78.9645C541.547 78.9645 544.504 77.1633 547.127 73.5607C549.751 69.9582 551.063 66.2382 551.063 62.4008C551.063 60.3254 550.495 58.6808 549.359 57.4669C548.263 56.253 546.697 55.6461 544.66 55.6461C541.097 55.6461 537.808 57.5844 534.793 61.461L545.483 37.379H561.459L559.697 42.7827H543.721L536.496 59.0528C537.866 56.8991 539.57 55.2936 541.606 54.2364C543.642 53.14 545.561 52.5918 547.362 52.5918ZM573.663 79.2582C571.118 79.2582 570.413 77.3786 571.548 73.6195L580.888 43.0764C581.162 42.0583 580.907 41.3143 580.124 40.8444L578.244 39.7284L587.055 36.3217L575.366 74.6767C574.779 76.5563 574.857 77.4961 575.601 77.4961C576.502 77.4961 577.54 76.7717 578.714 75.3228C579.889 73.874 580.848 72.4056 581.592 70.9176C580.144 74.1285 578.793 76.3214 577.54 77.4961C576.286 78.6708 574.994 79.2582 573.663 79.2582ZM584.091 70.6827C584.091 67.041 584.835 63.5755 586.323 60.2863C587.811 56.9579 589.808 54.2951 592.314 52.2981C594.82 50.2619 597.483 49.2438 600.302 49.2438C603.631 49.2438 605.295 50.6143 605.295 53.3553C605.295 56.253 603.866 59.0724 601.007 61.8134C598.149 64.5545 594.155 66.1599 589.025 66.6298C588.829 68.0003 588.731 69.2142 588.731 70.2715C588.731 74.618 590.102 76.7913 592.843 76.7913C595.231 76.7913 597.365 75.6557 599.245 73.3845C601.125 71.1134 602.573 68.4702 603.592 65.4551C602.534 69.2534 600.87 72.5622 598.599 75.3816C596.328 78.1618 593.645 79.5519 590.552 79.5519C588.672 79.5519 587.126 78.8666 585.912 77.4961C584.698 76.0864 584.091 73.8153 584.091 70.6827ZM589.142 66.0425C592.98 65.181 595.956 63.2035 598.07 60.1101C600.224 57.0166 601.301 54.1385 601.301 51.4758C601.301 50.3793 600.792 49.8311 599.774 49.8311C597.659 49.8311 595.545 51.5149 593.43 54.8825C591.316 58.2501 589.886 61.97 589.142 66.0425ZM622.506 69.7429C621.41 72.2098 619.902 74.3635 617.983 76.2039C616.104 78.0443 614.126 78.9645 612.051 78.9645C608.331 78.9645 607.156 76.5759 608.527 71.7986L614.635 50.8884H608.997C611.464 50.8884 613.911 50.164 616.339 48.7151C618.767 47.2271 620.294 45.7392 620.92 44.2512L619.158 50.301H626.089L625.913 50.8884H618.982L612.462 72.6797C611.64 75.4599 612.227 76.85 614.224 76.85C615.477 76.85 616.848 76.2039 618.336 74.9117C619.824 73.6195 621.214 71.8965 622.506 69.7429Z" fill="#F1F0EF"/>
<path d="M17.8867 236.027L14.3037 234.148H30.3976L23.4079 236.027L28.753 253.413L43.4371 236.027L35.7426 234.148H49.3108L44.4357 236.027L28.9879 254.177L34.9203 273.384L38.1508 275.263H22.057L29.1054 273.384L23.2905 254.001L7.31408 273.384L15.4785 275.263H0.735578L6.25682 273.384L23.0555 253.178L17.8867 236.027ZM55.5722 236.027L51.9893 234.148H68.0831L61.0935 236.027L66.4385 253.413L81.1227 236.027L73.4282 234.148H86.9963L82.1212 236.027L66.6734 254.177L72.6058 273.384L75.8364 275.263H59.7425L66.7909 273.384L60.976 254.001L44.9996 273.384L53.164 275.263H38.4211L43.9424 273.384L60.741 253.178L55.5722 236.027ZM87.6466 273.384L91.347 275.263H77.8963L82.9476 273.384L93.9314 236.027L90.231 234.148H103.682L98.6303 236.027L87.6466 273.384ZM144.29 234.148L138.769 236.027L114.804 277.143L111.339 236.027L107.227 234.148H123.438L116.507 236.027L118.916 268.626L137.77 236.027L130.428 234.148H144.29ZM134.118 276.32C133.217 276.32 132.532 276.066 132.062 275.557C131.592 275.087 131.357 274.46 131.357 273.677C131.357 272.346 131.827 271.191 132.767 270.212C133.707 269.194 134.862 268.685 136.232 268.685C137.133 268.685 137.799 268.959 138.229 269.507C138.699 270.016 138.934 270.662 138.934 271.445C138.934 272.698 138.464 273.834 137.525 274.852C136.585 275.831 135.449 276.32 134.118 276.32Z" fill="#F1F0EF"/>
</svg>
