<?xml version="1.0" encoding="UTF-8" standalone="no"?>
<svg
   viewBox="0 0 1114779.9 811331.3"
   version="1.1"
   id="svg107"
   sodipodi:docname="HeroHeading.svg"
   inkscape:version="1.4 (86a8ad7, 2024-10-11)"
   width="1114779.9"
   height="811331.31"
   xmlns:inkscape="http://www.inkscape.org/namespaces/inkscape"
   xmlns:sodipodi="http://sodipodi.sourceforge.net/DTD/sodipodi-0.dtd"
   xmlns="http://www.w3.org/2000/svg"
   xmlns:svg="http://www.w3.org/2000/svg">
  <sodipodi:namedview
     id="namedview107"
     pagecolor="#ffffff"
     bordercolor="#000000"
     borderopacity="0.25"
     inkscape:showpageshadow="2"
     inkscape:pageopacity="0.0"
     inkscape:pagecheckerboard="0"
     inkscape:deskcolor="#d1d1d1"
     inkscape:zoom="0.81525195"
     inkscape:cx="755.59464"
     inkscape:cy="510.88501"
     inkscape:window-width="1920"
     inkscape:window-height="1051"
     inkscape:window-x="-9"
     inkscape:window-y="-9"
     inkscape:window-maximized="1"
     inkscape:current-layer="svg107">
    <inkscape:page
       x="0"
       y="0"
       width="1114779.9"
       height="811331.31"
       id="page2"
       margin="0"
       bleed="0" />
  </sodipodi:namedview>
  <defs
     id="defs1">
    <style
       id="style1">.cls-1{fill:#f3e7e7;}</style>
    <clipPath
       clipPathUnits="userSpaceOnUse"
       id="clipPath1">
      <rect
         style="fill:none;stroke-width:1.92842"
         id="rect2"
         width="738.03998"
         height="794.04498"
         x="386.20999"
         y="0" />
    </clipPath>
  </defs>
  <g
     id="Vrstva_2"
     data-name="Vrstva 2"
     clip-path="url(#clipPath1)"
     transform="translate(-583354.73)">
    <g
       id="Vrstva_1-2"
       data-name="Vrstva 1">
      <path
         class="cls-1"
         d="m 448.4,266.64 c -21.69,0 -13.74,-40.92 -36.46,-40.92 h -14.55 v 32.07 c 0,8.3 5.6,8.85 5.6,8.85 h -16.78 c 0,0 5.61,-0.55 5.61,-8.85 v -68.24 c 0,-8.3 -5.61,-8.85 -5.61,-8.85 h 26 c 15.48,0.11 26.53,8.93 26.53,22.51 0,12.11 -8.78,20.43 -21.65,22.17 21.21,5.08 22.39,41.26 31.31,41.26 z m -51,-41.84 h 14.55 c 12.55,0 21.23,-7 21.23,-21.59 0,-14.59 -8.68,-21.58 -21.23,-21.58 h -14.56 z"
         id="path1" />
      <path
         class="cls-1"
         d="m 505.84,243.14 -4.47,23.5 h -51 c 0,0 5.61,-0.55 5.61,-8.85 v -68.24 c 0,-8.3 -5.61,-8.85 -5.61,-8.85 h 51 l 4.47,23.5 c 0,0 -5.39,-22.57 -14.63,-22.57 h -29.67 v 41.58 h 20.82 c 8.3,0 8.85,-13.64 8.85,-13.64 v 28.2 c 0,0 -0.55,-13.64 -8.85,-13.64 h -20.82 v 41.58 h 29.67 c 9.24,0 14.63,-22.57 14.63,-22.57 z"
         id="path2" />
      <path
         class="cls-1"
         d="m 565.73,206 c 0,15.13 -11.18,25.29 -26.8,25.29 h -19 v 26.5 c 0,8.3 5.61,8.85 5.61,8.85 h -16.77 c 0,0 5.6,-0.55 5.6,-8.85 v -68.24 c 0,-8.3 -5.6,-8.85 -5.6,-8.85 h 31.09 c 15.14,0.41 25.87,10.46 25.87,25.3 z m -5.57,0 c 0,-14.6 -8.68,-24.37 -21.23,-24.37 h -19 v 48.73 h 19 c 12.55,0 21.23,-9.77 21.23,-24.36 z"
         id="path3" />
      <path
         class="cls-1"
         d="m 627.55,266.64 c -21.68,0 -13.73,-40.92 -36.45,-40.92 h -14.55 v 32.07 c 0,8.3 5.6,8.85 5.6,8.85 h -16.78 c 0,0 5.6,-0.55 5.6,-8.85 v -68.24 c 0,-8.3 -5.6,-8.85 -5.6,-8.85 h 26 c 15.48,0.11 26.53,8.93 26.53,22.51 0,12.11 -8.78,20.43 -21.65,22.17 21.21,5.08 22.39,41.26 31.3,41.26 z m -51,-41.84 h 14.55 c 12.55,0 21.23,-7 21.23,-21.59 0,-14.59 -8.68,-21.58 -21.23,-21.58 h -14.55 z"
         id="path4" />
      <path
         class="cls-1"
         d="m 685,243.14 -4.47,23.5 h -51 c 0,0 5.6,-0.55 5.6,-8.85 v -68.24 c 0,-8.3 -5.6,-8.85 -5.6,-8.85 h 51 l 4.47,23.5 c 0,0 -5.39,-22.57 -14.63,-22.57 H 640.7 v 41.58 h 20.82 c 8.29,0 8.85,-13.64 8.85,-13.64 v 28.2 c 0,0 -0.56,-13.64 -8.85,-13.64 H 640.7 v 41.58 h 29.67 c 9.24,0 14.63,-22.57 14.63,-22.57 z"
         id="path5" />
      <path
         class="cls-1"
         d="m 738.48,243.14 -4.48,23.5 h -48.36 l 46.75,-85 h -27.61 c -9.25,0 -14.63,22.57 -14.63,22.57 l 4.47,-23.5 h 43.86 l -46.75,85 h 32.12 c 9.24,0 14.63,-22.57 14.63,-22.57 z"
         id="path6" />
      <path
         class="cls-1"
         d="m 797.14,243.14 -4.47,23.5 h -51 c 0,0 5.6,-0.55 5.6,-8.85 v -68.24 c 0,-8.3 -5.6,-8.85 -5.6,-8.85 h 51 l 4.47,23.5 c 0,0 -5.38,-22.57 -14.63,-22.57 h -29.67 v 41.58 h 20.82 c 8.3,0 8.85,-13.64 8.85,-13.64 v 28.2 c 0,0 -0.55,-13.64 -8.85,-13.64 h -20.82 v 41.58 h 29.67 c 9.25,0 14.63,-22.57 14.63,-22.57 z"
         id="path7" />
      <path
         class="cls-1"
         d="m 860.11,180.7 c 0,0 -5.6,0.55 -5.6,8.85 v 77.09 h -0.93 l -47,-84.26 v 75.41 c 0,8.3 5.61,8.85 5.61,8.85 h -12.12 c 0,0 5.6,-0.55 5.6,-8.85 v -68.24 c 0,-8.3 -5.6,-8.85 -5.6,-8.85 h 11.17 l 42.34,75.94 v -67.09 c 0,-8.3 -5.6,-8.85 -5.6,-8.85 z"
         id="path8" />
      <path
         class="cls-1"
         d="m 922.3,204.2 c 0,0 -5.38,-22.57 -14.63,-22.57 H 894 v 76.16 c 0,8.3 5.6,8.85 5.6,8.85 h -16.78 c 0,0 5.61,-0.55 5.61,-8.85 v -76.16 h -13.68 c -9.24,0 -14.63,22.57 -14.63,22.57 l 4.47,-23.5 h 53.24 z"
         id="path9" />
      <path
         class="cls-1"
         d="m 980.9,266.64 h -16.75 c 0,0 5.24,-1 2.51,-8.85 l -7.58,-21.93 h -31.84 l -7.47,21.93 c -2.76,8.07 2.58,8.85 2.58,8.85 h -12.12 c 0,0 5.92,-0.93 8.61,-8.85 L 945.09,180.7 H 946 l 26.26,77.09 a 13.36,13.36 0 0 0 8.64,8.85 z m -22.15,-31.71 -15.56,-45 -0.15,-0.48 -15.48,45.48 z"
         id="path10" />
      <path
         class="cls-1"
         d="m 1036.8,250.22 h 0.93 c -6.51,10.54 -16.85,17.35 -29.25,17.35 -20.49,0 -34,-19.65 -34,-43.9 0,-24.25 13.87,-43.9 33.78,-43.9 16.8,0 23.81,16.14 24.72,3.51 v 20.66 c -0.79,-10.73 -12.3,-23.24 -24.61,-23.24 -16.59,0 -28.33,19.24 -28.33,43 0,23.76 11.32,43 28.73,43 18.81,-0.06 28.03,-16.48 28.03,-16.48 z"
         id="path11" />
      <path
         class="cls-1"
         d="m 1098,180.7 c 0,0 -5.61,0.55 -5.61,8.85 v 77.09 h -0.93 l -47,-84.26 v 75.41 c 0,8.3 5.61,8.85 5.61,8.85 H 1038 c 0,0 5.61,-0.55 5.61,-8.85 v -68.24 c 0,-8.3 -5.61,-8.85 -5.61,-8.85 h 11.17 l 42.34,75.94 v -67.09 c 0,-8.3 -5.6,-8.85 -5.6,-8.85 z"
         id="path12" />
      <path
         class="cls-1"
         d="m 1112.39,189.55 v 68.24 c 0,8.3 5.61,8.85 5.61,8.85 h -16.78 c 0,0 5.6,-0.55 5.6,-8.85 v -68.24 c 0,-8.3 -5.6,-8.85 -5.6,-8.85 H 1118 c 0,0 -5.61,0.55 -5.61,8.85 z"
         id="path13" />
      <path
         class="cls-1"
         d="m 690.41,327.55 c 0,15.14 -11.18,25.3 -26.8,25.3 h -19 v 26.5 c 0,8.3 5.61,8.85 5.61,8.85 h -16.77 c 0,0 5.6,-0.55 5.6,-8.85 v -68.24 c 0,-8.3 -5.6,-8.85 -5.6,-8.85 h 31.09 c 15.13,0.41 25.87,10.46 25.87,25.29 z m -5.57,0 c 0,-14.59 -8.68,-24.36 -21.23,-24.36 h -19 v 48.73 h 19 c 12.55,0 21.23,-9.77 21.23,-24.37 z"
         id="path14" />
      <path
         class="cls-1"
         d="m 745.91,364.7 -4.47,23.5 h -51 c 0,0 5.6,-0.55 5.6,-8.85 v -68.24 c 0,-8.3 -5.6,-8.85 -5.6,-8.85 h 16.78 c 0,0 -5.6,0.55 -5.6,8.85 v 76.16 h 29.66 c 9.24,0 14.63,-22.58 14.63,-22.57 z"
         id="path15" />
      <path
         class="cls-1"
         d="m 872.88,381.58 c 0,17.18 -17.41,33.14 -47.85,33.14 -26.4,0 -41.17,-12.29 -46.46,-26.52 h -32.63 c 0,0 5.6,-0.55 5.6,-8.85 v -68.24 c 0,-8.3 -5.6,-8.85 -5.6,-8.85 h 51 l 4.46,23.49 c -0.16,-0.69 -5.53,-22.56 -14.63,-22.56 h -29.66 v 41.57 h 20.82 c 8.3,0 8.85,-13.63 8.85,-13.63 v 28.2 a 27,27 0 0 0 -1,-6 l -0.09,-0.29 -0.27,0.29 c -8.15,8.8 -10.42,22.06 -6,33.91 h 7.44 c 9.1,0 14.47,-21.88 14.63,-22.56 L 797,388.2 h -17.3 c 5.56,13.87 20.35,25.59 45.59,25.59 25.94,0 41.92,-14.09 41.92,-29 0,-31.77 -65,-36.8 -65,-65.26 0,-9 8.51,-18.16 23.75,-18.16 17,0 24.15,16.13 25.07,3.51 v 20.62 c -0.8,-10.73 -12.47,-23.24 -25,-23.24 -11.57,0 -18.22,7.48 -18.22,15.76 0.04,24.57 65.07,29.4 65.07,63.56 z m -94.64,5.69 a 36.05,36.05 0 0 1 -1.94,-11.66 c 0,-8.64 3.14,-16.9 9,-22.6 l 0.28,-0.26 c -1.15,-3.49 -3.37,-7.06 -7.62,-7.06 h -20.85 v 41.58 z"
         id="path16" />
      <path
         class="cls-1"
         d="M 589.24,450.65 V 438 h 2.51 v 12.65 a 11.28,11.28 0 0 1 -0.84,4.24 8.08,8.08 0 0 1 -2.71,3.51 7.68,7.68 0 0 1 -4.75,1.41 7.59,7.59 0 0 1 -4.76,-1.43 8.27,8.27 0 0 1 -2.69,-3.52 11.26,11.26 0 0 1 -0.85,-4.21 V 438 h 2.52 v 12.62 a 9.12,9.12 0 0 0 0.61,3.31 5.88,5.88 0 0 0 1.91,2.6 5.78,5.78 0 0 0 6.53,0 6,6 0 0 0 1.91,-2.6 9.12,9.12 0 0 0 0.61,-3.28 z"
         id="path17" />
      <path
         class="cls-1"
         d="M 611.43,453.41 V 438 h 2.51 v 21.44 h -3.88 l -11.3,-19.17 h -0.4 a 29.35,29.35 0 0 1 0.24,3.74 v 15.43 h -2.51 V 438 H 600 l 11.27,19.17 h 0.4 a 28.38,28.38 0 0 1 -0.24,-3.76 z"
         id="path18" />
      <path
         class="cls-1"
         d="m 621,438 v 21.44 h -2.51 V 438 Z"
         id="path19" />
      <path
         class="cls-1"
         d="m 640.09,438 h 2.63 l -7.65,21.44 h -3.92 L 623.49,438 h 2.64 l 6.4,17.64 a 9.56,9.56 0 0 1 0.39,1.53 h 0.37 a 9.63,9.63 0 0 1 0.4,-1.53 z"
         id="path20" />
      <path
         class="cls-1"
         d="m 658.43,440.3 h -10.69 v 7.26 h 9.68 v 2.2 h -9.68 v 7.44 h 10.69 v 2.27 h -13.2 v -21.44 h 13.17 z"
         id="path21" />
      <path
         class="cls-1"
         d="m 675.19,449 a 3.51,3.51 0 0 1 1.18,1.18 3,3 0 0 1 0.44,1.56 v 7.72 h -2.33 v -7.65 a 1.89,1.89 0 0 0 -0.58,-1.41 1.86,1.86 0 0 0 -1.38,-0.59 H 664 v 9.65 h -2.48 V 438 h 9.19 a 7.94,7.94 0 0 1 3.52,0.71 5,5 0 0 1 2.16,1.91 5.26,5.26 0 0 1 0.72,2.74 4.5,4.5 0 0 1 -0.64,2.44 5.28,5.28 0 0 1 -1.4,1.51 7.16,7.16 0 0 1 -1.42,0.8 v 0 0.43 a 3,3 0 0 1 1.54,0.46 z m -2.7,-1.86 a 3.67,3.67 0 0 0 1.54,-1.23 3.41,3.41 0 0 0 0.58,-2 3.35,3.35 0 0 0 -0.58,-2 3.67,3.67 0 0 0 -1.54,-1.23 5.07,5.07 0 0 0 -2,-0.41 H 664 v 7.26 h 6.43 a 5.07,5.07 0 0 0 2.06,-0.38 z"
         id="path22" />
      <path
         class="cls-1"
         d="m 682.33,456.87 v 0.33 h 12.8 v 2.27 h -15.68 v -2.11 l 11.24,-15.1 a 4.9,4.9 0 0 1 1.77,-1.59 V 440.3 H 680.09 V 438 h 15.19 v 2.12 l -11.12,14.94 a 6.66,6.66 0 0 1 -1.83,1.81 z"
         id="path23" />
      <path
         class="cls-1"
         d="m 700.8,438 v 21.44 h -2.51 V 438 Z"
         id="path24" />
      <path
         class="cls-1"
         d="m 719.11,440.3 h -6.58 v 19.17 H 710 V 440.3 h -6.58 V 438 h 15.67 z"
         id="path25" />
      <path
         class="cls-1"
         d="m 729.89,446.06 4.78,-8 h 2.63 l -7,11.86 v 9.58 h -2.51 v -9.61 l -7,-11.83 h 2.63 l 4.75,8 a 10.4,10.4 0 0 1 0.67,1.44 h 0.43 a 8.34,8.34 0 0 1 0.62,-1.44 z"
         id="path26" />
      <path
         class="cls-1"
         d="m 762.11,440.3 h -6.59 v 19.17 H 753 V 440.3 h -6.58 V 438 h 15.68 z"
         id="path27" />
      <path
         class="cls-1"
         d="m 777.55,439.31 a 9.61,9.61 0 0 1 3.25,4.16 14.06,14.06 0 0 1 1,5.31 13.67,13.67 0 0 1 -1,5.29 9.55,9.55 0 0 1 -3.24,4.14 10.21,10.21 0 0 1 -11.07,0 9.52,9.52 0 0 1 -3.26,-4.14 14,14 0 0 1 0,-10.6 9.63,9.63 0 0 1 3.26,-4.16 10.18,10.18 0 0 1 11.08,0 z m -1.44,17 a 7.66,7.66 0 0 0 2.42,-3.31 11.7,11.7 0 0 0 0,-8.4 7.57,7.57 0 0 0 -2.42,-3.32 6.39,6.39 0 0 0 -4.12,-1.31 6.46,6.46 0 0 0 -4.13,1.31 7.49,7.49 0 0 0 -2.42,3.32 12,12 0 0 0 0,8.4 7.58,7.58 0 0 0 2.42,3.31 6.45,6.45 0 0 0 4.13,1.3 6.39,6.39 0 0 0 4.12,-1.34 z"
         id="path28" />
      <path
         class="cls-1"
         d="m 803.9,438 h 4.16 v 21.44 h -2.51 v -15.65 a 24.18,24.18 0 0 1 0.28,-3.49 h -0.43 l -7,19.17 h -3.49 l -7,-19.17 h -0.43 c 0.08,0.51 0.14,1.08 0.2,1.7 0.06,0.62 0.07,1.22 0.07,1.79 v 15.68 h -2.51 V 438 h 4.2 l 7,19.17 h 0.43 z"
         id="path29" />
      <path
         class="cls-1"
         d="M 829.34,459.47 H 827 l -1.9,-5.36 h -10.3 l -1.9,5.36 h -2.33 L 818.29,438 h 3.34 z m -5,-7.44 -4.16,-11.73 h -0.43 l -4.19,11.7 z m -3.15,-15.62 H 819 l 1.9,-4 h 2.33 z"
         id="path30" />
      <path
         class="cls-1"
         d="m 846.26,453.44 a 6,6 0 0 1 -3.43,5.46 9.49,9.49 0 0 1 -4.47,0.94 9.19,9.19 0 0 1 -4.47,-1 6.22,6.22 0 0 1 -2.61,-2.48 6.46,6.46 0 0 1 -0.82,-3.14 H 833 a 4.14,4.14 0 0 0 0.56,2.06 4.37,4.37 0 0 0 1.79,1.62 6.56,6.56 0 0 0 3.07,0.64 6.76,6.76 0 0 0 3,-0.6 4.06,4.06 0 0 0 1.76,-1.54 3.81,3.81 0 0 0 0.57,-2 2.57,2.57 0 0 0 -0.71,-1.86 4.77,4.77 0 0 0 -1.76,-1.11 15.21,15.21 0 0 0 -2.53,-0.68 l -0.91,-0.18 -0.49,-0.09 a 18.48,18.48 0 0 1 -3.25,-0.92 5.76,5.76 0 0 1 -2.34,-1.72 4.68,4.68 0 0 1 -1,-3.12 5.66,5.66 0 0 1 0.81,-2.91 6.22,6.22 0 0 1 2.53,-2.28 9.22,9.22 0 0 1 4.32,-0.9 9.32,9.32 0 0 1 4.33,0.9 6.06,6.06 0 0 1 2.54,2.28 5.67,5.67 0 0 1 0.82,2.91 V 444 h -2.52 v -0.25 a 3.34,3.34 0 0 0 -0.55,-1.82 4,4 0 0 0 -1.7,-1.44 6.55,6.55 0 0 0 -2.92,-0.57 6.44,6.44 0 0 0 -2.89,0.57 4,4 0 0 0 -1.7,1.44 3.35,3.35 0 0 0 -0.56,1.82 2.73,2.73 0 0 0 0.6,1.84 3.73,3.73 0 0 0 1.49,1.06 12,12 0 0 0 2.26,0.59 l 0.55,0.09 h 0.07 a 28.34,28.34 0 0 1 4,1 6.76,6.76 0 0 1 2.8,1.81 4.66,4.66 0 0 1 1.22,3.3 z M 836.73,436 h 3 l 2.48,-3.64 h -2.26 l -1.59,2.27 h -0.22 l -1.59,-2.27 h -2.27 z"
         id="path31" />
      <path
         class="cls-1"
         d="m 863,440.3 h -10.71 v 7.26 H 862 v 2.2 h -9.67 v 7.44 H 863 v 2.27 H 849.78 V 438.03 H 863 Z"
         id="path32" />
      <path
         class="cls-1"
         d="m 889.91,457 a 6.76,6.76 0 0 1 -2.94,1.85 12.17,12.17 0 0 1 -3.79,0.58 h -7.9 V 438 h 7.87 a 9.45,9.45 0 0 1 3.25,0.56 5.57,5.57 0 0 1 2.5,1.73 4.53,4.53 0 0 1 -1.2,6.76 5.46,5.46 0 0 1 -2.1,0.72 v 0.43 a 7.91,7.91 0 0 1 2.65,0.89 5.49,5.49 0 0 1 2,1.87 5,5 0 0 1 0.78,2.79 4.71,4.71 0 0 1 -1.12,3.25 z m -3.62,-10.92 a 2.8,2.8 0 0 0 1.21,-2.48 2.83,2.83 0 0 0 -1.21,-2.51 5.21,5.21 0 0 0 -3,-0.83 H 877.8 V 447 h 5.49 a 5.21,5.21 0 0 0 3,-0.88 z m -0.36,10.67 a 4,4 0 0 0 1.89,-1.32 3.89,3.89 0 0 0 0,-4.51 4.12,4.12 0 0 0 -1.89,-1.3 7.69,7.69 0 0 0 -2.59,-0.42 h -5.55 v 8 h 5.55 a 7.69,7.69 0 0 0 2.59,-0.41 z"
         id="path33" />
      <path
         class="cls-1"
         d="m 910.9,459.47 h -2.33 l -1.9,-5.36 h -10.32 l -1.89,5.36 h -2.33 L 899.85,438 h 3.33 z m -5,-7.44 -4.17,-11.73 h -0.43 l -4.18,11.7 z"
         id="path34" />
      <path
         class="cls-1"
         d="M 924.6,440.3 H 918 v 19.17 h -2.51 V 440.3 H 908.9 V 438 h 15.7 z"
         id="path35" />
      <path
         class="cls-1"
         d="m 929.74,438 v 21.44 h -2.51 V 438 Z"
         id="path36" />
      <path
         class="cls-1"
         d="m 558.83,346.1 7.78,10.81 h -2.09 L 557.36,347 H 557 l -7.13,9.89 h -2.12 l 7.81,-10.81 -7.65,-10.63 H 550 l 7.17,10 7.16,-10 h 2.11 z"
         id="path37" />
      <path
         class="cls-1"
         d="m 579.24,346.1 7.76,10.81 h -2.09 L 577.77,347 h -0.34 l -7.13,9.89 h -2.12 L 576,346.1 568.35,335.47 h 2.11 l 7.17,10 7.16,-10 h 2.11 z"
         id="path38" />
      <path
         class="cls-1"
         d="m 591.28,335.47 v 21.44 h -1.71 v -21.44 z"
         id="path39" />
      <path
         class="cls-1"
         d="m 597.61,335.47 v 21.44 h -1.72 v -21.44 z"
         id="path40" />
      <path
         class="cls-1"
         d="m 603.93,335.47 v 21.44 h -1.71 v -21.44 z"
         id="path41" />
      <path
         class="cls-1"
         d="m 608.42,356.94 a 1.09,1.09 0 0 1 -0.35,-0.8 1.14,1.14 0 0 1 0.35,-0.83 1.21,1.21 0 0 1 0.85,-0.33 1.09,1.09 0 0 1 0.56,0.15 1.21,1.21 0 0 1 0.43,0.41 1.13,1.13 0 0 1 0.17,0.6 1.09,1.09 0 0 1 -0.35,0.8 1.17,1.17 0 0 1 -0.81,0.33 1.21,1.21 0 0 1 -0.85,-0.33 z"
         id="path42" />
      <path
         class="cls-1"
         d="m 892.32,355.71 h 8.33 v 1.56 h -14.42 v -1.53 q 5.06,-4.5 10.1,-9 c 0.08,-0.06 0.29,-0.26 0.61,-0.58 a 8.38,8.38 0 0 0 1.4,-2 4.85,4.85 0 0 0 0.47,-2 5.55,5.55 0 0 0 -0.56,-2.43 4.51,4.51 0 0 0 -1.8,-1.88 6.74,6.74 0 0 0 -6.14,0 4.67,4.67 0 0 0 -1.79,1.88 5.43,5.43 0 0 0 -0.58,2.43 6.75,6.75 0 0 0 0,0.71 h -1.71 a 6.75,6.75 0 0 1 0,-0.71 7.1,7.1 0 0 1 0.75,-3.17 6,6 0 0 1 2.36,-2.48 9,9 0 0 1 8.08,0 6,6 0 0 1 2.36,2.48 7.1,7.1 0 0 1 0.75,3.17 6.59,6.59 0 0 1 -0.65,2.84 7.3,7.3 0 0 1 -1.71,2.34 l -9.46,8.45 v 0.37 a 18.29,18.29 0 0 1 3.61,-0.45 z"
         id="path43" />
      <path
         class="cls-1"
         d="m 916.82,337.09 a 9.45,9.45 0 0 1 2.88,4.17 15.7,15.7 0 0 1 0,10.59 9.39,9.39 0 0 1 -2.88,4.17 8.5,8.5 0 0 1 -10,0 9.39,9.39 0 0 1 -2.88,-4.17 15.7,15.7 0 0 1 0,-10.59 9.45,9.45 0 0 1 2.88,-4.17 8.5,8.5 0 0 1 10,0 z m -1,17.6 a 7.85,7.85 0 0 0 2.33,-3.57 14.83,14.83 0 0 0 0,-9.13 7.85,7.85 0 0 0 -2.33,-3.57 6,6 0 0 0 -4,-1.39 5.89,5.89 0 0 0 -4,1.39 8,8 0 0 0 -2.33,3.57 14.45,14.45 0 0 0 0,9.13 8,8 0 0 0 2.33,3.57 5.84,5.84 0 0 0 4,1.39 5.91,5.91 0 0 0 4.03,-1.39 z"
         id="path44" />
      <path
         class="cls-1"
         d="m 929.12,355.71 h 8.33 v 1.56 H 923 v -1.53 q 5.06,-4.5 10.11,-9 c 0.08,-0.06 0.28,-0.26 0.61,-0.58 a 8.32,8.32 0 0 0 1.39,-2 4.71,4.71 0 0 0 0.48,-2 5.42,5.42 0 0 0 -0.57,-2.43 4.48,4.48 0 0 0 -1.79,-1.88 6.74,6.74 0 0 0 -6.14,0 4.61,4.61 0 0 0 -1.79,1.88 5.3,5.3 0 0 0 -0.58,2.43 6.75,6.75 0 0 0 0,0.71 H 923 a 6.75,6.75 0 0 1 0,-0.71 7.1,7.1 0 0 1 0.75,-3.17 6,6 0 0 1 2.36,-2.48 9,9 0 0 1 8.09,0 6,6 0 0 1 2.35,2.48 7.1,7.1 0 0 1 0.75,3.17 6.58,6.58 0 0 1 -0.64,2.84 7.45,7.45 0 0 1 -1.71,2.34 q -4.49,4 -9.47,8.45 v 0.37 a 18.38,18.38 0 0 1 3.64,-0.45 z"
         id="path45" />
      <path
         class="cls-1"
         d="m 954.9,349.83 a 8.79,8.79 0 0 1 -0.82,3.74 7,7 0 0 1 -2.59,2.92 8,8 0 0 1 -4.46,1.15 8.27,8.27 0 0 1 -4.21,-1 6.84,6.84 0 0 1 -2.57,-2.58 8.57,8.57 0 0 1 -1,-3.41 h 1.72 a 7.5,7.5 0 0 0 0.86,2.65 5.12,5.12 0 0 0 2,2 6.41,6.41 0 0 0 3.23,0.77 6.16,6.16 0 0 0 3.49,-0.92 5.47,5.47 0 0 0 2,-2.37 7.59,7.59 0 0 0 0,-6.1 5.66,5.66 0 0 0 -2,-2.4 6,6 0 0 0 -3.49,-1 6.32,6.32 0 0 0 -3,0.64 5.48,5.48 0 0 0 -2,1.69 h -1.93 l 1.32,-9.83 h 11.73 v 1.56 H 943 l -0.46,3.67 a 13.47,13.47 0 0 1 -0.32,1.67 15.86,15.86 0 0 1 -0.48,1.61 H 942 a 6.08,6.08 0 0 1 2.15,-1.73 7.19,7.19 0 0 1 3.09,-0.66 7.42,7.42 0 0 1 4.3,1.13 6.92,6.92 0 0 1 2.53,3 9.23,9.23 0 0 1 0.83,3.8 z"
         id="path46" />
      <polygon
         class="cls-1"
         points="1008.57,177.32 1007.64,177.32 1017.54,163.72 1023.12,163.72 "
         id="polygon46" />
      <polygon
         class="cls-1"
         points="1109.7,177.32 1108.77,177.32 1118.68,163.72 1124.25,163.72 "
         id="polygon47" />
      <polygon
         class="cls-1"
         points="993.05,163.72 998.63,163.72 1008.53,177.32 1007.6,177.32 "
         id="polygon48" />
      <path
         class="cls-1"
         d="m 922,550.58 h 8.23 c 0,0 -3.8,0.37 -3.8,6 v 52.3 h -0.63 c 0,0 -21.85,-39.83 -30.31,-54.22 -0.51,-0.86 -1,-1.7 -1.56,-2.5 v 50.72 c 0,5.62 3.8,6 3.8,6 h -8.23 c 0,0 3.8,-0.38 3.8,-6 v -51.65 c -5.43,-7.72 -12.5,-12.08 -27.5,-12.08 20.92,0 27.94,6 32.69,14.17 7.41,12.75 27.31,48.78 27.31,48.78 v -45.52 c 0,-5.63 -3.8,-6 -3.8,-6 z"
         id="path48" />
      <path
         class="cls-1"
         d="m 607.53,550.57 c 0,0 -3.8,0.38 -3.8,6 v 47.28 a 4.68,4.68 0 0 0 -3.22,3.21 l -0.64,0.12 v 0 l -0.78,0.12 c -0.47,0.07 -0.94,0.13 -1.42,0.18 l -1.34,0.13 a 4.51,4.51 0 0 0 3.28,-3.34 9,9 0 0 0 0.35,-2.64 v -45.05 c 0,-5.63 -3.8,-6 -3.8,-6 z"
         id="path49" />
      <path
         class="cls-1"
         d="m 659.14,549.94 c -13.89,0 -24.53,13.34 -24.53,29.78 a 34.8,34.8 0 0 0 3.72,15.93 c 0.18,0.36 0.37,0.72 0.57,1.06 4.36,7.74 11.68,12.8 20.24,12.8 13.9,0 24.54,-13.33 24.54,-29.79 0,-16.46 -10.68,-29.78 -24.54,-29.78 z m 0,58.94 c -6.66,0 -12.41,-4.15 -16.15,-10.67 -0.1,-0.16 -0.19,-0.33 -0.28,-0.49 a 37.57,37.57 0 0 1 -4.32,-18 c 0,-16.09 8.94,-29.15 20.75,-29.15 11.81,0 20.75,13.06 20.75,29.15 0,16.09 -8.89,29.16 -20.75,29.16 z"
         id="path50" />
      <path
         class="cls-1"
         d="m 714.56,550.57 c 0,0 3.65,0.48 2,6 l -14.15,46 -13.71,-46.01 c -1.62,-5.45 2,-6 2,-6 h -11.36 c 0,0 3.94,0.48 5.58,6 l 15.51,52.3 h 0.63 l 1.6,-5.21 14.47,-47.09 c 1.7,-5.51 5.65,-6 5.65,-6 z"
         id="path51" />
      <path
         class="cls-1"
         d="M 751.48,608.25 H 731.36 V 580 h 14.12 c 5.63,0 6,9.25 6,9.25 v -19.09 c 0,0 -0.37,9.25 -6,9.25 h -14.12 v -28.2 h 20.12 c 6.08,0 9.7,14.37 9.92,15.27 l -3,-15.91 h -34.63 c 0,0 3.8,0.38 3.8,6 v 46.29 c 0,5.64 -3.8,6 -3.8,6 h 34.62 l 3,-15.9 c -0.21,0.92 -3.83,15.29 -9.91,15.29 z"
         id="path52" />
      <path
         class="cls-1"
         d="m 796.58,602.87 v -46.29 c 0,-5.63 3.8,-6 3.8,-6 H 789 c 0,0 3.8,0.38 3.8,6 v 46.29 c 0,5.64 -3.8,6 -3.8,6 h 11.38 c 0,0 -3.8,-0.36 -3.8,-6 z"
         id="path53" />
      <path
         class="cls-1"
         d="m 884.13,602.87 v -46.29 c 0,-5.63 3.8,-6 3.8,-6 h -11.39 c 0,0 3.8,0.38 3.8,6 v 46.29 c 0,5.64 -3.8,6 -3.8,6 h 11.39 c 0,0 -3.8,-0.36 -3.8,-6 z"
         id="path54" />
      <path
         class="cls-1"
         d="m 611.75,608.91 c -14.49,6.33 -27.46,9.45 -37.74,-0.26 7.17,8.09 17.18,9 25.85,7.62 v 50.93 c 0,5.63 -3.8,6 -3.8,6 h 11.39 c 0,0 -3.8,-0.37 -3.8,-6 V 615.49 A 55.27,55.27 0 0 0 611,613.1 c 14.84,-6 25.43,-13.06 37.52,-1.82 -12.69,-11.96 -23.84,-8.02 -36.77,-2.37 z"
         id="path55" />
      <path
         class="cls-1"
         d="m 648.94,667.2 v -46.3 c 0,-5.62 3.8,-6 3.8,-6 h -11.39 c 0,0 3.81,0.38 3.81,6 v 22.84 H 616.88 V 620.9 c 0,-5.62 3.8,-6 3.8,-6 h -11.39 c 0,0 3.8,0.38 3.8,6 v 46.3 c 0,5.63 -3.8,6 -3.8,6 h 11.39 c 0,0 -3.8,-0.37 -3.8,-6 v -22.83 h 28.28 v 22.83 c 0,5.63 -3.81,6 -3.81,6 h 11.39 c 0,0 -3.8,-0.37 -3.8,-6 z"
         id="path56" />
      <path
         class="cls-1"
         d="m 682.64,672.58 h -20.13 v -28.22 h 14.12 c 5.64,0 6,9.26 6,9.26 v -19.14 c 0,0 -0.37,9.26 -6,9.26 h -14.12 v -28.21 h 20.13 c 6.08,0 9.7,14.38 9.92,15.28 l -3,-15.91 h -34.6 c 0,0 3.8,0.38 3.8,6 v 46.3 c 0,5.63 -3.8,6 -3.8,6 h 34.6 l 3,-15.9 c -0.22,0.9 -3.84,15.28 -9.92,15.28 z"
         id="path57" />
      <path
         class="cls-1"
         d="m 754.07,673.2 h 11.36 a 9,9 0 0 1 -5.84,-6 l -17.82,-52.3 h -0.63 l -17.8,52.3 c -1.83,5.37 -5.85,6 -5.85,6 h 8.22 c 0,0 -3.62,-0.52 -1.75,-6 l 4.27,-12.53 0.8,-2.35 0.21,-0.62 0.31,-0.94 10.2,-29.92 0.1,0.32 10.08,29.14 0.48,1.4 0.21,0.62 0.74,2.11 4.41,12.77 c 1.86,5.3 -1.7,6 -1.7,6 z"
         id="path58" />
      <path
         class="cls-1"
         d="m 773.78,667.2 v -46.3 c 0,-5.62 3.8,-6 3.8,-6 h -11.39 c 0,0 3.81,0.38 3.81,6 v 46.3 c 0,5.63 -3.81,6 -3.81,6 h 11.39 c 0,0 -3.8,-0.37 -3.8,-6 z"
         id="path59" />
      <path
         class="cls-1"
         d="m 800.32,645.21 c 8.73,-1.18 14.69,-6.83 14.69,-15 0,-9.21 -7.5,-15.2 -18,-15.26 h -17.64 c 0,0 3.8,0.38 3.8,6 v 46.3 c 0,5.63 -3.8,6 -3.8,6 h 11.38 c 0,0 -3.81,-0.37 -3.81,-6 v -21.81 h 9.88 c 15.41,0 10,27.76 24.74,27.76 -6.06,0 -6.86,-24.54 -21.24,-27.99 z m -13.38,-0.39 v -29.29 h 9.88 c 8.51,0 14.4,4.74 14.4,14.64 0,9.9 -5.89,14.65 -14.4,14.65 z"
         id="path60" />
      <path
         class="cls-1"
         d="m 808.71,561.32 c 0,-5.62 4.51,-10.69 12.36,-10.69 8.48,0 16.4,8.48 16.93,15.76 v -14 c -0.62,8.56 -5.44,-2.38 -17,-2.38 -10.34,0 -16.12,6.24 -16.12,12.32 0,19.31 44.12,22.72 44.12,44.27 0,10.14 -10.85,19.7 -28.45,19.7 -16.78,0 -26.75,-7.63 -30.69,-16.8 0,0 0,0 0,0 v 0 a 0.18,0.18 0 0 0 0,-0.1 c 0,-0.09 -0.07,-0.18 -0.1,-0.28 l -0.06,-0.13 c -0.08,-0.18 -0.16,-0.4 -0.24,-0.62 -0.08,-0.22 -0.19,-0.53 -0.27,-0.8 v 0 c -2.55,-7.72 -1,-16.18 4.13,-21.94 l -0.11,-0.23 a 21.44,21.44 0 0 0 -5.81,15.06 24.55,24.55 0 0 0 1.11,7.3 0.54,0.54 0 0 1 0,0.1 c 0,0.11 0.07,0.22 0.1,0.32 a 0.84,0.84 0 0 1 0.07,0.19 c 0.07,0.19 0.14,0.41 0.22,0.62 0,0 0,0.08 0,0.12 3.64,9.6 13.64,17.87 31.49,17.87 20.65,0 32.46,-10.83 32.46,-22.47 -0.02,-23.25 -44.14,-26.51 -44.14,-43.19 z"
         id="path61" />
      <path
         class="cls-1"
         d="m 777.58,649.55 c -10.34,-9.61 -19.4,-3.54 -32.09,1.56 a 49.82,49.82 0 0 1 -4.94,1.68 l -0.36,0.09 c -0.72,0.2 -2.47,0.63 -4.26,0.94 v 0 l -0.67,0.1 -1.21,0.16 c -6.95,0.77 -14.61,-0.43 -20.24,-6.77 8.8,8.3 19.9,5.63 32.29,0.22 11.06,-4.83 20.6,-8.21 31.48,2.02 z"
         id="path62" />
      <path
         class="cls-1"
         d="m 648.55,602.2 a 25.09,25.09 0 0 0 -5.56,-4 18,18 0 0 0 -4.09,-1.5 c -8.51,-2 -17.06,3 -27.86,7.32 a 55.44,55.44 0 0 1 -5.77,2 l -0.42,0.12 c -0.76,0.2 -2.49,0.63 -4.34,1 l -0.64,0.12 v 0 l -0.78,0.12 c -0.47,0.07 -0.94,0.13 -1.42,0.18 l -1.34,0.13 a 4.51,4.51 0 0 0 3.28,-3.34 c 1.36,-0.36 2.74,-0.79 4.13,-1.27 2.62,-0.9 5.29,-2 8,-3.17 9.37,-4.09 17.8,-7.29 26.58,-4.19 a 23.4,23.4 0 0 1 4.38,2.07 33.91,33.91 0 0 1 5.85,4.41 z"
         id="path63" />
      <path
         class="cls-1"
         d="m 621.92,742.1 a 5.65,5.65 0 0 1 2.37,2 6.14,6.14 0 0 1 0,6.48 5.7,5.7 0 0 1 -2.39,2 7.38,7.38 0 0 1 -3.08,0.66 h -6.65 v 9.65 h -2.51 v -21.45 h 9.16 a 7.45,7.45 0 0 1 3.1,0.66 z m -1.32,8.44 a 3.85,3.85 0 0 0 1.52,-1.24 3.65,3.65 0 0 0 0,-3.95 3.74,3.74 0 0 0 -1.52,-1.23 5.06,5.06 0 0 0 -2,-0.41 h -6.4 V 751 h 6.4 a 4.9,4.9 0 0 0 2,-0.46 z"
         id="path64" />
      <path
         class="cls-1"
         d="m 643.1,762.88 h -2.33 l -1.9,-5.36 h -10.32 l -1.9,5.36 h -2.33 L 632,741.44 h 3.34 z m -5,-7.44 -4.16,-11.73 h -0.43 l -4.19,11.73 z M 635,739.82 h -2.17 l 1.89,-4 H 637 Z"
         id="path65" />
      <path
         class="cls-1"
         d="m 656.8,743.71 h -6.59 v 19.17 h -2.51 v -19.17 h -6.58 v -2.27 h 15.68 z"
         id="path66" />
      <path
         class="cls-1"
         d="M 672.63,743.71 H 661.94 V 751 h 9.67 v 2.2 h -9.67 v 7.44 h 10.69 v 2.27 h -13.2 v -21.44 h 13.17 z"
         id="path67" />
      <path
         class="cls-1"
         d="m 681.48,752 v 0.43 l 10.26,10.44 h -3.46 l -9.37,-9.49 h -0.67 v 9.49 h -2.51 v -21.43 h 2.51 v 9.65 h 0.67 l 9.49,-9.65 h 3.46 z"
         id="path68" />
      <path
         class="cls-1"
         d="m 706.62,741.44 h 2.52 v 21.44 h -2.52 V 749.56 A 16.86,16.86 0 0 1 707,746 h -0.4 a 6.67,6.67 0 0 1 -1,1.92 5.57,5.57 0 0 1 -1.7,1.46 5.41,5.41 0 0 1 -2.3,0.66 v -2.36 a 4.72,4.72 0 0 0 3.81,-2 7.21,7.21 0 0 0 1.21,-4.24 z"
         id="path69" />
      <path
         class="cls-1"
         d="m 729.17,758.59 h -2.57 v 4.29 h -2.51 v -4.29 H 711.6 v -2.94 l 11,-14.21 h 4 v 15.07 h 2.57 z m -5.45,-14.88 -9.8,12.8 h 6.68 a 14.37,14.37 0 0 1 3.49,0.43 v -13.23 z"
         id="path70" />
      <path
         class="cls-1"
         d="m 732.28,762.8 a 1.47,1.47 0 0 1 0,-2.17 1.56,1.56 0 0 1 1.11,-0.45 1.43,1.43 0 0 1 0.75,0.22 1.94,1.94 0 0 1 0.59,0.55 1.34,1.34 0 0 1 0.23,0.76 1.42,1.42 0 0 1 -0.48,1.09 1.57,1.57 0 0 1 -2.2,0 z"
         id="path71" />
      <path
         class="cls-1"
         d="m 754,760.61 h 7.72 v 2.27 h -15.07 v -2.11 q 4.73,-4.17 9.37,-8.33 a 7.55,7.55 0 0 0 0.65,-0.59 11.89,11.89 0 0 0 1.76,-2.17 3.85,3.85 0 0 0 0.63,-2 4.35,4.35 0 0 0 -0.54,-2.1 4.15,4.15 0 0 0 -1.65,-1.62 6.51,6.51 0 0 0 -5.61,0 4.15,4.15 0 0 0 -1.64,1.63 4.42,4.42 0 0 0 -0.52,2.08 v 0.7 h -2.51 v -0.7 a 6.85,6.85 0 0 1 0.78,-3.17 6,6 0 0 1 2.48,-2.48 8.55,8.55 0 0 1 4.24,-1 8.36,8.36 0 0 1 4.2,1 6.16,6.16 0 0 1 2.48,2.48 6.75,6.75 0 0 1 0.8,3.17 6,6 0 0 1 -0.77,2.92 9.8,9.8 0 0 1 -2,2.5 q -3.71,3.32 -8.45,7.5 V 761 a 15.9,15.9 0 0 1 3.65,-0.39 z"
         id="path72" />
      <path
         class="cls-1"
         d="m 765,762.8 a 1.47,1.47 0 0 1 0,-2.17 1.56,1.56 0 0 1 1.12,-0.45 1.48,1.48 0 0 1 0.75,0.22 1.9,1.9 0 0 1 0.58,0.55 1.34,1.34 0 0 1 0.23,0.76 1.42,1.42 0 0 1 -0.48,1.09 1.52,1.52 0 0 1 -1.08,0.45 1.56,1.56 0 0 1 -1.12,-0.45 z"
         id="path73" />
      <path
         class="cls-1"
         d="m 794.52,742.71 a 9.64,9.64 0 0 1 3.25,4.17 14,14 0 0 1 1,5.31 13.77,13.77 0 0 1 -1,5.28 9.54,9.54 0 0 1 -3.25,4.15 10.21,10.21 0 0 1 -11.07,0 9.56,9.56 0 0 1 -3.26,-4.15 14,14 0 0 1 0,-10.59 9.73,9.73 0 0 1 3.26,-4.17 10.19,10.19 0 0 1 11.09,0 z m -1.44,17 a 7.74,7.74 0 0 0 2.42,-3.31 11.7,11.7 0 0 0 0,-8.4 7.74,7.74 0 0 0 -2.42,-3.33 7.19,7.19 0 0 0 -8.25,0 7.5,7.5 0 0 0 -2.42,3.33 11.84,11.84 0 0 0 0,8.4 7.5,7.5 0 0 0 2.42,3.31 7.19,7.19 0 0 0 8.25,0 z"
         id="path74" />
      <path
         class="cls-1"
         d="m 818.66,757.92 a 8.91,8.91 0 0 1 -3.58,3.69 10.78,10.78 0 0 1 -5.27,1.27 h -7.56 v -21.44 h 7.56 a 10.65,10.65 0 0 1 5.19,1.26 9,9 0 0 1 3.61,3.69 11.94,11.94 0 0 1 1.32,5.77 12.07,12.07 0 0 1 -1.27,5.76 z M 814,759.4 a 7,7 0 0 0 2.59,-3.06 10.61,10.61 0 0 0 0,-8.37 7.19,7.19 0 0 0 -2.59,-3.1 7.47,7.47 0 0 0 -4.24,-1.16 h -5 v 16.84 h 5 A 7.46,7.46 0 0 0 814,759.4 Z"
         id="path75" />
      <path
         class="cls-1"
         d="M 835.47,741.44 H 838 v 21.44 h -2.51 v -13.32 a 16.86,16.86 0 0 1 0.4,-3.58 h -0.4 a 6.67,6.67 0 0 1 -1.05,1.92 5.57,5.57 0 0 1 -1.7,1.46 5.41,5.41 0 0 1 -2.3,0.66 v -2.36 a 4.72,4.72 0 0 0 3.81,-2 7.21,7.21 0 0 0 1.22,-4.22 z"
         id="path76" />
      <path
         class="cls-1"
         d="m 844.87,755.71 a 7,7 0 0 1 -2.77,-2.78 8.39,8.39 0 0 1 -1,-4 8.11,8.11 0 0 1 1,-4 7.1,7.1 0 0 1 2.84,-2.78 8.53,8.53 0 0 1 4.22,-1 9.71,9.71 0 0 1 4.67,1.11 7.9,7.9 0 0 1 3.32,3.56 14.16,14.16 0 0 1 1.26,6.42 16,16 0 0 1 -0.89,5.3 9.24,9.24 0 0 1 -2.83,4.16 7.35,7.35 0 0 1 -4.89,1.63 8,8 0 0 1 -3.69,-0.83 7.81,7.81 0 0 1 -2.66,-2.19 8.82,8.82 0 0 1 -1.52,-3 h 2.45 a 5.64,5.64 0 0 0 2,2.71 5.81,5.81 0 0 0 3.55,1 5.45,5.45 0 0 0 3.58,-1.26 7.58,7.58 0 0 0 2.31,-3.59 14.52,14.52 0 0 0 0.57,-5.53 H 856 a 5.69,5.69 0 0 1 -0.93,3 6.8,6.8 0 0 1 -2.48,2.27 7.26,7.26 0 0 1 -3.51,0.85 8.49,8.49 0 0 1 -4.21,-1.05 z m 1.35,-11.54 a 5.08,5.08 0 0 0 -1.94,2.08 5.85,5.85 0 0 0 0,5.28 5,5 0 0 0 1.94,2.09 7.29,7.29 0 0 0 6.68,0 5.17,5.17 0 0 0 1.94,-2.09 5.85,5.85 0 0 0 0,-5.28 5.13,5.13 0 0 0 -2,-2.08 7.1,7.1 0 0 0 -6.66,0 z"
         id="path77" />
      <path
         class="cls-1"
         d="m 861.73,750.19 a 1.5,1.5 0 0 1 0,-2.18 1.61,1.61 0 0 1 1.12,-0.44 1.47,1.47 0 0 1 0.75,0.21 1.9,1.9 0 0 1 0.58,0.55 1.37,1.37 0 0 1 0.23,0.77 1.46,1.46 0 0 1 -0.47,1.09 1.58,1.58 0 0 1 -1.09,0.44 1.61,1.61 0 0 1 -1.12,-0.44 z m 0,12.61 a 1.49,1.49 0 0 1 0,-2.17 1.58,1.58 0 0 1 1.12,-0.45 1.48,1.48 0 0 1 0.75,0.22 1.9,1.9 0 0 1 0.58,0.55 1.34,1.34 0 0 1 0.23,0.76 1.44,1.44 0 0 1 -0.47,1.09 1.55,1.55 0 0 1 -1.09,0.45 1.58,1.58 0 0 1 -1.12,-0.45 z"
         id="path78" />
      <path
         class="cls-1"
         d="m 881.29,742.7 a 9.38,9.38 0 0 1 2.94,4.16 15.41,15.41 0 0 1 0,10.6 9.38,9.38 0 0 1 -2.94,4.16 8.73,8.73 0 0 1 -10.16,0 9.38,9.38 0 0 1 -2.94,-4.16 15.41,15.41 0 0 1 0,-10.6 9.38,9.38 0 0 1 2.94,-4.16 8.73,8.73 0 0 1 10.16,0 z m -1.44,17 a 7.45,7.45 0 0 0 2.13,-3.3 13.47,13.47 0 0 0 0,-8.45 7.48,7.48 0 0 0 -2.13,-3.31 5.31,5.31 0 0 0 -3.66,-1.29 5.24,5.24 0 0 0 -3.64,1.29 7.53,7.53 0 0 0 -2.11,3.31 13.47,13.47 0 0 0 0,8.45 7.5,7.5 0 0 0 2.11,3.3 5.24,5.24 0 0 0 3.64,1.29 5.31,5.31 0 0 0 3.66,-1.3 z"
         id="path79" />
      <path
         class="cls-1"
         d="m 901.65,742.7 a 9.54,9.54 0 0 1 2.94,4.16 15.57,15.57 0 0 1 0,10.6 9.54,9.54 0 0 1 -2.94,4.16 8.75,8.75 0 0 1 -10.17,0 9.38,9.38 0 0 1 -2.94,-4.16 15.57,15.57 0 0 1 0,-10.6 9.38,9.38 0 0 1 2.94,-4.16 8.75,8.75 0 0 1 10.17,0 z m -1.44,17 a 7.45,7.45 0 0 0 2.13,-3.3 13.66,13.66 0 0 0 0,-8.45 7.48,7.48 0 0 0 -2.13,-3.31 5.82,5.82 0 0 0 -7.31,0 7.53,7.53 0 0 0 -2.11,3.31 13.66,13.66 0 0 0 0,8.45 7.5,7.5 0 0 0 2.11,3.3 5.82,5.82 0 0 0 7.31,0 z"
         id="path80" />
      <path
         class="cls-1"
         d="m 624.71,786.29 v 0.21 l 7.44,7.24 h -0.9 l -7.26,-7 h -0.5 v 7 h -0.63 v -14.69 h 0.63 v 7.07 h 0.5 l 7.26,-7.07 h 0.9 z"
         id="path81" />
      <path
         class="cls-1"
         d="m 642.24,779.92 a 6.5,6.5 0 0 1 2.08,2.86 10.3,10.3 0 0 1 0.65,3.64 10,10 0 0 1 -0.66,3.61 6.49,6.49 0 0 1 -2.08,2.85 5.64,5.64 0 0 1 -3.6,1.11 5.71,5.71 0 0 1 -3.61,-1.11 6.41,6.41 0 0 1 -2.08,-2.85 10.14,10.14 0 0 1 0,-7.25 6.5,6.5 0 0 1 2.08,-2.86 6.38,6.38 0 0 1 7.22,0 z m -0.38,12.48 a 6,6 0 0 0 1.88,-2.64 9.68,9.68 0 0 0 0,-6.71 6,6 0 0 0 -1.88,-2.64 4.91,4.91 0 0 0 -3.23,-1 5,5 0 0 0 -3.24,1 5.9,5.9 0 0 0 -1.89,2.59 9.63,9.63 0 0 0 -0.6,3.38 9.45,9.45 0 0 0 0.6,3.34 6,6 0 0 0 1.89,2.64 5.64,5.64 0 0 0 6.47,0 z"
         id="path82" />
      <path
         class="cls-1"
         d="m 657.72,790.8 v -11.75 h 0.63 v 14.69 h -1 l -9.19,-14.12 H 648 a 18,18 0 0 1 0.17,2.39 v 11.73 h -0.63 v -14.69 h 1 l 9.18,14.12 h 0.17 a 18.35,18.35 0 0 1 -0.17,-2.37 z"
         id="path83" />
      <path
         class="cls-1"
         d="m 673.79,786.79 v 7 h -0.63 v -1.93 a 17.56,17.56 0 0 1 0.21,-2.39 h -0.21 a 6.17,6.17 0 0 1 -2.74,3.76 5.44,5.44 0 0 1 -3,0.81 5.82,5.82 0 0 1 -3.68,-1.12 6.38,6.38 0 0 1 -2.13,-2.86 9.85,9.85 0 0 1 -0.68,-3.61 9.7,9.7 0 0 1 0.7,-3.64 6.37,6.37 0 0 1 2.2,-2.85 6.29,6.29 0 0 1 3.82,-1.11 6.63,6.63 0 0 1 2.87,0.58 5.62,5.62 0 0 1 2,1.56 7.48,7.48 0 0 1 1.25,2.25 h -0.63 a 6.25,6.25 0 0 0 -2,-2.77 5.59,5.59 0 0 0 -3.49,-1 5.54,5.54 0 0 0 -3.46,1 5.93,5.93 0 0 0 -2,2.63 9.29,9.29 0 0 0 0,6.7 6.09,6.09 0 0 0 2,2.63 5.34,5.34 0 0 0 3.37,1.06 5.12,5.12 0 0 0 3.15,-1 6,6 0 0 0 1.91,-2.48 7.85,7.85 0 0 0 0.63,-3.07 0.21,0.21 0 0 0 -0.07,-0.17 0.21,0.21 0 0 0 -0.16,-0.06 h -5.58 v -0.57 h 5.72 a 0.71,0.71 0 0 1 0.53,0.2 0.73,0.73 0 0 1 0.1,0.45 z"
         id="path84" />
      <path
         class="cls-1"
         d="m 685.6,786.41 a 2,2 0 0 1 0.7,0.7 1.85,1.85 0 0 1 0.26,0.94 v 5.69 h -0.63 V 788 a 1.19,1.19 0 0 0 -0.38,-0.9 1.23,1.23 0 0 0 -0.9,-0.38 h -7.38 v 7 h -0.63 v -14.67 h 5.45 a 5.61,5.61 0 0 1 2.47,0.5 3.6,3.6 0 0 1 1.54,1.33 3.49,3.49 0 0 1 0.52,1.89 3.25,3.25 0 0 1 -0.34,1.55 3.34,3.34 0 0 1 -0.74,1 5.7,5.7 0 0 1 -0.87,0.63 v 0 0.21 a 1.8,1.8 0 0 1 0.93,0.25 z M 684,785.8 a 3.44,3.44 0 0 0 1.47,-1.08 3.29,3.29 0 0 0 0,-3.7 3.42,3.42 0 0 0 -1.47,-1.02 5.36,5.36 0 0 0 -1.86,-0.33 h -4.82 v 6.52 h 4.82 A 5.15,5.15 0 0 0 684,785.8 Z"
         id="path85" />
      <path
         class="cls-1"
         d="m 698.29,779.62 h -8 v 6.5 h 7.34 v 0.57 h -7.34 v 6.48 h 8 v 0.57 h -8.66 v -14.69 h 8.64 z"
         id="path86" />
      <path
         class="cls-1"
         d="m 709.7,789.84 a 3.85,3.85 0 0 1 -2.24,3.55 6.4,6.4 0 0 1 -3,0.6 6,6 0 0 1 -2.94,-0.64 4,4 0 0 1 -1.7,-1.64 4.3,4.3 0 0 1 -0.54,-2.08 H 700 a 3.79,3.79 0 0 0 0.47,1.81 3.61,3.61 0 0 0 1.51,1.43 5.5,5.5 0 0 0 2.6,0.55 5.74,5.74 0 0 0 2.57,-0.51 3.54,3.54 0 0 0 1.49,-1.33 3.5,3.5 0 0 0 0.47,-1.74 2.45,2.45 0 0 0 -0.56,-1.66 3.73,3.73 0 0 0 -1.42,-1 11.7,11.7 0 0 0 -2,-0.62 l -0.73,-0.14 -0.34,-0.07 a 14.36,14.36 0 0 1 -2.15,-0.53 3.52,3.52 0 0 1 -1.5,-1 3,3 0 0 1 -0.63,-2 3.68,3.68 0 0 1 2.1,-3.34 5.83,5.83 0 0 1 2.77,-0.58 6,6 0 0 1 2.81,0.58 3.7,3.7 0 0 1 2.12,3.34 V 783 h -0.63 v -0.26 a 3.19,3.19 0 0 0 -0.44,-1.6 3.3,3.3 0 0 0 -1.41,-1.26 5.34,5.34 0 0 0 -2.45,-0.49 5.15,5.15 0 0 0 -2.4,0.49 3.27,3.27 0 0 0 -1.4,1.26 3.19,3.19 0 0 0 -0.44,1.6 2.47,2.47 0 0 0 0.54,1.69 2.77,2.77 0 0 0 1.26,0.87 12.12,12.12 0 0 0 1.83,0.46 l 0.34,0.07 v 0 a 19.87,19.87 0 0 1 2.68,0.68 4.64,4.64 0 0 1 1.86,1.17 3,3 0 0 1 0.78,2.16 z"
         id="path87" />
      <path
         class="cls-1"
         d="m 721.37,779.92 a 6.5,6.5 0 0 1 2.08,2.86 10.3,10.3 0 0 1 0.65,3.64 10,10 0 0 1 -0.66,3.61 6.49,6.49 0 0 1 -2.08,2.85 5.64,5.64 0 0 1 -3.6,1.11 5.73,5.73 0 0 1 -3.61,-1.11 6.41,6.41 0 0 1 -2.08,-2.85 10.28,10.28 0 0 1 0,-7.25 6.5,6.5 0 0 1 2.08,-2.86 6.38,6.38 0 0 1 7.22,0 z M 721,792.4 a 6,6 0 0 0 1.88,-2.64 9.68,9.68 0 0 0 0,-6.71 6,6 0 0 0 -1.88,-2.64 4.91,4.91 0 0 0 -3.23,-1 5,5 0 0 0 -3.24,1 5.9,5.9 0 0 0 -1.89,2.64 9.63,9.63 0 0 0 -0.6,3.38 9.45,9.45 0 0 0 0.6,3.34 6,6 0 0 0 1.89,2.64 5.64,5.64 0 0 0 6.47,0 z"
         id="path88" />
      <path
         class="cls-1"
         d="m 736.17,779.05 h 0.68 l -5.65,14.69 h -1 l -5.65,-14.69 h 0.67 l 5.12,13.28 a 6.32,6.32 0 0 1 0.28,0.84 h 0.12 a 6.32,6.32 0 0 1 0.28,-0.84 z"
         id="path89" />
      <path
         class="cls-1"
         d="m 747.33,779.62 h -8 v 6.5 h 7.34 v 0.57 h -7.37 v 6.48 h 8 v 0.57 h -8.66 v -14.69 h 8.64 z m -4.21,-1.72 h -0.63 l 1.11,-2.2 h 0.63 z"
         id="path90" />
      <path
         class="cls-1"
         d="m 767.12,789.61 h 0.65 v 0.06 a 7.47,7.47 0 0 1 -1.23,2.22 5.53,5.53 0 0 1 -2,1.53 6.51,6.51 0 0 1 -2.8,0.57 5.89,5.89 0 0 1 -3.71,-1.12 6.66,6.66 0 0 1 -2.14,-2.87 10,10 0 0 1 -0.68,-3.65 9.78,9.78 0 0 1 0.68,-3.59 6.48,6.48 0 0 1 2.15,-2.85 6,6 0 0 1 3.7,-1.11 6.43,6.43 0 0 1 2.82,0.58 5.58,5.58 0 0 1 2,1.55 7.57,7.57 0 0 1 1.23,2.26 h -0.65 a 6.1,6.1 0 0 0 -2,-2.77 5.4,5.4 0 0 0 -3.42,-1 5.29,5.29 0 0 0 -3.35,1 5.78,5.78 0 0 0 -1.94,2.62 9.15,9.15 0 0 0 -0.61,3.33 9.41,9.41 0 0 0 0.61,3.38 5.86,5.86 0 0 0 1.94,2.65 5.23,5.23 0 0 0 3.35,1 5.38,5.38 0 0 0 3.35,-1 6.06,6.06 0 0 0 2,-2.67 z"
         id="path91" />
      <path
         class="cls-1"
         d="m 778.73,779.62 h -8 v 6.5 H 778 v 0.57 h -7.34 v 6.48 h 8 v 0.57 h -8.67 v -14.69 h 8.65 z"
         id="path92" />
      <path
         class="cls-1"
         d="m 791.16,790.8 v -11.75 h 0.63 v 14.69 h -1 l -9.19,-14.12 h -0.17 a 16.49,16.49 0 0 1 0.17,2.39 v 11.73 H 781 v -14.69 h 1 l 9.19,14.12 h 0.17 a 16.72,16.72 0 0 1 -0.2,-2.37 z"
         id="path93" />
      <path
         class="cls-1"
         d="M 803.84,779.62 H 799 v 14.12 h -0.63 v -14.12 h -4.77 v -0.57 h 10.24 z"
         id="path94" />
      <path
         class="cls-1"
         d="m 814.62,786.41 a 2,2 0 0 1 0.71,0.7 1.85,1.85 0 0 1 0.26,0.94 v 5.69 H 815 V 788 a 1.3,1.3 0 0 0 -1.28,-1.28 h -7.42 v 7 h -0.63 v -14.67 h 5.45 a 5.61,5.61 0 0 1 2.47,0.5 3.6,3.6 0 0 1 1.54,1.33 3.49,3.49 0 0 1 0.52,1.89 3.25,3.25 0 0 1 -0.34,1.55 3.34,3.34 0 0 1 -0.74,1 5.7,5.7 0 0 1 -0.87,0.63 v 0 0.21 a 1.74,1.74 0 0 1 0.92,0.25 z M 813,785.8 a 3.44,3.44 0 0 0 1.47,-1.08 3.29,3.29 0 0 0 0,-3.7 3.42,3.42 0 0 0 -1.47,-1.02 5.36,5.36 0 0 0 -1.86,-0.33 h -4.84 v 6.52 h 4.82 A 5.15,5.15 0 0 0 813,785.8 Z"
         id="path95" />
      <path
         class="cls-1"
         d="m 828.33,787.91 v -8.86 H 829 v 8.86 a 8.15,8.15 0 0 1 -0.49,2.75 5.34,5.34 0 0 1 -1.68,2.37 4.72,4.72 0 0 1 -3.07,1 4.62,4.62 0 0 1 -3.06,-1 5.34,5.34 0 0 1 -1.68,-2.37 7.92,7.92 0 0 1 -0.51,-2.73 v -8.86 h 0.63 v 8.86 a 7.18,7.18 0 0 0 0.49,2.63 4.61,4.61 0 0 0 1.52,2.08 4.66,4.66 0 0 0 5.22,0 4.68,4.68 0 0 0 1.52,-2.08 7.38,7.38 0 0 0 0.44,-2.65 z"
         id="path96" />
      <path
         class="cls-1"
         d="m 844.84,779.05 h 1.09 v 14.69 H 845.3 V 782 a 15.65,15.65 0 0 1 0.19,-2.39 h -0.21 l -5.71,14.12 h -1.09 l -5.7,-14.12 h -0.21 c 0,0.35 0.1,0.74 0.13,1.16 0.03,0.42 0.06,0.84 0.06,1.23 v 11.73 h -0.63 v -14.68 h 1.09 l 5.7,14.12 h 0.21 z"
         id="path97" />
      <path
         class="cls-1"
         d="m 854.81,793 v 0.14 h 9.31 v 0.57 h -9.69 v -0.86 l 8.79,-12.15 a 2.71,2.71 0 0 1 1,-0.94 v -0.17 h -9.36 v -0.57 h 9.69 v 0.86 L 855.81,792 a 3.27,3.27 0 0 1 -1,1 z"
         id="path98" />
      <path
         class="cls-1"
         d="m 867.35,793.17 h 7.34 v 0.57 h -8 v -14.69 h 0.63 z"
         id="path99" />
      <path
         class="cls-1"
         d="m 877.24,779.05 v 14.69 h -0.63 v -14.69 z m 0.06,-1.15 h -0.63 l 1.11,-2.2 h 0.63 z"
         id="path100" />
      <path
         class="cls-1"
         d="m 890.73,790.8 v -11.75 h 0.63 v 14.69 h -1 l -9.19,-14.12 H 881 a 18,18 0 0 1 0.17,2.39 v 11.73 h -0.63 v -14.69 h 1 l 9.18,14.12 h 0.17 a 18.35,18.35 0 0 1 -0.16,-2.37 z"
         id="path101" />
      <path
         class="cls-1"
         d="m 444.38,503.28 c 197.4,-2.69 398.8,-2.62 596.21,-0.31 l 19.24,0.31 -19.24,0.3 c -197.42,2.31 -398.81,2.38 -596.21,-0.3 z"
         id="path102" />
      <path
         class="cls-1"
         d="m 521.17,709.08 c 151.34,-2.69 305.78,-2.62 457.14,-0.3 l 14.74,0.3 -14.74,0.3 c -151.37,2.31 -305.79,2.38 -457.14,-0.3 z"
         id="path103" />
      <path
         class="cls-1"
         d="m 743.81,43.86 c 3.63,7.18 8,14.77 11.42,21.6 -3.36,-8 -5.85,-15.32 -8.94,-23 -1,-2.35 -1.93,-4.52 -1.79,-7.06 0.14,-2.54 1.22,-4.77 2.3,-7 l 3.53,-7.4 c 1.2,-2.54 3.21,-6.85 4.9,-10.51 2.74,5.94 5.67,12.16 8.43,17.89 l 0.89,1.84 a 11.48,11.48 0 0 1 1,8.66 c -3.52,9 -6.51,17.33 -10.3,26.56 C 758.67,58.63 763,51 766.64,43.85 l 1,-1.91 A 14.66,14.66 0 0 0 768,28.69 c -3.4,-7.92 -7.18,-16.5 -10.74,-24.31 l -2,-4.38 -2,4.38 c -3,6.63 -7.07,15.74 -10,22.43 l -0.8,1.87 a 14.54,14.54 0 0 0 0.34,13.26 z"
         id="path104" />
      <path
         class="cls-1"
         d="m 797,45.35 c -7,-3.48 -15,-2.68 -22,2.2 -12.81,8.9 -15,20.08 -14.61,27.9 0,0.24 0,0.47 0,0.7 -1.57,-0.07 -3.14,-0.11 -4.72,-0.12 -0.4,-4.11 -0.45,-7.47 -0.45,-7.47 0,0 -0.05,3.36 -0.45,7.47 -1.57,0 -3.15,0 -4.72,0.12 0,-0.23 0,-0.46 0,-0.7 0.41,-7.82 -1.79,-19 -14.61,-27.9 -7,-4.88 -15,-5.68 -22,-2.2 -5.91,2.95 -9.88,8.67 -10.1,14.56 -0.22,5.89 3.19,11.29 9.54,15.09 l 4,2.38 -0.73,-4.6 c 0,-0.06 -0.93,-6.19 2.22,-9.78 1.65,-1.9 4.25,-2.83 7.75,-2.74 9.76,0.22 17.29,5.11 19.7,12.79 a 29.43,29.43 0 0 1 -0.12,3.42 58.35,58.35 0 0 0 -6.26,0.93 59.46,59.46 0 0 0 6,0.9 33.47,33.47 0 0 1 -2.07,7.47 27.27,27.27 0 0 0 -6.88,-5.44 c -3.58,-2 -8.58,-1.4 -9.52,3.19 a 7.17,7.17 0 0 0 2.39,6.69 7.45,7.45 0 0 0 3.2,1.57 9.59,9.59 0 0 0 3.5,0.1 c -4.81,0.48 -9.2,-3.2 -8,-8.11 1,-3.54 4.91,-3.55 7.53,-1.77 6.57,4.33 12.35,14.29 16.3,22 a 12.08,12.08 0 0 0 -2.89,5.68 c -1,4.41 -2.84,5 -2.84,5 a 10.35,10.35 0 0 0 5.35,-2.4 v 0 a 8.86,8.86 0 0 0 3.71,8.27 8.86,8.86 0 0 0 3.71,-8.27 v 0 a 10.33,10.33 0 0 0 5.36,2.41 c 0,0 -1.81,-0.6 -2.83,-5 a 12.16,12.16 0 0 0 -2.9,-5.69 c 4.14,-8.06 12,-21.69 19.21,-23.12 7.43,-0.78 6.29,11.8 -3.4,11 5.11,0.92 10,-2.91 9.09,-8.36 -0.94,-4.59 -6,-5.2 -9.52,-3.19 A 30,30 0 0 0 767,85.75 33.7,33.7 0 0 1 765,78.3 c 2,-0.21 4,-0.5 6,-0.91 a 61,61 0 0 0 -6.26,-0.94 29.08,29.08 0 0 1 -0.12,-3.4 c 2.41,-7.69 9.94,-12.58 19.7,-12.8 3.48,-0.08 6.1,0.84 7.75,2.74 3.15,3.59 2.23,9.72 2.22,9.77 l -0.76,4.63 4,-2.4 c 6.35,-3.79 9.73,-9.15 9.51,-15.08 C 806.82,53.98 802.9,48.3 797,45.35 Z m -70.79,10.54 c -4.86,-0.11 -8.61,1.32 -11.15,4.25 a 15,15 0 0 0 -3.32,8.6 11.26,11.26 0 0 1 -4,-8.67 c 0.17,-4.32 3.18,-8.57 7.69,-10.82 a 15.56,15.56 0 0 1 7,-1.66 18.59,18.59 0 0 1 10.57,3.55 31,31 0 0 1 9.53,10 27.71,27.71 0 0 0 -16.32,-5.25 z m 37.64,33.4 a 110.6,110.6 0 0 0 -8.61,12.2 c -0.59,-1 -1.2,-1.9 -1.82,-2.85 a 103.83,103.83 0 0 0 -6.82,-9.31 38.3,38.3 0 0 0 3.19,-10.72 c 1.56,0.07 3.12,0.11 4.69,0.13 -0.62,4.74 -1.72,9.68 -3.71,11.34 0,0 4.46,3 4.46,7.24 0,-4.25 4.46,-7.24 4.46,-7.24 -2,-1.66 -3.09,-6.6 -3.71,-11.34 1.57,0 3.13,0 4.69,-0.13 a 38.1,38.1 0 0 0 3.18,10.68 z m 34.87,-20.55 a 15,15 0 0 0 -3.32,-8.6 c -2.45,-2.83 -6,-4.26 -10.65,-4.26 h -0.5 a 27.71,27.71 0 0 0 -16.32,5.28 31,31 0 0 1 9.53,-10 c 5.68,-4 12.09,-4.63 17.58,-1.89 4.51,2.25 7.53,6.5 7.69,10.82 a 11.19,11.19 0 0 1 -4.01,8.65 z"
         id="path105" />
    </g>
  </g>
</svg>
