<svg width="486" height="64" viewBox="0 0 486 64" fill="none" xmlns="http://www.w3.org/2000/svg">
<path d="M34.9456 0.141538L0 11.8986V0H34.9456V0.141538ZM0.141538 13.6961C0.141538 15.3946 2.92983 16.9562 6.23237 16.9562C7.45903 16.9562 8.63851 16.7203 9.63399 16.39C10.6719 16.0598 43.2114 4.68017 43.2114 4.68017V51.4253C43.2114 51.4253 10.4832 62.8568 9.58681 63.1871C8.64322 63.5173 7.27503 63.7532 6.18519 63.7532C2.83547 63.7532 0 62.0548 0 59.0306V13.6961H0.141538Z" fill="#F37222"/>
<path d="M86.8665 31.2137C86.8665 38.9605 83.8895 43.2114 76.3314 43.2114C68.778 43.2114 65.6594 38.9605 65.6594 31.2137V8.92627H70.1462V31.025C70.1462 36.2666 71.6134 38.9605 76.3314 38.9605C81.054 38.9605 82.375 36.2713 82.375 31.025V8.92627H86.8617V31.2137H86.8665Z" fill="black"/>
<path d="M106.068 28.3358C106.068 25.7881 104.653 24.0378 102.148 24.0378C99.2178 24.0378 97.708 25.8353 97.708 28.383V42.9755H93.4619V20.4946H97.7128V22.3818C98.5148 21.4382 100.171 20.254 102.86 20.254C107.252 20.254 110.324 23.231 110.324 28.2367V42.9708H106.073V28.3358H106.068Z" fill="black"/>
<path d="M119.042 16.2438C117.25 16.2438 116.259 15.3003 116.259 13.6018C116.259 11.809 117.25 10.9126 119.042 10.9126C120.793 10.9126 121.831 11.809 121.831 13.6018C121.831 15.3946 120.793 16.2438 119.042 16.2438ZM121.17 20.4947V42.9756H116.919V20.4947H121.17Z" fill="black"/>
<path d="M124.468 20.4946H129.191L134.763 37.3046L140.287 20.4946H145.01L136.791 42.9755H132.682L124.468 20.4946Z" fill="black"/>
<path d="M150.53 33.4358C151.002 37.5451 153.365 39.1964 156.243 39.1964C159.499 39.1964 161.438 38.3943 163.089 37.5451L163.844 41.6544C161.815 42.598 159.734 43.2113 156.196 43.2113C150.53 43.2113 145.949 39.7154 145.949 31.9261C145.949 24.3255 150.2 20.2587 155.536 20.2587C161.631 20.2587 164.981 24.6039 164.981 31.1712V33.4405H150.53V33.4358ZM160.494 30.0342C160.494 26.1136 158.555 24.033 155.536 24.033C153.224 24.033 151.002 25.354 150.53 30.0342H160.494Z" fill="black"/>
<path d="M180.031 25.1701C179.512 24.9342 178.568 24.6039 177.384 24.6039C175.591 24.6039 174.412 26.0712 174.412 28.383V42.9755H170.161V20.4946H174.412V23.0423C175.119 21.5798 176.252 20.254 178.521 20.254C179.375 20.254 180.177 20.4899 180.602 20.6786L180.031 25.1701Z" fill="black"/>
<path d="M199.195 42.9755H182.48L193.199 24.0378H182.952V20.4994H199.719L189.472 39.2012H199.2V42.9755H199.195Z" fill="black"/>
<path d="M206.078 16.2438C204.286 16.2438 203.295 15.3003 203.295 13.6018C203.295 11.809 204.286 10.9126 206.078 10.9126C207.829 10.9126 208.867 11.809 208.867 13.6018C208.867 15.3946 207.829 16.2438 206.078 16.2438ZM208.206 20.4947V42.9756H203.955V20.4947H208.206Z" fill="black"/>
<path d="M225.63 42.4565C224.875 42.834 223.879 43.2114 221.945 43.2114C219.35 43.2114 216.326 42.2207 216.326 37.3093V24.0378H213.396V20.4994H216.326V11.7571L220.577 11.2853V20.4947H224.261V24.0331H220.577V37.3046C220.577 38.9087 221.426 39.3805 222.369 39.3805C223.455 39.3805 224.257 39.0502 225.063 38.6728L225.63 42.4565Z" fill="black"/>
<path d="M241.439 40.9892C240.732 41.7912 239.217 43.2113 236.051 43.2113C231.187 43.2113 228.451 40.6589 228.451 36.0354C228.451 31.2656 231.758 28.7132 236.198 28.7132C238.557 28.7132 240.543 29.6096 241.439 30.5579V27.8168C241.439 25.1276 239.642 24.1368 237.283 24.1368C234.636 24.1368 232.272 24.986 230.999 25.505L230.527 21.6316C231.895 21.1126 234.117 20.2587 237.75 20.2587C242.803 20.2587 245.685 22.9054 245.685 27.8168V42.9754H241.439V40.9892ZM241.439 35.3702C241.439 33.6245 239.312 32.445 237.047 32.445C234.83 32.445 232.938 33.3886 232.938 36.0354C232.938 38.4415 234.966 39.3379 237.047 39.3379C239.505 39.3379 241.439 37.7338 241.439 36.125V35.3702Z" fill="black"/>
<path d="M269.52 42.9755V13.1771H261.255V8.92627H282.268V13.1771H274.007V42.9755H269.52Z" fill="black"/>
<path d="M290.86 43.2114C285.382 43.2114 280.612 40.0457 280.612 31.7327C280.612 23.4197 285.571 20.254 290.86 20.254C296.196 20.254 301.107 23.4197 301.107 31.7327C301.107 40.0457 296.29 43.2114 290.86 43.2114ZM290.86 24.0378C287.505 24.0378 285.094 26.6845 285.094 31.7374C285.094 36.6016 287.6 39.2012 290.86 39.2012C294.162 39.2012 296.62 36.6063 296.62 31.7374C296.62 26.6798 294.209 24.0378 290.86 24.0378Z" fill="black"/>
<path d="M331.509 28.3358C331.509 25.7881 330.093 24.0378 327.588 24.0378C324.658 24.0378 323.149 25.8353 323.149 28.383V42.9755H318.903V28.3358C318.903 25.7881 317.482 24.0378 314.982 24.0378C312.052 24.0378 310.542 25.8353 310.542 28.383V42.9755H306.292V20.4946H310.542V22.3818C311.344 21.4382 313 20.254 315.69 20.254C318.473 20.254 320.695 21.4382 321.969 23.5613C323.149 21.8628 325.225 20.254 328.296 20.254C332.688 20.254 335.755 23.231 335.755 28.2367V42.9708H331.504V28.3358H331.509Z" fill="black"/>
<path d="M353.919 40.9893C353.211 41.7913 351.702 43.2114 348.536 43.2114C343.672 43.2114 340.931 40.659 340.931 36.0354C340.931 31.2656 344.238 28.7132 348.677 28.7132C351.041 28.7132 353.023 29.6096 353.919 30.5579V27.8168C353.919 25.1276 352.126 24.1369 349.763 24.1369C347.116 24.1369 344.757 24.9861 343.483 25.5051L343.011 21.6316C344.384 21.1127 346.602 20.2587 350.239 20.2587C355.292 20.2587 358.175 22.9055 358.175 27.8168V42.9755H353.924V40.9893H353.919ZM353.919 35.3702C353.919 33.6246 351.796 32.4451 349.527 32.4451C347.305 32.4451 345.417 33.3887 345.417 36.0354C345.417 38.4416 347.451 39.338 349.527 39.338C351.985 39.338 353.919 37.7339 353.919 36.1251V35.3702ZM351.041 9.86987H355.811L351.376 17.3336H348.022L351.041 9.86987Z" fill="black"/>
<path d="M370.767 43.2114C367.224 43.2114 364.77 42.2206 363.402 41.6026L364.157 37.5876C365.95 38.4369 368.215 39.1917 370.767 39.1917C372.748 39.1917 374.636 38.6256 374.636 36.5969C374.636 34.5635 372.465 34.0445 370.054 33.4312C366.936 32.6291 363.35 31.6383 363.35 26.9629C363.35 22.429 366.511 20.254 371.8 20.254C374.919 20.254 377.136 20.9617 378.651 21.575L377.943 25.5428C376.193 24.7407 374.494 24.0331 371.899 24.0331C369.347 24.0331 367.79 24.887 367.79 26.9157C367.79 28.5198 369.635 29.0435 371.805 29.6568C375.112 30.5532 379.221 31.5912 379.221 36.5025C379.221 40.8005 376.716 43.2114 370.767 43.2114ZM364.629 9.86987H368.408L371.291 14.0735L374.173 9.86987H377.952L373.56 17.3336H369.026L364.629 9.86987Z" fill="black"/>
<path d="M387.567 33.4358C388.044 37.5451 390.403 39.1964 393.281 39.1964C396.541 39.1964 398.475 38.3943 400.131 37.5451L400.886 41.6544C398.853 42.598 396.777 43.2113 393.234 43.2113C387.567 43.2113 382.986 39.7154 382.986 31.9261C382.986 24.3255 387.237 20.2587 392.573 20.2587C398.664 20.2587 402.018 24.6039 402.018 31.1712V33.4405H387.567V33.4358ZM397.532 30.0342C397.532 26.1136 395.597 24.033 392.573 24.033C390.257 24.033 388.039 25.354 387.563 30.0342H397.532Z" fill="black"/>
<path d="M427.505 42.9755H418.059V8.92627H428.212C434.492 8.92627 438.177 12.3751 438.177 17.9941C438.177 21.8675 436.148 23.9906 433.312 25.3635C436.379 26.642 438.412 29.5672 438.412 33.2047C438.412 39.338 434.209 42.9755 427.505 42.9755ZM428.259 13.1771H422.546V23.2829H427.646C431.137 23.2829 433.454 21.5844 433.454 18.23C433.454 14.7812 431.284 13.1771 428.259 13.1771ZM427.646 27.5337H422.546V38.7246H427.646C431.189 38.7246 433.69 36.7903 433.69 33.2943C433.69 29.6568 431.137 27.5337 427.646 27.5337Z" fill="black"/>
<path d="M455.638 40.9892C454.93 41.7912 453.42 43.2113 450.254 43.2113C445.39 43.2113 442.649 40.6589 442.649 36.0354C442.649 31.2656 445.956 28.7132 450.396 28.7132C452.76 28.7132 454.741 29.6096 455.638 30.5579V27.8168C455.638 25.1276 453.845 24.1368 451.481 24.1368C448.834 24.1368 446.475 24.986 445.202 25.505L444.73 21.6316C446.098 21.1126 448.32 20.2587 451.958 20.2587C457.01 20.2587 459.893 22.9054 459.893 27.8168V42.9754H455.642V40.9892H455.638ZM455.638 35.3702C455.638 33.6245 453.515 32.445 451.245 32.445C449.023 32.445 447.136 33.3886 447.136 36.0354C447.136 38.4415 449.169 39.3379 451.245 39.3379C453.703 39.3379 455.638 37.7338 455.638 36.125V35.3702Z" fill="black"/>
<path d="M476.354 42.4565C475.599 42.834 474.608 43.2114 472.674 43.2114C470.074 43.2114 467.055 42.2207 467.055 37.3093V24.0378H464.125V20.4994H467.055V11.7571L471.306 11.2853V20.4947H474.99V24.0331H471.306V37.3046C471.306 38.9087 472.155 39.3805 473.098 39.3805C474.184 39.3805 474.986 39.0502 475.788 38.6728L476.354 42.4565Z" fill="black"/>
<path d="M482.723 16.2438C480.93 16.2438 479.939 15.3003 479.939 13.6018C479.939 11.809 480.93 10.9126 482.723 10.9126C484.473 10.9126 485.511 11.809 485.511 13.6018C485.511 15.3946 484.473 16.2438 482.723 16.2438ZM484.851 20.4947V42.9756H480.6V20.4947H484.851Z" fill="black"/>
</svg>
